<svg width="500" height="500" viewBox="0 0 500 500" fill="none" xmlns="http://www.w3.org/2000/svg">
<rect width="500" height="500" fill="#DFB8F1"/>
<path d="M342 355.236C342 373.884 299.691 389 247.5 389C195.309 389 153 373.884 153 355.236C153 309.248 195.309 321.473 247.5 321.473C299.691 321.473 342 310.878 342 355.236Z" fill="#212121"/>
<path d="M204.564 360.29C202.125 386.037 196.449 437.142 164.662 429.164C147.304 422.007 150.5 396.245 152.94 370.498C155.379 344.75 154.631 319.458 183.43 332.58C199.104 334.189 207.004 334.543 204.564 360.29Z" fill="#212121"/>
<path d="M290.452 360.29C292.982 386.037 298.868 437.142 331.831 429.164C349.833 422.007 346.518 396.245 343.988 370.498C341.458 344.751 342.235 319.458 312.369 332.58C296.115 334.189 287.922 334.543 290.452 360.29Z" fill="#212121"/>
<path d="M214.5 407C226.926 407 237 398.27 237 387.5C237 376.73 226.926 368 214.5 368C202.074 368 192 376.73 192 387.5C192 398.27 202.074 407 214.5 407Z" fill="#212121"/>
<path d="M280 407C292.703 407 303 398.27 303 387.5C303 376.73 292.703 368 280 368C267.297 368 257 376.73 257 387.5C257 398.27 267.297 407 280 407Z" fill="#212121"/>
<path d="M216 328C216 336.837 205.927 344 193.5 344C181.074 344 171 336.837 171 328C171 312 181.074 312 193.5 312C205.927 312 216 312 216 328Z" fill="#212121"/>
<path d="M325 328C325 336.837 315.15 344 303 344C290.85 344 281 336.837 281 328C281 312 290.85 312 303 312C315.15 312 325 312 325 328Z" fill="#212121"/>
<path fill-rule="evenodd" clip-rule="evenodd" d="M196.5 325.872C183.998 325.872 173.868 336.006 173.868 348.5C173.868 360.994 183.998 371.128 196.5 371.128C209.002 371.128 219.132 360.994 219.132 348.5C219.132 336.006 209.002 325.872 196.5 325.872ZM171 348.5C171 334.414 182.419 323 196.5 323C210.581 323 222 334.414 222 348.5C222 362.586 210.581 374 196.5 374C182.419 374 171 362.586 171 348.5Z" fill="#DADADA"/>
<path fill-rule="evenodd" clip-rule="evenodd" d="M300.5 325.872C287.998 325.872 277.868 336.006 277.868 348.5C277.868 360.994 287.998 371.128 300.5 371.128C313.002 371.128 323.132 360.994 323.132 348.5C323.132 336.006 313.002 325.872 300.5 325.872ZM275 348.5C275 334.414 286.419 323 300.5 323C314.581 323 326 334.414 326 348.5C326 362.586 314.581 374 300.5 374C286.419 374 275 362.586 275 348.5Z" fill="#DADADA"/>
<path d="M204 337.827C204 334.609 200.866 332 197 332C193.134 332 190 334.609 190 337.827V357.173C190 360.391 193.134 363 197 363C200.866 363 204 360.391 204 357.173V337.827Z" fill="#DADADA"/>
<path d="M187.015 342C183.693 342 181 344.686 181 348C181 351.314 183.693 354 187.015 354H206.985C210.307 354 213 351.314 213 348C213 344.686 210.307 342 206.985 342H187.015Z" fill="#DADADA"/>
<path d="M233.387 361C231.516 361 230 362.567 230 364.5C230 366.433 231.516 368 233.387 368H240.613C242.484 368 244 366.433 244 364.5C244 362.567 242.484 361 240.613 361H233.387Z" fill="#DADADA"/>
<path d="M255.387 361C253.516 361 252 362.567 252 364.5C252 366.433 253.516 368 255.387 368H262.613C264.484 368 266 366.433 266 364.5C266 362.567 264.484 361 262.613 361H255.387Z" fill="#DADADA"/>
<path d="M301 341C303.761 341 306 338.314 306 335C306 331.686 303.761 329 301 329C298.239 329 296 331.686 296 335C296 338.314 298.239 341 301 341Z" fill="#DADADA"/>
<path d="M314 354C317.314 354 320 351.314 320 348C320 344.686 317.314 342 314 342C310.686 342 308 344.686 308 348C308 351.314 310.686 354 314 354Z" fill="#DADADA"/>
<path d="M301 365C303.761 365 306 362.761 306 360C306 357.239 303.761 355 301 355C298.239 355 296 357.239 296 360C296 362.761 298.239 365 301 365Z" fill="#DADADA"/>
<path d="M217 401C224.18 401 230 394.956 230 387.5C230 380.044 224.18 374 217 374C209.82 374 204 380.044 204 387.5C204 394.956 209.82 401 217 401Z" fill="#DADADA"/>
<path d="M279 401C286.732 401 293 394.956 293 387.5C293 380.044 286.732 374 279 374C271.268 374 265 380.044 265 387.5C265 394.956 271.268 401 279 401Z" fill="#DADADA"/>
<path d="M287.5 354C290.538 354 293 351.314 293 348C293 344.686 290.538 342 287.5 342C284.462 342 282 344.686 282 348C282 351.314 284.462 354 287.5 354Z" fill="#DADADA"/>
<path d="M364 183C364 245.408 314.08 296 252.5 296C190.92 296 141 245.408 141 183C141 120.592 190.92 70 252.5 70C314.08 70 364 120.592 364 183Z" fill="#A35D45"/>
<path d="M323 270.506C314.422 279.793 286.186 296 252.589 296C216.669 296 191.114 279.429 182 270.506C182 255.923 213.631 192.204 252.589 204.586C295.3 193.296 323 255.923 323 270.506Z" fill="#DADADA"/>
<path fill-rule="evenodd" clip-rule="evenodd" d="M253.056 236.629C253.619 232.528 253.389 228.179 252.751 224.445L255.337 224C256.011 227.941 256.263 232.566 255.655 236.988C255.049 241.398 253.571 245.723 250.677 248.926C247.742 252.176 243.468 254.139 237.584 253.992C231.755 253.847 224.351 251.635 215 246.623L216.237 244.302C225.405 249.216 232.392 251.23 237.65 251.362C242.853 251.491 246.363 249.782 248.732 247.159C251.143 244.49 252.49 240.743 253.056 236.629Z" fill="#212121"/>
<path fill-rule="evenodd" clip-rule="evenodd" d="M255.729 236.629C255.206 232.528 255.42 228.179 256.012 224.445L253.614 224C252.99 227.941 252.756 232.566 253.319 236.988C253.881 241.398 255.252 245.723 257.933 248.926C260.654 252.176 264.615 254.139 270.068 253.992C275.471 253.847 282.333 251.635 291 246.623L289.854 244.302C281.357 249.216 274.881 251.23 270.008 251.362C265.185 251.491 261.932 249.782 259.736 247.159C257.501 244.49 256.253 240.743 255.729 236.629Z" fill="#212121"/>
<path d="M148.138 231.427C145.965 203.959 177.591 119.064 203 83C194.007 83 187.28 86.2865 167.693 88.3649C145.784 90.6897 130.677 133.687 109.934 154.174C92.1897 171.699 81.1449 184.932 114.642 219.267C141.439 246.735 122.91 228.268 124.6 226.599C129.79 238.044 150.311 258.895 148.138 231.427Z" fill="#7B4735"/>
<path fill-rule="evenodd" clip-rule="evenodd" d="M189.336 84.9816C184.056 86.0704 177.432 87.4235 167.575 88.4714C162.252 89.0374 157.29 92.0849 152.491 96.75C147.695 101.413 143.113 107.642 138.546 114.475C136.337 117.779 134.136 121.218 131.918 124.684L131.698 125.028C129.407 128.608 127.097 132.213 124.746 135.712C120.048 142.708 115.172 149.31 109.928 154.499C100.994 163.34 93.938 170.937 93.1614 180.553C92.3864 190.151 97.8663 201.959 114.66 219.207C118.678 223.333 121.678 226.426 123.883 228.699C124.026 228.846 124.165 228.99 124.301 229.13C124.171 228.905 124.055 228.688 123.957 228.484C123.802 228.159 123.677 227.834 123.629 227.539C123.584 227.264 123.582 226.866 123.878 226.573L124.437 226.019L124.761 226.734C126.038 229.557 128.273 232.984 130.88 236.11C133.49 239.24 136.438 242.024 139.125 243.593C140.469 244.378 141.71 244.836 142.784 244.91C143.836 244.983 144.732 244.69 145.459 243.949C146.206 243.187 146.822 241.904 147.177 239.911C147.531 237.924 147.617 235.28 147.346 231.853C146.794 224.855 148.388 214.269 151.457 201.806C154.531 189.326 159.098 174.911 164.529 160.231C175.217 131.342 189.27 101.374 201.907 83.0942C197.934 83.2083 194.293 83.9591 189.518 84.944L189.336 84.9816ZM128.659 235.071C128.651 235.067 128.645 235.063 128.64 235.06C128.569 235.015 128.492 234.947 128.434 234.893C128.166 234.648 127.573 234.051 126.546 232.998C125.715 232.146 124.588 230.984 123.099 229.449C120.892 227.173 117.889 224.078 113.875 219.955C97.0472 202.673 91.2593 190.562 92.0745 180.467C92.8882 170.39 100.281 162.52 109.157 153.736C114.323 148.624 119.15 142.095 123.838 135.115C126.181 131.627 128.485 128.032 130.777 124.451L130.999 124.103C133.215 120.64 135.421 117.193 137.636 113.879C142.212 107.034 146.845 100.726 151.727 95.9802C156.607 91.236 161.787 88.0016 167.459 87.3985C177.262 86.3563 183.845 85.0116 189.113 83.9252L189.354 83.8756C194.499 82.8143 198.447 82 202.956 82H204L203.404 82.8477C190.691 100.926 176.398 131.288 165.553 160.602C160.132 175.254 155.579 189.63 152.517 202.061C149.451 214.509 147.895 224.954 148.433 231.769C148.708 235.247 148.627 237.99 148.251 240.099C147.877 242.202 147.201 243.723 146.242 244.7C145.264 245.697 144.04 246.079 142.708 245.987C141.399 245.896 139.991 245.352 138.571 244.523C135.73 242.863 132.688 239.973 130.039 236.797C129.566 236.231 129.105 235.654 128.659 235.071ZM124.698 227.256C124.698 227.256 124.698 227.258 124.697 227.261C124.698 227.258 124.698 227.256 124.698 227.256Z" fill="#A35D45"/>
<path d="M354.363 232.343C356.516 204.706 325.178 119.286 300 83C308.911 83 315.577 86.3068 334.986 88.3981C356.696 90.7372 371.666 134 392.22 154.613C409.803 172.246 420.747 185.561 387.555 220.108C361.002 247.746 379.362 229.165 377.687 227.485C372.544 239.001 352.21 259.981 354.363 232.343Z" fill="#7B4735"/>
<path fill-rule="evenodd" clip-rule="evenodd" d="M313.402 84.9816C318.588 86.0704 325.093 87.4235 334.774 88.4714C340.002 89.0374 344.876 92.0849 349.589 96.75C354.3 101.413 358.8 107.642 363.285 114.475C365.455 117.779 367.616 121.218 369.795 124.684L370.011 125.028C372.261 128.608 374.53 132.213 376.838 135.712C381.453 142.708 386.241 149.31 391.392 154.499C400.167 163.34 407.097 170.937 407.859 180.553C408.621 190.151 403.238 201.959 386.744 219.207C382.799 223.333 379.852 226.426 377.686 228.699C377.546 228.846 377.409 228.99 377.276 229.13C377.404 228.905 377.518 228.688 377.613 228.484C377.766 228.159 377.888 227.834 377.936 227.539C377.98 227.264 377.982 226.866 377.691 226.573L377.142 226.019L376.824 226.734C375.569 229.557 373.375 232.984 370.814 236.11C368.25 239.24 365.355 242.024 362.716 243.593C361.396 244.378 360.178 244.836 359.123 244.91C358.09 244.983 357.21 244.69 356.495 243.949C355.762 243.187 355.157 241.904 354.808 239.911C354.461 237.924 354.377 235.28 354.642 231.853C355.185 224.855 353.619 214.269 350.604 201.806C347.585 189.326 343.1 174.911 337.766 160.231C327.269 131.342 313.467 101.374 301.055 83.0942C304.958 83.2083 308.533 83.9591 313.223 84.944L313.402 84.9816ZM372.996 235.071C373.003 235.067 373.01 235.063 373.014 235.06C373.084 235.015 373.159 234.947 373.217 234.893C373.48 234.648 374.062 234.051 375.071 232.998C375.887 232.146 376.994 230.984 378.456 229.449C380.624 227.173 383.574 224.078 387.516 219.955C404.043 202.673 409.727 190.562 408.927 180.467C408.128 170.39 400.867 162.52 392.149 153.736C387.076 148.624 382.334 142.095 377.73 135.115C375.43 131.627 373.167 128.032 370.916 124.451L370.697 124.103C368.521 120.64 366.354 117.193 364.179 113.879C359.685 107.034 355.134 100.726 350.339 95.9802C345.546 91.236 340.459 88.0016 334.888 87.3985C325.26 86.3563 318.795 85.0116 313.621 83.9252L313.384 83.8756C308.331 82.8143 304.454 82 300.025 82H299L299.585 82.8477C312.071 100.926 326.109 131.288 336.76 160.602C342.084 175.254 346.557 189.63 349.564 202.061C352.575 214.509 354.103 224.954 353.575 231.769C353.305 235.247 353.385 237.99 353.753 240.099C354.121 242.202 354.785 243.723 355.727 244.7C356.687 245.697 357.889 246.079 359.197 245.987C360.483 245.896 361.866 245.352 363.261 244.523C366.051 242.863 369.039 239.973 371.64 236.797C372.104 236.231 372.557 235.654 372.996 235.071ZM376.886 227.256C376.886 227.256 376.886 227.258 376.887 227.261C376.886 227.258 376.886 227.256 376.886 227.256Z" fill="#A35D45"/>
<path d="M240.539 148.968C243.851 164.369 245.185 190.867 243.805 202.202L253.9 206L263 203.641C259.492 193.186 255.593 170.942 255.593 167.679C255.593 163.701 253.147 131.517 255.593 118.023C258.04 104.53 259.989 76.8033 257.543 74.1047C255.096 71.406 250.203 74.1047 245.499 77.343C241.49 80.1023 236.398 129.718 240.539 148.968Z" fill="#DADADA"/>
<path fill-rule="evenodd" clip-rule="evenodd" d="M252.41 73.542C250.475 74.2558 248.249 75.6993 246.018 77.3158C245.898 77.403 245.703 77.6493 245.466 78.155C245.239 78.6397 245.003 79.2942 244.763 80.1094C244.282 81.7378 243.801 83.9527 243.339 86.6117C242.416 91.9261 241.58 98.965 240.984 106.525C239.792 121.667 239.573 138.802 241.521 148.338C244.638 163.59 245.917 189.679 244.675 201.287L253.711 204.865L261.639 202.702C260.014 197.434 258.324 189.542 257.027 182.512C256.355 178.872 255.788 175.455 255.388 172.742C254.99 170.048 254.752 168.005 254.752 167.142C254.752 166.349 254.657 164.4 254.524 161.663C254.493 161.028 254.46 160.35 254.426 159.635C254.244 155.849 254.026 151.031 253.881 145.915C253.591 135.702 253.588 124.237 254.759 117.434C255.916 110.72 256.957 100.446 257.419 91.5114C257.65 87.0446 257.735 82.9252 257.619 79.7607C257.561 78.177 257.453 76.8458 257.291 75.8351C257.21 75.3295 257.117 74.916 257.015 74.5968C256.91 74.2677 256.808 74.0827 256.733 73.9956C255.798 72.9107 254.358 72.8232 252.41 73.542ZM252.041 72.5293C254.112 71.765 256.155 71.6775 257.543 73.2892C257.758 73.5391 257.914 73.8866 258.035 74.2661C258.16 74.6555 258.263 75.1269 258.349 75.6632C258.521 76.7365 258.632 78.1174 258.69 79.7209C258.808 82.9307 258.721 87.0857 258.49 91.5674C258.026 100.53 256.981 110.85 255.816 117.618C254.665 124.297 254.662 135.654 254.952 145.884C255.097 150.99 255.315 155.799 255.496 159.583C255.53 160.289 255.563 160.96 255.593 161.592C255.727 164.332 255.823 166.32 255.823 167.142C255.823 167.909 256.047 169.867 256.448 172.584C256.846 175.282 257.411 178.686 258.081 182.316C259.422 189.582 261.175 197.722 262.829 202.911L263 203.448L253.649 206L243.517 201.987L243.565 201.575C244.867 190.315 243.606 163.895 240.472 148.555C238.49 138.855 238.723 121.585 239.916 106.44C240.513 98.8577 241.353 91.7835 242.283 86.426C242.748 83.7489 243.238 81.4881 243.735 79.8025C243.983 78.9606 244.237 78.2485 244.497 77.6947C244.747 77.1619 245.036 76.6978 245.392 76.4404C247.627 74.8212 249.956 73.2985 252.041 72.5293Z" fill="#DADADA"/>
<path d="M257.959 223.815C255.334 226.728 250.666 226.728 248.041 223.815L240.649 215.613C236.658 211.184 240.426 204.314 246.439 205.055L252.17 205.762C252.721 205.83 253.279 205.83 253.83 205.762L259.561 205.055C265.574 204.314 269.342 211.184 265.351 215.613L257.959 223.815Z" fill="#212121"/>
<path d="M221 163C221 172.389 213.389 180 204 180C194.611 180 187 172.389 187 163C187 153.611 194.611 146 204 146C213.389 146 221 153.611 221 163Z" fill="#212121"/>
<path d="M215 163C215 166.866 212.09 170 208.5 170C204.91 170 202 166.866 202 163C202 159.134 204.91 156 208.5 156C212.09 156 215 159.134 215 163Z" fill="#DADADA"/>
<path d="M283 164C283 173.389 290.835 181 300.5 181C310.165 181 318 173.389 318 164C318 154.611 310.165 147 300.5 147C290.835 147 283 154.611 283 164Z" fill="#212121"/>
<path d="M289 164C289 167.866 292.134 171 296 171C299.866 171 303 167.866 303 164C303 160.134 299.866 157 296 157C292.134 157 289 160.134 289 164Z" fill="#DADADA"/>
</svg>
