<svg width="500" height="500" viewBox="0 0 500 500" fill="none" xmlns="http://www.w3.org/2000/svg">
<rect width="500" height="500" fill="#EED78C"/>
<path d="M364 182C364 244.408 313.856 295 252 295C190.144 295 140 244.408 140 182C140 119.592 190.144 69 252 69C313.856 69 364 119.592 364 182Z" fill="#A35D45"/>
<path d="M324 269.78C315.3 278.967 286.664 295 252.591 295C216.161 295 190.243 278.607 181 269.78C181 255.354 213.08 192.32 252.591 204.569C295.907 193.4 324 255.354 324 269.78Z" fill="#DADADA"/>
<path fill-rule="evenodd" clip-rule="evenodd" d="M252.199 236.208C252.736 232.243 252.516 228.04 251.909 224.43L254.369 224C255.01 227.81 255.25 232.281 254.672 236.555C254.096 240.818 252.689 244.999 249.937 248.095C247.145 251.237 243.079 253.135 237.483 252.993C231.938 252.852 224.895 250.714 216 245.869L217.177 243.626C225.897 248.375 232.544 250.323 237.545 250.449C242.494 250.575 245.833 248.923 248.087 246.388C250.38 243.807 251.661 240.185 252.199 236.208Z" fill="#212121"/>
<path fill-rule="evenodd" clip-rule="evenodd" d="M254.801 236.208C254.264 232.243 254.484 228.04 255.091 224.43L252.631 224C251.99 227.81 251.75 232.281 252.328 236.555C252.904 240.818 254.311 244.999 257.063 248.095C259.855 251.237 263.921 253.135 269.517 252.993C275.062 252.852 282.105 250.714 291 245.869L289.823 243.626C281.103 248.375 274.456 250.323 269.455 250.449C264.506 250.575 261.167 248.923 258.913 246.388C256.62 243.807 255.339 240.185 254.801 236.208Z" fill="#212121"/>
<path d="M147.639 232.343C145.447 204.706 177.36 119.286 203 83C193.925 83 187.137 86.3068 167.372 88.3981C145.264 90.7372 130.019 134 109.088 154.613C91.1823 172.246 80.0371 185.561 113.838 220.108C140.879 247.746 122.182 229.165 123.887 227.485C129.125 239.001 149.832 259.981 147.639 232.343Z" fill="#7B4735"/>
<path fill-rule="evenodd" clip-rule="evenodd" d="M189.336 85.9634C184.056 87.0455 177.432 88.3904 167.575 89.432C162.252 89.9944 157.29 93.0234 152.491 97.66C147.695 102.295 143.113 108.485 138.546 115.277C136.337 118.561 134.136 121.979 131.918 125.424L131.698 125.766C129.407 129.324 127.097 132.907 124.746 136.385C120.048 143.338 115.172 149.899 109.928 155.057C100.994 163.844 93.938 171.395 93.1614 180.952C92.3864 190.492 97.8663 202.228 114.66 219.37C118.678 223.471 121.678 226.545 123.883 228.805C124.026 228.951 124.165 229.094 124.301 229.233C124.171 229.009 124.055 228.793 123.957 228.59C123.802 228.267 123.677 227.944 123.629 227.651C123.584 227.379 123.582 226.983 123.878 226.692L124.437 226.141L124.761 226.852C126.038 229.657 128.273 233.064 130.88 236.171C133.49 239.282 136.438 242.049 139.125 243.608C140.469 244.388 141.71 244.843 142.784 244.917C143.836 244.989 144.732 244.698 145.459 243.961C146.206 243.204 146.822 241.929 147.177 239.949C147.531 237.974 147.617 235.345 147.346 231.939C146.794 224.984 148.388 214.462 151.457 202.075C154.531 189.671 159.098 175.344 164.529 160.754C175.217 132.041 189.27 102.256 201.907 84.0875C197.934 84.201 194.293 84.9472 189.518 85.926L189.336 85.9634ZM128.659 235.138C128.651 235.133 128.645 235.129 128.64 235.126C128.569 235.082 128.492 235.014 128.434 234.961C128.166 234.718 127.573 234.124 126.546 233.077C125.715 232.23 124.588 231.076 123.099 229.55C120.892 227.288 117.889 224.211 113.875 220.114C97.0472 202.937 91.2593 190.9 92.0745 180.867C92.8882 170.851 100.281 163.029 109.157 154.299C114.323 149.218 119.15 142.728 123.838 135.791C126.181 132.324 128.485 128.752 130.777 125.192L130.999 124.846C133.215 121.405 135.421 117.979 137.636 114.685C142.212 107.882 146.845 101.612 151.727 96.895C156.607 92.1797 161.787 88.965 167.459 88.3656C177.262 87.3297 183.845 85.9933 189.113 84.9135L189.354 84.8641C194.499 83.8094 198.447 83 202.956 83H204L203.404 83.8425C190.691 101.811 176.398 131.988 165.553 161.123C160.132 175.685 155.579 189.974 152.517 202.329C149.451 214.701 147.895 225.082 148.433 231.855C148.708 235.313 148.627 238.039 148.251 240.135C147.877 242.225 147.201 243.737 146.242 244.708C145.264 245.699 144.04 246.078 142.708 245.987C141.399 245.897 139.991 245.356 138.571 244.532C135.73 242.882 132.688 240.01 130.039 236.853C129.566 236.29 129.105 235.717 128.659 235.138ZM124.698 227.37C124.698 227.37 124.698 227.372 124.697 227.376C124.698 227.372 124.698 227.37 124.698 227.37Z" fill="#A35D45"/>
<path d="M354.864 232.343C356.998 204.706 325.947 119.286 301 83C309.829 83 316.434 86.3068 335.665 88.3981C357.176 90.7372 372.008 134 392.374 154.613C409.796 172.246 420.64 185.561 387.752 220.108C361.442 247.746 379.634 229.165 377.975 227.485C372.878 239.001 352.731 259.981 354.864 232.343Z" fill="#7B4735"/>
<path fill-rule="evenodd" clip-rule="evenodd" d="M313.402 85.9634C318.588 87.0455 325.093 88.3904 334.774 89.432C340.002 89.9944 344.876 93.0234 349.589 97.66C354.3 102.295 358.8 108.485 363.285 115.277C365.455 118.561 367.616 121.979 369.795 125.424L370.011 125.766C372.261 129.324 374.53 132.907 376.838 136.385C381.453 143.338 386.241 149.899 391.392 155.057C400.167 163.844 407.097 171.395 407.859 180.952C408.621 190.492 403.238 202.228 386.744 219.37C382.799 223.471 379.852 226.545 377.686 228.805C377.546 228.951 377.409 229.094 377.276 229.233C377.404 229.009 377.518 228.793 377.613 228.59C377.766 228.267 377.888 227.944 377.936 227.651C377.98 227.379 377.982 226.983 377.691 226.692L377.142 226.141L376.824 226.852C375.569 229.657 373.375 233.064 370.814 236.171C368.25 239.282 365.355 242.049 362.716 243.608C361.396 244.388 360.178 244.843 359.123 244.917C358.09 244.989 357.21 244.698 356.495 243.961C355.762 243.204 355.157 241.929 354.808 239.949C354.461 237.974 354.377 235.345 354.642 231.939C355.185 224.984 353.619 214.462 350.604 202.075C347.585 189.671 343.1 175.344 337.766 160.754C327.269 132.041 313.467 102.256 301.055 84.0875C304.958 84.201 308.533 84.9472 313.223 85.926L313.402 85.9634ZM372.996 235.138C373.003 235.133 373.01 235.129 373.014 235.126C373.084 235.082 373.159 235.014 373.217 234.961C373.48 234.718 374.062 234.124 375.071 233.077C375.887 232.23 376.994 231.076 378.456 229.55C380.624 227.288 383.574 224.211 387.516 220.114C404.043 202.937 409.727 190.9 408.927 180.867C408.128 170.851 400.867 163.029 392.149 154.299C387.076 149.218 382.334 142.728 377.73 135.791C375.43 132.324 373.167 128.752 370.916 125.192L370.697 124.846C368.521 121.405 366.354 117.979 364.179 114.685C359.685 107.882 355.134 101.612 350.339 96.895C345.546 92.1797 340.459 88.965 334.888 88.3656C325.26 87.3297 318.795 85.9933 313.621 84.9135L313.384 84.8641C308.331 83.8094 304.454 83 300.025 83H299L299.585 83.8425C312.071 101.811 326.109 131.988 336.76 161.123C342.084 175.685 346.557 189.974 349.564 202.329C352.575 214.701 354.103 225.082 353.575 231.855C353.305 235.313 353.385 238.039 353.753 240.135C354.121 242.225 354.785 243.737 355.727 244.708C356.687 245.699 357.889 246.078 359.197 245.987C360.483 245.897 361.866 245.356 363.261 244.532C366.051 242.882 369.039 240.01 371.64 236.853C372.104 236.29 372.557 235.717 372.996 235.138ZM376.886 227.37C376.886 227.37 376.886 227.372 376.887 227.376C376.886 227.372 376.886 227.37 376.886 227.37Z" fill="#A35D45"/>
<path d="M241.41 148.968C244.446 164.369 245.67 190.867 244.405 202.202L253.658 206L262 203.641C258.784 193.186 255.211 170.942 255.211 167.679C255.211 163.701 252.968 131.517 255.211 118.023C257.453 104.53 259.24 76.8033 256.997 74.1047C254.755 71.406 250.27 74.1047 245.957 77.343C242.282 80.1023 237.615 129.718 241.41 148.968Z" fill="#DADADA"/>
<path fill-rule="evenodd" clip-rule="evenodd" d="M252.41 73.542C250.475 74.2558 248.249 75.6993 246.018 77.3158C245.898 77.403 245.703 77.6493 245.466 78.155C245.239 78.6397 245.003 79.2942 244.763 80.1094C244.282 81.7378 243.801 83.9527 243.339 86.6117C242.416 91.9261 241.58 98.965 240.984 106.525C239.792 121.667 239.573 138.802 241.521 148.338C244.638 163.59 245.917 189.679 244.675 201.287L253.711 204.865L261.639 202.702C260.014 197.434 258.324 189.542 257.027 182.512C256.355 178.872 255.788 175.455 255.388 172.742C254.99 170.048 254.752 168.005 254.752 167.142C254.752 166.349 254.657 164.4 254.524 161.663C254.493 161.028 254.46 160.35 254.426 159.635C254.244 155.849 254.026 151.031 253.881 145.915C253.591 135.702 253.588 124.237 254.759 117.434C255.916 110.72 256.957 100.446 257.419 91.5114C257.65 87.0446 257.735 82.9252 257.619 79.7607C257.561 78.177 257.453 76.8458 257.291 75.8351C257.21 75.3295 257.117 74.916 257.015 74.5968C256.91 74.2677 256.808 74.0827 256.733 73.9956C255.798 72.9107 254.358 72.8232 252.41 73.542ZM252.041 72.5293C254.112 71.765 256.155 71.6775 257.543 73.2892C257.758 73.5391 257.914 73.8866 258.035 74.2661C258.16 74.6555 258.263 75.1269 258.349 75.6632C258.521 76.7365 258.632 78.1174 258.69 79.7209C258.808 82.9307 258.721 87.0857 258.49 91.5674C258.026 100.53 256.981 110.85 255.816 117.618C254.665 124.297 254.662 135.654 254.952 145.884C255.097 150.99 255.315 155.799 255.496 159.583C255.53 160.289 255.563 160.96 255.593 161.592C255.727 164.332 255.823 166.32 255.823 167.142C255.823 167.909 256.047 169.867 256.448 172.584C256.846 175.282 257.411 178.686 258.081 182.316C259.422 189.582 261.175 197.722 262.829 202.911L263 203.448L253.649 206L243.517 201.987L243.565 201.575C244.867 190.315 243.606 163.895 240.472 148.555C238.49 138.855 238.723 121.585 239.916 106.44C240.513 98.8577 241.353 91.7835 242.283 86.426C242.748 83.7489 243.238 81.4881 243.735 79.8025C243.983 78.9606 244.237 78.2485 244.497 77.6947C244.747 77.1619 245.036 76.6978 245.392 76.4404C247.627 74.8212 249.956 73.2985 252.041 72.5293Z" fill="#DADADA"/>
<path d="M257.282 223.815C254.751 226.728 250.249 226.728 247.718 223.815L240.591 215.613C236.742 211.184 240.375 204.314 246.173 205.055L251.699 205.762C252.231 205.83 252.769 205.83 253.301 205.762L258.827 205.055C264.625 204.314 268.258 211.184 264.409 215.613L257.282 223.815Z" fill="#212121"/>
<path d="M222 163.5C222 173.165 214.389 181 205 181C195.611 181 188 173.165 188 163.5C188 153.835 195.611 146 205 146C214.389 146 222 153.835 222 163.5Z" fill="#212121"/>
<path d="M216 162C216 166.418 212.866 170 209 170C205.134 170 202 166.418 202 162C202 157.582 205.134 154 209 154C212.866 154 216 157.582 216 162Z" fill="#DADADA"/>
<path d="M284 164C284 173.389 291.387 181 300.5 181C309.613 181 317 173.389 317 164C317 154.611 309.613 147 300.5 147C291.387 147 284 154.611 284 164Z" fill="#212121"/>
<path d="M289 162.5C289 166.642 292.134 170 296 170C299.866 170 303 166.642 303 162.5C303 158.358 299.866 155 296 155C292.134 155 289 158.358 289 162.5Z" fill="#DADADA"/>
<path fill-rule="evenodd" clip-rule="evenodd" d="M141.319 108.922C119.947 137.115 112.266 169.741 112.421 187.023C112.457 191.037 109.267 194.32 105.295 194.356C101.323 194.393 98.0739 191.168 98.0379 187.154C97.8538 166.633 106.577 130.849 129.901 100.082C153.497 68.9566 192.034 43.0003 250.863 43C308.111 42.9997 345.227 66.9883 368.216 97.2683C390.96 127.223 399.598 162.914 401.159 186.606C401.423 190.611 398.424 194.074 394.461 194.341C390.497 194.607 387.071 191.577 386.807 187.571C385.383 165.968 377.404 133.249 356.805 106.117C336.452 79.3101 303.501 57.5358 250.863 57.536C196.869 57.5363 162.419 81.0887 141.319 108.922Z" fill="#87A7E1"/>
<path d="M131.836 178.185C131.836 202.37 131.836 178.185 131.836 221.975C117.14 221.975 105.226 202.37 105.226 178.185C105.226 154.001 117.14 134.395 131.836 134.395C131.836 185.471 131.836 154.001 131.836 178.185Z" fill="#6D6D6D"/>
<path d="M104.076 178.197C104.076 186.734 104.076 178.197 104.076 193.654C97.9587 193.654 93 186.734 93 178.197C93 169.661 97.9587 162.741 104.076 162.741C104.076 180.769 104.076 169.661 104.076 178.197Z" fill="#6D6D6D"/>
<path d="M132.987 134.395H144.854V221.805H132.987L132.987 134.395Z" fill="#68AAF7"/>
<path d="M368.164 178.185C368.164 202.37 368.164 178.185 368.164 221.975C382.86 221.975 394.774 202.37 394.774 178.185C394.774 154.001 382.86 134.395 368.164 134.395C368.164 185.471 368.164 154.001 368.164 178.185Z" fill="#6D6D6D"/>
<path d="M395.924 178.197C395.924 186.734 395.924 178.197 395.924 193.654C402.041 193.654 407 186.734 407 178.197C407 169.661 402.041 162.741 395.924 162.741C395.924 180.769 395.924 169.661 395.924 178.197Z" fill="#6D6D6D"/>
<path d="M367.013 134.395H355.146V221.805H367.013V134.395Z" fill="#68AAF7"/>
<path fill-rule="evenodd" clip-rule="evenodd" d="M368.164 221.975L368.874 221.96C365.314 225.934 352.443 238.24 351.73 265.053C351.545 272.015 347.651 278.561 341.565 284.546C335.474 290.536 327.13 296.023 317.907 300.872C299.458 310.57 277.389 317.77 262.495 321.351L262.245 320.29C277.078 316.724 299.059 309.551 317.409 299.904C326.585 295.08 334.828 289.651 340.813 283.765C346.804 277.873 350.477 271.58 350.651 265.023C351.371 237.958 364.89 224.196 368.164 221.126V221.975Z" fill="#212121"/>
<path fill-rule="evenodd" clip-rule="evenodd" d="M129.297 220.184C131.615 228.053 140.827 250.336 159.066 276.169C164.732 284.195 170.64 289.338 176.72 292.718C182.803 296.1 189.084 297.733 195.52 298.704C199.468 299.3 203.436 299.643 207.455 299.991C210.021 300.213 212.607 300.436 215.221 300.729C221.895 301.475 228.659 302.663 235.422 305.415C251.89 312.117 261.746 319.475 267.156 323.515C268.793 324.737 270.023 325.656 270.906 326.16C287.311 335.53 302.141 335.529 313.732 333.186C319.533 332.014 324.525 330.254 328.508 328.78C328.949 328.617 329.378 328.457 329.796 328.301C331.257 327.757 332.57 327.268 333.707 326.891C335.157 326.412 336.397 326.089 337.346 326.089C352.794 326.089 365.41 338.187 370.076 355.291C374.748 372.416 371.492 394.626 355.207 415.101C335.986 439.267 319.767 446.813 302.239 448.259C293.509 448.978 284.473 448.183 274.634 447.216C273.962 447.15 273.286 447.083 272.606 447.015C263.321 446.096 253.29 445.103 242.053 445.103V444.013C253.345 444.013 263.424 445.011 272.704 445.93C273.386 445.997 274.064 446.064 274.739 446.131C284.588 447.099 293.531 447.883 302.152 447.172C319.325 445.756 335.29 438.402 354.366 414.418C370.45 394.196 373.609 372.343 369.036 355.58C364.457 338.796 352.168 327.18 337.346 327.18C336.587 327.18 335.495 327.447 334.043 327.928C332.926 328.297 331.639 328.776 330.182 329.319C329.762 329.476 329.327 329.638 328.879 329.804C324.883 331.282 319.829 333.066 313.943 334.255C302.16 336.637 287.054 336.636 270.375 327.109C269.392 326.547 268.081 325.569 266.362 324.286C260.897 320.209 251.308 313.055 235.019 306.426C228.387 303.728 221.734 302.554 215.102 301.812C212.548 301.527 209.984 301.304 207.424 301.083C203.371 300.731 199.33 300.381 195.36 299.782C188.851 298.8 182.434 297.14 176.2 293.674C169.964 290.206 163.938 284.947 158.187 276.802C139.89 250.886 130.62 228.495 128.263 220.495L129.297 220.184Z" fill="#212121"/>
<path d="M149.831 362.359C146.645 357.271 148.144 350.536 153.179 347.317L200.566 317.019C205.601 313.8 212.265 315.315 215.45 320.403L277.159 418.97C280.344 424.058 278.845 430.792 273.81 434.012L226.424 464.309C221.389 467.529 214.725 466.014 211.539 460.925L149.831 362.359Z" fill="#B9B9B9"/>
<path fill-rule="evenodd" clip-rule="evenodd" d="M201.335 318.247L153.948 348.545C149.585 351.335 148.285 357.172 151.046 361.582L212.755 460.148C215.516 464.558 221.291 465.871 225.655 463.081L273.041 432.783C277.405 429.993 278.704 424.157 275.943 419.747L214.235 321.18C211.474 316.771 205.698 315.457 201.335 318.247ZM153.179 347.317C148.144 350.536 146.645 357.271 149.831 362.359L211.539 460.925C214.725 466.014 221.389 467.529 226.424 464.309L273.81 434.012C278.845 430.792 280.344 424.058 277.159 418.97L215.45 320.403C212.265 315.315 205.601 313.8 200.566 317.019L153.179 347.317Z" fill="#212121"/>
<path d="M163.241 364.091C160.587 359.851 161.836 354.239 166.032 351.556L198.585 330.742C202.781 328.059 208.334 329.322 210.989 333.562L227.366 359.721C230.02 363.961 228.771 369.573 224.575 372.255L192.022 393.069C187.826 395.752 182.273 394.489 179.618 390.249L163.241 364.091Z" fill="#DADADA"/>
<path fill-rule="evenodd" clip-rule="evenodd" d="M199.354 331.97L166.801 352.784C163.276 355.038 162.227 359.752 164.457 363.314L180.834 389.472C183.063 393.034 187.728 394.094 191.253 391.841L223.806 371.027C227.33 368.774 228.38 364.059 226.15 360.498L209.773 334.339C207.543 330.777 202.879 329.717 199.354 331.97ZM166.032 351.556C161.836 354.239 160.587 359.851 163.241 364.091L179.618 390.249C182.273 394.489 187.826 395.752 192.022 393.069L224.575 372.255C228.771 369.573 230.02 363.961 227.366 359.721L210.989 333.562C208.334 329.322 202.781 328.059 198.585 330.742L166.032 351.556Z" fill="#212121"/>
<path d="M203.621 356.398C206.558 361.088 205.176 367.295 200.535 370.262C195.895 373.229 189.753 371.833 186.816 367.143C183.88 362.454 185.262 356.246 189.903 353.279C194.543 350.312 200.685 351.709 203.621 356.398Z" fill="#68AAF7"/>
<path fill-rule="evenodd" clip-rule="evenodd" d="M205.614 355.314C205.348 354.89 205.473 354.328 205.893 354.06L213.075 349.468C213.495 349.2 214.05 349.326 214.315 349.75C214.581 350.174 214.456 350.735 214.036 351.003L206.854 355.596C206.434 355.864 205.879 355.738 205.614 355.314Z" fill="#68AAF7"/>
<path fill-rule="evenodd" clip-rule="evenodd" d="M176.539 373.904C176.273 373.48 176.398 372.919 176.818 372.65L184 368.058C184.419 367.79 184.975 367.916 185.24 368.34C185.506 368.764 185.381 369.325 184.961 369.594L177.779 374.186C177.359 374.454 176.804 374.328 176.539 373.904Z" fill="#68AAF7"/>
<path fill-rule="evenodd" clip-rule="evenodd" d="M183.238 360.203C183.129 360.692 182.648 361 182.164 360.89L173.872 359.005C173.388 358.894 173.083 358.408 173.192 357.919C173.301 357.429 173.782 357.122 174.267 357.232L182.559 359.117C183.043 359.227 183.347 359.713 183.238 360.203Z" fill="#68AAF7"/>
<path fill-rule="evenodd" clip-rule="evenodd" d="M198.959 350.152C199.443 350.262 199.924 349.955 200.033 349.465L201.898 341.085C202.007 340.596 201.703 340.11 201.219 340C200.734 339.89 200.253 340.197 200.144 340.687L198.279 349.066C198.17 349.556 198.474 350.042 198.959 350.152Z" fill="#68AAF7"/>
<path fill-rule="evenodd" clip-rule="evenodd" d="M207.386 363.612C207.495 363.123 207.976 362.815 208.46 362.925L216.752 364.81C217.236 364.921 217.541 365.407 217.432 365.896C217.323 366.386 216.842 366.693 216.357 366.583L208.065 364.698C207.581 364.588 207.277 364.102 207.386 363.612Z" fill="#68AAF7"/>
<path fill-rule="evenodd" clip-rule="evenodd" d="M191.666 373.663C192.15 373.773 192.454 374.26 192.345 374.749L190.48 383.129C190.371 383.618 189.89 383.926 189.405 383.816C188.921 383.706 188.617 383.219 188.726 382.73L190.591 374.35C190.7 373.861 191.181 373.553 191.666 373.663Z" fill="#68AAF7"/>
<path fill-rule="evenodd" clip-rule="evenodd" d="M201.876 372.105C202.295 371.837 202.851 371.963 203.116 372.387L207.66 379.645C207.926 380.069 207.801 380.63 207.381 380.899C206.962 381.167 206.406 381.041 206.141 380.617L201.597 373.358C201.331 372.934 201.456 372.373 201.876 372.105Z" fill="#68AAF7"/>
<path fill-rule="evenodd" clip-rule="evenodd" d="M183.48 342.722C183.9 342.454 184.455 342.58 184.72 343.004L189.265 350.262C189.53 350.686 189.405 351.248 188.986 351.516C188.566 351.784 188.011 351.658 187.745 351.234L183.201 343.975C182.936 343.551 183.061 342.99 183.48 342.722Z" fill="#68AAF7"/>
<path d="M250.247 399.251C258.076 411.757 254.391 428.309 242.016 436.222C229.641 444.134 213.263 440.41 205.433 427.904C197.604 415.398 201.289 398.846 213.664 390.934C226.038 383.022 242.417 386.746 250.247 399.251Z" fill="#DADADA"/>
<path fill-rule="evenodd" clip-rule="evenodd" d="M241.247 434.993C252.951 427.51 256.436 411.856 249.031 400.029C241.626 388.201 226.136 384.679 214.433 392.162C202.729 399.645 199.244 415.3 206.649 427.127C214.053 438.954 229.544 442.476 241.247 434.993ZM242.016 436.222C254.391 428.309 258.076 411.757 250.247 399.251C242.417 386.746 226.038 383.022 213.664 390.934C201.289 398.846 197.604 415.398 205.433 427.904C213.263 440.41 229.641 444.134 242.016 436.222Z" fill="#212121"/>
<path d="M232.557 410.373C234.281 413.127 233.47 416.773 230.744 418.515C228.019 420.258 224.412 419.438 222.687 416.683C220.963 413.929 221.775 410.284 224.5 408.541C227.225 406.799 230.833 407.619 232.557 410.373Z" fill="#EA4D67"/>
<path fill-rule="evenodd" clip-rule="evenodd" d="M230.36 417.901C232.75 416.373 233.461 413.177 231.949 410.762C230.437 408.347 227.274 407.628 224.884 409.155C222.495 410.683 221.783 413.88 223.295 416.295C224.807 418.71 227.97 419.429 230.36 417.901ZM230.744 418.515C233.47 416.773 234.281 413.127 232.557 410.373C230.833 407.619 227.225 406.799 224.5 408.541C221.775 410.284 220.963 413.929 222.687 416.683C224.412 419.438 228.019 420.258 230.744 418.515Z" fill="#212121"/>
</svg>
