<svg width="500" height="500" viewBox="0 0 500 500" fill="none" xmlns="http://www.w3.org/2000/svg">
<rect width="500" height="500" fill="#DFB8F1"/>
<path d="M345 370.236C345 388.884 302.691 404 250.5 404C198.309 404 156 388.884 156 370.236C156 324.248 198.309 336.473 250.5 336.473C302.691 336.473 345 325.878 345 370.236Z" fill="#212121"/>
<path d="M206.556 375.29C204.071 401.037 198.29 452.142 165.915 444.164C148.236 437.007 151.491 411.245 153.976 385.498C156.46 359.75 155.698 334.458 185.03 347.58C200.994 349.189 209.041 349.543 206.556 375.29Z" fill="#212121"/>
<path d="M293.46 375.29C296.035 401.037 302.027 452.142 335.578 444.164C353.901 437.007 350.527 411.245 347.952 385.498C345.377 359.751 346.168 334.458 315.769 347.58C299.224 349.189 290.885 349.543 293.46 375.29Z" fill="#212121"/>
<path d="M217.5 422C229.926 422 240 413.27 240 402.5C240 391.73 229.926 383 217.5 383C205.074 383 195 391.73 195 402.5C195 413.27 205.074 422 217.5 422Z" fill="#212121"/>
<path d="M283 422C295.15 422 305 413.27 305 402.5C305 391.73 295.15 383 283 383C270.85 383 261 391.73 261 402.5C261 413.27 270.85 422 283 422Z" fill="#212121"/>
<path d="M218 343C218 351.837 207.927 359 195.5 359C183.074 359 173 351.837 173 343C173 327 183.074 327 195.5 327C207.927 327 218 327 218 343Z" fill="#212121"/>
<path d="M328 343C328 351.837 318.15 359 306 359C293.85 359 284 351.837 284 343C284 327 293.85 327 306 327C318.15 327 328 327 328 343Z" fill="#212121"/>
<path fill-rule="evenodd" clip-rule="evenodd" d="M198.5 340.872C185.998 340.872 175.868 351.006 175.868 363.5C175.868 375.994 185.998 386.128 198.5 386.128C211.002 386.128 221.132 375.994 221.132 363.5C221.132 351.006 211.002 340.872 198.5 340.872ZM173 363.5C173 349.414 184.419 338 198.5 338C212.581 338 224 349.414 224 363.5C224 377.586 212.581 389 198.5 389C184.419 389 173 377.586 173 363.5Z" fill="#DADADA"/>
<path fill-rule="evenodd" clip-rule="evenodd" d="M302.5 340.872C289.998 340.872 279.868 351.006 279.868 363.5C279.868 375.994 289.998 386.128 302.5 386.128C315.002 386.128 325.132 375.994 325.132 363.5C325.132 351.006 315.002 340.872 302.5 340.872ZM277 363.5C277 349.414 288.419 338 302.5 338C316.581 338 328 349.414 328 363.5C328 377.586 316.581 389 302.5 389C288.419 389 277 377.586 277 363.5Z" fill="#DADADA"/>
<path d="M204 352.827C204 349.609 201.538 347 198.5 347C195.462 347 193 349.609 193 352.827V372.173C193 375.391 195.462 378 198.5 378C201.538 378 204 375.391 204 372.173V352.827Z" fill="#DADADA"/>
<path d="M189.015 357C185.693 357 183 359.686 183 363C183 366.314 185.693 369 189.015 369H208.985C212.307 369 215 366.314 215 363C215 359.686 212.307 357 208.985 357H189.015Z" fill="#DADADA"/>
<path d="M235.629 376C233.625 376 232 377.567 232 379.5C232 381.433 233.625 383 235.629 383H243.371C245.375 383 247 381.433 247 379.5C247 377.567 245.375 376 243.371 376H235.629Z" fill="#DADADA"/>
<path d="M256.387 376C254.516 376 253 377.567 253 379.5C253 381.433 254.516 383 256.387 383H263.613C265.484 383 267 381.433 267 379.5C267 377.567 265.484 376 263.613 376H256.387Z" fill="#DADADA"/>
<path d="M303.5 356C306.538 356 309 353.314 309 350C309 346.686 306.538 344 303.5 344C300.462 344 298 346.686 298 350C298 353.314 300.462 356 303.5 356Z" fill="#DADADA"/>
<path d="M316.5 369C319.538 369 322 366.314 322 363C322 359.686 319.538 357 316.5 357C313.462 357 311 359.686 311 363C311 366.314 313.462 369 316.5 369Z" fill="#DADADA"/>
<path d="M303.5 380C306.538 380 309 377.761 309 375C309 372.239 306.538 370 303.5 370C300.462 370 298 372.239 298 375C298 377.761 300.462 380 303.5 380Z" fill="#DADADA"/>
<path d="M218 416C225.732 416 232 409.956 232 402.5C232 395.044 225.732 389 218 389C210.268 389 204 395.044 204 402.5C204 409.956 210.268 416 218 416Z" fill="#DADADA"/>
<path d="M281.5 416C289.508 416 296 409.956 296 402.5C296 395.044 289.508 389 281.5 389C273.492 389 267 395.044 267 402.5C267 409.956 273.492 416 281.5 416Z" fill="#DADADA"/>
<path d="M290.5 369C293.538 369 296 366.314 296 363C296 359.686 293.538 357 290.5 357C287.462 357 285 359.686 285 363C285 366.314 287.462 369 290.5 369Z" fill="#DADADA"/>
<path d="M169 190.5C169 207.345 155.121 221 138 221C120.879 221 107 207.345 107 190.5C107 173.655 120.879 160 138 160C155.121 160 169 173.655 169 190.5Z" fill="#7D5740"/>
<path d="M159 189.5C159 200.822 149.822 210 138.5 210C127.178 210 118 200.822 118 189.5C118 178.178 127.178 169 138.5 169C149.822 169 159 178.178 159 189.5Z" fill="#C39972"/>
<path d="M393 190.5C393 207.345 379.121 221 362 221C344.879 221 331 207.345 331 190.5C331 173.655 344.879 160 362 160C379.121 160 393 173.655 393 190.5Z" fill="#7D5740"/>
<path d="M384 189.5C384 200.822 374.598 210 363 210C351.402 210 342 200.822 342 189.5C342 178.178 351.402 169 363 169C374.598 169 384 178.178 384 189.5Z" fill="#C39972"/>
<path d="M363 198C363 260.408 312.856 311 251 311C189.144 311 139 260.408 139 198C139 135.592 189.144 85 251 85C312.856 85 363 135.592 363 198Z" fill="#7D5740"/>
<path d="M254 180C254 208.167 231.39 231 203.5 231C175.61 231 153 208.167 153 180C153 151.833 175.61 129 203.5 129C231.39 129 254 151.833 254 180Z" fill="#C49972"/>
<path d="M350 180C350 208.167 327.614 231 300 231C272.386 231 250 208.167 250 180C250 151.833 272.386 129 300 129C327.614 129 350 151.833 350 180Z" fill="#C49972"/>
<path d="M312 249C312 283.242 284.018 311 249.5 311C214.982 311 187 283.242 187 249C187 214.758 214.982 187 249.5 187C284.018 187 312 214.758 312 249Z" fill="#C49972"/>
<path d="M228 180.5C228 191.822 218.822 201 207.5 201C196.178 201 187 191.822 187 180.5C187 169.178 196.178 160 207.5 160C218.822 160 228 169.178 228 180.5Z" fill="#412D21"/>
<path d="M220 178.5C220 182.09 217.09 185 213.5 185C209.91 185 207 182.09 207 178.5C207 174.91 209.91 172 213.5 172C217.09 172 220 174.91 220 178.5Z" fill="#DADADA"/>
<path d="M273 180.5C273 191.822 282.402 201 294 201C305.598 201 315 191.822 315 180.5C315 169.178 305.598 160 294 160C282.402 160 273 169.178 273 180.5Z" fill="#412D21"/>
<path d="M285 178.5C285 182.09 287.686 185 291 185C294.314 185 297 182.09 297 178.5C297 174.91 294.314 172 291 172C287.686 172 285 174.91 285 178.5Z" fill="#DADADA"/>
<path d="M249 225.5C249 228.538 246.761 231 244 231C241.239 231 239 228.538 239 225.5C239 222.462 241.239 220 244 220C246.761 220 249 222.462 249 225.5Z" fill="#A87B5F"/>
<path d="M265 225.5C265 228.538 262.538 231 259.5 231C256.462 231 254 228.538 254 225.5C254 222.462 256.462 220 259.5 220C262.538 220 265 222.462 265 225.5Z" fill="#A87B5F"/>
<path fill-rule="evenodd" clip-rule="evenodd" d="M246.04 271.406C236.218 269.344 228.3 262.32 224 256.524L226.035 255.049C230.115 260.547 237.553 267.075 246.564 268.966C255.432 270.827 266.134 268.262 277.041 255L279 256.573C267.616 270.415 256.007 273.497 246.04 271.406Z" fill="#412D21"/>
<path d="M256.223 57.0185C243.939 66.8958 242.398 85.1217 243.163 93H251.635C233.986 93 271.578 44.6719 256.223 57.0185Z" fill="#7D5740"/>
<path fill-rule="evenodd" clip-rule="evenodd" d="M259.14 56.0492C258.65 56.3402 257.969 56.8431 257.061 57.6088C251.356 62.4199 248.113 69.2941 246.39 75.9999C244.782 82.2617 244.518 88.3064 244.782 92.2257H247.798C247.616 91.9945 247.455 91.7409 247.314 91.4651C246.513 89.887 246.519 87.7853 246.913 85.5495C247.708 81.0452 250.224 75.2502 252.747 69.9611C253.617 68.138 254.486 66.3788 255.293 64.7421C256.866 61.5568 258.209 58.8357 258.887 57.0115C259.038 56.6047 259.145 56.2711 259.213 56.0064C259.189 56.02 259.165 56.0342 259.14 56.0492ZM252.129 92.2257C250.221 92.2257 249.282 91.5618 248.809 90.6313C248.285 89.5992 248.203 87.9999 248.578 85.8721C249.323 81.6492 251.727 76.0666 254.262 70.7545C255.089 69.0198 255.933 67.3094 256.731 65.6937C258.337 62.4384 259.754 59.5674 260.464 57.6555C260.73 56.9399 260.93 56.2766 260.985 55.7394C261.011 55.4748 261.013 55.1511 260.905 54.8425C260.781 54.4865 260.516 54.1796 260.115 54.0559C259.772 53.9504 259.434 54.012 259.174 54.0944C258.9 54.1813 258.608 54.3254 258.305 54.5056C257.697 54.8669 256.933 55.4397 256 56.2265C249.922 61.3513 246.535 68.6122 244.756 75.5387C242.976 82.465 242.784 89.1375 243.16 93.1985L243.234 94H252.129V92.2257Z" fill="#7D5740"/>
<path d="M256.223 75.0185C243.939 84.8958 242.398 103.122 243.163 111H251.635C233.986 111 271.578 62.6719 256.223 75.0185Z" fill="#7D5740"/>
<path fill-rule="evenodd" clip-rule="evenodd" d="M259.14 74.0492C258.65 74.3402 257.969 74.8431 257.061 75.6088C251.356 80.4199 248.113 87.2941 246.39 93.9999C244.782 100.262 244.518 106.306 244.782 110.226H247.798C247.616 109.995 247.455 109.741 247.314 109.465C246.513 107.887 246.519 105.785 246.913 103.55C247.708 99.0452 250.224 93.2502 252.747 87.9611C253.617 86.138 254.486 84.3788 255.293 82.7421C256.866 79.5568 258.209 76.8357 258.887 75.0115C259.038 74.6047 259.145 74.2711 259.213 74.0064C259.189 74.02 259.165 74.0342 259.14 74.0492ZM252.129 110.226C250.221 110.226 249.282 109.562 248.809 108.631C248.285 107.599 248.203 106 248.578 103.872C249.323 99.6492 251.727 94.0666 254.262 88.7545C255.089 87.0198 255.933 85.3094 256.731 83.6937C258.337 80.4384 259.754 77.5674 260.464 75.6555C260.73 74.9399 260.93 74.2766 260.985 73.7394C261.011 73.4748 261.013 73.1511 260.905 72.8425C260.781 72.4865 260.516 72.1796 260.115 72.0559C259.772 71.9504 259.434 72.012 259.174 72.0944C258.9 72.1813 258.608 72.3254 258.305 72.5056C257.697 72.8669 256.933 73.4397 256 74.2265C249.922 79.3513 246.535 86.6122 244.756 93.5387C242.976 100.465 242.784 107.137 243.16 111.199L243.234 112H252.129V110.226Z" fill="#7D5740"/>
</svg>
