<svg width="500" height="500" viewBox="0 0 500 500" fill="none" xmlns="http://www.w3.org/2000/svg">
<rect width="500" height="500" fill="#EED78C"/>
<path d="M169 174.5C169 191.897 155.121 206 138 206C120.879 206 107 191.897 107 174.5C107 157.103 120.879 143 138 143C155.121 143 169 157.103 169 174.5Z" fill="#7D5740"/>
<path d="M159 173.5C159 184.822 149.598 194 138 194C126.402 194 117 184.822 117 173.5C117 162.178 126.402 153 138 153C149.598 153 159 162.178 159 173.5Z" fill="#C39972"/>
<path d="M392 174.5C392 191.897 378.121 206 361 206C343.879 206 330 191.897 330 174.5C330 157.103 343.879 143 361 143C378.121 143 392 157.103 392 174.5Z" fill="#7D5740"/>
<path d="M382 173.5C382 184.822 372.598 194 361 194C349.402 194 340 184.822 340 173.5C340 162.178 349.402 153 361 153C372.598 153 382 162.178 382 173.5Z" fill="#C39972"/>
<path d="M362 181.5C362 244.184 311.856 295 250 295C188.144 295 138 244.184 138 181.5C138 118.816 188.144 68 250 68C311.856 68 362 118.816 362 181.5Z" fill="#7D5740"/>
<path d="M254 163.5C254 190.838 231.167 213 203 213C174.833 213 152 190.838 152 163.5C152 136.162 174.833 114 203 114C231.167 114 254 136.162 254 163.5Z" fill="#C49972"/>
<path d="M349 163.5C349 190.838 326.614 213 299 213C271.386 213 249 190.838 249 163.5C249 136.162 271.386 114 299 114C326.614 114 349 136.162 349 163.5Z" fill="#C49972"/>
<path d="M311 232.5C311 267.018 283.242 295 249 295C214.758 295 187 267.018 187 232.5C187 197.982 214.758 170 249 170C283.242 170 311 197.982 311 232.5Z" fill="#C49972"/>
<path d="M227 163.5C227 174.822 218.046 184 207 184C195.954 184 187 174.822 187 163.5C187 152.178 195.954 143 207 143C218.046 143 227 152.178 227 163.5Z" fill="#412D21"/>
<path d="M220 162C220 165.866 216.866 169 213 169C209.134 169 206 165.866 206 162C206 158.134 209.134 155 213 155C216.866 155 220 158.134 220 162Z" fill="#DADADA"/>
<path d="M273 163.5C273 174.822 282.178 184 293.5 184C304.822 184 314 174.822 314 163.5C314 152.178 304.822 143 293.5 143C282.178 143 273 152.178 273 163.5Z" fill="#412D21"/>
<path d="M284 162C284 165.866 286.91 169 290.5 169C294.09 169 297 165.866 297 162C297 158.134 294.09 155 290.5 155C286.91 155 284 158.134 284 162Z" fill="#DADADA"/>
<path d="M249 210.5C249 213.538 246.538 216 243.5 216C240.462 216 238 213.538 238 210.5C238 207.462 240.462 205 243.5 205C246.538 205 249 207.462 249 210.5Z" fill="#A87B5F"/>
<path d="M264 210.5C264 213.538 261.761 216 259 216C256.239 216 254 213.538 254 210.5C254 207.462 256.239 205 259 205C261.761 205 264 207.462 264 210.5Z" fill="#A87B5F"/>
<path fill-rule="evenodd" clip-rule="evenodd" d="M245.04 255.441C235.218 253.5 227.3 246.889 223 241.434L225.035 240.046C229.115 245.221 236.553 251.364 245.564 253.144C254.432 254.896 265.134 252.482 276.041 240L278 241.481C266.616 254.509 255.007 257.409 245.04 255.441Z" fill="#412D21"/>
<path d="M255.223 41.0185C242.939 50.8958 241.398 69.1217 242.163 77H250.635C232.986 77 270.578 28.6719 255.223 41.0185Z" fill="#7D5740"/>
<path fill-rule="evenodd" clip-rule="evenodd" d="M257.14 40.0492C256.65 40.3402 255.969 40.8431 255.061 41.6088C249.356 46.4199 246.113 53.2941 244.39 59.9999C242.782 66.2617 242.518 72.3064 242.782 76.2257H245.798C245.616 75.9945 245.455 75.7409 245.314 75.4651C244.513 73.887 244.519 71.7853 244.913 69.5495C245.708 65.0452 248.224 59.2502 250.747 53.9611C251.617 52.138 252.486 50.3788 253.293 48.7421C254.866 45.5568 256.209 42.8357 256.887 41.0115C257.038 40.6047 257.145 40.2711 257.213 40.0064C257.189 40.02 257.165 40.0342 257.14 40.0492ZM250.129 76.2257C248.221 76.2257 247.282 75.5618 246.809 74.6313C246.285 73.5992 246.203 71.9999 246.578 69.8721C247.323 65.6492 249.727 60.0666 252.262 54.7545C253.089 53.0198 253.933 51.3094 254.731 49.6937C256.337 46.4384 257.754 43.5674 258.464 41.6555C258.73 40.9399 258.93 40.2766 258.985 39.7394C259.011 39.4748 259.013 39.1511 258.905 38.8425C258.781 38.4865 258.516 38.1796 258.115 38.0559C257.772 37.9504 257.434 38.012 257.174 38.0944C256.9 38.1813 256.608 38.3254 256.305 38.5056C255.697 38.8669 254.933 39.4397 254 40.2265C247.922 45.3513 244.535 52.6122 242.756 59.5387C240.976 66.465 240.784 73.1375 241.16 77.1985L241.234 78H250.129V76.2257Z" fill="#7D5740"/>
<path d="M255.223 59.0716C242.939 69.2088 241.398 87.9144 242.163 96H250.635C232.986 96 270.578 46.4001 255.223 59.0716Z" fill="#7D5740"/>
<path fill-rule="evenodd" clip-rule="evenodd" d="M257.14 57.1004C256.65 57.3987 255.969 57.9142 255.061 58.6991C249.356 63.6304 246.113 70.6764 244.39 77.5499C242.782 83.9682 242.518 90.1641 242.782 94.1814H245.798C245.616 93.9444 245.455 93.6844 245.314 93.4017C244.513 91.7842 244.519 89.6299 244.913 87.3383C245.708 82.7213 248.224 76.7815 250.747 71.3601C251.617 69.4914 252.486 67.6882 253.293 66.0107C254.866 62.7457 256.209 59.9566 256.887 58.0868C257.038 57.6699 257.145 57.3279 257.213 57.0566C257.189 57.0705 257.165 57.0851 257.14 57.1004ZM250.129 94.1814C248.221 94.1814 247.282 93.5009 246.809 92.5471C246.285 91.4892 246.203 89.8499 246.578 87.6689C247.323 83.3405 249.727 77.6183 252.262 72.1734C253.089 70.3953 253.933 68.6421 254.731 66.986C256.337 63.6493 257.754 60.7066 258.464 58.7469C258.73 58.0134 258.93 57.3335 258.985 56.7829C259.011 56.5117 259.013 56.1799 258.905 55.8636C258.781 55.4986 258.516 55.1841 258.115 55.0573C257.772 54.9492 257.434 55.0123 257.174 55.0968C256.9 55.1858 256.608 55.3335 256.305 55.5183C255.697 55.8886 254.933 56.4757 254 57.2821C247.922 62.5351 244.535 69.9775 242.756 77.0772C240.976 84.1767 240.784 91.0159 241.16 95.1785L241.234 96H250.129V94.1814Z" fill="#7D5740"/>
<path fill-rule="evenodd" clip-rule="evenodd" d="M141.319 108.922C119.947 137.115 112.266 169.741 112.421 187.023C112.457 191.037 109.267 194.32 105.295 194.356C101.323 194.393 98.0739 191.168 98.0379 187.154C97.8538 166.633 106.577 130.849 129.901 100.082C153.497 68.9566 192.034 43.0003 250.863 43C308.111 42.9997 345.227 66.9883 368.216 97.2683C390.96 127.223 399.598 162.914 401.159 186.606C401.423 190.611 398.424 194.074 394.461 194.341C390.497 194.607 387.071 191.577 386.807 187.571C385.383 165.968 377.404 133.249 356.805 106.117C336.452 79.3101 303.501 57.5358 250.863 57.536C196.869 57.5363 162.419 81.0887 141.319 108.922Z" fill="#87A7E1"/>
<path d="M131.836 178.185C131.836 202.37 131.836 178.185 131.836 221.975C117.14 221.975 105.226 202.37 105.226 178.185C105.226 154.001 117.14 134.395 131.836 134.395C131.836 185.471 131.836 154.001 131.836 178.185Z" fill="#6D6D6D"/>
<path d="M104.076 178.197C104.076 186.734 104.076 178.197 104.076 193.654C97.9587 193.654 93 186.734 93 178.197C93 169.661 97.9587 162.741 104.076 162.741C104.076 180.769 104.076 169.661 104.076 178.197Z" fill="#6D6D6D"/>
<path d="M132.987 134.395H144.854V221.805H132.987L132.987 134.395Z" fill="#68AAF7"/>
<path d="M368.164 178.185C368.164 202.37 368.164 178.185 368.164 221.975C382.86 221.975 394.774 202.37 394.774 178.185C394.774 154.001 382.86 134.395 368.164 134.395C368.164 185.471 368.164 154.001 368.164 178.185Z" fill="#6D6D6D"/>
<path d="M395.924 178.197C395.924 186.734 395.924 178.197 395.924 193.654C402.041 193.654 407 186.734 407 178.197C407 169.661 402.041 162.741 395.924 162.741C395.924 180.769 395.924 169.661 395.924 178.197Z" fill="#6D6D6D"/>
<path d="M367.013 134.395H355.146V221.805H367.013V134.395Z" fill="#68AAF7"/>
<path fill-rule="evenodd" clip-rule="evenodd" d="M368.164 221.975L368.874 221.96C365.314 225.934 352.443 238.24 351.73 265.053C351.545 272.015 347.651 278.561 341.565 284.546C335.474 290.536 327.13 296.023 317.907 300.872C299.458 310.57 277.389 317.77 262.495 321.351L262.245 320.29C277.078 316.724 299.059 309.551 317.409 299.904C326.585 295.08 334.828 289.651 340.813 283.765C346.804 277.873 350.477 271.58 350.651 265.023C351.371 237.958 364.89 224.196 368.164 221.126V221.975Z" fill="#212121"/>
<path fill-rule="evenodd" clip-rule="evenodd" d="M129.297 220.184C131.615 228.053 140.827 250.336 159.066 276.169C164.732 284.195 170.64 289.338 176.72 292.718C182.803 296.1 189.084 297.733 195.52 298.704C199.468 299.3 203.436 299.643 207.455 299.991C210.021 300.213 212.607 300.436 215.221 300.729C221.895 301.475 228.659 302.663 235.422 305.415C251.89 312.117 261.746 319.475 267.156 323.515C268.793 324.737 270.023 325.656 270.906 326.16C287.311 335.53 302.141 335.529 313.732 333.186C319.533 332.014 324.525 330.254 328.508 328.78C328.949 328.617 329.378 328.457 329.796 328.301C331.257 327.757 332.57 327.268 333.707 326.891C335.157 326.412 336.397 326.089 337.346 326.089C352.794 326.089 365.41 338.187 370.076 355.291C374.748 372.416 371.492 394.626 355.207 415.101C335.986 439.267 319.767 446.813 302.239 448.259C293.509 448.978 284.473 448.183 274.634 447.216C273.962 447.15 273.286 447.083 272.606 447.015C263.321 446.096 253.29 445.103 242.053 445.103V444.013C253.345 444.013 263.424 445.011 272.704 445.93C273.386 445.997 274.064 446.064 274.739 446.131C284.588 447.099 293.531 447.883 302.152 447.172C319.325 445.756 335.29 438.402 354.366 414.418C370.45 394.196 373.609 372.343 369.036 355.58C364.457 338.796 352.168 327.18 337.346 327.18C336.587 327.18 335.495 327.447 334.043 327.928C332.926 328.297 331.639 328.776 330.182 329.319C329.762 329.476 329.327 329.638 328.879 329.804C324.883 331.282 319.829 333.066 313.943 334.255C302.16 336.637 287.054 336.636 270.375 327.109C269.392 326.547 268.081 325.569 266.362 324.286C260.897 320.209 251.308 313.055 235.019 306.426C228.387 303.728 221.734 302.554 215.102 301.812C212.548 301.527 209.984 301.304 207.424 301.083C203.371 300.731 199.33 300.381 195.36 299.782C188.851 298.8 182.434 297.14 176.2 293.674C169.964 290.206 163.938 284.947 158.187 276.802C139.89 250.886 130.62 228.495 128.263 220.495L129.297 220.184Z" fill="#212121"/>
<path d="M149.831 362.359C146.645 357.271 148.144 350.536 153.179 347.317L200.566 317.019C205.601 313.8 212.265 315.315 215.45 320.403L277.159 418.97C280.344 424.058 278.845 430.792 273.81 434.012L226.424 464.309C221.389 467.529 214.725 466.014 211.539 460.925L149.831 362.359Z" fill="#B9B9B9"/>
<path fill-rule="evenodd" clip-rule="evenodd" d="M201.335 318.247L153.948 348.545C149.585 351.335 148.285 357.172 151.046 361.582L212.755 460.148C215.516 464.558 221.291 465.871 225.655 463.081L273.041 432.783C277.405 429.993 278.704 424.157 275.943 419.747L214.235 321.18C211.474 316.771 205.698 315.457 201.335 318.247ZM153.179 347.317C148.144 350.536 146.645 357.271 149.831 362.359L211.539 460.925C214.725 466.014 221.389 467.529 226.424 464.309L273.81 434.012C278.845 430.792 280.344 424.058 277.159 418.97L215.45 320.403C212.265 315.315 205.601 313.8 200.566 317.019L153.179 347.317Z" fill="#212121"/>
<path d="M163.241 364.091C160.587 359.851 161.836 354.239 166.032 351.556L198.585 330.742C202.781 328.059 208.334 329.322 210.989 333.562L227.366 359.721C230.02 363.961 228.771 369.573 224.575 372.255L192.022 393.069C187.826 395.752 182.273 394.489 179.618 390.249L163.241 364.091Z" fill="#DADADA"/>
<path fill-rule="evenodd" clip-rule="evenodd" d="M199.354 331.97L166.801 352.784C163.276 355.038 162.227 359.752 164.457 363.314L180.834 389.472C183.063 393.034 187.728 394.094 191.253 391.841L223.806 371.027C227.33 368.774 228.38 364.059 226.15 360.498L209.773 334.339C207.543 330.777 202.879 329.717 199.354 331.97ZM166.032 351.556C161.836 354.239 160.587 359.851 163.241 364.091L179.618 390.249C182.273 394.489 187.826 395.752 192.022 393.069L224.575 372.255C228.771 369.573 230.02 363.961 227.366 359.721L210.989 333.562C208.334 329.322 202.781 328.059 198.585 330.742L166.032 351.556Z" fill="#212121"/>
<path d="M203.621 356.398C206.558 361.088 205.176 367.295 200.535 370.262C195.895 373.229 189.753 371.833 186.816 367.143C183.88 362.454 185.262 356.246 189.903 353.279C194.543 350.312 200.685 351.709 203.621 356.398Z" fill="#68AAF7"/>
<path fill-rule="evenodd" clip-rule="evenodd" d="M205.614 355.314C205.348 354.89 205.473 354.328 205.893 354.06L213.075 349.468C213.495 349.2 214.05 349.326 214.315 349.75C214.581 350.174 214.456 350.735 214.036 351.003L206.854 355.596C206.434 355.864 205.879 355.738 205.614 355.314Z" fill="#68AAF7"/>
<path fill-rule="evenodd" clip-rule="evenodd" d="M176.539 373.904C176.273 373.48 176.398 372.919 176.818 372.65L184 368.058C184.419 367.79 184.975 367.916 185.24 368.34C185.506 368.764 185.381 369.325 184.961 369.594L177.779 374.186C177.359 374.454 176.804 374.328 176.539 373.904Z" fill="#68AAF7"/>
<path fill-rule="evenodd" clip-rule="evenodd" d="M183.238 360.203C183.129 360.692 182.648 361 182.164 360.89L173.872 359.005C173.388 358.894 173.083 358.408 173.192 357.919C173.301 357.429 173.782 357.122 174.267 357.232L182.559 359.117C183.043 359.227 183.347 359.713 183.238 360.203Z" fill="#68AAF7"/>
<path fill-rule="evenodd" clip-rule="evenodd" d="M198.959 350.152C199.443 350.262 199.924 349.955 200.033 349.465L201.898 341.085C202.007 340.596 201.703 340.11 201.219 340C200.734 339.89 200.253 340.197 200.144 340.687L198.279 349.066C198.17 349.556 198.474 350.042 198.959 350.152Z" fill="#68AAF7"/>
<path fill-rule="evenodd" clip-rule="evenodd" d="M207.386 363.612C207.495 363.123 207.976 362.815 208.46 362.925L216.752 364.81C217.236 364.921 217.541 365.407 217.432 365.896C217.323 366.386 216.842 366.693 216.357 366.583L208.065 364.698C207.581 364.588 207.277 364.102 207.386 363.612Z" fill="#68AAF7"/>
<path fill-rule="evenodd" clip-rule="evenodd" d="M191.666 373.663C192.15 373.773 192.454 374.26 192.345 374.749L190.48 383.129C190.371 383.618 189.89 383.926 189.405 383.816C188.921 383.706 188.617 383.219 188.726 382.73L190.591 374.35C190.7 373.861 191.181 373.553 191.666 373.663Z" fill="#68AAF7"/>
<path fill-rule="evenodd" clip-rule="evenodd" d="M201.876 372.105C202.295 371.837 202.851 371.963 203.116 372.387L207.66 379.645C207.926 380.069 207.801 380.63 207.381 380.899C206.962 381.167 206.406 381.041 206.141 380.617L201.597 373.358C201.331 372.934 201.456 372.373 201.876 372.105Z" fill="#68AAF7"/>
<path fill-rule="evenodd" clip-rule="evenodd" d="M183.48 342.722C183.9 342.454 184.455 342.58 184.72 343.004L189.265 350.262C189.53 350.686 189.405 351.248 188.986 351.516C188.566 351.784 188.011 351.658 187.745 351.234L183.201 343.975C182.936 343.551 183.061 342.99 183.48 342.722Z" fill="#68AAF7"/>
<path d="M250.247 399.251C258.076 411.757 254.391 428.309 242.016 436.222C229.641 444.134 213.263 440.41 205.433 427.904C197.604 415.398 201.289 398.846 213.664 390.934C226.038 383.022 242.417 386.746 250.247 399.251Z" fill="#DADADA"/>
<path fill-rule="evenodd" clip-rule="evenodd" d="M241.247 434.993C252.951 427.51 256.436 411.856 249.031 400.029C241.626 388.201 226.136 384.679 214.433 392.162C202.729 399.645 199.244 415.3 206.649 427.127C214.053 438.954 229.544 442.476 241.247 434.993ZM242.016 436.222C254.391 428.309 258.076 411.757 250.247 399.251C242.417 386.746 226.038 383.022 213.664 390.934C201.289 398.846 197.604 415.398 205.433 427.904C213.263 440.41 229.641 444.134 242.016 436.222Z" fill="#212121"/>
<path d="M232.557 410.373C234.281 413.127 233.47 416.773 230.744 418.515C228.019 420.258 224.412 419.438 222.687 416.683C220.963 413.929 221.775 410.284 224.5 408.541C227.225 406.799 230.833 407.619 232.557 410.373Z" fill="#EA4D67"/>
<path fill-rule="evenodd" clip-rule="evenodd" d="M230.36 417.901C232.75 416.373 233.461 413.177 231.949 410.762C230.437 408.347 227.274 407.628 224.884 409.155C222.495 410.683 221.783 413.88 223.295 416.295C224.807 418.71 227.97 419.429 230.36 417.901ZM230.744 418.515C233.47 416.773 234.281 413.127 232.557 410.373C230.833 407.619 227.225 406.799 224.5 408.541C221.775 410.284 220.963 413.929 222.687 416.683C224.412 419.438 228.019 420.258 230.744 418.515Z" fill="#212121"/>
</svg>
