<svg width="500" height="500" viewBox="0 0 500 500" fill="none" xmlns="http://www.w3.org/2000/svg">
<rect width="500" height="500" fill="#EED78C"/>
<g filter="url(#filter0_d_1661_5458)">
<path d="M144 299C144 299 181.638 304.31 202.54 310.88C222.485 317.149 250 345.167 250 345.167V438C214.633 412.691 178.467 402.869 166.26 402.869L144 299Z" fill="#B6B6B6"/>
</g>
<g filter="url(#filter1_d_1661_5458)">
<path d="M357 300C357 300 319.262 304.892 298.085 311.434C277.877 317.676 250 345.178 250 345.178V438C285.833 412.802 322.475 403.022 334.843 403.022L357 300Z" fill="#B6B6B6"/>
</g>
<path d="M132 309C132 309 171.785 308.889 195.699 316.315C218.52 323.402 250 344.529 250 344.529V460C209.535 431.394 168.157 420.291 154.19 420.291L132 309Z" fill="#DADADA"/>
<path d="M369 309C369 309 328.878 308.889 304.761 316.315C281.747 323.402 250 344.529 250 344.529V460C290.808 431.394 332.537 420.291 346.622 420.291L369 309Z" fill="#DADADA"/>
<g filter="url(#filter2_d_1661_5458)">
<path d="M132 316C132 316 171.785 315.888 195.699 323.363C218.52 330.497 250 351.765 250 351.765V468C209.535 439.204 168.157 428.028 154.19 428.028L132 316Z" fill="#3F5B2D"/>
</g>
<g filter="url(#filter3_d_1661_5458)">
<path d="M369 316C369 316 328.878 315.888 304.761 323.363C281.747 330.497 250 351.765 250 351.765V468C290.808 439.204 332.537 428.028 346.622 428.028L369 316Z" fill="#3F5B2D"/>
</g>
<path d="M363 185.5C363 247.632 313.08 298 251.5 298C189.92 298 140 247.632 140 185.5C140 123.368 189.92 73 251.5 73C313.08 73 363 123.368 363 185.5Z" fill="#A35D45"/>
<path d="M324 272.506C315.3 281.793 286.664 298 252.591 298C216.161 298 190.243 281.429 181 272.506C181 257.923 213.08 194.204 252.591 206.586C295.907 195.296 324 257.923 324 272.506Z" fill="#DADADA"/>
<path fill-rule="evenodd" clip-rule="evenodd" d="M251.271 240.208C251.794 236.243 251.58 232.04 250.988 228.43L253.386 228C254.01 231.81 254.244 236.281 253.681 240.555C253.119 244.818 251.748 248.999 249.067 252.095C246.346 255.237 242.385 257.135 236.932 256.993C231.529 256.852 224.667 254.714 216 249.869L217.146 247.626C225.643 252.375 232.119 254.323 236.992 254.449C241.815 254.575 245.068 252.923 247.264 250.388C249.499 247.807 250.747 244.185 251.271 240.208Z" fill="#212121"/>
<path fill-rule="evenodd" clip-rule="evenodd" d="M253.801 240.208C253.264 236.243 253.484 232.04 254.091 228.43L251.631 228C250.99 231.81 250.75 236.281 251.328 240.555C251.904 244.818 253.311 248.999 256.063 252.095C258.855 255.237 262.921 257.135 268.517 256.993C274.062 256.852 281.105 254.714 290 249.869L288.823 247.626C280.103 252.375 273.456 254.323 268.455 254.449C263.506 254.575 260.167 252.923 257.913 250.388C255.62 247.807 254.339 244.185 253.801 240.208Z" fill="#212121"/>
<path d="M146.639 235.26C144.447 207.453 176.36 121.509 202 85C192.925 85 186.137 88.3271 166.372 90.4312C144.264 92.7846 129.019 136.313 108.088 157.052C90.1823 174.794 79.0371 188.19 112.838 222.949C139.879 250.756 121.182 232.061 122.887 230.372C128.125 241.958 148.832 263.067 146.639 235.26Z" fill="#7B4735"/>
<path fill-rule="evenodd" clip-rule="evenodd" d="M188.336 87.9998C183.056 89.0952 176.432 90.4565 166.575 91.5109C161.252 92.0803 156.29 95.1464 151.491 99.8399C146.695 104.531 142.113 110.798 137.546 117.673C135.337 120.998 133.136 124.458 130.918 127.944L130.698 128.291C128.407 131.893 126.097 135.519 123.746 139.04C119.048 146.078 114.172 152.72 108.928 157.941C99.9937 166.836 92.938 174.479 92.1614 184.154C91.3864 193.81 96.8663 205.691 113.66 223.043C117.678 227.195 120.678 230.306 122.883 232.594C123.026 232.742 123.165 232.886 123.301 233.027C123.171 232.8 123.055 232.582 122.957 232.377C122.802 232.05 122.677 231.723 122.629 231.426C122.584 231.15 122.582 230.75 122.878 230.455L123.437 229.898L123.761 230.617C125.038 233.456 127.273 236.905 129.88 240.05C132.49 243.199 135.438 246 138.125 247.579C139.469 248.368 140.71 248.829 141.784 248.904C142.836 248.977 143.732 248.682 144.459 247.936C145.206 247.17 145.822 245.879 146.177 243.874C146.531 241.875 146.617 239.215 146.346 235.766C145.794 228.726 147.388 218.075 150.457 205.536C153.531 192.98 158.098 178.477 163.529 163.708C174.217 134.643 188.27 104.492 200.907 86.1008C196.934 86.2157 193.293 86.9711 188.518 87.9619L188.336 87.9998ZM127.659 239.005C127.651 239 127.645 238.996 127.64 238.993C127.569 238.948 127.492 238.879 127.434 238.825C127.166 238.579 126.573 237.978 125.546 236.919C124.715 236.061 123.588 234.892 122.099 233.348C119.892 231.059 116.889 227.944 112.875 223.797C96.0472 206.409 90.2593 194.224 91.0745 184.067C91.8882 173.929 99.2809 166.011 108.157 157.174C113.323 152.031 118.15 145.461 122.838 138.439C125.181 134.929 127.485 131.313 129.777 127.71L129.999 127.36C132.215 123.876 134.421 120.408 136.636 117.074C141.212 110.187 145.845 103.841 150.727 99.0654C155.607 94.2923 160.787 91.0382 166.459 90.4314C176.262 89.3828 182.845 88.03 188.113 86.937L188.354 86.887C193.499 85.8193 197.447 85 201.956 85H203L202.404 85.8529C189.691 104.042 175.398 134.589 164.553 164.082C159.132 178.823 154.579 193.286 151.517 205.793C148.451 218.317 146.895 228.825 147.433 235.682C147.708 239.182 147.627 241.941 147.251 244.063C146.877 246.178 146.201 247.709 145.242 248.692C144.264 249.695 143.04 250.079 141.708 249.987C140.399 249.896 138.991 249.348 137.571 248.514C134.73 246.844 131.688 243.936 129.039 240.741C128.566 240.171 128.105 239.591 127.659 239.005ZM123.698 231.142C123.698 231.142 123.698 231.144 123.697 231.147C123.698 231.143 123.698 231.142 123.698 231.142Z" fill="#A35D45"/>
<path d="M353.864 235.26C355.998 207.453 324.947 121.509 300 85C308.829 85 315.434 88.3271 334.665 90.4312C356.176 92.7846 371.008 136.313 391.374 157.052C408.796 174.794 419.64 188.19 386.752 222.949C360.442 250.756 378.634 232.061 376.975 230.372C371.878 241.958 351.731 263.067 353.864 235.26Z" fill="#7B4735"/>
<path fill-rule="evenodd" clip-rule="evenodd" d="M313.402 87.9998C318.588 89.0952 325.093 90.4565 334.774 91.5109C340.002 92.0803 344.876 95.1464 349.589 99.8399C354.3 104.531 358.8 110.798 363.285 117.673C365.455 120.998 367.616 124.458 369.795 127.944L370.011 128.291C372.261 131.893 374.53 135.519 376.838 139.04C381.453 146.078 386.241 152.72 391.392 157.941C400.167 166.836 407.097 174.479 407.859 184.154C408.621 193.81 403.238 205.691 386.744 223.043C382.799 227.195 379.852 230.306 377.686 232.594C377.546 232.742 377.409 232.886 377.276 233.027C377.404 232.8 377.518 232.582 377.613 232.377C377.766 232.05 377.888 231.723 377.936 231.426C377.98 231.15 377.982 230.75 377.691 230.455L377.142 229.898L376.824 230.617C375.569 233.456 373.375 236.905 370.814 240.05C368.25 243.199 365.355 246 362.716 247.579C361.396 248.368 360.178 248.829 359.123 248.904C358.09 248.977 357.21 248.682 356.495 247.936C355.762 247.17 355.157 245.879 354.808 243.874C354.461 241.875 354.377 239.215 354.642 235.766C355.185 228.726 353.619 218.075 350.604 205.536C347.585 192.98 343.1 178.477 337.766 163.708C327.269 134.643 313.467 104.492 301.055 86.1008C304.958 86.2157 308.533 86.9711 313.223 87.9619L313.402 87.9998ZM372.996 239.005C373.003 239 373.01 238.996 373.014 238.993C373.084 238.948 373.159 238.879 373.217 238.825C373.48 238.579 374.062 237.978 375.071 236.919C375.887 236.061 376.994 234.892 378.456 233.348C380.624 231.059 383.574 227.944 387.516 223.797C404.043 206.409 409.727 194.224 408.927 184.067C408.128 173.929 400.867 166.011 392.149 157.174C387.076 152.031 382.334 145.461 377.73 138.439C375.43 134.929 373.167 131.313 370.916 127.71L370.697 127.36C368.521 123.876 366.354 120.408 364.179 117.074C359.685 110.187 355.134 103.841 350.339 99.0654C345.546 94.2923 340.459 91.0382 334.888 90.4314C325.26 89.3828 318.795 88.03 313.621 86.937L313.384 86.887C308.331 85.8193 304.454 85 300.025 85H299L299.585 85.8529C312.071 104.042 326.109 134.589 336.76 164.082C342.084 178.823 346.557 193.286 349.564 205.793C352.575 218.317 354.103 228.825 353.575 235.682C353.305 239.182 353.385 241.941 353.753 244.063C354.121 246.178 354.785 247.709 355.727 248.692C356.687 249.695 357.889 250.079 359.197 249.987C360.483 249.896 361.866 249.348 363.261 248.514C366.051 246.844 369.039 243.936 371.64 240.741C372.104 240.171 372.557 239.591 372.996 239.005ZM376.886 231.142C376.886 231.142 376.886 231.144 376.887 231.147C376.886 231.143 376.886 231.142 376.886 231.142Z" fill="#A35D45"/>
<path d="M240.41 151.968C243.446 167.369 244.67 193.867 243.405 205.202L252.658 209L261 206.641C257.784 196.186 254.211 173.942 254.211 170.679C254.211 166.701 251.968 134.517 254.211 121.023C256.453 107.53 258.24 79.8033 255.997 77.1047C253.755 74.406 249.27 77.1047 244.957 80.343C241.282 83.1023 236.615 132.718 240.41 151.968Z" fill="#DADADA"/>
<path fill-rule="evenodd" clip-rule="evenodd" d="M251.41 77.5305C249.475 78.239 247.249 79.6717 245.018 81.2761C244.898 81.3627 244.703 81.6072 244.466 82.1091C244.239 82.5902 244.003 83.2398 243.763 84.0489C243.282 85.6652 242.801 87.8635 242.339 90.5026C241.416 95.7774 240.58 102.764 239.984 110.268C238.792 125.296 238.573 142.303 240.521 151.768C243.638 166.906 244.917 192.801 243.675 204.322L252.711 207.874L260.639 205.727C259.014 200.498 257.324 192.665 256.027 185.688C255.355 182.075 254.788 178.683 254.388 175.99C253.99 173.316 253.752 171.289 253.752 170.432C253.752 169.645 253.657 167.711 253.524 164.994C253.493 164.363 253.46 163.691 253.426 162.981C253.244 159.223 253.026 154.441 252.881 149.363C252.591 139.226 252.588 127.847 253.759 121.095C254.916 114.431 255.957 104.233 256.419 95.3658C256.65 90.9323 256.735 86.8436 256.619 83.7027C256.561 82.1309 256.453 80.8096 256.291 79.8065C256.21 79.3047 256.117 78.8943 256.015 78.5775C255.91 78.2507 255.808 78.0672 255.733 77.9807C254.798 76.9039 253.358 76.8171 251.41 77.5305ZM251.041 76.5253C253.112 75.7667 255.155 75.6799 256.543 77.2795C256.758 77.5276 256.914 77.8725 257.035 78.2491C257.16 78.6357 257.263 79.1036 257.349 79.6359C257.521 80.7011 257.632 82.0718 257.69 83.6633C257.808 86.8491 257.721 90.9731 257.49 95.4214C257.026 104.317 255.981 114.56 254.816 121.278C253.665 127.907 253.662 139.179 253.952 149.333C254.097 154.4 254.315 159.174 254.496 162.929C254.53 163.63 254.563 164.297 254.593 164.923C254.727 167.643 254.823 169.617 254.823 170.432C254.823 171.194 255.047 173.137 255.448 175.833C255.846 178.511 256.411 181.89 257.081 185.492C258.422 192.705 260.175 200.784 261.829 205.934L262 206.467L252.649 209L242.517 205.017L242.565 204.608C243.867 193.432 242.606 167.21 239.472 151.984C237.49 142.356 237.723 125.215 238.916 110.183C239.513 102.657 240.353 95.6358 241.283 90.3183C241.748 87.6612 242.238 85.4173 242.735 83.7443C242.983 82.9087 243.237 82.2019 243.497 81.6522C243.747 81.1234 244.036 80.6628 244.392 80.4073C246.627 78.8001 248.956 77.2888 251.041 76.5253Z" fill="#DADADA"/>
<path d="M257.282 227.711C254.751 230.763 250.249 230.763 247.718 227.711L240.591 219.118C236.742 214.478 240.375 207.281 246.173 208.058L251.699 208.798C252.231 208.87 252.769 208.87 253.301 208.798L258.827 208.058C264.625 207.281 268.258 214.478 264.409 219.118L257.282 227.711Z" fill="#212121"/>
<path d="M221 166.5C221 176.165 213.613 184 204.5 184C195.387 184 188 176.165 188 166.5C188 156.835 195.387 149 204.5 149C213.613 149 221 156.835 221 166.5Z" fill="#212121"/>
<path d="M216 166C216 169.866 212.642 173 208.5 173C204.358 173 201 169.866 201 166C201 162.134 204.358 159 208.5 159C212.642 159 216 162.134 216 166Z" fill="#DADADA"/>
<path d="M283 167C283 176.941 290.387 185 299.5 185C308.613 185 316 176.941 316 167C316 157.059 308.613 149 299.5 149C290.387 149 283 157.059 283 167Z" fill="#212121"/>
<path d="M288 167C288 170.866 291.358 174 295.5 174C299.642 174 303 170.866 303 167C303 163.134 299.642 160 295.5 160C291.358 160 288 163.134 288 167Z" fill="#DADADA"/>
<path fill-rule="evenodd" clip-rule="evenodd" d="M211.5 194.374C226.862 194.374 239.316 182.118 239.316 167C239.316 151.882 226.862 139.626 211.5 139.626C196.138 139.626 183.684 151.882 183.684 167C183.684 182.118 196.138 194.374 211.5 194.374ZM211.5 198C228.897 198 243 184.121 243 167C243 149.879 228.897 136 211.5 136C194.103 136 180 149.879 180 167C180 184.121 194.103 198 211.5 198Z" fill="#212121"/>
<path fill-rule="evenodd" clip-rule="evenodd" d="M291.5 194.374C306.862 194.374 319.316 182.118 319.316 167C319.316 151.882 306.862 139.626 291.5 139.626C276.138 139.626 263.684 151.882 263.684 167C263.684 182.118 276.138 194.374 291.5 194.374ZM291.5 198C308.897 198 323 184.121 323 167C323 149.879 308.897 136 291.5 136C274.103 136 260 149.879 260 167C260 184.121 274.103 198 291.5 198Z" fill="#212121"/>
<path fill-rule="evenodd" clip-rule="evenodd" d="M261.31 171C251.629 169.362 243.604 170.336 240.965 170.972L240 167.987C243.182 167.22 251.774 166.229 262 167.959L261.31 171Z" fill="#212121"/>
<path fill-rule="evenodd" clip-rule="evenodd" d="M153.217 149L184 163.917L181.783 169L151 154.083L153.217 149Z" fill="#212121"/>
<path fill-rule="evenodd" clip-rule="evenodd" d="M350.85 149L321 163.917L323.15 169L353 154.083L350.85 149Z" fill="#212121"/>
<defs>
<filter id="filter0_d_1661_5458" x="137" y="290" width="114" height="148" filterUnits="userSpaceOnUse" color-interpolation-filters="sRGB">
<feFlood flood-opacity="0" result="BackgroundImageFix"/>
<feColorMatrix in="SourceAlpha" type="matrix" values="0 0 0 0 0 0 0 0 0 0 0 0 0 0 0 0 0 0 127 0" result="hardAlpha"/>
<feOffset dx="-3" dy="-5"/>
<feGaussianBlur stdDeviation="2"/>
<feComposite in2="hardAlpha" operator="out"/>
<feColorMatrix type="matrix" values="0 0 0 0 1 0 0 0 0 1 0 0 0 0 1 0 0 0 0.25 0"/>
<feBlend mode="normal" in2="BackgroundImageFix" result="effect1_dropShadow_1661_5458"/>
<feBlend mode="normal" in="SourceGraphic" in2="effect1_dropShadow_1661_5458" result="shape"/>
</filter>
<filter id="filter1_d_1661_5458" x="243" y="291" width="115" height="147" filterUnits="userSpaceOnUse" color-interpolation-filters="sRGB">
<feFlood flood-opacity="0" result="BackgroundImageFix"/>
<feColorMatrix in="SourceAlpha" type="matrix" values="0 0 0 0 0 0 0 0 0 0 0 0 0 0 0 0 0 0 127 0" result="hardAlpha"/>
<feOffset dx="-3" dy="-5"/>
<feGaussianBlur stdDeviation="2"/>
<feComposite in2="hardAlpha" operator="out"/>
<feColorMatrix type="matrix" values="0 0 0 0 1 0 0 0 0 1 0 0 0 0 1 0 0 0 0.25 0"/>
<feBlend mode="normal" in2="BackgroundImageFix" result="effect1_dropShadow_1661_5458"/>
<feBlend mode="normal" in="SourceGraphic" in2="effect1_dropShadow_1661_5458" result="shape"/>
</filter>
<filter id="filter2_d_1661_5458" x="125" y="307" width="126" height="161" filterUnits="userSpaceOnUse" color-interpolation-filters="sRGB">
<feFlood flood-opacity="0" result="BackgroundImageFix"/>
<feColorMatrix in="SourceAlpha" type="matrix" values="0 0 0 0 0 0 0 0 0 0 0 0 0 0 0 0 0 0 127 0" result="hardAlpha"/>
<feOffset dx="-3" dy="-5"/>
<feGaussianBlur stdDeviation="2"/>
<feComposite in2="hardAlpha" operator="out"/>
<feColorMatrix type="matrix" values="0 0 0 0 0 0 0 0 0 0 0 0 0 0 0 0 0 0 0.25 0"/>
<feBlend mode="normal" in2="BackgroundImageFix" result="effect1_dropShadow_1661_5458"/>
<feBlend mode="normal" in="SourceGraphic" in2="effect1_dropShadow_1661_5458" result="shape"/>
</filter>
<filter id="filter3_d_1661_5458" x="243" y="307" width="127" height="161" filterUnits="userSpaceOnUse" color-interpolation-filters="sRGB">
<feFlood flood-opacity="0" result="BackgroundImageFix"/>
<feColorMatrix in="SourceAlpha" type="matrix" values="0 0 0 0 0 0 0 0 0 0 0 0 0 0 0 0 0 0 127 0" result="hardAlpha"/>
<feOffset dx="-3" dy="-5"/>
<feGaussianBlur stdDeviation="2"/>
<feComposite in2="hardAlpha" operator="out"/>
<feColorMatrix type="matrix" values="0 0 0 0 0 0 0 0 0 0 0 0 0 0 0 0 0 0 0.25 0"/>
<feBlend mode="normal" in2="BackgroundImageFix" result="effect1_dropShadow_1661_5458"/>
<feBlend mode="normal" in="SourceGraphic" in2="effect1_dropShadow_1661_5458" result="shape"/>
</filter>
</defs>
</svg>
