<svg width="500" height="500" viewBox="0 0 500 500" fill="none" xmlns="http://www.w3.org/2000/svg">
<rect width="500" height="500" fill="#EED78C"/>
<g filter="url(#filter0_d_1661_5423)">
<path d="M144 299C144 299 181.638 304.31 202.54 310.88C222.485 317.149 250 345.167 250 345.167V438C214.633 412.691 178.467 402.869 166.26 402.869L144 299Z" fill="#B6B6B6"/>
</g>
<g filter="url(#filter1_d_1661_5423)">
<path d="M357 300C357 300 319.262 304.892 298.085 311.434C277.877 317.676 250 345.178 250 345.178V438C285.833 412.802 322.475 403.022 334.843 403.022L357 300Z" fill="#B6B6B6"/>
</g>
<path d="M132 309C132 309 171.785 308.889 195.699 316.315C218.52 323.402 250 344.529 250 344.529V460C209.535 431.394 168.157 420.291 154.19 420.291L132 309Z" fill="#DADADA"/>
<path d="M369 309C369 309 328.878 308.889 304.761 316.315C281.747 323.402 250 344.529 250 344.529V460C290.808 431.394 332.537 420.291 346.622 420.291L369 309Z" fill="#DADADA"/>
<g filter="url(#filter2_d_1661_5423)">
<path d="M132 316C132 316 171.785 315.888 195.699 323.363C218.52 330.497 250 351.765 250 351.765V468C209.535 439.204 168.157 428.028 154.19 428.028L132 316Z" fill="#3F5B2D"/>
</g>
<g filter="url(#filter3_d_1661_5423)">
<path d="M369 316C369 316 328.878 315.888 304.761 323.363C281.747 330.497 250 351.765 250 351.765V468C290.808 439.204 332.537 428.028 346.622 428.028L369 316Z" fill="#3F5B2D"/>
</g>
<path d="M217.299 81.8585C191.814 57.6423 176.674 52.4785 142.256 45C134.095 78.9027 145.656 133.793 152.457 157C182.762 145.307 242.783 106.075 217.299 81.8585Z" fill="#595959"/>
<path d="M194.935 83.7329C180.372 70.1113 171.72 67.2067 152.053 63C147.39 82.0703 153.996 112.946 157.882 126C175.199 119.423 209.497 97.3545 194.935 83.7329Z" fill="#D8B3CB"/>
<path d="M285.6 81.8585C311.084 57.6423 326.225 52.4785 360.642 45C368.803 78.9027 357.242 133.793 350.441 157C320.137 145.307 260.115 106.075 285.6 81.8585Z" fill="#595959"/>
<path d="M307.891 83.7329C322.15 70.1113 330.621 67.2067 349.879 63C354.445 82.0703 347.976 112.946 344.171 126C327.215 119.423 293.631 97.3545 307.891 83.7329Z" fill="#D8B3CB"/>
<path d="M363.449 185.5C363.449 247.632 313.305 298 251.449 298C189.593 298 139.449 247.632 139.449 185.5C139.449 123.368 189.593 73 251.449 73C313.305 73 363.449 123.368 363.449 185.5Z" fill="#595959"/>
<path d="M183.449 167C183.449 179.703 183.449 190 206.449 190C229.449 190 229.449 179.703 229.449 167C229.449 154.297 219.152 144 206.449 144C193.747 144 183.449 154.297 183.449 167Z" fill="#DADADA"/>
<path d="M190.449 169C190.449 178.389 190.449 186 206.949 186C223.449 186 223.449 178.389 223.449 169C223.449 159.611 216.062 152 206.949 152C197.837 152 190.449 159.611 190.449 169Z" fill="#212121"/>
<path d="M217.449 170C217.449 173.314 214.539 176 210.949 176C207.359 176 204.449 173.314 204.449 170C204.449 166.686 207.359 164 210.949 164C214.539 164 217.449 166.686 217.449 170Z" fill="#DADADA"/>
<path d="M311.449 167C311.449 179.703 311.449 190 288.949 190C266.449 190 266.449 179.703 266.449 167C266.449 154.297 276.523 144 288.949 144C301.376 144 311.449 154.297 311.449 167Z" fill="#DADADA"/>
<path d="M305.449 169C305.449 178.389 305.449 186 288.949 186C272.449 186 272.449 178.389 272.449 169C272.449 159.611 279.837 152 288.949 152C298.062 152 305.449 159.611 305.449 169Z" fill="#212121"/>
<path d="M279.449 170C279.449 173.314 282.359 176 285.949 176C289.539 176 292.449 173.314 292.449 170C292.449 166.686 289.539 164 285.949 164C282.359 164 279.449 166.686 279.449 170Z" fill="#DADADA"/>
<path fill-rule="evenodd" clip-rule="evenodd" d="M331.93 202.95C319.014 209.359 306.56 216.959 299.043 222L298.449 221.111C305.998 216.049 318.492 208.424 331.456 201.991C344.393 195.571 357.893 190.289 367.417 190L367.449 191.069C358.182 191.351 344.872 196.528 331.93 202.95Z" fill="#212121"/>
<path fill-rule="evenodd" clip-rule="evenodd" d="M160.998 202.95C174.288 209.359 187.103 216.959 194.838 222L195.449 221.111C187.682 216.049 174.826 208.424 161.486 201.991C148.174 195.571 134.283 190.289 124.482 190L124.449 191.069C133.985 191.351 147.681 196.528 160.998 202.95Z" fill="#212121"/>
<path fill-rule="evenodd" clip-rule="evenodd" d="M337.314 222.04C322.898 223.995 308.541 227.236 299.729 229.626L299.447 228.585C308.296 226.186 322.7 222.935 337.169 220.972C351.608 219.013 366.22 218.322 375.422 221.116L375.109 222.147C366.156 219.429 351.758 220.08 337.314 222.04Z" fill="#212121"/>
<path fill-rule="evenodd" clip-rule="evenodd" d="M156.14 222.04C170.555 223.995 184.912 227.236 193.724 229.626L194.006 228.585C185.157 226.186 170.754 222.935 156.284 220.972C141.845 219.013 127.233 218.322 118.031 221.116L118.344 222.147C127.298 219.429 141.695 220.08 156.14 222.04Z" fill="#212121"/>
<path fill-rule="evenodd" clip-rule="evenodd" d="M337.509 241.858C323.268 238.891 308.652 237.157 299.548 236.469L299.629 235.394C308.771 236.085 323.434 237.825 337.729 240.803C351.995 243.774 365.999 247.998 373.742 253.702L373.103 254.57C365.569 249.02 351.78 244.83 337.509 241.858Z" fill="#212121"/>
<path fill-rule="evenodd" clip-rule="evenodd" d="M155.942 241.858C170.184 238.891 184.799 237.157 193.903 236.469L193.822 235.394C184.68 236.085 170.017 237.825 155.722 240.803C141.457 243.774 127.452 247.998 119.709 253.702L120.348 254.57C127.882 249.02 141.671 244.83 155.942 241.858Z" fill="#212121"/>
<path d="M313.449 233.018C313.449 247.367 285.691 259 251.449 259C217.208 259 189.449 247.367 189.449 233.018C189.449 218.668 212.721 195.209 251.449 207.394C293.908 196.284 313.449 218.668 313.449 233.018Z" fill="#DADADA"/>
<path d="M256.731 225.607C254.2 228.798 249.698 228.798 247.167 225.607L240.04 216.623C236.191 211.772 239.824 204.249 245.623 205.061L251.149 205.835C251.68 205.909 252.218 205.909 252.75 205.835L258.276 205.061C264.074 204.249 267.707 211.772 263.859 216.623L256.731 225.607Z" fill="#212121"/>
<path fill-rule="evenodd" clip-rule="evenodd" d="M251.505 237.208C252.069 233.243 251.838 229.04 251.2 225.43L253.786 225C254.46 228.81 254.712 233.281 254.105 237.555C253.498 241.818 252.02 245.999 249.126 249.095C246.191 252.237 241.917 254.135 236.034 253.993C230.204 253.852 222.801 251.714 213.449 246.869L214.686 244.626C223.854 249.375 230.841 251.323 236.099 251.449C241.302 251.575 244.812 249.923 247.181 247.388C249.592 244.807 250.939 241.185 251.505 237.208Z" fill="#212121"/>
<path fill-rule="evenodd" clip-rule="evenodd" d="M254.25 237.208C253.714 233.243 253.933 229.04 254.54 225.43L252.08 225C251.439 228.81 251.199 233.281 251.777 237.555C252.354 241.818 253.76 245.999 256.513 249.095C259.305 252.237 263.37 254.135 268.967 253.993C274.512 253.852 281.554 251.714 290.449 246.869L289.273 244.626C280.552 249.375 273.906 251.323 268.904 251.449C263.955 251.575 260.616 249.923 258.363 247.388C256.069 244.807 254.788 241.185 254.25 237.208Z" fill="#212121"/>
<path fill-rule="evenodd" clip-rule="evenodd" d="M210.449 197.374C225.08 197.374 236.94 185.118 236.94 170C236.94 154.882 225.08 142.626 210.449 142.626C195.819 142.626 183.958 154.882 183.958 170C183.958 185.118 195.819 197.374 210.449 197.374ZM210.449 201C227.018 201 240.449 187.121 240.449 170C240.449 152.879 227.018 139 210.449 139C193.881 139 180.449 152.879 180.449 170C180.449 187.121 193.881 201 210.449 201Z" fill="#212121"/>
<path fill-rule="evenodd" clip-rule="evenodd" d="M290.949 197.374C305.824 197.374 317.882 185.118 317.882 170C317.882 154.882 305.824 142.626 290.949 142.626C276.075 142.626 264.016 154.882 264.016 170C264.016 185.118 276.075 197.374 290.949 197.374ZM290.949 201C307.794 201 321.449 187.121 321.449 170C321.449 152.879 307.794 139 290.949 139C274.105 139 260.449 152.879 260.449 170C260.449 187.121 274.105 201 290.949 201Z" fill="#212121"/>
<path fill-rule="evenodd" clip-rule="evenodd" d="M260.791 173C251.55 170.953 243.889 172.17 241.37 172.965L240.449 169.233C243.486 168.275 251.688 167.036 261.449 169.198L260.791 173Z" fill="#212121"/>
<path fill-rule="evenodd" clip-rule="evenodd" d="M151.733 152L183.449 166.917L181.165 172L149.449 157.083L151.733 152Z" fill="#212121"/>
<path fill-rule="evenodd" clip-rule="evenodd" d="M351.232 152L320.449 166.917L322.666 172L353.449 157.083L351.232 152Z" fill="#212121"/>
<defs>
<filter id="filter0_d_1661_5423" x="137" y="290" width="114" height="148" filterUnits="userSpaceOnUse" color-interpolation-filters="sRGB">
<feFlood flood-opacity="0" result="BackgroundImageFix"/>
<feColorMatrix in="SourceAlpha" type="matrix" values="0 0 0 0 0 0 0 0 0 0 0 0 0 0 0 0 0 0 127 0" result="hardAlpha"/>
<feOffset dx="-3" dy="-5"/>
<feGaussianBlur stdDeviation="2"/>
<feComposite in2="hardAlpha" operator="out"/>
<feColorMatrix type="matrix" values="0 0 0 0 1 0 0 0 0 1 0 0 0 0 1 0 0 0 0.25 0"/>
<feBlend mode="normal" in2="BackgroundImageFix" result="effect1_dropShadow_1661_5423"/>
<feBlend mode="normal" in="SourceGraphic" in2="effect1_dropShadow_1661_5423" result="shape"/>
</filter>
<filter id="filter1_d_1661_5423" x="243" y="291" width="115" height="147" filterUnits="userSpaceOnUse" color-interpolation-filters="sRGB">
<feFlood flood-opacity="0" result="BackgroundImageFix"/>
<feColorMatrix in="SourceAlpha" type="matrix" values="0 0 0 0 0 0 0 0 0 0 0 0 0 0 0 0 0 0 127 0" result="hardAlpha"/>
<feOffset dx="-3" dy="-5"/>
<feGaussianBlur stdDeviation="2"/>
<feComposite in2="hardAlpha" operator="out"/>
<feColorMatrix type="matrix" values="0 0 0 0 1 0 0 0 0 1 0 0 0 0 1 0 0 0 0.25 0"/>
<feBlend mode="normal" in2="BackgroundImageFix" result="effect1_dropShadow_1661_5423"/>
<feBlend mode="normal" in="SourceGraphic" in2="effect1_dropShadow_1661_5423" result="shape"/>
</filter>
<filter id="filter2_d_1661_5423" x="125" y="307" width="126" height="161" filterUnits="userSpaceOnUse" color-interpolation-filters="sRGB">
<feFlood flood-opacity="0" result="BackgroundImageFix"/>
<feColorMatrix in="SourceAlpha" type="matrix" values="0 0 0 0 0 0 0 0 0 0 0 0 0 0 0 0 0 0 127 0" result="hardAlpha"/>
<feOffset dx="-3" dy="-5"/>
<feGaussianBlur stdDeviation="2"/>
<feComposite in2="hardAlpha" operator="out"/>
<feColorMatrix type="matrix" values="0 0 0 0 0 0 0 0 0 0 0 0 0 0 0 0 0 0 0.25 0"/>
<feBlend mode="normal" in2="BackgroundImageFix" result="effect1_dropShadow_1661_5423"/>
<feBlend mode="normal" in="SourceGraphic" in2="effect1_dropShadow_1661_5423" result="shape"/>
</filter>
<filter id="filter3_d_1661_5423" x="243" y="307" width="127" height="161" filterUnits="userSpaceOnUse" color-interpolation-filters="sRGB">
<feFlood flood-opacity="0" result="BackgroundImageFix"/>
<feColorMatrix in="SourceAlpha" type="matrix" values="0 0 0 0 0 0 0 0 0 0 0 0 0 0 0 0 0 0 127 0" result="hardAlpha"/>
<feOffset dx="-3" dy="-5"/>
<feGaussianBlur stdDeviation="2"/>
<feComposite in2="hardAlpha" operator="out"/>
<feColorMatrix type="matrix" values="0 0 0 0 0 0 0 0 0 0 0 0 0 0 0 0 0 0 0.25 0"/>
<feBlend mode="normal" in2="BackgroundImageFix" result="effect1_dropShadow_1661_5423"/>
<feBlend mode="normal" in="SourceGraphic" in2="effect1_dropShadow_1661_5423" result="shape"/>
</filter>
</defs>
</svg>
