<svg width="500" height="500" viewBox="0 0 500 500" fill="none" xmlns="http://www.w3.org/2000/svg">
<rect width="500" height="500" fill="#B3DCCF"/>
<path d="M211 82.5C211 99.897 197.121 114 180 114C162.879 114 149 99.897 149 82.5C149 65.103 162.879 51 180 51C197.121 51 211 65.103 211 82.5Z" fill="#212121"/>
<path d="M195 86.5C195 95.0604 188.508 102 180.5 102C172.492 102 166 95.0604 166 86.5C166 77.9396 172.492 71 180.5 71C188.508 71 195 77.9396 195 86.5Z" fill="#383838"/>
<path d="M353 82.5C353 99.897 339.121 114 322 114C304.879 114 291 99.897 291 82.5C291 65.103 304.879 51 322 51C339.121 51 353 65.103 353 82.5Z" fill="#212121"/>
<path d="M337 86.5C337 95.0604 330.06 102 321.5 102C312.94 102 306 95.0604 306 86.5C306 77.9396 312.94 71 321.5 71C330.06 71 337 77.9396 337 86.5Z" fill="#383838"/>
<path d="M361 182C361 244.408 311.08 295 249.5 295C187.92 295 138 244.408 138 182C138 119.592 187.92 69 249.5 69C311.08 69 361 119.592 361 182Z" fill="#DADADA"/>
<path d="M238.646 165.942C245.587 154.67 239.856 144.932 233.228 140.616C190.009 118.534 150.582 172.856 167.675 189.361C184.768 205.866 229.969 180.031 238.646 165.942Z" fill="#383838"/>
<path d="M264.087 165.942C257.145 154.67 262.876 144.932 269.504 140.616C312.723 118.534 352.15 172.856 335.057 189.361C317.964 205.866 272.764 180.031 264.087 165.942Z" fill="#383838"/>
<path d="M229 158.5C229 168.717 220.717 177 210.5 177C200.283 177 192 168.717 192 158.5C192 148.283 200.283 140 210.5 140C220.717 140 229 148.283 229 158.5Z" fill="#212121"/>
<path d="M226 157C226 160.866 223.09 164 219.5 164C215.91 164 213 160.866 213 157C213 153.134 215.91 150 219.5 150C223.09 150 226 153.134 226 157Z" fill="#DADADA"/>
<path d="M311 158.5C311 168.717 302.941 177 293 177C283.059 177 275 168.717 275 158.5C275 148.283 283.059 140 293 140C302.941 140 311 148.283 311 158.5Z" fill="#212121"/>
<path d="M257.605 221.815C255.167 224.728 250.833 224.728 248.395 221.815L241.532 213.613C237.826 209.184 241.324 202.314 246.908 203.055L252.229 203.762C252.741 203.83 253.259 203.83 253.771 203.762L259.092 203.055C264.676 202.314 268.174 209.184 264.468 213.613L257.605 221.815Z" fill="#212121"/>
<path fill-rule="evenodd" clip-rule="evenodd" d="M251.128 234.629C251.677 230.528 251.453 226.179 250.83 222.445L253.353 222C254.011 225.941 254.257 230.566 253.664 234.988C253.072 239.398 251.63 243.723 248.807 246.926C245.943 250.176 241.774 252.139 236.034 251.992C230.346 251.847 223.123 249.635 214 244.623L215.207 242.302C224.151 247.216 230.968 249.23 236.097 249.362C241.174 249.491 244.598 247.782 246.909 245.159C249.262 242.49 250.576 238.743 251.128 234.629Z" fill="#212121"/>
<path fill-rule="evenodd" clip-rule="evenodd" d="M253.872 234.629C253.323 230.528 253.547 226.179 254.17 222.445L251.647 222C250.989 225.941 250.743 230.566 251.336 234.988C251.928 239.398 253.37 243.723 256.193 246.926C259.057 250.176 263.226 252.139 268.966 251.992C274.654 251.847 281.877 249.635 291 244.623L289.793 242.302C280.849 247.216 274.032 249.23 268.903 249.362C263.826 249.491 260.402 247.782 258.091 245.159C255.738 242.49 254.424 238.743 253.872 234.629Z" fill="#212121"/>
<path d="M291 157C291 160.866 288.314 164 285 164C281.686 164 279 160.866 279 157C279 153.134 281.686 150 285 150C288.314 150 291 153.134 291 157Z" fill="#DADADA"/>
<path fill-rule="evenodd" clip-rule="evenodd" d="M141.319 108.922C119.947 137.115 112.266 169.741 112.421 187.023C112.457 191.037 109.267 194.32 105.295 194.356C101.323 194.393 98.0739 191.168 98.0379 187.154C97.8538 166.633 106.577 130.849 129.901 100.082C153.497 68.9566 192.034 43.0003 250.863 43C308.111 42.9997 345.227 66.9883 368.216 97.2683C390.96 127.223 399.598 162.914 401.159 186.606C401.423 190.611 398.424 194.074 394.461 194.341C390.497 194.607 387.071 191.577 386.807 187.571C385.383 165.968 377.404 133.249 356.805 106.117C336.452 79.3101 303.501 57.5358 250.863 57.536C196.869 57.5363 162.419 81.0887 141.319 108.922Z" fill="#87A7E1"/>
<path d="M131.836 178.185C131.836 202.37 131.836 178.185 131.836 221.975C117.14 221.975 105.226 202.37 105.226 178.185C105.226 154.001 117.14 134.395 131.836 134.395C131.836 185.471 131.836 154.001 131.836 178.185Z" fill="#6D6D6D"/>
<path d="M104.076 178.197C104.076 186.734 104.076 178.197 104.076 193.654C97.9587 193.654 93 186.734 93 178.197C93 169.661 97.9587 162.741 104.076 162.741C104.076 180.769 104.076 169.661 104.076 178.197Z" fill="#6D6D6D"/>
<path d="M132.987 134.395H144.854V221.805H132.987L132.987 134.395Z" fill="#68AAF7"/>
<path d="M368.164 178.185C368.164 202.37 368.164 178.185 368.164 221.975C382.86 221.975 394.774 202.37 394.774 178.185C394.774 154.001 382.86 134.395 368.164 134.395C368.164 185.471 368.164 154.001 368.164 178.185Z" fill="#6D6D6D"/>
<path d="M395.924 178.197C395.924 186.734 395.924 178.197 395.924 193.654C402.041 193.654 407 186.734 407 178.197C407 169.661 402.041 162.741 395.924 162.741C395.924 180.769 395.924 169.661 395.924 178.197Z" fill="#6D6D6D"/>
<path d="M367.013 134.395H355.146V221.805H367.013V134.395Z" fill="#68AAF7"/>
<path fill-rule="evenodd" clip-rule="evenodd" d="M368.164 221.975L368.874 221.96C365.314 225.934 352.443 238.24 351.73 265.053C351.545 272.015 347.651 278.561 341.565 284.546C335.474 290.536 327.13 296.023 317.907 300.872C299.458 310.57 277.389 317.77 262.495 321.351L262.245 320.29C277.078 316.724 299.059 309.551 317.409 299.904C326.585 295.08 334.828 289.651 340.813 283.765C346.804 277.873 350.477 271.58 350.651 265.023C351.371 237.958 364.89 224.196 368.164 221.126V221.975Z" fill="#212121"/>
<path fill-rule="evenodd" clip-rule="evenodd" d="M129.297 220.184C131.615 228.053 140.827 250.336 159.066 276.169C164.732 284.195 170.64 289.338 176.72 292.718C182.803 296.1 189.084 297.733 195.52 298.704C199.468 299.3 203.436 299.643 207.455 299.991C210.021 300.213 212.607 300.436 215.221 300.729C221.895 301.475 228.659 302.663 235.422 305.415C251.89 312.117 261.746 319.475 267.156 323.515C268.793 324.737 270.023 325.656 270.906 326.16C287.311 335.53 302.141 335.529 313.732 333.186C319.533 332.014 324.525 330.254 328.508 328.78C328.949 328.617 329.378 328.457 329.796 328.301C331.257 327.757 332.57 327.268 333.707 326.891C335.157 326.412 336.397 326.089 337.346 326.089C352.794 326.089 365.41 338.187 370.076 355.291C374.748 372.416 371.492 394.626 355.207 415.101C335.986 439.267 319.767 446.813 302.239 448.259C293.509 448.978 284.473 448.183 274.634 447.216C273.962 447.15 273.286 447.083 272.606 447.015C263.321 446.096 253.29 445.103 242.053 445.103V444.013C253.345 444.013 263.424 445.011 272.704 445.93C273.386 445.997 274.064 446.064 274.739 446.131C284.588 447.099 293.531 447.883 302.152 447.172C319.325 445.756 335.29 438.402 354.366 414.418C370.45 394.196 373.609 372.343 369.036 355.58C364.457 338.796 352.168 327.18 337.346 327.18C336.587 327.18 335.495 327.447 334.043 327.928C332.926 328.297 331.639 328.776 330.182 329.319C329.762 329.476 329.327 329.638 328.879 329.804C324.883 331.282 319.829 333.066 313.943 334.255C302.16 336.637 287.054 336.636 270.375 327.109C269.392 326.547 268.081 325.569 266.362 324.286C260.897 320.209 251.308 313.055 235.019 306.426C228.387 303.728 221.734 302.554 215.102 301.812C212.548 301.527 209.984 301.304 207.424 301.083C203.371 300.731 199.33 300.381 195.36 299.782C188.851 298.8 182.434 297.14 176.2 293.674C169.964 290.206 163.938 284.947 158.187 276.802C139.89 250.886 130.62 228.495 128.263 220.495L129.297 220.184Z" fill="#212121"/>
<path d="M149.831 362.359C146.645 357.271 148.144 350.536 153.179 347.317L200.566 317.019C205.601 313.8 212.265 315.315 215.45 320.403L277.159 418.97C280.344 424.058 278.845 430.792 273.81 434.012L226.424 464.309C221.389 467.529 214.725 466.014 211.539 460.925L149.831 362.359Z" fill="#B9B9B9"/>
<path fill-rule="evenodd" clip-rule="evenodd" d="M201.335 318.247L153.948 348.545C149.585 351.335 148.285 357.172 151.046 361.582L212.755 460.148C215.516 464.558 221.291 465.871 225.655 463.081L273.041 432.783C277.405 429.993 278.704 424.157 275.943 419.747L214.235 321.18C211.474 316.771 205.698 315.457 201.335 318.247ZM153.179 347.317C148.144 350.536 146.645 357.271 149.831 362.359L211.539 460.925C214.725 466.014 221.389 467.529 226.424 464.309L273.81 434.012C278.845 430.792 280.344 424.058 277.159 418.97L215.45 320.403C212.265 315.315 205.601 313.8 200.566 317.019L153.179 347.317Z" fill="#212121"/>
<path d="M163.241 364.091C160.587 359.851 161.836 354.239 166.032 351.556L198.585 330.742C202.781 328.059 208.334 329.322 210.989 333.562L227.366 359.721C230.02 363.961 228.771 369.573 224.575 372.255L192.022 393.069C187.826 395.752 182.273 394.489 179.618 390.249L163.241 364.091Z" fill="#DADADA"/>
<path fill-rule="evenodd" clip-rule="evenodd" d="M199.354 331.97L166.801 352.784C163.276 355.038 162.227 359.752 164.457 363.314L180.834 389.472C183.063 393.034 187.728 394.094 191.253 391.841L223.806 371.027C227.33 368.774 228.38 364.059 226.15 360.498L209.773 334.339C207.543 330.777 202.879 329.717 199.354 331.97ZM166.032 351.556C161.836 354.239 160.587 359.851 163.241 364.091L179.618 390.249C182.273 394.489 187.826 395.752 192.022 393.069L224.575 372.255C228.771 369.573 230.02 363.961 227.366 359.721L210.989 333.562C208.334 329.322 202.781 328.059 198.585 330.742L166.032 351.556Z" fill="#212121"/>
<path d="M203.621 356.398C206.558 361.088 205.176 367.295 200.535 370.262C195.895 373.229 189.753 371.833 186.816 367.143C183.88 362.454 185.262 356.246 189.903 353.279C194.543 350.312 200.685 351.709 203.621 356.398Z" fill="#68AAF7"/>
<path fill-rule="evenodd" clip-rule="evenodd" d="M205.614 355.314C205.348 354.89 205.473 354.328 205.893 354.06L213.075 349.468C213.495 349.2 214.05 349.326 214.315 349.75C214.581 350.174 214.456 350.735 214.036 351.003L206.854 355.596C206.434 355.864 205.879 355.738 205.614 355.314Z" fill="#68AAF7"/>
<path fill-rule="evenodd" clip-rule="evenodd" d="M176.539 373.904C176.273 373.48 176.398 372.919 176.818 372.65L184 368.058C184.419 367.79 184.975 367.916 185.24 368.34C185.506 368.764 185.381 369.325 184.961 369.594L177.779 374.186C177.359 374.454 176.804 374.328 176.539 373.904Z" fill="#68AAF7"/>
<path fill-rule="evenodd" clip-rule="evenodd" d="M183.238 360.203C183.129 360.692 182.648 361 182.164 360.89L173.872 359.005C173.388 358.894 173.083 358.408 173.192 357.919C173.301 357.429 173.782 357.122 174.267 357.232L182.559 359.117C183.043 359.227 183.347 359.713 183.238 360.203Z" fill="#68AAF7"/>
<path fill-rule="evenodd" clip-rule="evenodd" d="M198.959 350.152C199.443 350.262 199.924 349.955 200.033 349.465L201.898 341.085C202.007 340.596 201.703 340.11 201.219 340C200.734 339.89 200.253 340.197 200.144 340.687L198.279 349.066C198.17 349.556 198.474 350.042 198.959 350.152Z" fill="#68AAF7"/>
<path fill-rule="evenodd" clip-rule="evenodd" d="M207.386 363.612C207.495 363.123 207.976 362.815 208.46 362.925L216.752 364.81C217.236 364.921 217.541 365.407 217.432 365.896C217.323 366.386 216.842 366.693 216.357 366.583L208.065 364.698C207.581 364.588 207.277 364.102 207.386 363.612Z" fill="#68AAF7"/>
<path fill-rule="evenodd" clip-rule="evenodd" d="M191.666 373.663C192.15 373.773 192.454 374.26 192.345 374.749L190.48 383.129C190.371 383.618 189.89 383.926 189.405 383.816C188.921 383.706 188.617 383.219 188.726 382.73L190.591 374.35C190.7 373.861 191.181 373.553 191.666 373.663Z" fill="#68AAF7"/>
<path fill-rule="evenodd" clip-rule="evenodd" d="M201.876 372.105C202.295 371.837 202.851 371.963 203.116 372.387L207.66 379.645C207.926 380.069 207.801 380.63 207.381 380.899C206.962 381.167 206.406 381.041 206.141 380.617L201.597 373.358C201.331 372.934 201.456 372.373 201.876 372.105Z" fill="#68AAF7"/>
<path fill-rule="evenodd" clip-rule="evenodd" d="M183.48 342.722C183.9 342.454 184.455 342.58 184.72 343.004L189.265 350.262C189.53 350.686 189.405 351.248 188.986 351.516C188.566 351.784 188.011 351.658 187.745 351.234L183.201 343.975C182.936 343.551 183.061 342.99 183.48 342.722Z" fill="#68AAF7"/>
<path d="M250.247 399.251C258.076 411.757 254.391 428.309 242.016 436.222C229.641 444.134 213.263 440.41 205.433 427.904C197.604 415.398 201.289 398.846 213.664 390.934C226.038 383.022 242.417 386.746 250.247 399.251Z" fill="#DADADA"/>
<path fill-rule="evenodd" clip-rule="evenodd" d="M241.247 434.993C252.951 427.51 256.436 411.856 249.031 400.029C241.626 388.201 226.136 384.679 214.433 392.162C202.729 399.645 199.244 415.3 206.649 427.127C214.053 438.954 229.544 442.476 241.247 434.993ZM242.016 436.222C254.391 428.309 258.076 411.757 250.247 399.251C242.417 386.746 226.038 383.022 213.664 390.934C201.289 398.846 197.604 415.398 205.433 427.904C213.263 440.41 229.641 444.134 242.016 436.222Z" fill="#212121"/>
<path d="M232.557 410.373C234.281 413.127 233.47 416.773 230.744 418.515C228.019 420.258 224.412 419.438 222.687 416.683C220.963 413.929 221.775 410.284 224.5 408.541C227.225 406.799 230.833 407.619 232.557 410.373Z" fill="#EA4D67"/>
<path fill-rule="evenodd" clip-rule="evenodd" d="M230.36 417.901C232.75 416.373 233.461 413.177 231.949 410.762C230.437 408.347 227.274 407.628 224.884 409.155C222.495 410.683 221.783 413.88 223.295 416.295C224.807 418.71 227.97 419.429 230.36 417.901ZM230.744 418.515C233.47 416.773 234.281 413.127 232.557 410.373C230.833 407.619 227.225 406.799 224.5 408.541C221.775 410.284 220.963 413.929 222.687 416.683C224.412 419.438 228.019 420.258 230.744 418.515Z" fill="#212121"/>
</svg>
