<svg width="500" height="500" viewBox="0 0 500 500" fill="none" xmlns="http://www.w3.org/2000/svg">
<rect width="500" height="500" fill="#F2B5B5"/>
<path d="M169 183C169 200.673 155.121 215 138 215C120.879 215 107 200.673 107 183C107 165.327 120.879 151 138 151C155.121 151 169 165.327 169 183Z" fill="#7D5740"/>
<path d="M159 184C159 195.046 149.822 204 138.5 204C127.178 204 118 195.046 118 184C118 172.954 127.178 164 138.5 164C149.822 164 159 172.954 159 184Z" fill="#C39972"/>
<path d="M393 183C393 200.673 379.121 215 362 215C344.879 215 331 200.673 331 183C331 165.327 344.879 151 362 151C379.121 151 393 165.327 393 183Z" fill="#7D5740"/>
<path d="M384 184C384 195.046 374.598 204 363 204C351.402 204 342 195.046 342 184C342 172.954 351.402 164 363 164C374.598 164 384 172.954 384 184Z" fill="#C39972"/>
<path d="M363 192C363 253.856 312.856 304 251 304C189.144 304 139 253.856 139 192C139 130.144 189.144 80 251 80C312.856 80 363 130.144 363 192Z" fill="#7D5740"/>
<path d="M254 172.5C254 199.838 231.39 222 203.5 222C175.61 222 153 199.838 153 172.5C153 145.162 175.61 123 203.5 123C231.39 123 254 145.162 254 172.5Z" fill="#C49972"/>
<path d="M350 172.5C350 199.838 327.614 222 300 222C272.386 222 250 199.838 250 172.5C250 145.162 272.386 123 300 123C327.614 123 350 145.162 350 172.5Z" fill="#C49972"/>
<path d="M312 242.5C312 276.466 284.018 304 249.5 304C214.982 304 187 276.466 187 242.5C187 208.534 214.982 181 249.5 181C284.018 181 312 208.534 312 242.5Z" fill="#C49972"/>
<path d="M228 172C228 183.598 218.822 193 207.5 193C196.178 193 187 183.598 187 172C187 160.402 196.178 151 207.5 151C218.822 151 228 160.402 228 172Z" fill="#412D21"/>
<path d="M220 173C220 176.866 217.09 180 213.5 180C209.91 180 207 176.866 207 173C207 169.134 209.91 166 213.5 166C217.09 166 220 169.134 220 173Z" fill="#DADADA"/>
<path d="M273 172C273 183.598 282.402 193 294 193C305.598 193 315 183.598 315 172C315 160.402 305.598 151 294 151C282.402 151 273 160.402 273 172Z" fill="#412D21"/>
<path d="M285 173C285 176.866 287.686 180 291 180C294.314 180 297 176.866 297 173C297 169.134 294.314 166 291 166C287.686 166 285 169.134 285 173Z" fill="#DADADA"/>
<path d="M249 219.5C249 222.538 246.761 225 244 225C241.239 225 239 222.538 239 219.5C239 216.462 241.239 214 244 214C246.761 214 249 216.462 249 219.5Z" fill="#A87B5F"/>
<path d="M265 219.5C265 222.538 262.538 225 259.5 225C256.462 225 254 222.538 254 219.5C254 216.462 256.462 214 259.5 214C262.538 214 265 216.462 265 219.5Z" fill="#A87B5F"/>
<path fill-rule="evenodd" clip-rule="evenodd" d="M246.04 264.476C236.218 262.657 228.3 256.458 224 251.345L226.035 250.043C230.115 254.894 237.553 260.654 246.564 262.323C255.432 263.965 266.134 261.702 277.041 250L279 251.388C267.616 263.602 256.007 266.321 246.04 264.476Z" fill="#412D21"/>
<path d="M256.223 49.0185C243.939 58.8958 242.398 77.1217 243.163 85H251.635C233.986 85 271.578 36.6719 256.223 49.0185Z" fill="#7D5740"/>
<path fill-rule="evenodd" clip-rule="evenodd" d="M259.14 48.0492C258.65 48.3402 257.969 48.8431 257.061 49.6088C251.356 54.4199 248.113 61.2941 246.39 67.9999C244.782 74.2617 244.518 80.3064 244.782 84.2257H247.798C247.616 83.9945 247.455 83.7409 247.314 83.4651C246.513 81.887 246.519 79.7853 246.913 77.5495C247.708 73.0452 250.224 67.2502 252.747 61.9611C253.617 60.138 254.486 58.3788 255.293 56.7421C256.866 53.5568 258.209 50.8357 258.887 49.0115C259.038 48.6047 259.145 48.2711 259.213 48.0064C259.189 48.02 259.165 48.0342 259.14 48.0492ZM252.129 84.2257C250.221 84.2257 249.282 83.5618 248.809 82.6313C248.285 81.5992 248.203 79.9999 248.578 77.8721C249.323 73.6492 251.727 68.0666 254.262 62.7545C255.089 61.0198 255.933 59.3094 256.731 57.6937C258.337 54.4384 259.754 51.5674 260.464 49.6555C260.73 48.9399 260.93 48.2766 260.985 47.7394C261.011 47.4748 261.013 47.1511 260.905 46.8425C260.781 46.4865 260.516 46.1796 260.115 46.0559C259.772 45.9504 259.434 46.012 259.174 46.0944C258.9 46.1813 258.608 46.3254 258.305 46.5056C257.697 46.8669 256.933 47.4397 256 48.2265C249.922 53.3513 246.535 60.6122 244.756 67.5387C242.976 74.465 242.784 81.1375 243.16 85.1985L243.234 86H252.129V84.2257Z" fill="#7D5740"/>
<path d="M256.223 67.1248C243.939 77.5219 242.398 96.7071 243.163 105H251.635C233.986 105 271.578 54.1284 256.223 67.1248Z" fill="#7D5740"/>
<path fill-rule="evenodd" clip-rule="evenodd" d="M259.14 66.1004C258.65 66.3987 257.969 66.9142 257.061 67.6991C251.356 72.6304 248.113 79.6764 246.39 86.5499C244.782 92.9682 244.518 99.1641 244.782 103.181H247.798C247.616 102.944 247.455 102.684 247.314 102.402C246.513 100.784 246.519 98.6299 246.913 96.3383C247.708 91.7213 250.224 85.7815 252.747 80.3601C253.617 78.4914 254.486 76.6882 255.293 75.0107C256.866 71.7457 258.209 68.9566 258.887 67.0868C259.038 66.6699 259.145 66.3279 259.213 66.0566C259.189 66.0705 259.165 66.0851 259.14 66.1004ZM252.129 103.181C250.221 103.181 249.282 102.501 248.809 101.547C248.285 100.489 248.203 98.8499 248.578 96.6689C249.323 92.3405 251.727 86.6183 254.262 81.1734C255.089 79.3953 255.933 77.6421 256.731 75.986C258.337 72.6493 259.754 69.7066 260.464 67.7469C260.73 67.0134 260.93 66.3335 260.985 65.7829C261.011 65.5117 261.013 65.1799 260.905 64.8636C260.781 64.4986 260.516 64.1841 260.115 64.0573C259.772 63.9492 259.434 64.0123 259.174 64.0968C258.9 64.1858 258.608 64.3335 258.305 64.5183C257.697 64.8886 256.933 65.4757 256 66.2821C249.922 71.5351 246.535 78.9775 244.756 86.0772C242.976 93.1767 242.784 100.016 243.16 104.178L243.234 105H252.129V103.181Z" fill="#7D5740"/>
<path d="M170 155.571C170 153.046 171.936 151 174.324 151H235V197.429C235 199.954 233.064 202 230.676 202H170V155.571Z" fill="#2D2D2D"/>
<path d="M331 155.571C331 153.046 329.094 151 326.743 151H267V197.429C267 199.954 268.906 202 271.257 202H331V155.571Z" fill="#2D2D2D"/>
<path d="M235.248 151H267V190C267 190 266.008 179.11 251.124 179.048C236.24 178.986 235 190 235 190L235.248 151Z" fill="#2D2D2D"/>
<path d="M179 168.929C179 165.654 181.644 163 184.905 163H220.095C223.356 163 226 165.654 226 168.929V186.071C226 189.346 223.356 192 220.095 192H184.905C181.644 192 179 189.346 179 186.071V168.929Z" fill="#3598FE"/>
<path d="M274 168.929C274 165.654 276.813 163 280.282 163H317.718C321.187 163 324 165.654 324 168.929V186.071C324 189.346 321.187 192 317.718 192H280.282C276.813 192 274 189.346 274 186.071V168.929Z" fill="#FF5F7C"/>
<path fill-rule="evenodd" clip-rule="evenodd" d="M146.284 163L178 176.426L175.716 181L144 167.574L146.284 163Z" fill="#2D2D2D"/>
<path fill-rule="evenodd" clip-rule="evenodd" d="M354.783 162L324 176.172L326.217 181L357 166.828L354.783 162Z" fill="#2D2D2D"/>
<path d="M270.588 294.571C271.393 291.377 274.52 286.521 280.591 292.652C288.179 300.315 282.642 285.908 287.669 287.428C291.69 288.644 293.366 294.567 293.701 297.377C294.413 291.067 297.521 278.754 304.254 279.984C310.986 281.213 311.216 286.531 310.489 289.036C311.823 284.689 316.484 277.138 324.456 281.703C332.429 286.268 334.535 294.787 333.946 297.998L332.589 300.235L337.434 303.174C338.17 300.561 344.061 293.597 348.931 296.552L353.403 299.266C354.903 296.606 359.102 292.899 363.895 299.342C368.688 305.786 369.189 310.6 368.84 312.201C370.94 312.569 375.694 315.136 377.911 322.464C380.682 331.623 380.244 334.587 375.84 338.204C371.436 341.821 384.09 333.011 384.172 341.559C384.238 348.398 381.988 348.053 380.855 347.026L380.38 346.945C382.374 348.187 383.986 350.038 384.02 352.175C384.096 356.98 382.642 361.509 381.09 362.947C353.857 361.608 294.282 345.388 270.588 294.571Z" fill="#FDE38A"/>
<path fill-rule="evenodd" clip-rule="evenodd" d="M357.629 296.763C356.136 297.132 354.878 298.479 354.185 299.707L353.73 300.514L348.465 297.32C346.524 296.143 344.268 296.855 342.185 298.483C341.168 299.278 340.264 300.242 339.574 301.161C338.87 302.098 338.439 302.92 338.298 303.418L337.978 304.555L331.355 300.537L333.087 297.682C333.288 296.272 332.946 293.625 331.598 290.739C330.214 287.777 327.811 284.659 324.01 282.483C322.146 281.415 320.54 281.091 319.174 281.207C317.805 281.323 316.598 281.887 315.544 282.729C313.406 284.437 311.984 287.225 311.347 289.3L309.626 288.786C309.946 287.684 310.049 285.956 309.349 284.4C308.676 282.904 307.203 281.435 304.092 280.867C302.727 280.618 301.537 281.036 300.451 281.975C299.339 282.936 298.363 284.428 297.535 286.228C295.882 289.824 294.943 294.377 294.593 297.478L292.809 297.483C292.651 296.157 292.171 294.074 291.259 292.197C290.336 290.297 289.062 288.788 287.409 288.288C286.95 288.149 286.789 288.238 286.736 288.274C286.643 288.338 286.498 288.511 286.369 288.94C286.244 289.356 286.169 289.89 286.116 290.511C286.084 290.874 286.065 291.193 286.045 291.52C286.028 291.801 286.011 292.088 285.985 292.414C285.937 293.033 285.864 293.683 285.699 294.227C285.542 294.742 285.229 295.408 284.523 295.69C283.815 295.971 283.07 295.725 282.413 295.34C281.728 294.939 280.92 294.262 279.952 293.284C278.495 291.812 277.284 291.073 276.315 290.775C275.374 290.485 274.632 290.6 274.026 290.913C272.817 291.537 271.959 293.058 271.54 294.489C283.3 319.495 303.858 336.038 324.911 346.51C345.841 356.92 367.198 361.298 380.721 362.029C381.253 361.385 381.837 360.198 382.302 358.577C382.826 356.748 383.158 354.502 383.122 352.19C383.096 350.55 381.865 348.971 380.051 347.8L371.202 346.295L372.933 345.041C373.909 344.334 375.328 344.29 376.649 344.525C377.968 344.76 379.406 345.308 380.701 346.089L381.264 346.185L381.458 346.361C381.664 346.547 381.872 346.655 382.028 346.685C382.14 346.706 382.232 346.695 382.355 346.582C382.518 346.432 382.768 346.062 382.967 345.234C383.164 344.417 383.29 343.236 383.274 341.568C383.264 340.605 383.078 339.976 382.836 339.566C382.603 339.171 382.286 338.926 381.894 338.776C381.046 338.451 379.834 338.568 378.549 338.902C377.671 339.13 376.925 339.406 376.32 339.631C376.03 339.738 375.773 339.834 375.548 339.907C375.467 339.933 375.381 339.959 375.298 339.979C375.229 339.995 375.103 340.023 374.962 340.022C374.893 340.022 374.759 340.015 374.607 339.957C374.439 339.892 374.214 339.747 374.09 339.465C373.974 339.203 374.011 338.966 374.044 338.841C374.079 338.714 374.132 338.618 374.166 338.564C374.279 338.381 374.463 338.207 374.601 338.081C374.768 337.928 374.991 337.739 375.27 337.51C377.381 335.776 378.404 334.317 378.676 332.293C378.961 330.169 378.438 327.309 377.051 322.724C374.923 315.689 370.42 313.39 368.685 313.086L367.764 312.925L367.963 312.011C368.092 311.416 368.093 309.98 367.437 307.852C366.789 305.75 365.516 303.027 363.174 299.879C360.903 296.826 358.988 296.427 357.629 296.763ZM383.231 348.165C383.347 348.091 383.461 348.005 383.571 347.903C384.104 347.413 384.474 346.651 384.714 345.653C384.956 344.643 385.087 343.302 385.07 341.551C385.058 340.377 384.831 339.411 384.382 338.653C383.925 337.879 383.275 337.382 382.537 337.099C381.198 336.586 379.604 336.792 378.301 337.112C379.478 335.784 380.212 334.351 380.456 332.532C380.798 329.98 380.154 326.778 378.77 322.204C376.699 315.358 372.45 312.374 369.82 311.526C369.862 310.493 369.688 309.057 369.154 307.323C368.44 305.007 367.066 302.102 364.615 298.807C362.093 295.416 359.512 294.447 357.198 295.019C355.402 295.463 354.005 296.789 353.118 298.042L349.396 295.785C346.467 294.007 343.342 295.299 341.079 297.068C339.922 297.972 338.911 299.054 338.138 300.083C337.684 300.687 337.294 301.298 337.005 301.864L333.822 299.933L334.799 298.323L334.829 298.161C335.168 296.313 334.724 293.186 333.225 289.978C331.71 286.736 329.073 283.312 324.902 280.924C322.78 279.709 320.814 279.265 319.022 279.417C317.233 279.569 315.697 280.308 314.422 281.326C313.195 282.307 312.191 283.561 311.405 284.851C311.301 284.454 311.164 284.056 310.987 283.663C310.044 281.567 308.037 279.762 304.415 279.1C302.413 278.735 300.69 279.395 299.277 280.616C297.89 281.815 296.783 283.565 295.903 285.478C294.832 287.809 294.052 290.483 293.525 292.942C293.335 292.431 293.119 291.916 292.875 291.413C291.871 289.345 290.297 287.285 287.929 286.569C287.131 286.328 286.365 286.356 285.729 286.787C285.133 287.191 284.826 287.834 284.649 288.422C284.468 289.023 284.382 289.708 284.326 290.357C284.298 290.69 284.273 291.089 284.249 291.467C284.231 291.762 284.213 292.044 284.195 292.274C284.147 292.882 284.084 293.363 283.98 293.705C283.925 293.887 283.875 293.974 283.849 294.012C283.784 294.005 283.623 293.968 283.321 293.791C282.836 293.507 282.157 292.958 281.228 292.02C279.65 290.426 278.194 289.474 276.844 289.058C275.466 288.634 274.238 288.783 273.202 289.317C271.215 290.343 270.14 292.671 269.716 294.352L269.638 294.662L269.773 294.951C281.731 320.596 302.729 337.482 324.111 348.118C345.487 358.75 367.311 363.169 381.045 363.844L381.422 363.863L381.7 363.606C382.662 362.715 383.469 361.025 384.028 359.071C384.6 357.075 384.957 354.653 384.918 352.161C384.893 350.634 384.214 349.283 383.231 348.165Z" fill="#212121"/>
<path d="M312.813 300.108C303.28 296.771 300.876 306.802 300.866 312.235C298.768 309.716 294.092 306.256 292.167 312.566C290.242 318.877 295.646 319.719 298.588 319.351C297.161 320.582 295.603 324.271 300.783 329.181C305.962 334.091 309.123 327.386 310.057 323.42C313.936 325.151 321.687 327.111 321.657 321.11C321.626 315.109 314.483 315.285 310.915 316.123C315.52 312.175 322.347 303.444 312.813 300.108Z" fill="#FFE18A"/>
<path fill-rule="evenodd" clip-rule="evenodd" d="M316.371 303.842C315.879 302.785 314.76 301.741 312.516 300.955C310.279 300.172 308.556 300.205 307.226 300.677C305.891 301.151 304.84 302.107 304.021 303.371C302.36 305.936 301.768 309.604 301.763 312.237L301.759 314.712L300.175 312.81C299.687 312.224 299.05 311.585 298.349 311.052C297.64 310.513 296.914 310.12 296.246 309.964C295.603 309.813 295.049 309.887 294.56 310.232C294.043 310.597 293.475 311.353 293.025 312.828C292.578 314.294 292.587 315.344 292.805 316.087C293.019 316.815 293.456 317.333 294.038 317.708C295.26 318.496 297.096 318.633 298.476 318.46L301.422 318.092L299.174 320.031C298.656 320.479 298.039 321.448 298.104 322.844C298.17 324.233 298.92 326.179 301.4 328.53C302.595 329.662 303.553 330.012 304.285 330.012C305.011 330.012 305.705 329.667 306.376 328.995C307.753 327.614 308.728 325.143 309.182 323.215L309.431 322.158L310.422 322.6C312.311 323.443 315.078 324.307 317.306 324.267C318.417 324.246 319.273 324.003 319.837 323.548C320.362 323.123 320.764 322.406 320.758 321.114C320.751 319.806 320.363 318.911 319.798 318.28C319.219 317.634 318.386 317.19 317.378 316.919C315.341 316.37 312.826 316.596 311.12 316.997L310.33 315.441C312.591 313.502 315.306 310.458 316.318 307.587C316.818 306.171 316.866 304.904 316.371 303.842ZM313.578 314.831C315.386 312.939 317.172 310.567 318.012 308.184C318.603 306.508 318.762 304.72 317.999 303.083C317.234 301.441 315.632 300.143 313.109 299.26C310.58 298.375 308.426 298.345 306.625 298.985C304.827 299.623 303.489 300.889 302.514 302.395C301.027 304.69 300.322 307.633 300.075 310.144C299.869 309.964 299.655 309.789 299.435 309.622C298.617 309 297.66 308.45 296.656 308.215C295.627 307.974 294.52 308.062 293.525 308.764C292.558 309.446 291.82 310.623 291.307 312.304C290.792 313.993 290.736 315.416 291.082 316.593C291.432 317.786 292.168 318.64 293.065 319.218C294.182 319.939 295.55 320.237 296.8 320.306C296.467 321.033 296.263 321.917 296.31 322.929C296.404 324.92 297.465 327.274 300.164 329.833C301.559 331.155 302.938 331.808 304.285 331.808C305.638 331.808 306.763 331.15 307.647 330.264C309.105 328.802 310.096 326.54 310.659 324.645C312.59 325.401 315.122 326.102 317.338 326.062C318.646 326.039 319.964 325.755 320.966 324.944C322.007 324.103 322.563 322.814 322.554 321.105C322.545 319.413 322.029 318.079 321.135 317.082C320.255 316.099 319.073 315.515 317.845 315.184C316.47 314.814 314.964 314.743 313.578 314.831Z" fill="#212121"/>
<path fill-rule="evenodd" clip-rule="evenodd" d="M353.131 325.68C352.55 325.134 351.494 324.666 349.634 324.563C347.792 324.461 346.429 324.785 345.421 325.323C344.416 325.861 343.707 326.642 343.216 327.548C342.215 329.394 342.135 331.739 342.398 333.351L342.711 335.274L341.046 334.263C339.615 333.395 337.472 332.486 335.637 332.44C334.736 332.418 333.985 332.605 333.419 333.026C332.865 333.437 332.374 334.155 332.144 335.424C331.902 336.754 332.042 337.574 332.293 338.069C332.53 338.537 332.922 338.827 333.471 338.986C334.656 339.331 336.364 338.996 337.642 338.498L340.111 337.535L338.736 339.8C338.327 340.475 337.954 341.653 338.203 342.915C338.443 344.13 339.286 345.561 341.56 346.754C342.648 347.324 343.564 347.437 344.333 347.305C345.113 347.172 345.825 346.775 346.468 346.188C347.777 344.994 348.673 343.129 349.082 341.754L349.494 340.367L350.554 341.352C351.399 342.137 352.46 342.99 353.574 343.696C354.699 344.409 355.823 344.939 356.803 345.134C357.773 345.328 358.471 345.176 358.96 344.718C359.485 344.227 359.974 343.2 360.065 341.177C360.155 339.159 359.856 337.748 359.375 336.773C358.903 335.813 358.235 335.232 357.487 334.891C355.935 334.183 353.911 334.46 352.469 335.01L349.591 336.108L351.429 333.635C352.631 332.018 353.85 329.687 353.904 327.812C353.93 326.917 353.69 326.206 353.131 325.68ZM354.131 332.752C354.963 331.259 355.652 329.502 355.699 327.864C355.736 326.603 355.39 325.338 354.361 324.371C353.354 323.425 351.82 322.886 349.734 322.77C347.63 322.653 345.927 323.017 344.575 323.739C343.22 324.464 342.273 325.519 341.637 326.692C340.729 328.367 340.447 330.29 340.475 331.925C339.055 331.257 337.323 330.686 335.682 330.645C334.523 330.616 333.336 330.85 332.348 331.584C331.348 332.326 330.668 333.495 330.376 335.103C330.095 336.652 330.199 337.91 330.69 338.881C331.196 339.878 332.045 340.442 332.97 340.711C334.076 341.032 335.343 340.951 336.477 340.712C336.308 341.479 336.261 342.351 336.441 343.263C336.802 345.092 338.048 346.94 340.726 348.344C342.114 349.072 343.427 349.282 344.636 349.076C345.835 348.871 346.85 348.271 347.679 347.514C348.899 346.401 349.78 344.893 350.341 343.553C351.035 344.128 351.808 344.703 352.613 345.213C353.824 345.982 355.164 346.638 356.452 346.895C357.75 347.154 359.124 347.025 360.187 346.03C361.215 345.068 361.759 343.47 361.859 341.257C361.959 339.039 361.639 337.304 360.986 335.979C360.326 334.639 359.348 333.766 358.232 333.257C356.913 332.656 355.449 332.579 354.131 332.752Z" fill="#212121"/>
<path d="M212.141 419.534L270.273 294.864C295.908 344.275 355.165 360.477 381.588 362.401L302.495 472.314C290.939 474.084 267.465 480.465 242.245 465.164C222.782 453.355 213.648 430.59 212.141 419.534Z" fill="#DADADA"/>
<path fill-rule="evenodd" clip-rule="evenodd" d="M270.23 292.831L271.071 294.451C283.774 318.935 304.823 335.222 326.031 345.634C347.243 356.047 368.55 360.551 381.654 361.505L383.255 361.622L303.004 473.144L302.631 473.201C301.456 473.381 300.152 473.611 298.729 473.861C286.262 476.054 264.713 479.845 241.779 465.931C231.885 459.928 224.639 451.155 219.681 442.513C214.726 433.877 212.022 425.312 211.251 419.655L211.215 419.393L270.23 292.831ZM270.325 296.879L213.067 419.672C213.85 425.076 216.461 433.291 221.239 441.619C226.09 450.076 233.143 458.59 242.711 464.395C265.037 477.941 285.936 474.278 298.407 472.092C299.692 471.867 300.887 471.657 301.985 471.484L379.931 363.167C366.527 361.963 345.836 357.358 325.239 347.246C304.267 336.95 283.331 320.913 270.325 296.879Z" fill="#212121"/>
<path d="M215.571 431.811L278.406 308.635C284.103 315.774 296.908 327.781 292.957 324.432C289.006 321.083 244.575 405.67 223.72 446.953L221.297 443.103L216.903 434.658L215.571 431.811Z" fill="#FF3236"/>
<path fill-rule="evenodd" clip-rule="evenodd" d="M278.24 306.988L279.109 308.076C281.924 311.603 286.516 316.357 289.941 319.838C290.573 320.48 291.166 321.08 291.7 321.62C292.603 322.534 293.337 323.276 293.801 323.761C293.986 323.954 294.138 324.117 294.245 324.238C294.296 324.296 294.352 324.361 294.398 324.424C294.417 324.45 294.46 324.509 294.498 324.585C294.515 324.618 294.556 324.702 294.58 324.817C294.597 324.895 294.661 325.237 294.411 325.559C294.134 325.916 293.745 325.915 293.625 325.906C293.487 325.895 293.383 325.855 293.347 325.84C293.261 325.805 293.193 325.763 293.166 325.745C293.097 325.702 293.025 325.647 292.959 325.597C292.864 325.523 292.744 325.425 292.597 325.303C292.53 325.345 292.439 325.408 292.326 325.501C291.857 325.882 291.217 326.575 290.41 327.599C288.808 329.632 286.688 332.788 284.168 336.834C279.135 344.916 272.568 356.448 265.466 369.389C251.264 395.266 234.947 426.724 224.523 447.36L223.807 448.777L220.518 443.552L216.098 435.058L214.572 431.795L278.24 306.988ZM291.442 323.916C291.142 323.611 290.806 323.271 290.441 322.901C289.905 322.36 289.305 321.753 288.66 321.098C285.574 317.961 281.471 313.722 278.583 310.269L216.571 431.829L217.709 434.262L222.078 442.658L223.636 445.133C234.087 424.482 249.998 393.84 263.891 368.525C270.998 355.577 277.583 344.01 282.644 335.884C285.171 331.826 287.333 328.601 288.999 326.487C289.825 325.439 290.565 324.618 291.192 324.108C291.273 324.041 291.357 323.977 291.442 323.916Z" fill="#212121"/>
<path d="M238.813 463.252C238.813 463.252 308.267 337.295 309.385 337.973C310.503 338.65 323.179 345.491 330.389 349.017C307.437 389.368 259.713 471.275 255.944 471.436C252.175 471.597 242.953 466.047 238.813 463.252Z" fill="#FF3236"/>
<path fill-rule="evenodd" clip-rule="evenodd" d="M331.644 348.63L331.171 349.461C319.693 369.641 302.02 400.211 286.745 425.759C279.108 438.532 272.065 450.057 266.694 458.401C264.01 462.571 261.736 465.96 260.009 468.316C259.147 469.492 258.408 470.429 257.814 471.083C257.519 471.407 257.24 471.684 256.985 471.888C256.857 471.99 256.718 472.088 256.57 472.165C256.431 472.238 256.227 472.323 255.983 472.334C254.852 472.382 253.428 472.01 251.948 471.461C250.44 470.902 248.769 470.117 247.104 469.25C243.773 467.514 240.403 465.409 238.312 463.997L237.632 463.538L238.028 462.819L238.814 463.253C238.028 462.819 238.028 462.819 238.029 462.818L238.227 462.458C238.359 462.219 238.554 461.866 238.808 461.405C239.317 460.482 240.064 459.129 241.015 457.408C242.916 453.965 245.634 449.047 248.898 443.148C255.427 431.35 264.144 415.625 272.897 399.922C281.649 384.219 290.437 368.535 297.107 356.818C300.442 350.96 303.25 346.09 305.261 342.703C306.265 341.012 307.075 339.682 307.654 338.782C307.942 338.336 308.183 337.979 308.368 337.733C308.456 337.616 308.553 337.494 308.65 337.398C308.692 337.355 308.776 337.275 308.891 337.207C308.892 337.207 308.892 337.206 308.893 337.206C308.943 337.176 309.378 336.918 309.852 337.205C310.936 337.862 323.585 344.69 330.785 348.211L331.644 348.63ZM239.999 462.964C242.058 464.32 245.017 466.137 247.934 467.657C249.563 468.506 251.162 469.253 252.573 469.777C253.937 470.283 255.035 470.544 255.787 470.542C255.807 470.528 255.833 470.509 255.864 470.484C256.012 470.366 256.218 470.168 256.485 469.875C257.016 469.291 257.711 468.413 258.56 467.254C260.254 464.943 262.506 461.591 265.184 457.429C270.539 449.11 277.569 437.605 285.203 424.837C300.263 399.651 317.656 369.575 329.138 349.402C322.567 346.148 312.405 340.692 309.585 339.12C309.468 339.29 309.328 339.501 309.165 339.755C308.604 340.626 307.807 341.933 306.805 343.62C304.803 346.992 302.002 351.851 298.668 357.707C292.002 369.416 283.217 385.094 274.466 400.796C265.714 416.497 256.998 432.22 250.47 444.017C247.205 449.916 244.488 454.833 242.587 458.276C241.636 459.997 240.89 461.35 240.381 462.272C240.233 462.539 240.106 462.77 239.999 462.964Z" fill="#212121"/>
<path d="M272.259 473.686C277.808 470.423 345.366 354.872 348.751 355.736C352.136 356.6 352.708 356.777 362.912 359.569C368.056 360.976 313.118 438.464 286.265 474.692C279.923 475.434 267.82 476.295 272.259 473.686Z" fill="#FF3236"/>
<path fill-rule="evenodd" clip-rule="evenodd" d="M337.328 404.577C320.872 428.665 300.417 457.104 286.986 475.225L286.754 475.537L286.368 475.582C283.186 475.954 278.532 476.36 275.213 476.342C274.381 476.337 273.617 476.306 272.972 476.237C272.351 476.172 271.755 476.064 271.313 475.865C271.095 475.767 270.813 475.602 270.617 475.316C270.385 474.975 270.347 474.57 270.481 474.2C270.595 473.886 270.815 473.642 271.017 473.462C271.23 473.272 271.497 473.089 271.803 472.909C271.854 472.879 272.012 472.754 272.297 472.446C272.564 472.157 272.894 471.762 273.286 471.259C274.07 470.255 275.07 468.864 276.259 467.135C278.634 463.678 281.735 458.911 285.317 453.274C292.113 442.579 300.623 428.783 309.168 414.932C309.629 414.184 310.09 413.437 310.551 412.69C319.553 398.098 328.492 383.626 335.394 372.855C338.843 367.472 341.791 363.002 343.985 359.901C345.08 358.354 346.001 357.128 346.71 356.297C347.061 355.885 347.384 355.542 347.666 355.303C347.805 355.184 347.965 355.064 348.138 354.976C348.284 354.902 348.599 354.768 348.971 354.863C351.552 355.522 352.509 355.784 357.299 357.098C358.81 357.512 360.702 358.031 363.148 358.7C363.69 358.849 363.987 359.273 364.092 359.705C364.184 360.081 364.146 360.492 364.074 360.864C363.927 361.627 363.549 362.63 363.012 363.805C361.928 366.178 360.077 369.498 357.65 373.518C352.79 381.569 345.554 392.536 337.328 404.577ZM362.34 360.342C362.334 360.394 362.324 360.454 362.311 360.523C362.206 361.067 361.904 361.909 361.379 363.058C360.339 365.334 358.532 368.581 356.112 372.59C351.279 380.596 344.066 391.529 335.845 403.564C319.499 427.491 299.198 455.723 285.774 473.843C282.637 474.199 278.304 474.563 275.223 474.546C274.423 474.541 273.724 474.511 273.161 474.451C273.028 474.437 272.907 474.422 272.797 474.406C273.067 474.228 273.347 473.956 273.615 473.665C273.93 473.325 274.294 472.887 274.702 472.364C275.519 471.318 276.543 469.893 277.739 468.152C280.133 464.668 283.248 459.879 286.833 454.238C293.635 443.532 302.151 429.727 310.693 415.879C311.155 415.13 311.617 414.381 312.079 413.633C321.084 399.037 330.015 384.579 336.906 373.824C340.353 368.445 343.282 364.004 345.451 360.939C346.538 359.403 347.422 358.231 348.077 357.463C348.402 357.082 348.648 356.827 348.82 356.679C351.171 357.28 352.218 357.567 356.812 358.827C358.255 359.223 360.047 359.714 362.34 360.342Z" fill="#212121"/>
<path d="M327.271 304.291C331.225 294.861 336.215 299.916 338.215 303.623C339.611 300.107 344.15 293.728 351.135 296.335C359.867 299.592 347.781 309.427 351.024 308.845C354.266 308.262 360.527 312.231 357.72 315.457C355.474 318.037 349.406 316.928 346.652 316.05C346.173 317.119 345.066 319.337 344.466 319.653C343.716 320.048 341.938 321.859 336.588 320.312C331.237 318.765 336.155 312.061 336.031 311.986C335.906 311.91 322.329 316.08 327.271 304.291Z" fill="#FBDF90"/>
<path fill-rule="evenodd" clip-rule="evenodd" d="M351.775 307.889C351.936 307.631 352.126 307.344 352.339 307.023C352.45 306.855 352.566 306.679 352.689 306.492C353.089 305.881 353.529 305.189 353.927 304.459C354.704 303.035 355.416 301.31 355.239 299.65C355.148 298.792 354.821 297.965 354.179 297.236C353.544 296.518 352.639 295.936 351.45 295.492C347.61 294.06 344.406 295.113 342.027 296.975C340.285 298.339 338.972 300.141 338.109 301.741C337.74 301.213 337.323 300.692 336.867 300.216C335.999 299.307 334.929 298.498 333.715 298.164C332.451 297.816 331.107 298.007 329.829 298.969C328.594 299.899 327.462 301.516 326.444 303.943C325.178 306.964 324.983 309.214 325.722 310.829C326.483 312.493 328.082 313.176 329.612 313.417C331.148 313.659 332.813 313.496 334.059 313.295C334.151 313.28 334.241 313.265 334.328 313.25C334.027 313.854 333.71 314.581 333.488 315.346C333.194 316.358 333.031 317.558 333.413 318.662C333.819 319.833 334.774 320.722 336.339 321.174C339.132 321.981 341.08 321.937 342.476 321.58C343.583 321.297 344.381 320.774 344.728 320.546C344.801 320.498 344.854 320.463 344.886 320.447C345.085 320.341 345.247 320.193 345.364 320.07C345.489 319.939 345.609 319.788 345.721 319.634C345.945 319.326 346.173 318.953 346.387 318.575C346.658 318.097 346.921 317.582 347.14 317.129C348.555 317.518 350.469 317.89 352.351 317.947C354.526 318.012 356.987 317.667 358.399 316.045C359.3 315.009 359.507 313.838 359.176 312.724C358.863 311.671 358.096 310.75 357.21 310.026C356.312 309.293 355.218 308.701 354.124 308.328C353.354 308.065 352.543 307.898 351.775 307.889ZM352.832 298.425C352.443 297.984 351.816 297.546 350.822 297.175C347.677 296.002 345.12 296.835 343.134 298.389C341.109 299.975 339.707 302.301 339.051 303.953L338.34 305.742L337.426 304.048C336.956 303.177 336.314 302.236 335.569 301.457C334.816 300.67 334.016 300.11 333.239 299.896C332.511 299.695 331.742 299.777 330.909 300.404C330.035 301.062 329.06 302.35 328.101 304.638C326.896 307.511 326.934 309.161 327.355 310.082C327.754 310.954 328.63 311.444 329.892 311.643C331.148 311.841 332.592 311.713 333.772 311.522C334.354 311.428 334.856 311.321 335.22 311.24C335.311 311.219 335.394 311.2 335.467 311.184L335.494 311.177C335.557 311.163 335.614 311.15 335.662 311.139C335.715 311.127 335.772 311.115 335.821 311.106C335.842 311.102 335.883 311.095 335.929 311.09C335.95 311.088 335.996 311.084 336.054 311.086C336.083 311.087 336.133 311.09 336.194 311.101C336.244 311.11 336.365 311.136 336.497 311.217C336.75 311.37 336.861 311.6 336.903 311.761C336.941 311.908 336.933 312.03 336.927 312.088C336.915 312.204 336.882 312.293 336.872 312.321C336.845 312.393 336.813 312.456 336.796 312.488C336.757 312.563 336.703 312.658 336.649 312.751C336.634 312.776 336.619 312.803 336.603 312.83C336.495 313.017 336.359 313.251 336.208 313.528C335.861 314.168 335.459 314.997 335.213 315.846C334.961 316.713 334.906 317.484 335.111 318.075C335.292 318.598 335.728 319.128 336.838 319.448C339.396 320.188 341.012 320.1 342.031 319.84C342.799 319.643 343.211 319.378 343.59 319.134C343.733 319.042 343.871 318.953 344.021 318.872C344.029 318.865 344.043 318.852 344.064 318.831C344.116 318.776 344.184 318.693 344.268 318.578C344.435 318.348 344.626 318.041 344.824 317.691C345.218 316.994 345.602 316.199 345.834 315.682L346.161 314.95L346.926 315.194C348.244 315.614 350.366 316.09 352.405 316.152C354.514 316.215 356.209 315.825 357.044 314.866C357.546 314.29 357.609 313.755 357.454 313.236C357.282 312.656 356.807 312.016 356.074 311.417C355.352 310.828 354.448 310.336 353.544 310.028C352.628 309.715 351.791 309.619 351.184 309.728C350.944 309.771 350.573 309.811 350.222 309.655C350.019 309.565 349.83 309.411 349.704 309.187C349.585 308.974 349.557 308.759 349.559 308.594C349.563 308.292 349.672 308.011 349.761 307.814C349.86 307.596 349.992 307.361 350.134 307.127C350.336 306.795 350.593 306.406 350.863 305.998C350.97 305.837 351.078 305.673 351.186 305.508C351.579 304.909 351.987 304.265 352.351 303.598C353.098 302.229 353.568 300.921 353.453 299.839C353.399 299.327 353.212 298.856 352.832 298.425Z" fill="#212121"/>
<path d="M159.922 354.688C158.634 352.844 157.526 349.057 163.406 348.667C170.755 348.179 160.843 344.591 163.876 342.677C166.303 341.146 170.109 342.931 171.709 344.014C168.771 340.824 163.807 333.713 167.453 330.788C171.099 327.863 173.946 330.124 174.914 331.619C173.267 328.987 171.455 323.203 177.377 321.131C183.299 319.058 188.638 321.782 190.032 323.523L190.579 325.223L194.263 324.038C193.244 322.489 192.285 316.334 195.988 315.142L199.389 314.048C198.688 312.084 198.652 308.259 204.122 308.668C209.591 309.076 212.3 310.971 212.97 311.867C214.099 310.948 217.551 309.643 222.324 311.776C228.291 314.443 229.624 315.995 229.521 319.886C229.417 323.777 230.531 313.306 234.98 317.087C238.538 320.112 237.354 321.118 236.317 321.244L236.063 321.453C237.596 320.98 239.272 320.975 240.39 321.914C242.904 324.024 244.591 326.8 244.639 328.244C231.766 341.7 196.747 365.191 159.922 354.688Z" fill="#FDE38A"/>
<path fill-rule="evenodd" clip-rule="evenodd" d="M200.242 310.876C199.815 311.712 199.924 312.874 200.235 313.745L200.547 314.618L196.264 315.997C194.963 316.415 194.342 317.734 194.252 319.501C194.209 320.353 194.299 321.226 194.46 321.972C194.626 322.74 194.848 323.291 195.014 323.543L195.664 324.53L190 326.353L189.232 323.968C188.62 323.291 187.175 322.334 185.157 321.76C183.057 321.163 180.434 321.012 177.674 321.978C176.334 322.447 175.5 323.1 174.989 323.802C174.476 324.506 174.24 325.325 174.205 326.201C174.134 327.99 174.907 329.914 175.676 331.143L174.16 332.107C173.762 331.49 172.966 330.717 171.93 330.406C170.957 330.114 169.636 330.189 168.015 331.488C167.356 332.017 167.066 332.729 167.065 333.641C167.064 334.587 167.38 335.716 167.93 336.931C169.029 339.355 170.938 341.851 172.37 343.406L171.206 344.758C170.471 344.26 169.21 343.592 167.871 343.232C166.506 342.866 165.254 342.87 164.356 343.436C164.247 343.506 164.2 343.555 164.181 343.58C164.186 343.61 164.209 343.701 164.316 343.872C164.459 344.097 164.684 344.357 164.977 344.659C165.154 344.841 165.303 344.986 165.457 345.137C165.592 345.269 165.732 345.406 165.9 345.576C166.198 345.879 166.521 346.226 166.745 346.583C166.954 346.914 167.217 347.472 167.002 348.09C166.786 348.708 166.219 349.022 165.701 349.198C165.153 349.384 164.412 349.5 163.466 349.563C162.082 349.655 161.21 349.942 160.676 350.275C160.167 350.593 159.941 350.966 159.849 351.343C159.664 352.107 159.988 353.102 160.489 353.914C178.538 358.966 196.164 355.774 210.917 349.621C225.536 343.525 237.269 334.548 243.692 327.933C243.577 327.431 243.258 326.694 242.688 325.819C241.993 324.754 241.002 323.599 239.814 322.601C239.073 321.98 237.848 321.879 236.493 322.262L231.28 326.549L231.466 324.419C231.548 323.481 232.237 322.665 232.966 322.074C233.694 321.485 234.632 320.979 235.626 320.65L235.95 320.383L236.21 320.352C236.346 320.335 236.434 320.298 236.475 320.273C236.47 320.194 236.42 319.955 236.106 319.517C235.791 319.076 235.257 318.5 234.399 317.771C233.923 317.367 233.56 317.211 233.303 317.164C233.063 317.12 232.86 317.161 232.659 317.268C232.196 317.516 231.747 318.121 231.349 318.926C231.079 319.47 230.9 319.948 230.748 320.354C230.672 320.558 230.602 320.743 230.532 320.909C230.508 320.966 230.479 321.029 230.448 321.09C230.423 321.138 230.368 321.24 230.282 321.339C230.239 321.388 230.149 321.482 230.009 321.557C229.852 321.64 229.597 321.715 229.306 321.625C229.035 321.541 228.881 321.36 228.811 321.256C228.74 321.15 228.704 321.051 228.687 320.996C228.629 320.811 228.622 320.6 228.619 320.477C228.615 320.315 228.617 320.11 228.624 319.862C228.672 318.034 228.382 316.936 227.526 315.966C226.603 314.921 224.947 313.932 221.958 312.596C217.464 310.587 214.38 311.878 213.538 312.563L212.812 313.154L212.252 312.405C212.043 312.126 211.351 311.508 209.984 310.906C208.642 310.314 206.699 309.76 204.055 309.563C201.531 309.374 200.605 310.164 200.242 310.876ZM238.271 320.248C238.271 320.24 238.27 320.233 238.27 320.226C238.253 319.651 237.991 319.065 237.567 318.472C237.136 317.869 236.483 317.186 235.562 316.402C234.925 315.861 234.281 315.517 233.625 315.397C232.953 315.275 232.34 315.402 231.813 315.684C231.123 316.052 230.596 316.675 230.196 317.308C229.971 316.386 229.56 315.556 228.873 314.778C227.663 313.408 225.669 312.287 222.691 310.956C218.313 308.999 214.862 309.728 213.097 310.708C212.55 310.234 211.753 309.723 210.708 309.262C209.161 308.58 207.015 307.983 204.189 307.772C201.245 307.552 199.453 308.471 198.642 310.06C198.076 311.17 198.087 312.434 198.296 313.456L195.714 314.287C193.311 315.06 192.56 317.415 192.458 319.41C192.406 320.439 192.515 321.471 192.705 322.351C192.791 322.752 192.899 323.14 193.023 323.493L191.159 324.093L190.837 323.09L190.733 322.961C189.883 321.899 188.01 320.704 185.649 320.033C183.25 319.351 180.243 319.176 177.081 320.283C175.46 320.85 174.3 321.697 173.537 322.745C172.776 323.79 172.457 324.971 172.411 326.129C172.375 327.029 172.502 327.93 172.723 328.777C172.633 328.744 172.54 328.714 172.446 328.686C170.842 328.205 168.917 328.462 166.892 330.087C165.728 331.021 165.271 332.295 165.269 333.639C165.267 334.948 165.693 336.345 166.295 337.672C166.903 339.015 167.726 340.357 168.584 341.567C168.502 341.543 168.419 341.52 168.336 341.497C166.791 341.083 164.927 340.952 163.398 341.918C162.869 342.251 162.471 342.725 162.396 343.358C162.326 343.941 162.56 344.455 162.799 344.832C163.044 345.22 163.376 345.588 163.689 345.91C163.845 346.071 164.05 346.272 164.241 346.46C164.385 346.602 164.521 346.736 164.621 346.837C164.879 347.098 165.065 347.308 165.183 347.476C165.165 347.483 165.145 347.49 165.124 347.497C164.796 347.608 164.238 347.711 163.347 347.771C161.791 347.874 160.597 348.207 159.725 348.751C158.829 349.31 158.309 350.072 158.104 350.92C157.715 352.525 158.493 354.209 159.187 355.202L159.369 355.464L159.676 355.551C178.34 360.874 196.515 357.574 211.609 351.279C226.696 344.987 238.771 335.678 245.288 328.865L245.549 328.592L245.537 328.215C245.505 327.239 244.957 326.012 244.192 324.838C243.403 323.627 242.294 322.339 240.968 321.226C240.187 320.57 239.237 320.289 238.271 320.248ZM164.171 343.599C164.17 343.598 164.171 343.595 164.176 343.587C164.174 343.595 164.171 343.599 164.171 343.599Z" fill="#212121"/>
<path fill-rule="evenodd" clip-rule="evenodd" d="M185.111 335.479C184.444 335.289 183.485 335.368 182.116 336.151C180.754 336.931 180.053 337.789 179.73 338.614C179.406 339.442 179.422 340.345 179.695 341.289C180.254 343.219 181.837 345.122 183.174 346.285L185.041 347.909L182.567 347.86C182.065 347.851 181.471 347.892 180.907 348.011C180.333 348.131 179.848 348.319 179.514 348.561C179.199 348.789 179.045 349.04 179.014 349.348C178.98 349.692 179.083 350.26 179.625 351.123C180.162 351.978 180.67 352.396 181.086 352.586C181.487 352.77 181.879 352.777 182.276 352.661C183.136 352.41 183.98 351.587 184.492 350.822L186.143 348.355L186.136 351.323C186.136 351.709 186.324 352.376 187.001 352.909C187.672 353.438 188.931 353.916 191.205 353.692C192.281 353.586 192.811 353.267 193.074 352.963C193.333 352.664 193.459 352.235 193.415 351.636C193.324 350.387 192.522 348.83 191.74 347.748L191.105 346.868L192.088 346.409C193.353 345.818 194.993 344.798 195.93 343.677C196.396 343.119 196.611 342.627 196.625 342.222C196.637 341.866 196.5 341.416 195.88 340.884C195.248 340.342 194.679 340.172 194.178 340.181C193.657 340.189 193.108 340.393 192.548 340.771C191.407 341.542 190.426 342.895 189.881 343.933L188.188 343.51C188.199 341.493 187.843 338.791 186.851 337.049C186.365 336.196 185.784 335.671 185.111 335.479ZM189.818 340.854C189.61 339.234 189.182 337.513 188.412 336.16C187.789 335.067 186.886 334.118 185.604 333.752C184.316 333.385 182.848 333.662 181.224 334.593C179.593 335.526 178.562 336.67 178.058 337.959C177.554 339.245 177.617 340.569 177.97 341.789C178.453 343.457 179.503 345.018 180.589 346.242C180.572 346.246 180.555 346.249 180.538 346.253C179.83 346.402 179.075 346.661 178.46 347.106C177.825 347.566 177.319 348.245 177.227 349.17C177.138 350.061 177.448 351.032 178.104 352.078C178.765 353.13 179.512 353.842 180.339 354.22C181.182 354.605 182.023 354.606 182.779 354.385C183.575 354.153 184.281 353.677 184.856 353.143C185.099 353.558 185.437 353.964 185.89 354.32C187.035 355.222 188.805 355.733 191.381 355.479C192.731 355.347 193.764 354.909 194.431 354.14C195.101 353.366 195.272 352.407 195.207 351.506C195.108 350.143 194.456 348.695 193.772 347.567C194.986 346.9 196.375 345.945 197.308 344.829C197.901 344.119 198.387 343.253 198.42 342.283C198.455 341.265 197.985 340.324 197.05 339.521C196.126 338.729 195.141 338.368 194.148 338.385C193.176 338.401 192.292 338.777 191.543 339.283C190.901 339.716 190.32 340.27 189.818 340.854Z" fill="#212121"/>
<path fill-rule="evenodd" clip-rule="evenodd" d="M212.927 326.287C212.477 326.334 211.822 326.619 210.962 327.507C210.114 328.383 209.702 329.186 209.542 329.887C209.384 330.585 209.462 331.243 209.693 331.857C210.168 333.12 211.288 334.167 212.204 334.732L213.863 335.755L212.008 336.352C210.942 336.695 209.568 337.374 208.772 338.248C208.384 338.673 208.185 339.087 208.155 339.485C208.126 339.867 208.243 340.372 208.76 341.016C209.317 341.708 209.754 341.953 210.039 342.024C210.296 342.088 210.54 342.041 210.816 341.863C211.444 341.457 212.008 340.5 212.316 339.635L213.205 337.14L214.017 339.662C214.164 340.12 214.566 340.776 215.256 341.171C215.905 341.541 216.928 341.751 218.494 341.137C219.225 340.85 219.64 340.465 219.879 340.07C220.124 339.666 220.23 339.178 220.216 338.623C220.187 337.484 219.653 336.238 219.142 335.437L218.364 334.217L219.802 334.061C220.571 333.978 221.468 333.815 222.312 333.562C223.167 333.305 223.906 332.974 224.406 332.586C224.897 332.205 225.058 331.855 225.046 331.523C225.031 331.141 224.782 330.495 223.801 329.564C222.823 328.637 222.002 328.192 221.343 328.019C220.702 327.851 220.17 327.929 219.718 328.136C218.757 328.575 218.033 329.66 217.684 330.616L216.628 333.511L215.963 330.503C215.67 329.175 215.029 327.574 214.151 326.769C213.744 326.394 213.346 326.244 212.927 326.287ZM217.07 328.059C216.667 327.09 216.107 326.126 215.366 325.446C214.688 324.824 213.804 324.392 212.743 324.501C211.713 324.607 210.69 325.207 209.672 326.258C208.641 327.321 208.037 328.407 207.791 329.489C207.545 330.573 207.674 331.591 208.012 332.489C208.431 333.603 209.172 334.541 209.944 335.255C209.054 335.691 208.129 336.286 207.444 337.039C206.884 337.654 206.433 338.429 206.364 339.349C206.293 340.286 206.627 341.228 207.361 342.141C208.056 343.006 208.8 343.566 209.603 343.766C210.435 343.975 211.186 343.763 211.791 343.372C212.383 342.989 212.867 342.417 213.244 341.819C213.546 342.158 213.918 342.474 214.365 342.73C215.557 343.411 217.16 343.59 219.149 342.809C220.195 342.399 220.944 341.778 221.415 341.001C221.881 340.233 222.032 339.384 222.012 338.578C221.985 337.541 221.674 336.511 221.29 335.654C221.796 335.558 222.318 335.435 222.828 335.282C223.783 334.995 224.758 334.586 225.506 334.005C226.263 333.419 226.883 332.573 226.84 331.454C226.8 330.384 226.156 329.323 225.037 328.261C223.913 327.195 222.834 326.553 221.799 326.282C220.747 326.006 219.791 326.127 218.971 326.502C218.19 326.859 217.559 327.431 217.07 328.059Z" fill="#212121"/>
<path d="M198.27 440.747L159.934 354.98C196.901 363.852 231.768 340.518 244.581 327.742L265.926 417.726C261.671 424.482 254.463 439.45 235.285 445.621C220.485 450.384 204.65 444.915 198.27 440.747Z" fill="#DADADA"/>
<path fill-rule="evenodd" clip-rule="evenodd" d="M158.371 353.682L160.145 354.108C178.387 358.486 196.144 354.925 210.967 348.653C225.794 342.379 237.619 333.418 243.949 327.107L245.086 325.973L266.888 417.886L266.687 418.206C266.257 418.889 265.793 419.662 265.287 420.507C260.844 427.923 253.109 440.831 235.562 446.477C227.98 448.917 220.161 448.729 213.449 447.415C206.745 446.103 201.08 443.655 197.781 441.5L197.56 441.356L158.371 353.682ZM161.488 356.253L198.983 440.138C202.099 442.119 207.439 444.409 213.794 445.653C220.296 446.925 227.794 447.09 235.012 444.768C251.882 439.339 259.288 427.006 263.739 419.593C264.175 418.867 264.582 418.189 264.967 417.569L244.074 329.49C237.376 335.855 225.874 344.295 211.667 350.307C197.084 356.478 179.588 360.115 161.488 356.253Z" fill="#212121"/>
<path d="M206.138 444.471L170.676 356.945C176.908 357.198 188.833 355.96 185.337 356.501C181.842 357.042 205.621 417.809 217.598 447.039L214.527 446.567L208.203 445.057L206.138 444.471Z" fill="#FF3236"/>
<path fill-rule="evenodd" clip-rule="evenodd" d="M169.324 355.99L170.716 356.047C173.778 356.171 178.271 355.929 181.602 355.719C182.213 355.68 182.786 355.642 183.304 355.608C184.181 355.551 184.897 355.504 185.357 355.481C185.54 355.472 185.697 355.466 185.814 355.465C185.868 355.464 185.937 355.465 186.003 355.47C186.03 355.472 186.098 355.478 186.177 355.498C186.211 355.506 186.301 355.53 186.402 355.586C186.472 355.625 186.771 355.799 186.851 356.199C186.94 356.641 186.684 356.935 186.599 357.018C186.501 357.115 186.404 357.166 186.37 357.183C186.29 357.224 186.218 357.246 186.192 357.253C186.126 357.273 186.055 357.288 185.998 357.3C185.966 357.306 185.931 357.313 185.893 357.32C185.882 357.7 185.949 358.314 186.114 359.179C186.444 360.899 187.121 363.392 188.081 366.5C189.998 372.705 193.01 381.247 196.511 390.7C203.512 409.6 212.447 432.089 218.433 446.698L219.035 448.167L214.359 447.449L207.98 445.926L205.474 445.215L169.324 355.99ZM184.096 357.356C183.893 357.369 183.676 357.384 183.447 357.399C182.927 357.433 182.345 357.471 181.715 357.511C178.856 357.692 175.052 357.902 172.025 357.874L206.809 443.727L208.434 444.188L214.704 445.685L216.17 445.91C210.193 431.28 201.606 409.626 194.827 391.323C191.323 381.863 188.297 373.284 186.365 367.03C185.4 363.909 184.699 361.338 184.35 359.517C184.187 358.666 184.091 357.928 184.096 357.356Z" fill="#212121"/>
<path d="M232.765 446.537C232.765 446.537 198.828 354.35 199.678 354.077C200.527 353.803 209.728 350.321 214.773 348.177C225.331 378.071 246.254 439.34 244.651 441.357C243.049 443.374 236.059 445.651 232.765 446.537Z" fill="#FF3236"/>
<path fill-rule="evenodd" clip-rule="evenodd" d="M215.3 346.976L215.619 347.877C220.899 362.829 228.772 385.626 235.125 404.94C238.301 414.595 241.099 423.388 243.005 429.897C243.957 433.15 244.69 435.846 245.135 437.8C245.357 438.773 245.513 439.585 245.587 440.199C245.623 440.503 245.643 440.788 245.633 441.032C245.628 441.155 245.615 441.29 245.583 441.425C245.554 441.549 245.494 441.738 245.354 441.915C244.835 442.567 243.963 443.158 243.012 443.679C242.035 444.215 240.87 444.732 239.672 445.205C237.273 446.153 234.669 446.954 232.998 447.403L232.205 447.617L231.922 446.846L232.764 446.536C231.922 446.846 231.921 446.846 231.921 446.845L231.541 445.811C231.292 445.135 230.928 444.145 230.465 442.884C229.538 440.363 228.216 436.76 226.632 432.437C223.463 423.79 219.247 412.257 215.058 400.715C210.869 389.174 206.705 377.622 203.641 368.937C202.11 364.596 200.852 360.966 200.003 358.411C199.578 357.135 199.253 356.118 199.047 355.412C198.944 355.062 198.866 354.77 198.819 354.554C198.797 354.453 198.775 354.333 198.767 354.219C198.763 354.17 198.757 354.062 198.78 353.938C198.78 353.937 198.78 353.936 198.78 353.935C198.79 353.883 198.878 353.39 199.401 353.221C200.214 352.959 209.386 349.489 214.421 347.35L215.3 346.976ZM233.321 445.449C234.912 444.995 237.04 444.314 239.012 443.535C240.173 443.076 241.262 442.59 242.149 442.104C242.959 441.66 243.524 441.256 243.839 440.921C243.841 440.812 243.831 440.646 243.803 440.412C243.741 439.892 243.602 439.152 243.384 438.199C242.951 436.299 242.23 433.644 241.281 430.402C239.384 423.922 236.593 415.151 233.418 405.501C227.197 386.585 219.514 364.321 214.242 349.373C209.783 351.232 203.023 353.812 200.701 354.664C200.721 354.739 200.745 354.82 200.77 354.907C200.968 355.581 201.284 356.573 201.707 357.844C202.551 360.383 203.805 364 205.335 368.34C208.396 377.017 212.557 388.563 216.746 400.102C220.935 411.642 225.15 423.173 228.318 431.819C229.902 436.142 231.224 439.744 232.151 442.265C232.614 443.525 232.978 444.516 233.226 445.191L233.321 445.449Z" fill="#212121"/>
<path d="M253.11 433.943C253.908 429.62 224.493 343.067 226.453 341.707C228.413 340.346 228.761 340.13 234.766 336.113C237.794 334.088 253.209 397.102 259.895 427.165C257.44 430.77 252.471 437.401 253.11 433.943Z" fill="#FF3236"/>
<path fill-rule="evenodd" clip-rule="evenodd" d="M246.828 369.379C251.9 388.65 257.428 411.931 260.773 426.972L260.857 427.351L260.638 427.672C259.405 429.484 257.525 432.079 256.019 433.796C255.641 434.227 255.276 434.615 254.943 434.926C254.627 435.221 254.278 435.507 253.934 435.666C253.765 435.744 253.498 435.84 253.187 435.804C252.812 435.761 252.508 435.542 252.334 435.232C252.19 434.972 252.16 434.695 252.157 434.49C252.154 434.27 252.182 434.03 252.228 433.781C252.228 433.782 252.228 433.781 252.228 433.779C252.229 433.763 252.235 433.655 252.207 433.402C252.179 433.146 252.124 432.808 252.041 432.384C251.875 431.539 251.606 430.407 251.246 429.022C250.526 426.255 249.454 422.527 248.147 418.158C245.668 409.868 242.355 399.307 239.028 388.7C238.849 388.128 238.67 387.556 238.49 386.984C234.986 375.812 231.516 364.722 229.044 356.34C227.808 352.151 226.818 348.625 226.198 346.099C225.888 344.839 225.665 343.806 225.552 343.055C225.495 342.685 225.46 342.347 225.463 342.072C225.464 341.937 225.474 341.775 225.514 341.616C225.546 341.486 225.64 341.18 225.942 340.97C227.439 339.932 228.004 339.554 230.826 337.668C231.716 337.074 232.83 336.33 234.268 335.368C234.691 335.084 235.156 335.138 235.497 335.313C235.786 335.462 236.012 335.703 236.181 335.918C236.531 336.364 236.891 337.032 237.259 337.839C238.006 339.476 238.895 341.929 239.885 344.982C241.868 351.099 244.293 359.746 246.828 369.379ZM234.851 337.139C235.053 337.427 235.313 337.901 235.625 338.585C236.327 340.124 237.191 342.496 238.176 345.536C240.144 351.604 242.558 360.21 245.091 369.836C250.114 388.919 255.586 411.948 258.935 426.981C257.721 428.745 256.018 431.073 254.668 432.612C254.43 432.884 254.208 433.126 254.005 433.332C254.001 433.289 253.997 433.247 253.992 433.205C253.956 432.879 253.891 432.487 253.803 432.038C253.627 431.14 253.348 429.968 252.984 428.57C252.255 425.771 251.176 422.017 249.868 417.643C247.385 409.342 244.069 398.769 240.744 388.168C240.564 387.594 240.384 387.02 240.204 386.447C236.699 375.27 233.233 364.196 230.766 355.832C229.532 351.648 228.552 348.155 227.942 345.671C227.636 344.425 227.429 343.455 227.327 342.786C227.292 342.552 227.272 342.372 227.264 342.24C228.537 341.358 229.196 340.918 231.814 339.168C232.617 338.632 233.605 337.972 234.851 337.139Z" fill="#212121"/>
<path fill-rule="evenodd" clip-rule="evenodd" d="M203.252 318.202C203.233 318.135 203.214 318.067 203.194 317.995C203.157 317.862 203.118 317.721 203.075 317.57C202.938 317.088 202.775 316.543 202.573 316C202.182 314.952 201.585 313.742 200.574 313.037C200.045 312.669 199.414 312.447 198.688 312.454C197.975 312.46 197.224 312.686 196.434 313.117C193.874 314.514 192.943 316.739 192.836 318.879C192.767 320.257 193.035 321.609 193.411 322.727C193.1 322.709 192.785 322.706 192.471 322.721C191.587 322.764 190.633 322.961 189.858 323.478C189.04 324.023 188.49 324.883 188.409 326.061C188.332 327.186 188.683 328.546 189.491 330.179C190.495 332.206 191.616 333.403 192.896 333.778C194.228 334.169 195.394 333.582 196.236 332.873C196.974 332.251 197.585 331.44 198.033 330.751C198.177 331.053 198.346 331.369 198.543 331.672C198.947 332.297 199.533 332.975 200.354 333.304C201.241 333.659 202.223 333.538 203.22 332.892C204.918 331.791 205.806 330.73 206.274 329.795C206.657 329.028 206.751 328.28 206.78 328.049C206.785 328.014 206.788 327.991 206.79 327.982C206.835 327.788 206.828 327.603 206.815 327.475C206.802 327.335 206.775 327.192 206.744 327.058C206.682 326.79 206.588 326.494 206.487 326.21C206.386 325.928 206.273 325.64 206.162 325.374C206.975 324.813 207.949 324.032 208.771 323.139C209.785 322.038 210.793 320.526 210.567 318.934C210.422 317.91 209.849 317.196 209.036 316.828C208.281 316.486 207.399 316.476 206.599 316.615C205.783 316.757 204.956 317.069 204.247 317.483C203.895 317.688 203.554 317.929 203.252 318.202ZM202.479 319.129C202.479 319.128 202.482 319.123 202.489 319.115C202.483 319.125 202.479 319.129 202.479 319.129ZM197.381 329.088C197.382 329.089 197.382 329.089 197.382 329.089C197.38 329.084 197.38 329.083 197.381 329.088ZM198.704 314.25C198.362 314.253 197.901 314.362 197.294 314.693C195.385 315.735 194.712 317.327 194.63 318.969C194.545 320.66 195.1 322.373 195.643 323.419L196.53 325.128L194.651 324.71C194.011 324.567 193.263 324.481 192.559 324.515C191.842 324.55 191.253 324.706 190.854 324.972C190.499 325.209 190.244 325.562 190.201 326.184C190.154 326.859 190.36 327.885 191.101 329.382C192.034 331.266 192.854 331.894 193.402 332.055C193.898 332.2 194.444 332.034 195.079 331.499C195.708 330.969 196.269 330.196 196.693 329.511C196.901 329.175 197.068 328.873 197.187 328.652C197.217 328.596 197.243 328.546 197.268 328.5L197.276 328.484C197.297 328.446 197.316 328.409 197.333 328.379C197.35 328.346 197.371 328.307 197.392 328.272C197.401 328.257 197.42 328.225 197.445 328.19C197.457 328.173 197.483 328.136 197.522 328.095C197.541 328.074 197.576 328.038 197.624 328C197.664 327.968 197.762 327.894 197.91 327.846C198.19 327.756 198.436 327.823 198.586 327.897C198.721 327.964 198.807 328.049 198.846 328.091C198.925 328.175 198.97 328.257 198.983 328.281C199.018 328.343 199.042 328.402 199.051 328.427C199.075 328.488 199.102 328.565 199.126 328.633C199.132 328.652 199.139 328.672 199.146 328.692C199.194 328.832 199.253 329.003 199.327 329.201C199.499 329.658 199.739 330.214 200.051 330.697C200.372 331.194 200.705 331.51 201.022 331.636C201.272 331.737 201.643 331.773 202.243 331.385C203.736 330.416 204.374 329.579 204.668 328.991C204.889 328.549 204.928 328.276 204.968 327.986C204.984 327.875 205 327.763 205.027 327.637C205.023 327.602 205.013 327.545 204.995 327.464C204.954 327.29 204.885 327.065 204.794 326.812C204.615 326.307 204.38 325.762 204.219 325.417L203.881 324.689L204.566 324.271C205.356 323.789 206.528 322.923 207.45 321.922C208.419 320.87 208.891 319.908 208.789 319.186C208.729 318.765 208.543 318.576 208.296 318.464C207.991 318.326 207.512 318.279 206.906 318.385C206.314 318.487 205.688 318.721 205.152 319.034C204.605 319.353 204.224 319.711 204.042 320.017C203.951 320.171 203.769 320.444 203.451 320.594C203.264 320.681 203.038 320.721 202.8 320.672C202.574 320.626 202.407 320.514 202.297 320.416C202.097 320.238 201.981 320.011 201.915 319.869C201.84 319.705 201.774 319.52 201.715 319.337C201.632 319.079 201.544 318.764 201.453 318.439C201.418 318.314 201.383 318.187 201.347 318.061C201.214 317.593 201.067 317.102 200.89 316.627C200.521 315.639 200.081 314.883 199.547 314.511C199.303 314.341 199.034 314.247 198.704 314.25Z" fill="#212121"/>
</svg>
