<svg width="500" height="500" viewBox="0 0 500 500" fill="none" xmlns="http://www.w3.org/2000/svg">
<rect width="500" height="500" fill="#DFB8F1"/>
<path d="M344.449 369.236C344.449 387.884 302.14 403 249.949 403C197.758 403 155.449 387.884 155.449 369.236C155.449 323.248 197.758 335.473 249.949 335.473C302.14 335.473 344.449 324.878 344.449 369.236Z" fill="#212121"/>
<path d="M206.997 374.29C204.467 400.037 198.581 451.142 165.618 443.164C147.616 436.007 150.931 410.245 153.461 384.498C155.991 358.75 155.214 333.458 185.08 346.58C201.334 348.189 209.527 348.543 206.997 374.29Z" fill="#212121"/>
<path d="M292.893 374.29C295.378 400.037 301.159 451.142 333.534 443.164C351.213 436.007 347.958 410.245 345.474 384.498C342.989 358.751 343.751 333.458 314.419 346.58C298.455 348.189 290.409 348.543 292.893 374.29Z" fill="#212121"/>
<path d="M216.449 421C229.152 421 239.449 412.27 239.449 401.5C239.449 390.73 229.152 382 216.449 382C203.747 382 193.449 390.73 193.449 401.5C193.449 412.27 203.747 421 216.449 421Z" fill="#212121"/>
<path d="M281.949 421C293.823 421 303.449 412.27 303.449 401.5C303.449 390.73 293.823 382 281.949 382C270.075 382 260.449 390.73 260.449 401.5C260.449 412.27 270.075 421 281.949 421Z" fill="#212121"/>
<path d="M217.449 342C217.449 350.837 207.6 358 195.449 358C183.299 358 173.449 350.837 173.449 342C173.449 326 183.299 326 195.449 326C207.6 326 217.449 326 217.449 342Z" fill="#212121"/>
<path d="M327.449 342C327.449 350.837 317.376 358 304.949 358C292.523 358 282.449 350.837 282.449 342C282.449 326 292.523 326 304.949 326C317.376 326 327.449 326 327.449 342Z" fill="#212121"/>
<path fill-rule="evenodd" clip-rule="evenodd" d="M198.449 339.872C186.192 339.872 176.261 350.006 176.261 362.5C176.261 374.994 186.192 385.128 198.449 385.128C210.706 385.128 220.638 374.994 220.638 362.5C220.638 350.006 210.706 339.872 198.449 339.872ZM173.449 362.5C173.449 348.414 184.644 337 198.449 337C212.254 337 223.449 348.414 223.449 362.5C223.449 376.586 212.254 388 198.449 388C184.644 388 173.449 376.586 173.449 362.5Z" fill="#DADADA"/>
<path fill-rule="evenodd" clip-rule="evenodd" d="M302.449 339.872C289.702 339.872 279.373 350.006 279.373 362.5C279.373 374.994 289.702 385.128 302.449 385.128C315.196 385.128 325.525 374.994 325.525 362.5C325.525 350.006 315.196 339.872 302.449 339.872ZM276.449 362.5C276.449 348.414 288.092 337 302.449 337C316.806 337 328.449 348.414 328.449 362.5C328.449 376.586 316.806 388 302.449 388C288.092 388 276.449 376.586 276.449 362.5Z" fill="#DADADA"/>
<path d="M204.449 351.827C204.449 348.609 201.763 346 198.449 346C195.136 346 192.449 348.609 192.449 351.827V371.173C192.449 374.391 195.136 377 198.449 377C201.763 377 204.449 374.391 204.449 371.173V351.827Z" fill="#DADADA"/>
<path d="M188.276 356C185.058 356 182.449 358.686 182.449 362C182.449 365.314 185.058 368 188.276 368H207.622C210.84 368 213.449 365.314 213.449 362C213.449 358.686 210.84 356 207.622 356H188.276Z" fill="#DADADA"/>
<path d="M234.836 375C232.966 375 231.449 376.567 231.449 378.5C231.449 380.433 232.966 382 234.836 382H242.062C243.933 382 245.449 380.433 245.449 378.5C245.449 376.567 243.933 375 242.062 375H234.836Z" fill="#DADADA"/>
<path d="M256.078 375C254.074 375 252.449 376.567 252.449 378.5C252.449 380.433 254.074 382 256.078 382H263.82C265.824 382 267.449 380.433 267.449 378.5C267.449 376.567 265.824 375 263.82 375H256.078Z" fill="#DADADA"/>
<path d="M302.449 355C305.211 355 307.449 352.314 307.449 349C307.449 345.686 305.211 343 302.449 343C299.688 343 297.449 345.686 297.449 349C297.449 352.314 299.688 355 302.449 355Z" fill="#DADADA"/>
<path d="M316.449 368C319.763 368 322.449 365.314 322.449 362C322.449 358.686 319.763 356 316.449 356C313.136 356 310.449 358.686 310.449 362C310.449 365.314 313.136 368 316.449 368Z" fill="#DADADA"/>
<path d="M302.449 379C305.211 379 307.449 376.761 307.449 374C307.449 371.239 305.211 369 302.449 369C299.688 369 297.449 371.239 297.449 374C297.449 376.761 299.688 379 302.449 379Z" fill="#DADADA"/>
<path d="M217.949 415C225.405 415 231.449 408.956 231.449 401.5C231.449 394.044 225.405 388 217.949 388C210.493 388 204.449 394.044 204.449 401.5C204.449 408.956 210.493 415 217.949 415Z" fill="#DADADA"/>
<path d="M280.949 415C288.957 415 295.449 408.956 295.449 401.5C295.449 394.044 288.957 388 280.949 388C272.941 388 266.449 394.044 266.449 401.5C266.449 408.956 272.941 415 280.949 415Z" fill="#DADADA"/>
<path d="M288.949 368C292.539 368 295.449 365.314 295.449 362C295.449 358.686 292.539 356 288.949 356C285.359 356 282.449 358.686 282.449 362C282.449 365.314 285.359 368 288.949 368Z" fill="#DADADA"/>
<path d="M220.299 91.8585C194.814 67.6423 179.674 62.4785 145.256 55C137.095 88.9027 148.656 143.793 155.457 167C185.762 155.307 245.783 116.075 220.299 91.8585Z" fill="#595959"/>
<path d="M197.935 95.7329C183.372 82.1113 174.72 79.2067 155.053 75C150.39 94.0703 156.996 124.946 160.882 138C178.199 131.423 212.497 109.355 197.935 95.7329Z" fill="#D8B3CB"/>
<path d="M288.6 91.8585C314.084 67.6423 329.225 62.4785 363.642 55C371.803 88.9027 360.242 143.793 353.441 167C323.137 155.307 263.115 116.075 288.6 91.8585Z" fill="#595959"/>
<path d="M310.891 95.7329C325.15 82.1113 333.621 79.2067 352.879 75C357.445 94.0703 350.976 124.946 347.171 138C330.215 131.423 296.631 109.355 310.891 95.7329Z" fill="#D8B3CB"/>
<path d="M366.449 197C366.449 259.408 316.305 310 254.449 310C192.593 310 142.449 259.408 142.449 197C142.449 134.592 192.593 84 254.449 84C316.305 84 366.449 134.592 366.449 197Z" fill="#595959"/>
<path d="M186.449 178.5C186.449 191.479 186.449 202 209.449 202C232.449 202 232.449 191.479 232.449 178.5C232.449 165.521 222.152 155 209.449 155C196.747 155 186.449 165.521 186.449 178.5Z" fill="#DADADA"/>
<path d="M193.449 181.5C193.449 190.613 193.449 198 209.949 198C226.449 198 226.449 190.613 226.449 181.5C226.449 172.387 219.062 165 209.949 165C200.837 165 193.449 172.387 193.449 181.5Z" fill="#212121"/>
<path d="M220.449 180.5C220.449 184.09 217.539 187 213.949 187C210.359 187 207.449 184.09 207.449 180.5C207.449 176.91 210.359 174 213.949 174C217.539 174 220.449 176.91 220.449 180.5Z" fill="#DADADA"/>
<path d="M314.449 178.5C314.449 191.479 314.449 202 291.949 202C269.449 202 269.449 191.479 269.449 178.5C269.449 165.521 279.523 155 291.949 155C304.376 155 314.449 165.521 314.449 178.5Z" fill="#DADADA"/>
<path d="M308.449 181.5C308.449 190.613 308.449 198 291.949 198C275.449 198 275.449 190.613 275.449 181.5C275.449 172.387 282.837 165 291.949 165C301.062 165 308.449 172.387 308.449 181.5Z" fill="#212121"/>
<path d="M282.449 180.5C282.449 184.09 285.359 187 288.949 187C292.539 187 295.449 184.09 295.449 180.5C295.449 176.91 292.539 174 288.949 174C285.359 174 282.449 176.91 282.449 180.5Z" fill="#DADADA"/>
<path fill-rule="evenodd" clip-rule="evenodd" d="M334.93 213.95C322.014 220.359 309.56 227.959 302.043 233L301.449 232.111C308.998 227.049 321.492 219.424 334.456 212.991C347.393 206.571 360.893 201.289 370.417 201L370.449 202.069C361.182 202.351 347.872 207.528 334.93 213.95Z" fill="#212121"/>
<path fill-rule="evenodd" clip-rule="evenodd" d="M163.998 213.95C177.288 220.359 190.103 227.959 197.838 233L198.449 232.111C190.682 227.049 177.826 219.424 164.486 212.991C151.174 206.571 137.283 201.289 127.482 201L127.449 202.069C136.985 202.351 150.681 207.528 163.998 213.95Z" fill="#212121"/>
<path fill-rule="evenodd" clip-rule="evenodd" d="M340.314 233.042C325.898 234.997 311.541 238.238 302.729 240.627L302.447 239.587C311.296 237.188 325.7 233.936 340.169 231.974C354.608 230.015 369.22 229.324 378.422 232.118L378.109 233.149C369.156 230.431 354.758 231.082 340.314 233.042Z" fill="#212121"/>
<path fill-rule="evenodd" clip-rule="evenodd" d="M159.14 233.042C173.555 234.997 187.912 238.238 196.724 240.627L197.006 239.587C188.157 237.188 173.754 233.936 159.284 231.974C144.845 230.015 130.233 229.324 121.031 232.118L121.344 233.149C130.298 230.431 144.695 231.082 159.14 233.042Z" fill="#212121"/>
<path fill-rule="evenodd" clip-rule="evenodd" d="M340.509 252.861C326.268 249.894 311.652 248.16 302.548 247.472L302.629 246.397C311.771 247.088 326.434 248.828 340.729 251.806C354.995 254.777 368.999 259.001 376.742 264.705L376.103 265.573C368.569 260.023 354.78 255.833 340.509 252.861Z" fill="#212121"/>
<path fill-rule="evenodd" clip-rule="evenodd" d="M158.942 252.861C173.184 249.894 187.799 248.16 196.903 247.472L196.822 246.397C187.68 247.088 173.017 248.828 158.722 251.806C144.457 254.777 130.452 259.001 122.709 264.705L123.348 265.573C130.882 260.023 144.671 255.833 158.942 252.861Z" fill="#212121"/>
<path d="M316.449 245.018C316.449 259.367 288.691 271 254.449 271C220.208 271 192.449 259.367 192.449 245.018C192.449 230.668 215.721 207.209 254.449 219.394C296.908 208.284 316.449 230.668 316.449 245.018Z" fill="#DADADA"/>
<path d="M259.731 236.711C257.2 239.763 252.698 239.763 250.167 236.711L243.04 228.118C239.191 223.478 242.824 216.281 248.623 217.058L254.149 217.798C254.68 217.87 255.218 217.87 255.75 217.798L261.276 217.058C267.074 216.281 270.707 223.478 266.859 228.118L259.731 236.711Z" fill="#212121"/>
<path fill-rule="evenodd" clip-rule="evenodd" d="M254.505 248.208C255.069 244.243 254.838 240.04 254.2 236.43L256.786 236C257.46 239.81 257.712 244.281 257.105 248.555C256.498 252.818 255.02 256.999 252.126 260.095C249.191 263.237 244.917 265.135 239.034 264.993C233.204 264.852 225.801 262.714 216.449 257.869L217.686 255.626C226.854 260.375 233.841 262.323 239.099 262.449C244.302 262.575 247.812 260.923 250.181 258.388C252.592 255.807 253.939 252.185 254.505 248.208Z" fill="#212121"/>
<path fill-rule="evenodd" clip-rule="evenodd" d="M257.25 248.208C256.714 244.243 256.933 240.04 257.54 236.43L255.08 236C254.439 239.81 254.199 244.281 254.777 248.555C255.354 252.818 256.76 256.999 259.513 260.095C262.305 263.237 266.37 265.135 271.967 264.993C277.512 264.852 284.554 262.714 293.449 257.869L292.273 255.626C283.552 260.375 276.906 262.323 271.904 262.449C266.955 262.575 263.616 260.923 261.363 258.388C259.069 255.807 257.788 252.185 257.25 248.208Z" fill="#212121"/>
</svg>
