<svg width="500" height="500" viewBox="0 0 500 500" fill="none" xmlns="http://www.w3.org/2000/svg">
<rect width="500" height="500" fill="#EED78C"/>
<g filter="url(#filter0_d_1661_5362)">
<path d="M144 299C144 299 181.638 304.31 202.54 310.88C222.485 317.149 250 345.167 250 345.167V438C214.633 412.691 178.467 402.869 166.26 402.869L144 299Z" fill="#B6B6B6"/>
</g>
<g filter="url(#filter1_d_1661_5362)">
<path d="M357 300C357 300 319.262 304.892 298.085 311.434C277.877 317.676 250 345.178 250 345.178V438C285.833 412.802 322.475 403.022 334.843 403.022L357 300Z" fill="#B6B6B6"/>
</g>
<path d="M132 309C132 309 171.785 308.889 195.699 316.315C218.52 323.402 250 344.529 250 344.529V460C209.535 431.394 168.157 420.291 154.19 420.291L132 309Z" fill="#DADADA"/>
<path d="M369 309C369 309 328.878 308.889 304.761 316.315C281.747 323.402 250 344.529 250 344.529V460C290.808 431.394 332.537 420.291 346.622 420.291L369 309Z" fill="#DADADA"/>
<g filter="url(#filter2_d_1661_5362)">
<path d="M132 316C132 316 171.785 315.888 195.699 323.363C218.52 330.497 250 351.765 250 351.765V468C209.535 439.204 168.157 428.028 154.19 428.028L132 316Z" fill="#3F5B2D"/>
</g>
<g filter="url(#filter3_d_1661_5362)">
<path d="M369 316C369 316 328.878 315.888 304.761 323.363C281.747 330.497 250 351.765 250 351.765V468C290.808 439.204 332.537 428.028 346.622 428.028L369 316Z" fill="#3F5B2D"/>
</g>
<path d="M210 87.5C210 104.345 196.121 118 179 118C161.879 118 148 104.345 148 87.5C148 70.6553 161.879 57 179 57C196.121 57 210 70.6553 210 87.5Z" fill="#212121"/>
<path d="M194 90.5C194 99.0604 187.508 106 179.5 106C171.492 106 165 99.0604 165 90.5C165 81.9396 171.492 75 179.5 75C187.508 75 194 81.9396 194 90.5Z" fill="#383838"/>
<path d="M352 87.5C352 104.345 338.121 118 321 118C303.879 118 290 104.345 290 87.5C290 70.6553 303.879 57 321 57C338.121 57 352 70.6553 352 87.5Z" fill="#212121"/>
<path d="M336 90.5C336 99.0604 329.06 106 320.5 106C311.94 106 305 99.0604 305 90.5C305 81.9396 311.94 75 320.5 75C329.06 75 336 81.9396 336 90.5Z" fill="#383838"/>
<path d="M360 186.5C360 248.632 310.08 299 248.5 299C186.92 299 137 248.632 137 186.5C137 124.368 186.92 74 248.5 74C310.08 74 360 124.368 360 186.5Z" fill="#DADADA"/>
<path d="M237.646 170.444C244.587 159.172 238.856 149.434 232.228 145.118C189.009 123.036 149.582 177.358 166.675 193.863C183.768 210.368 228.969 184.533 237.646 170.444Z" fill="#383838"/>
<path d="M263.087 170.444C256.145 159.172 261.876 149.434 268.504 145.118C311.723 123.036 351.15 177.358 334.057 193.863C316.964 210.368 271.764 184.533 263.087 170.444Z" fill="#383838"/>
<path d="M228 163.5C228 173.717 219.717 182 209.5 182C199.283 182 191 173.717 191 163.5C191 153.283 199.283 145 209.5 145C219.717 145 228 153.283 228 163.5Z" fill="#212121"/>
<path d="M225 161C225 164.866 222.09 168 218.5 168C214.91 168 212 164.866 212 161C212 157.134 214.91 154 218.5 154C222.09 154 225 157.134 225 161Z" fill="#DADADA"/>
<path d="M310 163.5C310 173.717 301.941 182 292 182C282.059 182 274 173.717 274 163.5C274 153.283 282.059 145 292 145C301.941 145 310 153.283 310 163.5Z" fill="#212121"/>
<path d="M256.605 226.607C254.167 229.798 249.833 229.798 247.395 226.607L240.532 217.623C236.826 212.772 240.324 205.249 245.908 206.061L251.229 206.835C251.741 206.909 252.259 206.909 252.771 206.835L258.092 206.061C263.676 205.249 267.174 212.772 263.468 217.623L256.605 226.607Z" fill="#212121"/>
<path fill-rule="evenodd" clip-rule="evenodd" d="M250.128 239.208C250.677 235.243 250.453 231.04 249.83 227.43L252.353 227C253.011 230.81 253.257 235.281 252.664 239.555C252.072 243.818 250.63 247.999 247.807 251.095C244.943 254.237 240.774 256.135 235.034 255.993C229.346 255.852 222.123 253.714 213 248.869L214.207 246.626C223.151 251.375 229.968 253.323 235.097 253.449C240.174 253.575 243.598 251.923 245.909 249.388C248.262 246.807 249.576 243.185 250.128 239.208Z" fill="#212121"/>
<path fill-rule="evenodd" clip-rule="evenodd" d="M252.872 239.208C252.323 235.243 252.547 231.04 253.17 227.43L250.647 227C249.989 230.81 249.743 235.281 250.336 239.555C250.928 243.818 252.37 247.999 255.193 251.095C258.057 254.237 262.226 256.135 267.966 255.993C273.654 255.852 280.877 253.714 290 248.869L288.793 246.626C279.849 251.375 273.032 253.323 267.903 253.449C262.826 253.575 259.402 251.923 257.091 249.388C254.738 246.807 253.424 243.185 252.872 239.208Z" fill="#212121"/>
<path d="M290 161C290 164.866 287.314 168 284 168C280.686 168 278 164.866 278 161C278 157.134 280.686 154 284 154C287.314 154 290 157.134 290 161Z" fill="#DADADA"/>
<path fill-rule="evenodd" clip-rule="evenodd" d="M211 190.433C225.631 190.433 237.491 178.375 237.491 163.5C237.491 148.625 225.631 136.567 211 136.567C196.369 136.567 184.509 148.625 184.509 163.5C184.509 178.375 196.369 190.433 211 190.433ZM211 194C227.569 194 241 180.345 241 163.5C241 146.655 227.569 133 211 133C194.431 133 181 146.655 181 163.5C181 180.345 194.431 194 211 194Z" fill="#212121"/>
<path fill-rule="evenodd" clip-rule="evenodd" d="M290 190.433C305.118 190.433 317.374 178.375 317.374 163.5C317.374 148.625 305.118 136.567 290 136.567C274.882 136.567 262.626 148.625 262.626 163.5C262.626 178.375 274.882 190.433 290 190.433ZM290 194C307.121 194 321 180.345 321 163.5C321 146.655 307.121 133 290 133C272.879 133 259 146.655 259 163.5C259 180.345 272.879 194 290 194Z" fill="#212121"/>
<path fill-rule="evenodd" clip-rule="evenodd" d="M259.373 168C250.572 165.953 243.276 167.17 240.877 167.965L240 164.233C242.893 163.275 250.704 162.036 260 164.198L259.373 168Z" fill="#212121"/>
<path fill-rule="evenodd" clip-rule="evenodd" d="M151.284 146L183 160.917L180.716 166L149 151.083L151.284 146Z" fill="#212121"/>
<path fill-rule="evenodd" clip-rule="evenodd" d="M350.649 146L318 160.917L320.351 166L353 151.083L350.649 146Z" fill="#212121"/>
<defs>
<filter id="filter0_d_1661_5362" x="137" y="290" width="114" height="148" filterUnits="userSpaceOnUse" color-interpolation-filters="sRGB">
<feFlood flood-opacity="0" result="BackgroundImageFix"/>
<feColorMatrix in="SourceAlpha" type="matrix" values="0 0 0 0 0 0 0 0 0 0 0 0 0 0 0 0 0 0 127 0" result="hardAlpha"/>
<feOffset dx="-3" dy="-5"/>
<feGaussianBlur stdDeviation="2"/>
<feComposite in2="hardAlpha" operator="out"/>
<feColorMatrix type="matrix" values="0 0 0 0 1 0 0 0 0 1 0 0 0 0 1 0 0 0 0.25 0"/>
<feBlend mode="normal" in2="BackgroundImageFix" result="effect1_dropShadow_1661_5362"/>
<feBlend mode="normal" in="SourceGraphic" in2="effect1_dropShadow_1661_5362" result="shape"/>
</filter>
<filter id="filter1_d_1661_5362" x="243" y="291" width="115" height="147" filterUnits="userSpaceOnUse" color-interpolation-filters="sRGB">
<feFlood flood-opacity="0" result="BackgroundImageFix"/>
<feColorMatrix in="SourceAlpha" type="matrix" values="0 0 0 0 0 0 0 0 0 0 0 0 0 0 0 0 0 0 127 0" result="hardAlpha"/>
<feOffset dx="-3" dy="-5"/>
<feGaussianBlur stdDeviation="2"/>
<feComposite in2="hardAlpha" operator="out"/>
<feColorMatrix type="matrix" values="0 0 0 0 1 0 0 0 0 1 0 0 0 0 1 0 0 0 0.25 0"/>
<feBlend mode="normal" in2="BackgroundImageFix" result="effect1_dropShadow_1661_5362"/>
<feBlend mode="normal" in="SourceGraphic" in2="effect1_dropShadow_1661_5362" result="shape"/>
</filter>
<filter id="filter2_d_1661_5362" x="125" y="307" width="126" height="161" filterUnits="userSpaceOnUse" color-interpolation-filters="sRGB">
<feFlood flood-opacity="0" result="BackgroundImageFix"/>
<feColorMatrix in="SourceAlpha" type="matrix" values="0 0 0 0 0 0 0 0 0 0 0 0 0 0 0 0 0 0 127 0" result="hardAlpha"/>
<feOffset dx="-3" dy="-5"/>
<feGaussianBlur stdDeviation="2"/>
<feComposite in2="hardAlpha" operator="out"/>
<feColorMatrix type="matrix" values="0 0 0 0 0 0 0 0 0 0 0 0 0 0 0 0 0 0 0.25 0"/>
<feBlend mode="normal" in2="BackgroundImageFix" result="effect1_dropShadow_1661_5362"/>
<feBlend mode="normal" in="SourceGraphic" in2="effect1_dropShadow_1661_5362" result="shape"/>
</filter>
<filter id="filter3_d_1661_5362" x="243" y="307" width="127" height="161" filterUnits="userSpaceOnUse" color-interpolation-filters="sRGB">
<feFlood flood-opacity="0" result="BackgroundImageFix"/>
<feColorMatrix in="SourceAlpha" type="matrix" values="0 0 0 0 0 0 0 0 0 0 0 0 0 0 0 0 0 0 127 0" result="hardAlpha"/>
<feOffset dx="-3" dy="-5"/>
<feGaussianBlur stdDeviation="2"/>
<feComposite in2="hardAlpha" operator="out"/>
<feColorMatrix type="matrix" values="0 0 0 0 0 0 0 0 0 0 0 0 0 0 0 0 0 0 0.25 0"/>
<feBlend mode="normal" in2="BackgroundImageFix" result="effect1_dropShadow_1661_5362"/>
<feBlend mode="normal" in="SourceGraphic" in2="effect1_dropShadow_1661_5362" result="shape"/>
</filter>
</defs>
</svg>
