<svg width="500" height="500" viewBox="0 0 500 500" fill="none" xmlns="http://www.w3.org/2000/svg">
<rect width="500" height="500" fill="#B3DCCF"/>
<g filter="url(#filter0_d_1661_4919)">
<path d="M144 299C144 299 181.638 304.31 202.54 310.88C222.485 317.149 250 345.167 250 345.167V438C214.633 412.691 178.467 402.869 166.26 402.869L144 299Z" fill="#B6B6B6"/>
</g>
<g filter="url(#filter1_d_1661_4919)">
<path d="M357 300C357 300 319.262 304.892 298.085 311.434C277.877 317.676 250 345.178 250 345.178V438C285.833 412.802 322.475 403.022 334.843 403.022L357 300Z" fill="#B6B6B6"/>
</g>
<path d="M132 309C132 309 171.785 308.889 195.699 316.315C218.52 323.402 250 344.529 250 344.529V460C209.535 431.394 168.157 420.291 154.19 420.291L132 309Z" fill="#DADADA"/>
<path d="M369 309C369 309 328.878 308.889 304.761 316.315C281.747 323.402 250 344.529 250 344.529V460C290.808 431.394 332.537 420.291 346.622 420.291L369 309Z" fill="#DADADA"/>
<g filter="url(#filter2_d_1661_4919)">
<path d="M132 316C132 316 171.785 315.888 195.699 323.363C218.52 330.497 250 351.765 250 351.765V468C209.535 439.204 168.157 428.028 154.19 428.028L132 316Z" fill="#3F5B2D"/>
</g>
<g filter="url(#filter3_d_1661_4919)">
<path d="M369 316C369 316 328.878 315.888 304.761 323.363C281.747 330.497 250 351.765 250 351.765V468C290.808 439.204 332.537 428.028 346.622 428.028L369 316Z" fill="#3F5B2D"/>
</g>
<path d="M167 178C167 195.121 153.121 209 136 209C118.879 209 105 195.121 105 178C105 160.879 118.879 147 136 147C153.121 147 167 160.879 167 178Z" fill="#7D5740"/>
<path d="M157 178.5C157 189.822 147.822 199 136.5 199C125.178 199 116 189.822 116 178.5C116 167.178 125.178 158 136.5 158C147.822 158 157 167.178 157 178.5Z" fill="#C39972"/>
<path d="M391 178C391 195.121 377.121 209 360 209C342.879 209 329 195.121 329 178C329 160.879 342.879 147 360 147C377.121 147 391 160.879 391 178Z" fill="#7D5740"/>
<path d="M382 178.5C382 189.822 372.598 199 361 199C349.402 199 340 189.822 340 178.5C340 167.178 349.402 158 361 158C372.598 158 382 167.178 382 178.5Z" fill="#C39972"/>
<path d="M361 185.5C361 247.632 310.856 298 249 298C187.144 298 137 247.632 137 185.5C137 123.368 187.144 73 249 73C310.856 73 361 123.368 361 185.5Z" fill="#7D5740"/>
<path d="M252 167.5C252 195.39 229.39 218 201.5 218C173.61 218 151 195.39 151 167.5C151 139.61 173.61 117 201.5 117C229.39 117 252 139.61 252 167.5Z" fill="#C49972"/>
<path d="M348 167.5C348 195.39 325.614 218 298 218C270.386 218 248 195.39 248 167.5C248 139.61 270.386 117 298 117C325.614 117 348 139.61 348 167.5Z" fill="#C49972"/>
<path d="M310 236C310 270.242 282.018 298 247.5 298C212.982 298 185 270.242 185 236C185 201.758 212.982 174 247.5 174C282.018 174 310 201.758 310 236Z" fill="#C49972"/>
<path d="M226 167.5C226 178.822 216.822 188 205.5 188C194.178 188 185 178.822 185 167.5C185 156.178 194.178 147 205.5 147C216.822 147 226 156.178 226 167.5Z" fill="#412D21"/>
<path d="M218 166.5C218 169.538 215.09 172 211.5 172C207.91 172 205 169.538 205 166.5C205 163.462 207.91 161 211.5 161C215.09 161 218 163.462 218 166.5Z" fill="#DADADA"/>
<path d="M271 167.5C271 178.822 280.402 188 292 188C303.598 188 313 178.822 313 167.5C313 156.178 303.598 147 292 147C280.402 147 271 156.178 271 167.5Z" fill="#412D21"/>
<path d="M283 166.5C283 169.538 285.686 172 289 172C292.314 172 295 169.538 295 166.5C295 163.462 292.314 161 289 161C285.686 161 283 163.462 283 166.5Z" fill="#DADADA"/>
<path d="M247 214C247 216.761 244.761 219 242 219C239.239 219 237 216.761 237 214C237 211.239 239.239 209 242 209C244.761 209 247 211.239 247 214Z" fill="#A87B5F"/>
<path d="M263 214C263 216.761 260.538 219 257.5 219C254.462 219 252 216.761 252 214C252 211.239 254.462 209 257.5 209C260.538 209 263 211.239 263 214Z" fill="#A87B5F"/>
<path fill-rule="evenodd" clip-rule="evenodd" d="M244.04 259.406C234.218 257.344 226.3 250.32 222 244.524L224.035 243.049C228.115 248.547 235.553 255.075 244.564 256.966C253.432 258.827 264.134 256.262 275.041 243L277 244.573C265.616 258.415 254.007 261.497 244.04 259.406Z" fill="#412D21"/>
<path d="M254.223 45.0185C241.939 54.8958 240.398 73.1217 241.163 81H249.635C231.986 81 269.578 32.6719 254.223 45.0185Z" fill="#7D5740"/>
<path fill-rule="evenodd" clip-rule="evenodd" d="M257.14 44.998C256.65 45.2817 255.969 45.7721 255.061 46.5186C249.356 51.2094 246.113 57.9117 244.39 64.4499C242.782 70.5551 242.518 76.4488 242.782 80.2701H245.798C245.616 80.0446 245.455 79.7974 245.314 79.5285C244.513 77.9898 244.519 75.9407 244.913 73.7608C245.708 69.3691 248.224 63.719 250.747 58.562C251.617 56.7845 252.486 55.0693 253.293 53.4736C254.866 50.3678 256.209 47.7148 256.887 45.9362C257.038 45.5396 257.145 45.2143 257.213 44.9563C257.189 44.9695 257.165 44.9834 257.14 44.998ZM250.129 80.2701C248.221 80.2701 247.282 79.6228 246.809 78.7155C246.285 77.7093 246.203 76.1499 246.578 74.0753C247.323 69.958 249.727 64.515 252.262 59.3357C253.089 57.6443 253.933 55.9767 254.731 54.4013C256.337 51.2274 257.754 48.4282 258.464 46.5641C258.73 45.8664 258.93 45.2197 258.985 44.6959C259.011 44.438 259.013 44.1223 258.905 43.8215C258.781 43.4743 258.516 43.1751 258.115 43.0545C257.772 42.9517 257.434 43.0117 257.174 43.092C256.9 43.1767 256.608 43.3172 256.305 43.493C255.697 43.8453 254.933 44.4037 254 45.1708C247.922 50.1675 244.535 57.2469 242.756 64.0003C240.976 70.7534 240.784 77.259 241.16 81.2186L241.234 82H250.129V80.2701Z" fill="#7D5740"/>
<path d="M254.223 63.0185C241.939 72.8958 240.398 91.1217 241.163 99H249.635C231.986 99 269.578 50.6719 254.223 63.0185Z" fill="#7D5740"/>
<path fill-rule="evenodd" clip-rule="evenodd" d="M257.14 62.0492C256.65 62.3402 255.969 62.8431 255.061 63.6088C249.356 68.4199 246.113 75.2941 244.39 81.9999C242.782 88.2617 242.518 94.3064 242.782 98.2257H245.798C245.616 97.9945 245.455 97.7409 245.314 97.4651C244.513 95.887 244.519 93.7853 244.913 91.5495C245.708 87.0452 248.224 81.2502 250.747 75.9611C251.617 74.138 252.486 72.3788 253.293 70.7421C254.866 67.5568 256.209 64.8357 256.887 63.0115C257.038 62.6047 257.145 62.2711 257.213 62.0064C257.189 62.02 257.165 62.0342 257.14 62.0492ZM250.129 98.2257C248.221 98.2257 247.282 97.5618 246.809 96.6313C246.285 95.5992 246.203 93.9999 246.578 91.8721C247.323 87.6492 249.727 82.0666 252.262 76.7545C253.089 75.0198 253.933 73.3094 254.731 71.6937C256.337 68.4384 257.754 65.5674 258.464 63.6555C258.73 62.9399 258.93 62.2766 258.985 61.7394C259.011 61.4748 259.013 61.1511 258.905 60.8425C258.781 60.4865 258.516 60.1796 258.115 60.0559C257.772 59.9504 257.434 60.012 257.174 60.0944C256.9 60.1813 256.608 60.3254 256.305 60.5056C255.697 60.8669 254.933 61.4397 254 62.2265C247.922 67.3513 244.535 74.6122 242.756 81.5387C240.976 88.465 240.784 95.1375 241.16 99.1985L241.234 100H250.129V98.2257Z" fill="#7D5740"/>
<path fill-rule="evenodd" clip-rule="evenodd" d="M210 195.374C225.118 195.374 237.374 183.118 237.374 168C237.374 152.882 225.118 140.626 210 140.626C194.882 140.626 182.626 152.882 182.626 168C182.626 183.118 194.882 195.374 210 195.374ZM210 199C227.121 199 241 185.121 241 168C241 150.879 227.121 137 210 137C192.879 137 179 150.879 179 168C179 185.121 192.879 199 210 199Z" fill="#212121"/>
<path fill-rule="evenodd" clip-rule="evenodd" d="M289 195.374C304.118 195.374 316.374 183.118 316.374 168C316.374 152.882 304.118 140.626 289 140.626C273.882 140.626 261.626 152.882 261.626 168C261.626 183.118 273.882 195.374 289 195.374ZM289 199C306.121 199 320 185.121 320 168C320 150.879 306.121 137 289 137C271.879 137 258 150.879 258 168C258 185.121 271.879 199 289 199Z" fill="#212121"/>
<path fill-rule="evenodd" clip-rule="evenodd" d="M258.341 172C249.101 170.362 241.44 171.336 238.921 171.972L238 168.987C241.037 168.22 249.239 167.229 259 168.959L258.341 172Z" fill="#212121"/>
<path fill-rule="evenodd" clip-rule="evenodd" d="M148.351 151L181 165.172L178.649 170L146 155.828L148.351 151Z" fill="#212121"/>
<path fill-rule="evenodd" clip-rule="evenodd" d="M347.85 151L318 165.172L320.15 170L350 155.828L347.85 151Z" fill="#212121"/>
<defs>
<filter id="filter0_d_1661_4919" x="137" y="290" width="114" height="148" filterUnits="userSpaceOnUse" color-interpolation-filters="sRGB">
<feFlood flood-opacity="0" result="BackgroundImageFix"/>
<feColorMatrix in="SourceAlpha" type="matrix" values="0 0 0 0 0 0 0 0 0 0 0 0 0 0 0 0 0 0 127 0" result="hardAlpha"/>
<feOffset dx="-3" dy="-5"/>
<feGaussianBlur stdDeviation="2"/>
<feComposite in2="hardAlpha" operator="out"/>
<feColorMatrix type="matrix" values="0 0 0 0 1 0 0 0 0 1 0 0 0 0 1 0 0 0 0.25 0"/>
<feBlend mode="normal" in2="BackgroundImageFix" result="effect1_dropShadow_1661_4919"/>
<feBlend mode="normal" in="SourceGraphic" in2="effect1_dropShadow_1661_4919" result="shape"/>
</filter>
<filter id="filter1_d_1661_4919" x="243" y="291" width="115" height="147" filterUnits="userSpaceOnUse" color-interpolation-filters="sRGB">
<feFlood flood-opacity="0" result="BackgroundImageFix"/>
<feColorMatrix in="SourceAlpha" type="matrix" values="0 0 0 0 0 0 0 0 0 0 0 0 0 0 0 0 0 0 127 0" result="hardAlpha"/>
<feOffset dx="-3" dy="-5"/>
<feGaussianBlur stdDeviation="2"/>
<feComposite in2="hardAlpha" operator="out"/>
<feColorMatrix type="matrix" values="0 0 0 0 1 0 0 0 0 1 0 0 0 0 1 0 0 0 0.25 0"/>
<feBlend mode="normal" in2="BackgroundImageFix" result="effect1_dropShadow_1661_4919"/>
<feBlend mode="normal" in="SourceGraphic" in2="effect1_dropShadow_1661_4919" result="shape"/>
</filter>
<filter id="filter2_d_1661_4919" x="125" y="307" width="126" height="161" filterUnits="userSpaceOnUse" color-interpolation-filters="sRGB">
<feFlood flood-opacity="0" result="BackgroundImageFix"/>
<feColorMatrix in="SourceAlpha" type="matrix" values="0 0 0 0 0 0 0 0 0 0 0 0 0 0 0 0 0 0 127 0" result="hardAlpha"/>
<feOffset dx="-3" dy="-5"/>
<feGaussianBlur stdDeviation="2"/>
<feComposite in2="hardAlpha" operator="out"/>
<feColorMatrix type="matrix" values="0 0 0 0 0 0 0 0 0 0 0 0 0 0 0 0 0 0 0.25 0"/>
<feBlend mode="normal" in2="BackgroundImageFix" result="effect1_dropShadow_1661_4919"/>
<feBlend mode="normal" in="SourceGraphic" in2="effect1_dropShadow_1661_4919" result="shape"/>
</filter>
<filter id="filter3_d_1661_4919" x="243" y="307" width="127" height="161" filterUnits="userSpaceOnUse" color-interpolation-filters="sRGB">
<feFlood flood-opacity="0" result="BackgroundImageFix"/>
<feColorMatrix in="SourceAlpha" type="matrix" values="0 0 0 0 0 0 0 0 0 0 0 0 0 0 0 0 0 0 127 0" result="hardAlpha"/>
<feOffset dx="-3" dy="-5"/>
<feGaussianBlur stdDeviation="2"/>
<feComposite in2="hardAlpha" operator="out"/>
<feColorMatrix type="matrix" values="0 0 0 0 0 0 0 0 0 0 0 0 0 0 0 0 0 0 0.25 0"/>
<feBlend mode="normal" in2="BackgroundImageFix" result="effect1_dropShadow_1661_4919"/>
<feBlend mode="normal" in="SourceGraphic" in2="effect1_dropShadow_1661_4919" result="shape"/>
</filter>
</defs>
</svg>
