<svg width="500" height="500" viewBox="0 0 500 500" fill="none" xmlns="http://www.w3.org/2000/svg">
<rect width="500" height="500" fill="#F2B5B5"/>
<path d="M345 364.236C345 382.884 302.691 398 250.5 398C198.309 398 156 382.884 156 364.236C156 318.248 198.309 330.473 250.5 330.473C302.691 330.473 345 319.878 345 364.236Z" fill="#212121"/>
<path d="M206.556 369.29C204.071 395.037 198.29 446.142 165.915 438.164C148.236 431.007 151.491 405.245 153.976 379.498C156.46 353.75 155.698 328.458 185.03 341.58C200.994 343.189 209.041 343.543 206.556 369.29Z" fill="#212121"/>
<path d="M293.46 369.29C296.035 395.037 302.027 446.142 335.578 438.164C353.901 431.007 350.527 405.245 347.952 379.498C345.377 353.751 346.168 328.458 315.769 341.58C299.224 343.189 290.885 343.543 293.46 369.29Z" fill="#212121"/>
<path d="M217.5 416C230.479 416 241 407.27 241 396.5C241 385.73 230.479 377 217.5 377C204.521 377 194 385.73 194 396.5C194 407.27 204.521 416 217.5 416Z" fill="#212121"/>
<path d="M282 416C294.703 416 305 407.27 305 396.5C305 385.73 294.703 377 282 377C269.297 377 259 385.73 259 396.5C259 407.27 269.297 416 282 416Z" fill="#212121"/>
<path d="M218 337C218 345.837 207.703 353 195 353C182.297 353 172 345.837 172 337C172 321 182.297 321 195 321C207.703 321 218 321 218 337Z" fill="#212121"/>
<path d="M327 337C327 345.837 317.374 353 305.5 353C293.626 353 284 345.837 284 337C284 321 293.626 321 305.5 321C317.374 321 327 321 327 337Z" fill="#212121"/>
<path fill-rule="evenodd" clip-rule="evenodd" d="M198.5 334.872C185.998 334.872 175.868 345.006 175.868 357.5C175.868 369.994 185.998 380.128 198.5 380.128C211.002 380.128 221.132 369.994 221.132 357.5C221.132 345.006 211.002 334.872 198.5 334.872ZM173 357.5C173 343.414 184.419 332 198.5 332C212.581 332 224 343.414 224 357.5C224 371.586 212.581 383 198.5 383C184.419 383 173 371.586 173 357.5Z" fill="#DADADA"/>
<path fill-rule="evenodd" clip-rule="evenodd" d="M302 334.872C289.743 334.872 279.811 345.006 279.811 357.5C279.811 369.994 289.743 380.128 302 380.128C314.257 380.128 324.189 369.994 324.189 357.5C324.189 345.006 314.257 334.872 302 334.872ZM277 357.5C277 343.414 288.195 332 302 332C315.805 332 327 343.414 327 357.5C327 371.586 315.805 383 302 383C288.195 383 277 371.586 277 357.5Z" fill="#DADADA"/>
<path d="M205 346.827C205 343.609 202.09 341 198.5 341C194.91 341 192 343.609 192 346.827V366.173C192 369.391 194.91 372 198.5 372C202.09 372 205 369.391 205 366.173V346.827Z" fill="#DADADA"/>
<path d="M189.639 351C186.525 351 184 353.686 184 357C184 360.314 186.525 363 189.639 363H208.361C211.475 363 214 360.314 214 357C214 353.686 211.475 351 208.361 351H189.639Z" fill="#DADADA"/>
<path d="M236.387 370C234.516 370 233 371.567 233 373.5C233 375.433 234.516 377 236.387 377H243.613C245.484 377 247 375.433 247 373.5C247 371.567 245.484 370 243.613 370H236.387Z" fill="#DADADA"/>
<path d="M256.629 370C254.625 370 253 371.567 253 373.5C253 375.433 254.625 377 256.629 377H264.371C266.375 377 268 375.433 268 373.5C268 371.567 266.375 370 264.371 370H256.629Z" fill="#DADADA"/>
<path d="M304 350C307.314 350 310 347.314 310 344C310 340.686 307.314 338 304 338C300.686 338 298 340.686 298 344C298 347.314 300.686 350 304 350Z" fill="#DADADA"/>
<path d="M317 363C319.761 363 322 360.314 322 357C322 353.686 319.761 351 317 351C314.239 351 312 353.686 312 357C312 360.314 314.239 363 317 363Z" fill="#DADADA"/>
<path d="M304 374C307.314 374 310 371.761 310 369C310 366.239 307.314 364 304 364C300.686 364 298 366.239 298 369C298 371.761 300.686 374 304 374Z" fill="#DADADA"/>
<path d="M219.5 410C226.956 410 233 403.956 233 396.5C233 389.044 226.956 383 219.5 383C212.044 383 206 389.044 206 396.5C206 403.956 212.044 410 219.5 410Z" fill="#DADADA"/>
<path d="M281.5 410C288.956 410 295 403.956 295 396.5C295 389.044 288.956 383 281.5 383C274.044 383 268 389.044 268 396.5C268 403.956 274.044 410 281.5 410Z" fill="#DADADA"/>
<path d="M290 363C292.761 363 295 360.314 295 357C295 353.686 292.761 351 290 351C287.239 351 285 353.686 285 357C285 360.314 287.239 363 290 363Z" fill="#DADADA"/>
<path d="M212 91.5C212 108.897 198.121 123 181 123C163.879 123 150 108.897 150 91.5C150 74.103 163.879 60 181 60C198.121 60 212 74.103 212 91.5Z" fill="#212121"/>
<path d="M196 96C196 104.837 189.508 112 181.5 112C173.492 112 167 104.837 167 96C167 87.1634 173.492 80 181.5 80C189.508 80 196 87.1634 196 96Z" fill="#383838"/>
<path d="M354 91.5C354 108.897 340.121 123 323 123C305.879 123 292 108.897 292 91.5C292 74.103 305.879 60 323 60C340.121 60 354 74.103 354 91.5Z" fill="#212121"/>
<path d="M338 96C338 104.837 331.06 112 322.5 112C313.94 112 307 104.837 307 96C307 87.1634 313.94 80 322.5 80C331.06 80 338 87.1634 338 96Z" fill="#383838"/>
<path d="M362 192C362 254.408 312.08 305 250.5 305C188.92 305 139 254.408 139 192C139 129.592 188.92 79 250.5 79C312.08 79 362 129.592 362 192Z" fill="#DADADA"/>
<path d="M239.646 175.448C246.587 164.176 240.856 154.438 234.228 150.122C191.009 128.04 151.582 182.362 168.675 198.867C185.768 215.372 230.969 189.537 239.646 175.448Z" fill="#383838"/>
<path d="M265.087 175.448C258.145 164.176 263.876 154.438 270.504 150.122C313.723 128.04 353.15 182.362 336.057 198.867C318.964 215.372 273.764 189.537 265.087 175.448Z" fill="#383838"/>
<path d="M230 168C230 177.941 221.717 186 211.5 186C201.283 186 193 177.941 193 168C193 158.059 201.283 150 211.5 150C221.717 150 230 158.059 230 168Z" fill="#212121"/>
<path fill-rule="evenodd" clip-rule="evenodd" d="M211.5 185.636C221.511 185.636 229.626 177.74 229.626 168C229.626 158.26 221.511 150.364 211.5 150.364C201.489 150.364 193.374 158.26 193.374 168C193.374 177.74 201.489 185.636 211.5 185.636ZM211.5 186C221.717 186 230 177.941 230 168C230 158.059 221.717 150 211.5 150C201.283 150 193 158.059 193 168C193 177.941 201.283 186 211.5 186Z" fill="#212121"/>
<path d="M227 166.5C227 170.09 224.09 173 220.5 173C216.91 173 214 170.09 214 166.5C214 162.91 216.91 160 220.5 160C224.09 160 227 162.91 227 166.5Z" fill="#DADADA"/>
<path d="M312 168C312 177.941 303.941 186 294 186C284.059 186 276 177.941 276 168C276 158.059 284.059 150 294 150C303.941 150 312 158.059 312 168Z" fill="#212121"/>
<path fill-rule="evenodd" clip-rule="evenodd" d="M294 185.636C303.74 185.636 311.636 177.74 311.636 168C311.636 158.26 303.74 150.364 294 150.364C284.26 150.364 276.364 158.26 276.364 168C276.364 177.74 284.26 185.636 294 185.636ZM294 186C303.941 186 312 177.941 312 168C312 158.059 303.941 150 294 150C284.059 150 276 158.059 276 168C276 177.941 284.059 186 294 186Z" fill="#212121"/>
<path d="M258.605 230.711C256.167 233.763 251.833 233.763 249.395 230.711L242.532 222.118C238.826 217.478 242.324 210.281 247.908 211.058L253.229 211.798C253.741 211.87 254.259 211.87 254.771 211.798L260.092 211.058C265.676 210.281 269.174 217.478 265.468 222.118L258.605 230.711Z" fill="#212121"/>
<path fill-rule="evenodd" clip-rule="evenodd" d="M252.128 244.208C252.677 240.243 252.453 236.04 251.83 232.43L254.353 232C255.011 235.81 255.257 240.281 254.664 244.555C254.072 248.818 252.63 252.999 249.807 256.095C246.943 259.237 242.774 261.135 237.034 260.993C231.346 260.852 224.123 258.714 215 253.869L216.207 251.626C225.151 256.375 231.968 258.323 237.097 258.449C242.174 258.575 245.598 256.923 247.909 254.388C250.262 251.807 251.576 248.185 252.128 244.208Z" fill="#212121"/>
<path fill-rule="evenodd" clip-rule="evenodd" d="M254.872 244.208C254.323 240.243 254.547 236.04 255.17 232.43L252.647 232C251.989 235.81 251.743 240.281 252.336 244.555C252.928 248.818 254.37 252.999 257.193 256.095C260.057 259.237 264.226 261.135 269.966 260.993C275.654 260.852 282.877 258.714 292 253.869L290.793 251.626C281.849 256.375 275.032 258.323 269.903 258.449C264.826 258.575 261.402 256.923 259.091 254.388C256.738 251.807 255.424 248.185 254.872 244.208Z" fill="#212121"/>
<path d="M292 166.5C292 170.09 289.314 173 286 173C282.686 173 280 170.09 280 166.5C280 162.91 282.686 160 286 160C289.314 160 292 162.91 292 166.5Z" fill="#DADADA"/>
</svg>
