<svg width="500" height="500" viewBox="0 0 500 500" fill="none" xmlns="http://www.w3.org/2000/svg">
<rect width="500" height="500" fill="#F2B5B5"/>
<path d="M216.939 77.1876C191.455 52.7552 176.314 47.5453 141.897 40C133.736 74.2054 145.297 129.586 152.098 153C182.402 141.203 242.424 101.62 216.939 77.1876Z" fill="#595959"/>
<path d="M193.648 81.7329C179.389 68.1113 170.918 65.2067 151.66 61C147.094 80.0703 153.563 110.946 157.368 124C174.324 117.423 207.908 95.3545 193.648 81.7329Z" fill="#D8B3CB"/>
<path d="M284.24 77.1876C309.725 52.7552 324.865 47.5453 359.283 40C367.444 74.2054 355.883 129.586 349.082 153C318.777 141.203 258.756 101.62 284.24 77.1876Z" fill="#595959"/>
<path d="M307.531 81.7329C321.79 68.1113 330.262 65.2067 349.519 61C354.085 80.0703 347.617 110.946 343.812 124C326.856 117.423 293.272 95.3545 307.531 81.7329Z" fill="#D8B3CB"/>
<path d="M362.09 182C362.09 244.408 312.17 295 250.59 295C189.01 295 139.09 244.408 139.09 182C139.09 119.592 189.01 69 250.59 69C312.17 69 362.09 119.592 362.09 182Z" fill="#595959"/>
<path d="M183.09 164C183.09 177.255 183.09 188 206.09 188C229.09 188 229.09 177.255 229.09 164C229.09 150.745 218.792 140 206.09 140C193.387 140 183.09 150.745 183.09 164Z" fill="#DADADA"/>
<path d="M190.09 166.5C190.09 175.613 190.09 183 206.59 183C223.09 183 223.09 175.613 223.09 166.5C223.09 157.387 215.703 150 206.59 150C197.477 150 190.09 157.387 190.09 166.5Z" fill="#212121"/>
<path d="M216.09 166C216.09 169.314 213.404 172 210.09 172C206.776 172 204.09 169.314 204.09 166C204.09 162.686 206.776 160 210.09 160C213.404 160 216.09 162.686 216.09 166Z" fill="#DADADA"/>
<path d="M311.09 164C311.09 177.255 311.09 188 288.09 188C265.09 188 265.09 177.255 265.09 164C265.09 150.745 275.387 140 288.09 140C300.792 140 311.09 150.745 311.09 164Z" fill="#DADADA"/>
<path d="M305.09 166.5C305.09 175.613 305.09 183 288.09 183C271.09 183 271.09 175.613 271.09 166.5C271.09 157.387 278.701 150 288.09 150C297.479 150 305.09 157.387 305.09 166.5Z" fill="#212121"/>
<path d="M278.09 166C278.09 169.314 281.224 172 285.09 172C288.956 172 292.09 169.314 292.09 166C292.09 162.686 288.956 160 285.09 160C281.224 160 278.09 162.686 278.09 166Z" fill="#DADADA"/>
<path fill-rule="evenodd" clip-rule="evenodd" d="M331.085 200.354C318.357 206.964 306.083 214.802 298.675 220L298.09 219.083C305.529 213.863 317.842 206 330.618 199.366C343.368 192.745 356.672 187.298 366.058 187L366.09 188.103C356.957 188.393 343.839 193.732 331.085 200.354Z" fill="#212121"/>
<path fill-rule="evenodd" clip-rule="evenodd" d="M160.639 200.354C173.929 206.964 186.744 214.802 194.479 220L195.09 219.083C187.322 213.863 174.466 206 161.127 199.366C147.814 192.745 133.924 187.298 124.123 187L124.09 188.103C133.625 188.393 147.322 193.732 160.639 200.354Z" fill="#212121"/>
<path fill-rule="evenodd" clip-rule="evenodd" d="M336.312 218.896C321.896 220.851 307.539 224.093 298.728 226.482L298.446 225.442C307.294 223.043 321.698 219.791 336.167 217.828C350.606 215.87 365.218 215.178 374.42 217.972L374.107 219.004C365.154 216.285 350.756 216.937 336.312 218.896Z" fill="#212121"/>
<path fill-rule="evenodd" clip-rule="evenodd" d="M155.14 218.896C169.555 220.851 183.912 224.093 192.724 226.482L193.006 225.442C184.157 223.043 169.754 219.791 155.284 217.828C140.845 215.87 126.233 215.178 117.031 217.972L117.344 219.004C126.298 216.285 140.695 216.937 155.14 218.896Z" fill="#212121"/>
<path fill-rule="evenodd" clip-rule="evenodd" d="M336.511 238.714C322.27 235.748 307.654 234.013 298.55 233.325L298.631 232.251C307.773 232.942 322.436 234.682 336.731 237.659C350.996 240.631 365.001 244.854 372.744 250.559L372.105 251.426C364.571 245.876 350.782 241.687 336.511 238.714Z" fill="#212121"/>
<path fill-rule="evenodd" clip-rule="evenodd" d="M154.944 238.714C169.186 235.748 183.801 234.013 192.905 233.325L192.824 232.251C183.682 232.942 169.019 234.682 154.724 237.659C140.459 240.631 126.454 244.854 118.711 250.559L119.35 251.426C126.884 245.876 140.673 241.687 154.944 238.714Z" fill="#212121"/>
<path d="M313.09 230.018C313.09 244.367 285.108 256 250.59 256C216.072 256 188.09 244.367 188.09 230.018C188.09 215.668 211.55 192.209 250.59 204.394C293.391 193.284 313.09 215.668 313.09 230.018Z" fill="#DADADA"/>
<path d="M256.049 221.919C253.424 224.694 248.756 224.694 246.13 221.919L238.739 214.107C234.748 209.889 238.516 203.347 244.529 204.053L250.26 204.726C250.811 204.79 251.369 204.79 251.92 204.726L257.651 204.053C263.664 203.347 267.431 209.889 263.44 214.107L256.049 221.919Z" fill="#212121"/>
<path fill-rule="evenodd" clip-rule="evenodd" d="M250.146 234.629C250.709 230.528 250.479 226.179 249.841 222.445L252.427 222C253.101 225.941 253.353 230.566 252.745 234.988C252.139 239.398 250.661 243.723 247.767 246.926C244.832 250.176 240.558 252.139 234.674 251.992C228.845 251.847 221.441 249.635 212.09 244.623L213.327 242.302C222.494 247.216 229.482 249.23 234.74 249.362C239.943 249.491 243.453 247.782 245.822 245.159C248.233 242.49 249.58 238.743 250.146 234.629Z" fill="#212121"/>
<path fill-rule="evenodd" clip-rule="evenodd" d="M252.891 234.629C252.354 230.528 252.573 226.179 253.181 222.445L250.72 222C250.08 225.941 249.84 230.566 250.418 234.988C250.994 239.398 252.401 243.723 255.153 246.926C257.945 250.176 262.011 252.139 267.607 251.992C273.152 251.847 280.195 249.635 289.09 244.623L287.913 242.302C279.193 247.216 272.546 249.23 267.545 249.362C262.595 249.491 259.257 247.782 257.003 245.159C254.71 242.49 253.428 238.743 252.891 234.629Z" fill="#212121"/>
<path fill-rule="evenodd" clip-rule="evenodd" d="M141.319 108.922C119.947 137.115 112.266 169.741 112.421 187.023C112.457 191.037 109.267 194.32 105.295 194.356C101.323 194.393 98.0739 191.168 98.0379 187.154C97.8538 166.633 106.577 130.849 129.901 100.082C153.497 68.9566 192.034 43.0003 250.863 43C308.111 42.9997 345.227 66.9883 368.216 97.2683C390.96 127.223 399.598 162.914 401.159 186.606C401.423 190.611 398.424 194.074 394.461 194.341C390.497 194.607 387.071 191.577 386.807 187.571C385.383 165.968 377.404 133.249 356.805 106.117C336.452 79.3101 303.501 57.5358 250.863 57.536C196.869 57.5363 162.419 81.0887 141.319 108.922Z" fill="#87A7E1"/>
<path d="M131.836 178.185C131.836 202.37 131.836 178.185 131.836 221.975C117.14 221.975 105.226 202.37 105.226 178.185C105.226 154.001 117.14 134.395 131.836 134.395C131.836 185.471 131.836 154.001 131.836 178.185Z" fill="#6D6D6D"/>
<path d="M104.076 178.197C104.076 186.734 104.076 178.197 104.076 193.654C97.9587 193.654 93 186.734 93 178.197C93 169.661 97.9587 162.741 104.076 162.741C104.076 180.769 104.076 169.661 104.076 178.197Z" fill="#6D6D6D"/>
<path d="M132.987 134.395H144.854V221.805H132.987L132.987 134.395Z" fill="#68AAF7"/>
<path d="M368.164 178.185C368.164 202.37 368.164 178.185 368.164 221.975C382.86 221.975 394.774 202.37 394.774 178.185C394.774 154.001 382.86 134.395 368.164 134.395C368.164 185.471 368.164 154.001 368.164 178.185Z" fill="#6D6D6D"/>
<path d="M395.924 178.197C395.924 186.734 395.924 178.197 395.924 193.654C402.041 193.654 407 186.734 407 178.197C407 169.661 402.041 162.741 395.924 162.741C395.924 180.769 395.924 169.661 395.924 178.197Z" fill="#6D6D6D"/>
<path d="M367.013 134.395H355.146V221.805H367.013V134.395Z" fill="#68AAF7"/>
<path fill-rule="evenodd" clip-rule="evenodd" d="M368.164 221.975L368.874 221.96C365.314 225.934 352.443 238.24 351.73 265.053C351.545 272.015 347.651 278.561 341.565 284.546C335.474 290.536 327.13 296.023 317.907 300.872C299.458 310.57 277.389 317.77 262.495 321.351L262.245 320.29C277.078 316.724 299.059 309.551 317.409 299.904C326.585 295.08 334.828 289.651 340.813 283.765C346.804 277.873 350.477 271.58 350.651 265.023C351.371 237.958 364.89 224.196 368.164 221.126V221.975Z" fill="#212121"/>
<path fill-rule="evenodd" clip-rule="evenodd" d="M129.297 220.184C131.615 228.053 140.827 250.336 159.066 276.169C164.732 284.195 170.64 289.338 176.72 292.718C182.803 296.1 189.084 297.733 195.52 298.704C199.468 299.3 203.436 299.643 207.455 299.991C210.021 300.213 212.607 300.436 215.221 300.729C221.895 301.475 228.659 302.663 235.422 305.415C251.89 312.117 261.746 319.475 267.156 323.515C268.793 324.737 270.023 325.656 270.906 326.16C287.311 335.53 302.141 335.529 313.732 333.186C319.533 332.014 324.525 330.254 328.508 328.78C328.949 328.617 329.378 328.457 329.796 328.301C331.257 327.757 332.57 327.268 333.707 326.891C335.157 326.412 336.397 326.089 337.346 326.089C352.794 326.089 365.41 338.187 370.076 355.291C374.748 372.416 371.492 394.626 355.207 415.101C335.986 439.267 319.767 446.813 302.239 448.259C293.509 448.978 284.473 448.183 274.634 447.216C273.962 447.15 273.286 447.083 272.606 447.015C263.321 446.096 253.29 445.103 242.053 445.103V444.013C253.345 444.013 263.424 445.011 272.704 445.93C273.386 445.997 274.064 446.064 274.739 446.131C284.588 447.099 293.531 447.883 302.152 447.172C319.325 445.756 335.29 438.402 354.366 414.418C370.45 394.196 373.609 372.343 369.036 355.58C364.457 338.796 352.168 327.18 337.346 327.18C336.587 327.18 335.495 327.447 334.043 327.928C332.926 328.297 331.639 328.776 330.182 329.319C329.762 329.476 329.327 329.638 328.879 329.804C324.883 331.282 319.829 333.066 313.943 334.255C302.16 336.637 287.054 336.636 270.375 327.109C269.392 326.547 268.081 325.569 266.362 324.286C260.897 320.209 251.308 313.055 235.019 306.426C228.387 303.728 221.734 302.554 215.102 301.812C212.548 301.527 209.984 301.304 207.424 301.083C203.371 300.731 199.33 300.381 195.36 299.782C188.851 298.8 182.434 297.14 176.2 293.674C169.964 290.206 163.938 284.947 158.187 276.802C139.89 250.886 130.62 228.495 128.263 220.495L129.297 220.184Z" fill="#212121"/>
<path d="M149.831 362.359C146.645 357.271 148.144 350.536 153.179 347.317L200.566 317.019C205.601 313.8 212.265 315.315 215.45 320.403L277.159 418.97C280.344 424.058 278.845 430.792 273.81 434.012L226.424 464.309C221.389 467.529 214.725 466.014 211.539 460.925L149.831 362.359Z" fill="#B9B9B9"/>
<path fill-rule="evenodd" clip-rule="evenodd" d="M201.335 318.247L153.948 348.545C149.585 351.335 148.285 357.172 151.046 361.582L212.755 460.148C215.516 464.558 221.291 465.871 225.655 463.081L273.041 432.783C277.405 429.993 278.704 424.157 275.943 419.747L214.235 321.18C211.474 316.771 205.698 315.457 201.335 318.247ZM153.179 347.317C148.144 350.536 146.645 357.271 149.831 362.359L211.539 460.925C214.725 466.014 221.389 467.529 226.424 464.309L273.81 434.012C278.845 430.792 280.344 424.058 277.159 418.97L215.45 320.403C212.265 315.315 205.601 313.8 200.566 317.019L153.179 347.317Z" fill="#212121"/>
<path d="M163.241 364.091C160.587 359.851 161.836 354.239 166.032 351.556L198.585 330.742C202.781 328.059 208.334 329.322 210.989 333.562L227.366 359.721C230.02 363.961 228.771 369.573 224.575 372.255L192.022 393.069C187.826 395.752 182.273 394.489 179.618 390.249L163.241 364.091Z" fill="#DADADA"/>
<path fill-rule="evenodd" clip-rule="evenodd" d="M199.354 331.97L166.801 352.784C163.276 355.038 162.227 359.752 164.457 363.314L180.834 389.472C183.063 393.034 187.728 394.094 191.253 391.841L223.806 371.027C227.33 368.774 228.38 364.059 226.15 360.498L209.773 334.339C207.543 330.777 202.879 329.717 199.354 331.97ZM166.032 351.556C161.836 354.239 160.587 359.851 163.241 364.091L179.618 390.249C182.273 394.489 187.826 395.752 192.022 393.069L224.575 372.255C228.771 369.573 230.02 363.961 227.366 359.721L210.989 333.562C208.334 329.322 202.781 328.059 198.585 330.742L166.032 351.556Z" fill="#212121"/>
<path d="M203.621 356.398C206.558 361.088 205.176 367.295 200.535 370.262C195.895 373.229 189.753 371.833 186.816 367.143C183.88 362.454 185.262 356.246 189.903 353.279C194.543 350.312 200.685 351.709 203.621 356.398Z" fill="#68AAF7"/>
<path fill-rule="evenodd" clip-rule="evenodd" d="M205.614 355.314C205.348 354.89 205.473 354.328 205.893 354.06L213.075 349.468C213.495 349.2 214.05 349.326 214.315 349.75C214.581 350.174 214.456 350.735 214.036 351.003L206.854 355.596C206.434 355.864 205.879 355.738 205.614 355.314Z" fill="#68AAF7"/>
<path fill-rule="evenodd" clip-rule="evenodd" d="M176.539 373.904C176.273 373.48 176.398 372.919 176.818 372.65L184 368.058C184.419 367.79 184.975 367.916 185.24 368.34C185.506 368.764 185.381 369.325 184.961 369.594L177.779 374.186C177.359 374.454 176.804 374.328 176.539 373.904Z" fill="#68AAF7"/>
<path fill-rule="evenodd" clip-rule="evenodd" d="M183.238 360.203C183.129 360.692 182.648 361 182.164 360.89L173.872 359.005C173.388 358.894 173.083 358.408 173.192 357.919C173.301 357.429 173.782 357.122 174.267 357.232L182.559 359.117C183.043 359.227 183.347 359.713 183.238 360.203Z" fill="#68AAF7"/>
<path fill-rule="evenodd" clip-rule="evenodd" d="M198.959 350.152C199.443 350.262 199.924 349.955 200.033 349.465L201.898 341.085C202.007 340.596 201.703 340.11 201.219 340C200.734 339.89 200.253 340.197 200.144 340.687L198.279 349.066C198.17 349.556 198.474 350.042 198.959 350.152Z" fill="#68AAF7"/>
<path fill-rule="evenodd" clip-rule="evenodd" d="M207.386 363.612C207.495 363.123 207.976 362.815 208.46 362.925L216.752 364.81C217.236 364.921 217.541 365.407 217.432 365.896C217.323 366.386 216.842 366.693 216.357 366.583L208.065 364.698C207.581 364.588 207.277 364.102 207.386 363.612Z" fill="#68AAF7"/>
<path fill-rule="evenodd" clip-rule="evenodd" d="M191.666 373.663C192.15 373.773 192.454 374.26 192.345 374.749L190.48 383.129C190.371 383.618 189.89 383.926 189.405 383.816C188.921 383.706 188.617 383.219 188.726 382.73L190.591 374.35C190.7 373.861 191.181 373.553 191.666 373.663Z" fill="#68AAF7"/>
<path fill-rule="evenodd" clip-rule="evenodd" d="M201.876 372.105C202.295 371.837 202.851 371.963 203.116 372.387L207.66 379.645C207.926 380.069 207.801 380.63 207.381 380.899C206.962 381.167 206.406 381.041 206.141 380.617L201.597 373.358C201.331 372.934 201.456 372.373 201.876 372.105Z" fill="#68AAF7"/>
<path fill-rule="evenodd" clip-rule="evenodd" d="M183.48 342.722C183.9 342.454 184.455 342.58 184.72 343.004L189.265 350.262C189.53 350.686 189.405 351.248 188.986 351.516C188.566 351.784 188.011 351.658 187.745 351.234L183.201 343.975C182.936 343.551 183.061 342.99 183.48 342.722Z" fill="#68AAF7"/>
<path d="M250.247 399.251C258.076 411.757 254.391 428.309 242.016 436.222C229.641 444.134 213.263 440.41 205.433 427.904C197.604 415.398 201.289 398.846 213.664 390.934C226.038 383.022 242.417 386.746 250.247 399.251Z" fill="#DADADA"/>
<path fill-rule="evenodd" clip-rule="evenodd" d="M241.247 434.993C252.951 427.51 256.436 411.856 249.031 400.029C241.626 388.201 226.136 384.679 214.433 392.162C202.729 399.645 199.244 415.3 206.649 427.127C214.053 438.954 229.544 442.476 241.247 434.993ZM242.016 436.222C254.391 428.309 258.076 411.757 250.247 399.251C242.417 386.746 226.038 383.022 213.664 390.934C201.289 398.846 197.604 415.398 205.433 427.904C213.263 440.41 229.641 444.134 242.016 436.222Z" fill="#212121"/>
<path d="M232.557 410.373C234.281 413.127 233.47 416.773 230.744 418.515C228.019 420.258 224.412 419.438 222.687 416.683C220.963 413.929 221.775 410.284 224.5 408.541C227.225 406.799 230.833 407.619 232.557 410.373Z" fill="#EA4D67"/>
<path fill-rule="evenodd" clip-rule="evenodd" d="M230.36 417.901C232.75 416.373 233.461 413.177 231.949 410.762C230.437 408.347 227.274 407.628 224.884 409.155C222.495 410.683 221.783 413.88 223.295 416.295C224.807 418.71 227.97 419.429 230.36 417.901ZM230.744 418.515C233.47 416.773 234.281 413.127 232.557 410.373C230.833 407.619 227.225 406.799 224.5 408.541C221.775 410.284 220.963 413.929 222.687 416.683C224.412 419.438 228.019 420.258 230.744 418.515Z" fill="#212121"/>
</svg>
