<svg width="500" height="500" viewBox="0 0 500 500" fill="none" xmlns="http://www.w3.org/2000/svg">
<rect width="500" height="500" fill="#959595"/>
<path d="M249.022 120.972C250.282 116.013 255.177 108.474 264.678 117.992C276.554 129.889 267.889 107.523 275.757 109.882C282.05 111.77 284.673 120.965 285.197 125.327C286.312 115.531 291.176 96.4163 301.713 98.3249C312.251 100.233 312.61 108.489 311.473 112.378C313.561 105.631 320.856 93.9071 333.334 100.994C345.811 108.081 349.108 121.306 348.186 126.292L346.062 129.764L353.646 134.328C354.797 130.271 364.017 119.46 371.639 124.047L378.639 128.259C380.987 124.131 387.558 118.375 395.06 128.378C402.561 138.381 403.346 145.855 402.801 148.341C406.087 148.912 413.528 152.897 416.997 164.273C421.334 178.493 420.648 183.094 413.756 188.709C406.863 194.324 426.667 180.647 426.796 193.919C426.9 204.535 423.379 204 421.606 202.405L420.861 202.279C423.982 204.208 426.506 207.081 426.559 210.399C426.677 217.859 424.401 224.89 421.972 227.122C379.35 225.044 286.106 199.863 249.022 120.972Z" fill="#C6C6C6"/>
<path fill-rule="evenodd" clip-rule="evenodd" d="M385.205 124.176C382.789 124.769 380.783 126.916 379.686 128.845L379.076 129.916L371.016 125.065C367.866 123.17 364.237 124.341 360.955 126.885C359.348 128.13 357.922 129.641 356.831 131.08C355.724 132.543 355.032 133.842 354.802 134.651L354.374 136.16L344.412 130.165L347.039 125.87C347.373 123.64 346.83 119.466 344.696 114.935C342.515 110.306 338.728 105.431 332.737 102.028C329.79 100.354 327.236 99.8376 325.049 100.022C322.859 100.206 320.932 101.102 319.257 102.429C315.869 105.115 313.625 109.485 312.621 112.728L310.319 112.046C310.83 110.301 310.996 107.567 309.876 105.098C308.792 102.707 306.424 100.39 301.498 99.4972C299.289 99.0971 297.366 99.7735 295.63 101.263C293.858 102.782 292.315 105.127 291.013 107.935C288.413 113.543 286.94 120.634 286.391 125.46L284.004 125.468C283.755 123.391 282.998 120.135 281.56 117.197C280.106 114.229 278.077 111.823 275.409 111.023C274.652 110.796 274.332 110.928 274.183 111.028C273.979 111.165 273.735 111.486 273.527 112.171C273.324 112.838 273.206 113.683 273.122 114.65C273.074 115.211 273.043 115.714 273.012 116.226C272.985 116.666 272.958 117.112 272.918 117.607C272.842 118.566 272.729 119.556 272.478 120.378C272.238 121.162 271.774 122.118 270.757 122.519C269.739 122.921 268.646 122.578 267.634 121.99C266.585 121.381 265.335 120.343 263.824 118.83C261.53 116.532 259.607 115.36 258.047 114.884C256.524 114.418 255.307 114.602 254.31 115.112C252.323 116.129 250.95 118.596 250.296 120.861C268.722 159.773 300.956 185.504 333.955 201.785C366.791 217.985 400.3 224.784 421.487 225.904C422.367 224.887 423.319 222.979 424.066 220.393C424.892 217.535 425.415 214.029 425.357 210.418C425.315 207.762 423.304 205.25 420.423 203.414L407.01 201.152L409.326 199.487C410.785 198.439 412.935 198.36 414.986 198.722C417.036 199.083 419.277 199.932 421.292 201.143L422.153 201.288L422.413 201.522C422.752 201.828 423.111 202.019 423.403 202.074C423.637 202.118 423.848 202.087 424.091 201.864C424.388 201.593 424.794 200.975 425.11 199.67C425.422 198.38 425.62 196.529 425.595 193.93C425.58 192.411 425.284 191.396 424.882 190.721C424.491 190.065 423.957 189.656 423.305 189.408C421.913 188.879 419.962 189.076 417.945 189.596C416.562 189.953 415.372 190.39 414.42 190.74C413.971 190.905 413.575 191.051 413.237 191.16C413.112 191.2 412.983 191.238 412.86 191.267C412.756 191.292 412.578 191.33 412.383 191.329C412.287 191.329 412.105 191.32 411.9 191.241C411.673 191.155 411.371 190.961 411.204 190.585C411.048 190.236 411.097 189.919 411.143 189.751C411.19 189.58 411.263 189.45 411.309 189.375C411.47 189.117 411.736 188.865 411.955 188.667C412.212 188.434 412.557 188.143 412.993 187.788C416.318 185.08 417.962 182.772 418.397 179.56C418.849 176.214 418.018 171.736 415.847 164.618C412.496 153.631 405.391 150.001 402.593 149.515L401.361 149.301L401.627 148.088C401.839 147.119 401.832 144.851 400.8 141.53C399.778 138.242 397.773 133.993 394.096 129.09C390.513 124.312 387.44 123.629 385.205 124.176ZM425.004 204.122C425.25 203.993 425.49 203.827 425.718 203.618C426.51 202.895 427.076 201.756 427.446 200.226C427.821 198.68 428.024 196.617 427.998 193.907C427.98 192.108 427.629 190.647 426.951 189.508C426.261 188.35 425.28 187.607 424.165 187.183C422.023 186.368 419.43 186.751 417.341 187.289C417.223 187.32 417.105 187.351 416.988 187.383C419.084 185.199 420.372 182.882 420.778 179.877C421.308 175.963 420.314 171.031 418.147 163.928C414.883 153.226 408.154 148.668 404.123 147.438C404.212 145.858 403.956 143.595 403.096 140.828C401.986 137.256 399.848 132.766 396.024 127.667C392.105 122.441 388.141 121.002 384.628 121.863C381.806 122.555 379.615 124.665 378.25 126.632L372.262 123.028C367.79 120.336 362.998 122.277 359.476 125.007C357.682 126.397 356.111 128.064 354.91 129.649C354.15 130.653 353.509 131.663 353.057 132.58L347.713 129.363L349.328 126.723L349.367 126.507C349.888 123.693 349.208 118.883 346.873 113.926C344.517 108.925 340.417 103.644 333.93 99.96C330.639 98.0902 327.602 97.4149 324.846 97.6468C322.093 97.8784 319.727 99.0061 317.757 100.567C315.721 102.181 314.081 104.277 312.824 106.412C312.657 105.648 312.41 104.877 312.067 104.12C310.621 100.933 307.54 98.1689 301.929 97.1526C298.869 96.5984 296.232 97.5957 294.058 99.4598C291.919 101.294 290.201 103.982 288.83 106.939C287.057 110.764 285.796 115.192 284.973 119.188C284.624 118.179 284.209 117.153 283.721 116.156C282.159 112.965 279.73 109.829 276.104 108.742C274.895 108.379 273.764 108.43 272.835 109.055C271.96 109.643 271.498 110.589 271.226 111.483C270.949 112.395 270.815 113.441 270.728 114.446C270.683 114.967 270.645 115.575 270.609 116.156C270.58 116.613 270.552 117.054 270.523 117.42C270.448 118.366 270.348 119.131 270.178 119.686C270.029 120.173 269.891 120.287 269.867 120.304C269.828 120.312 269.552 120.343 268.848 119.934C268.067 119.48 266.99 118.614 265.531 117.153C263.075 114.693 260.824 113.238 258.754 112.606C256.648 111.963 254.78 112.189 253.208 112.994C250.176 114.546 248.515 118.09 247.857 120.68L247.753 121.091L247.933 121.475C266.623 161.235 299.447 187.421 332.885 203.918C366.315 220.412 400.444 227.265 421.913 228.312L422.418 228.337L422.788 227.996C424.252 226.651 425.502 224.073 426.376 221.049C427.266 217.969 427.821 214.229 427.76 210.38C427.722 207.986 426.607 205.867 425.004 204.122Z" fill="#212121"/>
<path d="M315.063 129.565C300.142 124.385 296.38 139.958 296.364 148.393C293.081 144.482 285.762 139.109 282.749 148.906C279.736 158.703 288.193 160.011 292.799 159.44C290.566 161.351 288.127 167.078 296.233 174.701C304.34 182.323 309.288 171.914 310.749 165.757C316.82 168.443 328.951 171.487 328.904 162.17C328.857 152.854 317.676 153.127 312.092 154.428C319.3 148.298 329.984 134.745 315.063 129.565Z" fill="#C6C6C6"/>
<path fill-rule="evenodd" clip-rule="evenodd" d="M320.818 135.276C320.016 133.57 318.21 131.92 314.666 130.69C311.131 129.463 308.387 129.506 306.251 130.258C304.109 131.013 302.432 132.531 301.132 134.521C298.503 138.549 297.573 144.288 297.565 148.395L297.559 151.679L295.441 149.155C294.669 148.236 293.66 147.232 292.548 146.394C291.427 145.549 290.264 144.921 289.181 144.669C288.131 144.426 287.201 144.541 286.378 145.117C285.518 145.719 284.609 146.941 283.898 149.254C283.19 151.555 283.197 153.226 283.553 154.43C283.903 155.613 284.622 156.454 285.568 157.06C287.538 158.32 290.469 158.528 292.65 158.258L296.59 157.769L293.584 160.343C292.728 161.075 291.733 162.639 291.839 164.872C291.944 167.096 293.154 170.163 297.06 173.836C298.953 175.616 300.501 176.193 301.716 176.193C302.923 176.193 304.059 175.622 305.133 174.555C307.329 172.371 308.866 168.49 309.579 165.484L309.912 164.082L311.238 164.669C314.207 165.982 318.569 167.337 322.099 167.273C323.861 167.242 325.254 166.86 326.186 166.112C327.066 165.406 327.713 164.229 327.703 162.176C327.692 160.102 327.07 158.663 326.148 157.642C325.207 156.601 323.865 155.896 322.262 155.468C319.028 154.605 315.055 154.961 312.367 155.588L311.31 153.523C314.859 150.505 319.141 145.751 320.743 141.244C321.535 139.015 321.623 136.99 320.818 135.276ZM315.743 152.662C318.684 149.679 321.649 145.861 323.009 142.037C323.923 139.463 324.159 136.746 322.996 134.27C321.83 131.787 319.376 129.8 315.46 128.44C311.534 127.077 308.213 127.038 305.447 128.012C302.685 128.985 300.624 130.916 299.116 133.226C296.733 136.876 295.64 141.604 295.293 145.564C294.883 145.195 294.451 144.835 294.002 144.497C292.734 143.541 291.263 142.705 289.729 142.349C288.163 141.985 286.493 142.119 284.993 143.169C283.531 144.193 282.395 145.973 281.6 148.559C280.801 151.156 280.721 153.322 281.248 155.101C281.78 156.901 282.899 158.188 284.266 159.063C286.069 160.217 288.308 160.661 290.319 160.734C289.735 161.883 289.36 163.318 289.439 164.984C289.582 168.007 291.207 171.616 295.407 175.565C297.567 177.597 299.677 178.577 301.716 178.577C303.762 178.576 305.474 177.59 306.834 176.238C309.137 173.948 310.695 170.355 311.559 167.388C314.593 168.587 318.631 169.719 322.143 169.656C324.167 169.62 326.177 169.184 327.696 167.965C329.267 166.706 330.119 164.77 330.105 162.164C330.092 159.58 329.299 157.559 327.937 156.052C326.594 154.565 324.783 153.673 322.887 153.167C320.582 152.552 318.036 152.475 315.743 152.662Z" fill="#212121"/>
<path d="M372.83 166.143C360.477 165.464 359.155 176.032 360.039 181.401C355.372 178.593 345.63 175.21 343.994 184.147C342.358 193.084 350.312 192.083 354.494 190.466C352.921 193.038 351.712 199.189 359.462 203.219C367.212 207.25 371.873 199.166 373.235 194.62C378.735 199.689 389.885 206.54 390.481 193.389C391.077 180.237 381.534 180.616 376.688 182.45C380.55 177.297 385.183 166.822 372.83 166.143Z" fill="#C6C6C6"/>
<path fill-rule="evenodd" clip-rule="evenodd" d="M378.365 169.121C377.407 168.229 375.7 167.494 372.764 167.333C369.85 167.172 367.679 167.679 366.062 168.536C364.448 169.392 363.312 170.635 362.527 172.072C360.932 174.99 360.808 178.682 361.224 181.209L361.644 183.761L359.415 182.42C357.163 181.065 353.773 179.633 350.85 179.561C349.41 179.525 348.186 179.821 347.251 180.51C346.333 181.186 345.544 182.351 345.176 184.36C344.793 186.45 345.008 187.772 345.428 188.594C345.83 189.38 346.496 189.86 347.398 190.12C349.318 190.674 352.044 190.135 354.057 189.356L357.359 188.079L355.521 191.084C354.859 192.166 354.259 194.047 354.661 196.065C355.05 198.02 356.415 200.289 360.02 202.164C361.757 203.067 363.236 203.253 364.49 203.041C365.757 202.826 366.906 202.186 367.934 201.255C370.019 199.368 371.438 196.435 372.083 194.281L372.634 192.44L374.052 193.747C375.383 194.973 377.053 196.305 378.809 197.409C380.579 198.522 382.364 199.358 383.932 199.669C385.487 199.976 386.657 199.744 387.488 198.972C388.366 198.157 389.138 196.497 389.281 193.335C389.424 190.181 388.952 187.954 388.181 186.4C387.42 184.867 386.339 183.933 385.127 183.384C382.627 182.253 379.397 182.7 377.117 183.563L373.265 185.021L375.724 181.739C377.613 179.219 379.553 175.558 379.639 172.585C379.68 171.154 379.293 169.987 378.365 169.121ZM379.407 180.507C380.788 178.134 381.964 175.286 382.041 172.653C382.096 170.736 381.567 168.835 380.01 167.385C378.483 165.961 376.136 165.131 372.897 164.953C369.633 164.774 367.007 165.333 364.929 166.434C362.848 167.537 361.393 169.144 360.414 170.936C358.952 173.611 358.541 176.708 358.63 179.288C356.371 178.2 353.558 177.244 350.909 177.178C349.126 177.134 347.316 177.493 345.818 178.596C344.304 179.712 343.262 181.475 342.812 183.934C342.376 186.313 342.542 188.217 343.285 189.671C344.045 191.16 345.322 192.004 346.727 192.409C348.521 192.926 350.602 192.757 352.433 192.338C352.116 193.575 352.003 195.015 352.303 196.526C352.854 199.297 354.759 202.119 358.904 204.275C361.042 205.386 363.052 205.702 364.894 205.39C366.723 205.08 368.277 204.171 369.554 203.016C371.514 201.242 372.913 198.804 373.776 196.684C374.91 197.63 376.188 198.583 377.523 199.422C379.409 200.609 381.481 201.614 383.462 202.006C385.457 202.401 387.53 202.197 389.129 200.712C390.681 199.272 391.527 196.856 391.681 193.442C391.836 190.021 391.338 187.364 390.337 185.347C389.325 183.309 387.828 181.987 386.124 181.216C383.966 180.239 381.543 180.171 379.407 180.507Z" fill="#212121"/>
<path d="M157.505 314.967L248.49 121.423C288.612 198.132 381.356 223.284 422.713 226.272L298.921 396.906C280.835 399.655 244.095 409.56 204.623 385.806C174.16 367.473 159.864 332.131 157.505 314.967Z" fill="#DADADA"/>
<path fill-rule="evenodd" clip-rule="evenodd" d="M248.433 118.726L249.557 120.875C269.465 158.936 302.449 184.247 335.668 200.423C368.892 216.602 402.266 223.6 422.8 225.083L424.943 225.238L299.602 398.008L299.103 398.084C297.262 398.364 295.218 398.72 292.991 399.109C273.478 402.513 239.824 408.384 203.999 386.824C188.55 377.527 177.231 363.937 169.483 350.541C161.74 337.153 157.518 323.881 156.315 315.128L156.267 314.781L248.433 118.726ZM248.557 124.1L158.744 315.151C159.964 323.569 164.06 336.377 171.567 349.355C179.173 362.505 190.233 375.752 205.246 384.787C240.257 405.857 273.041 400.156 292.559 396.762C294.602 396.406 296.5 396.076 298.24 395.805L420.494 227.291C399.55 225.473 367.005 218.338 334.609 202.562C301.706 186.54 268.874 161.562 248.557 124.1Z" fill="#212121"/>
<path d="M162.909 334.061L261.255 142.836C270.171 153.919 290.213 172.559 284.029 167.36C277.845 162.161 208.305 293.479 175.664 357.569L171.871 351.592L164.994 338.482L162.909 334.061Z" fill="#999999"/>
<path fill-rule="evenodd" clip-rule="evenodd" d="M261.032 140.648L262.194 142.093C266.607 147.578 273.802 154.965 279.161 160.368C280.151 161.366 281.08 162.299 281.916 163.137C283.329 164.554 284.475 165.704 285.201 166.456C285.49 166.755 285.726 167.005 285.89 167.19C285.968 167.279 286.051 167.375 286.117 167.465C286.146 167.504 286.205 167.584 286.257 167.686C286.28 167.732 286.336 167.845 286.368 167.997C286.39 168.102 286.476 168.555 286.141 168.983C285.771 169.458 285.249 169.457 285.089 169.444C284.903 169.43 284.764 169.376 284.714 169.356C284.597 169.309 284.504 169.251 284.463 169.225C284.365 169.163 284.257 169.084 284.155 169.006C283.987 168.877 283.764 168.696 283.486 168.465C283.359 168.531 283.168 168.651 282.91 168.86C282.159 169.466 281.145 170.556 279.88 172.149C277.365 175.314 274.043 180.221 270.098 186.504C262.217 199.057 251.938 216.963 240.821 237.054C218.591 277.23 193.053 326.069 176.736 358.106L175.779 359.987L170.828 352.186L163.916 339.01L161.572 334.038L261.032 140.648ZM261.488 145.005L164.246 334.084L166.071 337.954L172.914 350.999L175.55 355.152C191.904 323.091 216.899 275.336 238.715 235.908C249.836 215.808 260.142 197.854 268.059 185.244C272.013 178.946 275.393 173.946 277.993 170.674C279.284 169.049 280.43 167.789 281.393 167.011C281.581 166.86 281.775 166.715 281.973 166.586C281.46 166.069 280.875 165.482 280.232 164.837C279.393 163.996 278.456 163.056 277.448 162.04C272.545 157.097 266.011 150.399 261.488 145.005Z" fill="#212121"/>
<path d="M199.241 382.837C199.241 382.837 307.946 187.294 309.695 188.345C311.445 189.397 331.284 200.018 342.569 205.491C306.646 268.134 231.951 395.292 226.052 395.542C220.153 395.792 205.72 387.176 199.241 382.837Z" fill="#999999"/>
<path fill-rule="evenodd" clip-rule="evenodd" d="M344.246 204.977L343.614 206.08C325.649 237.407 297.99 284.865 274.083 324.525C262.13 344.354 251.11 362.243 242.705 375.195C238.505 381.668 234.947 386.925 232.248 390.578C230.901 392.4 229.75 393.849 228.827 394.856C228.368 395.357 227.94 395.777 227.553 396.084C227.359 396.237 227.152 396.381 226.936 396.493C226.732 396.6 226.443 396.718 226.103 396.732C224.377 396.805 222.179 396.24 219.868 395.389C217.519 394.525 214.911 393.312 212.309 391.967C207.104 389.276 201.836 386.013 198.568 383.824L197.659 383.215L198.189 382.261L199.241 382.837C198.189 382.261 198.189 382.261 198.19 382.259L198.501 381.7C198.706 381.33 199.012 380.781 199.41 380.065C200.207 378.633 201.375 376.533 202.863 373.86C205.839 368.515 210.093 360.881 215.202 351.723C225.421 333.406 239.064 308.995 252.762 284.617C266.46 260.239 280.215 235.891 290.654 217.701C295.874 208.608 300.268 201.048 303.414 195.792C304.985 193.166 306.252 191.105 307.156 189.711C307.606 189.019 307.98 188.47 308.264 188.095C308.401 187.914 308.546 187.735 308.686 187.596C308.749 187.533 308.867 187.423 309.024 187.331C309.024 187.33 309.025 187.33 309.026 187.329C309.096 187.288 309.681 186.944 310.318 187.326C312.023 188.351 331.826 198.954 343.097 204.42L344.246 204.977ZM200.826 382.454C204.057 384.573 208.772 387.451 213.419 389.853C215.973 391.173 218.484 392.338 220.703 393.155C222.879 393.956 224.648 394.373 225.868 394.355C225.91 394.329 225.972 394.286 226.054 394.221C226.298 394.028 226.628 393.713 227.049 393.253C227.887 392.339 228.98 390.969 230.31 389.169C232.965 385.575 236.492 380.367 240.685 373.905C249.067 360.987 260.072 343.125 272.021 323.302C295.638 284.122 322.923 237.321 340.894 206.002C330.487 200.898 314.128 192.181 309.943 189.859C309.739 190.149 309.483 190.529 309.176 191.002C308.296 192.357 307.048 194.389 305.48 197.009C302.346 202.245 297.96 209.79 292.743 218.881C282.308 237.06 268.558 261.4 254.861 285.777C241.165 310.153 227.522 334.561 217.304 352.877C212.195 362.034 207.942 369.668 204.967 375.013C203.479 377.685 202.31 379.785 201.514 381.217C201.24 381.709 201.01 382.123 200.826 382.454ZM310.385 189.281C310.389 189.277 310.388 189.278 310.382 189.284C310.383 189.283 310.384 189.282 310.385 189.281Z" fill="#212121"/>
<path d="M251.647 399.075C260.331 394.01 366.067 214.621 371.366 215.963C376.664 217.304 377.559 217.579 393.53 221.913C401.582 224.099 315.596 344.396 273.568 400.638C263.642 401.789 244.699 403.127 251.647 399.075Z" fill="#999999"/>
<path fill-rule="evenodd" clip-rule="evenodd" d="M353.321 291.677C327.567 329.069 295.554 373.217 274.533 401.348L274.224 401.762L273.707 401.822C268.729 402.399 261.455 403.028 256.273 402.999C254.975 402.992 253.786 402.943 252.786 402.839C251.818 402.737 250.912 402.572 250.252 402.277C249.925 402.131 249.523 401.895 249.247 401.495C248.922 401.023 248.869 400.463 249.057 399.946C249.219 399.504 249.535 399.153 249.84 398.883C250.16 398.6 250.565 398.323 251.038 398.048C251.145 397.985 251.41 397.771 251.857 397.291C252.28 396.837 252.801 396.219 253.417 395.436C254.648 393.872 256.216 391.709 258.077 389.023C261.797 383.654 266.651 376.251 272.257 367.499C282.895 350.895 296.215 329.476 309.588 307.972C310.31 306.812 311.032 305.651 311.753 304.491C325.843 281.837 339.834 259.372 350.634 242.653C356.033 234.296 360.644 227.36 364.076 222.55C365.789 220.149 367.226 218.252 368.329 216.969C368.877 216.332 369.373 215.81 369.802 215.448C370.014 215.269 370.25 215.094 370.501 214.968C370.715 214.86 371.152 214.679 371.663 214.808C375.7 215.83 377.195 216.237 384.691 218.276C387.056 218.919 390.019 219.725 393.847 220.764C394.609 220.971 395.029 221.56 395.18 222.176C395.314 222.718 395.261 223.321 395.151 223.889C394.925 225.049 394.343 226.587 393.503 228.409C391.811 232.082 388.919 237.228 385.121 243.468C377.518 255.961 366.195 272.983 353.321 291.677ZM392.854 222.966C392.849 223.076 392.832 223.231 392.792 223.437C392.622 224.306 392.141 225.632 391.318 227.418C389.685 230.962 386.852 236.012 383.064 242.236C375.497 254.671 364.205 271.648 351.337 290.332C325.73 327.512 293.923 371.384 272.913 399.513C267.993 400.07 261.148 400.643 256.286 400.616C255.031 400.609 253.929 400.562 253.039 400.468C252.59 400.421 252.22 400.365 251.926 400.304C252.024 400.241 252.133 400.174 252.256 400.102C252.691 399.848 253.159 399.406 253.621 398.909C254.108 398.387 254.674 397.711 255.311 396.902C256.586 395.283 258.185 393.074 260.057 390.373C263.802 384.967 268.675 377.535 274.285 368.778C284.932 352.159 298.26 330.728 311.629 309.23C312.352 308.067 313.076 306.905 313.798 305.742C327.891 283.083 341.87 260.637 352.657 243.939C358.052 235.588 362.639 228.69 366.037 223.926C367.739 221.541 369.126 219.715 370.157 218.516C370.678 217.911 371.077 217.502 371.359 217.263C371.383 217.243 371.406 217.224 371.426 217.208C375.178 218.16 376.783 218.596 384.04 220.57C386.333 221.194 389.189 221.971 392.854 222.966Z" fill="#212121"/>
<path d="M337.737 136.074C343.926 121.433 351.735 129.281 354.866 135.035C357.051 129.578 364.155 119.675 375.087 123.721C388.753 128.779 369.838 144.046 374.913 143.142C379.988 142.239 389.787 148.399 385.393 153.407C381.879 157.414 372.38 155.691 368.071 154.329C367.321 155.989 365.588 159.431 364.649 159.922C363.476 160.535 360.693 163.346 352.319 160.945C343.944 158.544 351.641 148.136 351.447 148.019C351.252 147.902 330.001 154.375 337.737 136.074Z" fill="#C6C6C6"/>
<path fill-rule="evenodd" clip-rule="evenodd" d="M375.719 141.866C375.729 141.85 375.738 141.834 375.748 141.818C376.036 141.348 376.393 140.812 376.802 140.199C376.975 139.94 377.157 139.668 377.346 139.381C377.972 138.434 378.656 137.365 379.276 136.238C380.489 134.034 381.575 131.403 381.306 128.891C381.168 127.597 380.672 126.353 379.696 125.256C378.731 124.172 377.346 123.285 375.507 122.605C369.576 120.41 364.634 122.02 360.956 124.876C358.147 127.057 356.055 129.97 354.721 132.505C354.102 131.6 353.392 130.701 352.607 129.888C351.261 128.491 349.617 127.263 347.767 126.758C345.85 126.234 343.811 126.518 341.862 127.974C339.969 129.387 338.216 131.86 336.629 135.613C334.654 140.286 334.376 143.711 335.496 146.14C336.646 148.634 339.066 149.672 341.431 150.042C343.803 150.414 346.384 150.164 348.326 149.853C348.613 149.807 348.888 149.759 349.148 149.711C348.629 150.708 348.05 151.964 347.661 153.293C347.207 154.848 346.964 156.663 347.542 158.319C348.151 160.064 349.587 161.402 351.985 162.09C356.329 163.335 359.341 163.261 361.482 162.718C363.168 162.291 364.365 161.516 364.927 161.151C365.054 161.069 365.149 161.008 365.209 160.976C365.493 160.828 365.728 160.615 365.905 160.431C366.092 160.236 366.274 160.01 366.446 159.775C366.79 159.306 367.144 158.734 367.476 158.151C367.929 157.358 368.367 156.501 368.723 155.765C370.94 156.38 373.994 156.983 376.994 157.072C380.391 157.174 384.157 156.633 386.3 154.19C387.666 152.633 387.973 150.886 387.475 149.224C387 147.642 385.834 146.244 384.464 145.135C383.079 144.013 381.388 143.105 379.697 142.533C378.381 142.088 376.998 141.825 375.719 141.866ZM377.895 126.833C377.258 126.118 376.245 125.421 374.667 124.838C369.666 122.987 365.59 124.305 362.437 126.753C359.232 129.242 357.019 132.886 355.982 135.475L355.032 137.849L353.809 135.601C353.066 134.237 352.051 132.759 350.871 131.535C349.679 130.299 348.396 129.401 347.129 129.055C345.93 128.728 344.66 128.867 343.307 129.878C341.897 130.931 340.353 132.967 338.845 136.535C336.953 141.012 336.986 143.641 337.681 145.149C338.346 146.592 339.8 147.374 341.805 147.688C343.803 148.001 346.088 147.797 347.943 147.5C348.859 147.353 349.65 147.187 350.221 147.06C350.365 147.028 350.494 146.998 350.609 146.972L350.65 146.963C350.748 146.94 350.837 146.92 350.913 146.903C350.996 146.885 351.081 146.867 351.153 146.854C351.185 146.848 351.242 146.838 351.306 146.832C351.335 146.829 351.398 146.824 351.475 146.826C351.514 146.827 351.581 146.831 351.663 146.846C351.73 146.858 351.892 146.893 352.07 147C352.408 147.203 352.556 147.508 352.612 147.723C352.664 147.918 352.653 148.08 352.645 148.157C352.628 148.312 352.584 148.432 352.57 148.471C352.533 148.569 352.488 148.658 352.462 148.706C352.404 148.818 352.321 148.962 352.236 149.106C352.213 149.146 352.189 149.186 352.164 149.229C351.995 149.519 351.78 149.885 351.543 150.318C350.997 151.317 350.361 152.618 349.969 153.957C349.571 155.319 349.472 156.564 349.812 157.539C350.121 158.424 350.863 159.287 352.652 159.8C356.682 160.956 359.249 160.825 360.887 160.409C362.123 160.096 362.805 159.661 363.405 159.277C363.629 159.135 363.841 158.999 364.067 158.879C364.076 158.872 364.109 158.846 364.165 158.787C364.255 158.693 364.369 158.557 364.503 158.374C364.771 158.008 365.074 157.523 365.385 156.977C366.006 155.889 366.61 154.648 366.974 153.842L367.413 152.87L368.435 153.193C370.512 153.85 373.852 154.594 377.066 154.69C380.375 154.789 383.116 154.188 384.487 152.625C385.318 151.678 385.433 150.776 385.172 149.903C384.886 148.95 384.109 147.925 382.944 146.981C381.794 146.049 380.358 145.274 378.922 144.789C377.469 144.297 376.122 144.138 375.125 144.315C374.758 144.38 374.229 144.433 373.74 144.217C373.458 144.093 373.197 143.882 373.024 143.575C372.859 143.284 372.819 142.989 372.823 142.758C372.829 142.333 372.984 141.927 373.121 141.627C373.271 141.299 373.473 140.943 373.694 140.582C374.007 140.07 374.406 139.472 374.828 138.839C374.995 138.589 375.166 138.333 375.336 138.075C375.951 137.144 376.594 136.138 377.167 135.096C378.34 132.965 379.104 130.887 378.917 129.142C378.828 128.307 378.52 127.536 377.895 126.833Z" fill="#212121"/>
<path d="M75.8051 214.362C73.7885 211.499 72.0557 205.621 81.2577 205.014C92.7602 204.256 77.2472 198.687 81.9941 195.716C85.7917 193.338 91.7489 196.109 94.2528 197.791C89.6546 192.839 81.885 181.799 87.5916 177.258C93.2982 172.718 97.7543 176.227 99.2691 178.549C96.6922 174.462 93.8557 165.483 103.124 162.266C112.393 159.048 120.749 163.277 122.931 165.979L123.787 168.619L129.554 166.778C127.958 164.374 126.457 154.819 132.253 152.969L137.576 151.27C136.478 148.221 136.423 142.283 144.983 142.917C153.543 143.551 157.783 146.493 158.833 147.884C160.6 146.457 166.001 144.431 173.472 147.743C182.811 151.884 184.898 154.293 184.736 160.333C184.574 166.373 186.317 150.117 193.28 155.988C198.85 160.684 196.996 162.247 195.373 162.441L194.975 162.766C197.374 162.031 199.998 162.024 201.748 163.481C205.683 166.757 208.323 171.067 208.398 173.31C188.251 194.199 133.44 230.667 75.8051 214.362Z" fill="#C6C6C6"/>
<path fill-rule="evenodd" clip-rule="evenodd" d="M138.728 146.254C138.024 147.623 138.211 149.491 138.708 150.869L139.125 152.027L132.621 154.103C130.46 154.793 129.473 156.957 129.331 159.726C129.262 161.069 129.406 162.441 129.662 163.615C129.923 164.817 130.277 165.7 130.557 166.123L131.426 167.433L123.011 170.118L121.859 166.567C120.883 165.477 118.569 163.955 115.356 163.049C112.036 162.112 107.886 161.875 103.521 163.391C101.392 164.13 100.05 165.165 99.2205 166.294C98.3896 167.426 98.0112 168.737 97.955 170.129C97.8408 172.962 99.0725 175.989 100.288 177.917L98.2604 179.196C97.6169 178.209 96.3358 176.971 94.6572 176.472C93.0623 175.997 90.9254 176.133 88.3433 178.188C87.2542 179.054 86.7816 180.223 86.7797 181.687C86.7778 183.197 87.2842 184.98 88.1521 186.878C89.8845 190.669 92.8868 194.561 95.1365 196.984L93.5789 198.778C92.4144 197.996 90.4203 196.947 88.2973 196.382C86.1406 195.808 84.1115 195.799 82.6353 196.723C82.4339 196.85 82.341 196.949 82.3011 197.003C82.2678 197.048 82.2654 197.069 82.2644 197.078L82.2643 197.078C82.2597 197.117 82.2648 197.295 82.5092 197.679C82.7439 198.047 83.1078 198.462 83.5694 198.933C83.8444 199.214 84.0819 199.444 84.3269 199.682C84.5406 199.889 84.7599 200.102 85.0148 200.359C85.4813 200.828 85.9715 201.354 86.3104 201.888C86.6281 202.388 86.9975 203.184 86.6922 204.052C86.3865 204.921 85.5754 205.381 84.7828 205.648C83.9499 205.928 82.8123 206.106 81.3374 206.203C79.1518 206.347 77.75 206.798 76.8762 207.339C76.0348 207.86 75.6483 208.483 75.492 209.122C75.1784 210.406 75.7387 212.041 76.5598 213.335C104.893 221.224 132.557 216.256 155.697 206.684C178.661 197.184 197.083 183.185 207.138 172.889C206.971 172.069 206.449 170.857 205.514 169.434C204.416 167.763 202.851 165.956 200.976 164.394C199.733 163.36 197.716 163.224 195.551 163.839L187.734 170.215L187.983 167.389C188.104 166.016 189.127 164.796 190.256 163.888C191.384 162.983 192.843 162.204 194.39 161.7L194.881 161.3L195.229 161.258C195.497 161.226 195.682 161.145 195.769 161.077L195.771 161.075C195.81 161.044 195.826 161.032 195.823 160.938C195.818 160.771 195.725 160.359 195.208 159.643C194.701 158.941 193.852 158.034 192.502 156.896C191.739 156.253 191.138 155.99 190.692 155.909C190.267 155.832 189.902 155.904 189.551 156.091C188.765 156.507 188.039 157.499 187.413 158.753C186.987 159.605 186.699 160.37 186.458 161.005C186.34 161.317 186.234 161.598 186.13 161.842C186.093 161.929 186.051 162.022 186.005 162.11C185.967 162.181 185.891 162.322 185.772 162.456C185.714 162.523 185.593 162.649 185.403 162.749C185.192 162.86 184.85 162.959 184.459 162.84C184.095 162.729 183.888 162.487 183.793 162.347C183.697 162.205 183.649 162.072 183.625 161.996C183.544 161.741 183.533 161.44 183.528 161.246C183.522 161 183.525 160.685 183.535 160.302C183.612 157.437 183.154 155.674 181.766 154.115C180.289 152.455 177.658 150.905 172.982 148.831C165.885 145.684 160.974 147.692 159.591 148.808L158.62 149.592L157.871 148.598C157.515 148.127 156.397 147.15 154.24 146.207C152.116 145.279 149.051 144.414 144.894 144.105C140.895 143.809 139.348 145.049 138.728 146.254ZM198.223 161.091C198.227 161.018 198.227 160.943 198.225 160.867C198.2 160.032 197.814 159.16 197.162 158.257C196.501 157.339 195.493 156.29 194.058 155.08C193.08 154.255 192.103 153.742 191.123 153.564C190.12 153.383 189.207 153.571 188.419 153.989C187.226 154.621 186.344 155.764 185.702 156.872C185.388 155.265 184.738 153.852 183.567 152.537C181.707 150.447 178.625 148.723 173.963 146.655C167.056 143.593 161.664 144.812 159.004 146.333C158.168 145.588 156.904 144.767 155.209 144.026C152.811 142.978 149.475 142.055 145.073 141.729C140.512 141.391 137.806 142.803 136.588 145.171C135.695 146.906 135.747 148.902 136.102 150.488L131.885 151.834C128.251 152.994 127.089 156.533 126.932 159.605C126.851 161.183 127.019 162.766 127.313 164.118C127.464 164.812 127.654 165.475 127.876 166.062L124.563 167.12L124.007 165.405L123.868 165.234C122.572 163.628 119.685 161.792 116.014 160.756C112.294 159.707 107.631 159.439 102.728 161.141C100.223 162.011 98.4437 163.304 97.2783 164.891C96.1147 166.476 95.6254 168.268 95.5542 170.033C95.4932 171.546 95.7369 173.062 96.1436 174.471C95.8872 174.365 95.6217 174.27 95.3474 174.189C92.9089 173.463 89.9644 173.843 86.8399 176.329C85.0757 177.733 84.3796 179.647 84.377 181.684C84.3744 183.676 85.0278 185.815 85.9637 187.862C86.9944 190.117 88.4196 192.373 89.8841 194.367C89.5673 194.263 89.2453 194.167 88.9198 194.08C86.5225 193.442 83.6743 193.255 81.3529 194.708C80.5597 195.205 79.9867 195.894 79.8784 196.797C79.7779 197.634 80.116 198.384 80.4787 198.953C80.8511 199.537 81.3581 200.096 81.8465 200.594C82.0925 200.846 82.4059 201.151 82.6998 201.438C82.9257 201.658 83.1402 201.867 83.3037 202.032C83.7608 202.492 84.0886 202.86 84.2774 203.158C84.3015 203.196 84.3212 203.229 84.3371 203.258C84.2658 203.295 84.1613 203.34 84.0115 203.391C83.4726 203.572 82.5788 203.733 81.1781 203.825C78.7627 203.985 76.9303 204.496 75.604 205.317C74.2452 206.158 73.4656 207.298 73.1569 208.561C72.5691 210.967 73.7458 213.519 74.8203 215.044L75.0649 215.391L75.4756 215.508C104.629 223.755 133.027 218.643 156.622 208.883C180.208 199.127 199.083 184.691 209.266 174.133L209.615 173.771L209.598 173.27C209.55 171.813 208.719 169.947 207.527 168.133C206.302 166.268 204.58 164.283 202.521 162.569C201.287 161.541 199.768 161.124 198.223 161.091Z" fill="#212121"/>
<path d="M109.795 184.34C100.426 189.661 106.846 198.553 111.227 202.334C107.724 202.265 101.655 203.608 105.404 209.533C109.154 215.458 113.617 211.713 115.38 209.1C115.376 211.098 117.264 214.908 124.857 214.168C132.449 213.428 129.246 206.239 126.696 202.737C130.81 200.831 137.82 195.982 132.951 191.839C128.082 187.696 123.223 193.541 121.403 196.982C121.437 190.551 119.165 179.018 109.795 184.34Z" fill="#C6C6C6"/>
<path fill-rule="evenodd" clip-rule="evenodd" d="M115.237 184.312C114.122 183.996 112.563 184.141 110.392 185.374C108.23 186.602 107.094 187.966 106.569 189.298C106.042 190.636 106.071 192.085 106.509 193.583C107.399 196.632 109.909 199.616 112.016 201.435L114.513 203.59L111.203 203.525C110.404 203.509 109.46 203.575 108.559 203.763C107.646 203.953 106.856 204.252 106.3 204.651C105.772 205.031 105.49 205.469 105.435 206.017C105.375 206.612 105.561 207.539 106.422 208.899C107.276 210.249 108.098 210.932 108.796 211.249C109.474 211.556 110.138 211.566 110.801 211.374C112.214 210.965 113.569 209.643 114.382 208.437L116.591 205.164L116.582 209.103C116.58 209.76 116.901 210.856 118.013 211.725C119.117 212.587 121.145 213.333 124.739 212.982C126.454 212.815 127.34 212.306 127.798 211.782C128.251 211.263 128.452 210.538 128.382 209.575C128.236 207.578 126.953 205.125 125.722 203.435L124.872 202.267L126.188 201.657C128.178 200.735 130.776 199.136 132.27 197.363C133.015 196.479 133.382 195.674 133.405 194.981C133.427 194.353 133.175 193.599 132.169 192.743C131.146 191.873 130.208 191.588 129.369 191.602C128.502 191.616 127.605 191.952 126.706 192.554C124.882 193.776 123.327 195.909 122.466 197.536L120.201 196.975C120.218 193.832 119.66 189.593 118.082 186.843C117.305 185.491 116.359 184.629 115.237 184.312ZM122.403 193.338C122.102 190.711 121.433 187.864 120.169 185.664C119.211 183.994 117.834 182.569 115.896 182.02C113.951 181.469 111.712 181.878 109.198 183.305C106.676 184.738 105.1 186.48 104.331 188.43C103.564 190.375 103.657 192.382 104.201 194.246C104.982 196.921 106.728 199.426 108.498 201.348C108.354 201.373 108.209 201.4 108.065 201.43C106.972 201.658 105.822 202.052 104.891 202.721C103.933 203.409 103.182 204.413 103.044 205.781C102.911 207.102 103.373 208.564 104.387 210.167C105.407 211.779 106.549 212.85 107.797 213.416C109.066 213.991 110.331 213.993 111.474 213.662C112.772 213.287 113.917 212.485 114.832 211.602C115.206 212.303 115.756 212.995 116.526 213.597C118.264 214.954 120.977 215.744 124.974 215.354C127.055 215.151 128.616 214.484 129.614 213.343C130.616 212.196 130.878 210.766 130.778 209.402C130.621 207.255 129.551 204.955 128.45 203.195C130.38 202.165 132.627 200.656 134.114 198.891C135.027 197.807 135.757 196.503 135.807 195.062C135.859 193.556 135.162 192.15 133.733 190.934C132.321 189.733 130.826 189.195 129.329 189.219C127.858 189.243 126.514 189.807 125.362 190.579C124.243 191.328 123.244 192.314 122.403 193.338Z" fill="#212121"/>
<path d="M154.685 171.157C148.805 177.177 153.713 182.581 156.902 184.531C153.353 185.663 147.235 189.137 151.154 193.972C155.072 198.807 158.109 194.288 159.138 191.424C159.773 193.379 162.432 196.749 167.996 194.585C173.56 192.421 171.438 186.419 169.682 183.688C174.781 183.14 183.333 180.497 176.756 174.309C170.18 168.121 166.109 173.176 164.895 176.476C163.942 172.195 160.564 165.137 154.685 171.157Z" fill="#C6C6C6"/>
<path fill-rule="evenodd" clip-rule="evenodd" d="M158.749 170.032C157.98 170.111 156.912 170.59 155.548 171.986C154.2 173.367 153.533 174.645 153.274 175.776C153.016 176.904 153.144 177.966 153.517 178.951C154.283 180.968 156.074 182.625 157.532 183.516L159.752 184.873L157.27 185.665C155.586 186.203 153.397 187.272 152.116 188.666C151.49 189.347 151.149 190.03 151.098 190.706C151.048 191.362 151.255 192.195 152.09 193.226C152.977 194.32 153.695 194.735 154.201 194.861C154.668 194.976 155.109 194.885 155.577 194.584C156.617 193.917 157.52 192.379 158.007 191.024L159.196 187.712L160.282 191.059C160.525 191.809 161.183 192.873 162.315 193.515C163.391 194.125 165.059 194.447 167.557 193.476C168.738 193.017 169.425 192.392 169.826 191.736C170.235 191.067 170.406 190.269 170.383 189.379C170.336 187.561 169.48 185.59 168.67 184.329L167.629 182.711L169.553 182.504C170.767 182.373 172.184 182.118 173.518 181.72C174.868 181.318 176.05 180.796 176.861 180.172C177.66 179.557 177.965 178.959 177.942 178.353C177.916 177.684 177.481 176.634 175.93 175.174C174.383 173.719 173.068 173.005 171.995 172.726C170.944 172.452 170.064 172.578 169.314 172.918C167.74 173.632 166.579 175.376 166.024 176.885L164.612 180.726L163.722 176.734C163.261 174.661 162.245 172.125 160.825 170.832C160.156 170.223 159.479 169.958 158.749 170.032ZM165.2 173.392C164.571 171.799 163.667 170.185 162.45 169.076C161.42 168.138 160.091 167.5 158.504 167.661C156.957 167.819 155.397 168.715 153.822 170.328C152.23 171.958 151.306 173.612 150.931 175.248C150.555 176.889 150.752 178.428 151.269 179.79C151.952 181.591 153.196 183.094 154.465 184.207C153.007 184.885 151.461 185.84 150.34 187.06C149.482 187.994 148.806 189.157 148.702 190.527C148.596 191.918 149.093 193.332 150.217 194.719C151.29 196.042 152.42 196.875 153.618 197.173C154.855 197.48 155.972 197.169 156.882 196.586C157.856 195.961 158.642 194.996 159.238 194.003C159.728 194.591 160.351 195.147 161.122 195.584C162.926 196.606 165.369 196.887 168.435 195.694C170.036 195.071 171.17 194.134 171.881 192.971C172.585 191.82 172.817 190.542 172.785 189.319C172.742 187.646 172.205 185.978 171.565 184.623C172.429 184.469 173.33 184.265 174.209 184.003C175.691 183.562 177.191 182.934 178.334 182.055C179.487 181.167 180.406 179.91 180.343 178.262C180.282 176.679 179.319 175.078 177.583 173.444C175.841 171.805 174.182 170.831 172.604 170.42C171.004 170.004 169.557 170.188 168.316 170.751C167.01 171.342 165.978 172.328 165.2 173.392Z" fill="#212121"/>
<path d="M135.794 347.951L75.7925 214.8C133.651 228.574 188.223 192.349 208.277 172.514L241.684 312.211C235.024 322.699 223.744 345.937 193.728 355.518C170.563 362.911 145.78 354.421 135.794 347.951Z" fill="#DADADA"/>
<path fill-rule="evenodd" clip-rule="evenodd" d="M73.6999 213.077L76.0729 213.641C104.679 220.451 132.517 214.911 155.743 205.163C178.975 195.412 197.504 181.486 207.428 171.67L208.95 170.166L242.969 312.423L242.701 312.846C242.025 313.909 241.299 315.112 240.506 316.424C233.55 327.936 221.482 347.911 194.096 356.652C182.27 360.426 170.068 360.137 159.588 358.102C149.117 356.07 140.276 352.278 135.137 348.948L134.842 348.757L73.6999 213.077ZM77.8717 216.494L136.746 347.141C141.64 350.24 150.045 353.821 160.05 355.763C170.249 357.743 182.021 358.002 193.36 354.383C219.84 345.931 231.468 326.72 238.435 315.21C239.133 314.057 239.784 312.981 240.399 312.001L207.598 174.837C197.17 184.729 179.075 197.958 156.679 207.358C133.775 216.971 106.288 222.614 77.8717 216.494Z" fill="#212121"/>
<path d="M148.096 353.707L92.593 217.826C102.348 218.219 121.011 216.298 115.54 217.138C110.069 217.977 147.287 312.316 166.033 357.693L161.227 356.961L151.329 354.617L148.096 353.707Z" fill="#999999"/>
<path fill-rule="evenodd" clip-rule="evenodd" d="M90.7798 216.56L92.6418 216.635C97.4466 216.829 104.489 216.452 109.701 216.125C110.659 216.065 111.558 216.006 112.368 215.954C113.74 215.864 114.856 215.791 115.575 215.756C115.861 215.742 116.103 215.733 116.281 215.731C116.365 215.731 116.466 215.731 116.56 215.739C116.598 215.742 116.691 215.75 116.798 215.777C116.846 215.788 116.966 215.82 117.102 215.895C117.195 215.946 117.596 216.178 117.703 216.708C117.822 217.296 117.48 217.685 117.366 217.797C117.234 217.925 117.104 217.993 117.058 218.016C116.949 218.071 116.851 218.101 116.814 218.112C116.72 218.14 116.616 218.162 116.528 218.18C116.439 218.197 116.332 218.217 116.209 218.238C116.205 218.284 116.202 218.336 116.2 218.393C116.181 219.005 116.289 219.979 116.55 221.333C117.068 224.014 118.13 227.894 119.633 232.721C122.636 242.36 127.352 255.624 132.832 270.3C143.789 299.645 157.775 334.561 167.145 357.241L167.95 359.191L160.996 358.132L151.025 355.771L147.203 354.694L90.7798 216.56ZM113.801 218.249C113.419 218.273 113.004 218.301 112.559 218.33C111.746 218.382 110.836 218.442 109.852 218.504C105.278 218.79 99.1689 219.125 94.395 219.064L148.989 352.72L151.632 353.464L161.458 355.791L164.117 356.196C154.758 333.481 141.239 299.677 130.579 271.128C125.095 256.442 120.36 243.128 117.338 233.424C115.828 228.58 114.734 224.597 114.19 221.781C113.921 220.387 113.771 219.203 113.799 218.319C113.8 218.296 113.8 218.272 113.801 218.249Z" fill="#212121"/>
<path d="M189.816 356.954C189.816 356.954 136.7 213.838 138.03 213.413C139.359 212.988 153.76 207.582 161.655 204.254C178.18 250.664 210.928 345.78 208.419 348.912C205.911 352.043 194.972 355.578 189.816 356.954Z" fill="#999999"/>
<path fill-rule="evenodd" clip-rule="evenodd" d="M162.362 202.661L162.788 203.857C171.052 227.067 183.373 262.458 193.316 292.44C198.287 307.429 202.666 321.078 205.647 331.179C207.137 336.227 208.283 340.409 208.979 343.435C209.326 344.945 209.568 346.197 209.682 347.139C209.738 347.607 209.768 348.037 209.753 348.401C209.746 348.583 209.726 348.78 209.68 348.972C209.638 349.151 209.553 349.412 209.36 349.653C208.576 350.632 207.241 351.533 205.757 352.341C204.237 353.167 202.423 353.966 200.552 354.699C196.807 356.167 192.738 357.408 190.128 358.104L189.068 358.387L188.688 357.365L189.816 356.954C188.688 357.365 188.688 357.365 188.688 357.364L188.092 355.758C187.703 354.709 187.133 353.171 186.408 351.214C184.958 347.3 182.889 341.707 180.409 334.995C175.45 321.571 168.852 303.667 162.295 285.749C155.738 267.833 149.222 249.899 144.427 236.417C142.03 229.677 140.062 224.043 138.733 220.079C138.069 218.099 137.561 216.523 137.239 215.43C137.079 214.888 136.958 214.44 136.887 214.113C136.853 213.958 136.82 213.782 136.808 213.621C136.803 213.55 136.795 213.403 136.827 213.235C136.827 213.234 136.827 213.233 136.827 213.232C136.84 213.16 136.959 212.503 137.661 212.279C138.941 211.87 153.304 206.48 161.185 203.157L162.362 202.661ZM190.561 355.513C193.074 354.805 196.5 353.724 199.669 352.483C201.49 351.769 203.203 351.011 204.602 350.251C205.916 349.536 206.844 348.876 207.352 348.318C207.352 348.314 207.352 348.31 207.352 348.305C207.36 348.123 207.346 347.835 207.296 347.422C207.198 346.605 206.977 345.447 206.637 343.965C205.957 341.01 204.827 336.884 203.341 331.849C200.372 321.786 196.002 308.167 191.033 293.185C181.267 263.732 169.2 229.05 160.947 205.843C153.855 208.782 142.862 212.94 139.385 214.2C139.43 214.364 139.483 214.55 139.545 214.761C139.855 215.811 140.351 217.353 141.013 219.327C142.335 223.27 144.297 228.887 146.693 235.624C151.484 249.096 157.997 267.021 164.553 284.936C171.109 302.851 177.707 320.752 182.665 334.175C185.144 340.887 187.214 346.478 188.664 350.392C189.388 352.349 189.958 353.887 190.347 354.935L190.561 355.513Z" fill="#212121"/>
<path d="M221.608 337.397C222.857 330.686 176.819 196.316 179.886 194.203C182.954 192.091 183.498 191.756 192.897 185.519C197.636 182.375 221.764 280.202 232.227 326.874C228.386 332.47 220.608 342.765 221.608 337.397Z" fill="#999999"/>
<path fill-rule="evenodd" clip-rule="evenodd" d="M211.577 237.212C219.514 267.127 228.165 303.267 233.4 326.615L233.512 327.119L233.22 327.545C231.291 330.355 228.354 334.375 226.006 337.033C225.417 337.699 224.85 338.296 224.336 338.773C223.844 339.228 223.317 339.653 222.81 339.886C222.56 340 222.182 340.132 221.75 340.082C221.231 340.023 220.811 339.724 220.571 339.296C220.368 338.936 220.323 338.545 220.319 338.241C220.315 337.917 220.356 337.559 220.427 337.18C220.426 337.181 220.426 337.181 220.427 337.18C220.428 337.172 220.433 337.122 220.431 337.012C220.429 336.893 220.418 336.735 220.395 336.533C220.35 336.127 220.263 335.595 220.133 334.935C219.872 333.617 219.45 331.855 218.886 329.704C217.758 325.404 216.079 319.613 214.034 312.83C210.153 299.96 204.968 283.562 199.762 267.096C199.481 266.208 199.2 265.32 198.919 264.432C193.435 247.087 188.003 229.873 184.135 216.862C182.201 210.359 180.653 204.889 179.683 200.972C179.199 199.018 178.852 197.421 178.675 196.264C178.588 195.693 178.535 195.182 178.538 194.77C178.54 194.568 178.556 194.335 178.613 194.109C178.66 193.923 178.791 193.507 179.201 193.224C181.542 191.613 182.426 191.027 186.841 188.101C188.234 187.178 189.978 186.023 192.229 184.529C192.817 184.138 193.464 184.21 193.946 184.456C194.36 184.667 194.692 185.014 194.949 185.34C195.481 186.012 196.036 187.031 196.611 188.282C197.775 190.812 199.164 194.611 200.713 199.349C203.815 208.84 207.61 222.258 211.577 237.212ZM193.077 186.834C193.422 187.277 193.876 188.075 194.425 189.271C195.529 191.671 196.884 195.363 198.427 200.084C201.508 209.509 205.289 222.875 209.253 237.819C217.124 267.484 225.701 303.29 230.941 326.628C229.037 329.377 226.337 333.041 224.199 335.462C223.696 336.031 223.235 336.518 222.832 336.903C222.826 336.694 222.807 336.48 222.784 336.27C222.728 335.773 222.628 335.169 222.491 334.476C222.216 333.088 221.78 331.273 221.211 329.104C220.072 324.762 218.383 318.937 216.336 312.147C212.451 299.261 207.261 282.849 202.056 266.39C201.775 265.5 201.493 264.609 201.212 263.719C195.726 246.368 190.301 229.175 186.439 216.188C184.508 209.691 182.972 204.265 182.016 200.403C181.537 198.468 181.211 196.955 181.051 195.907C180.985 195.473 180.952 195.151 180.943 194.927C183 193.513 184.001 192.85 188.163 190.092C189.455 189.236 191.051 188.178 193.077 186.834ZM221.776 337.733C221.776 337.733 221.78 337.731 221.787 337.729C221.779 337.732 221.776 337.733 221.776 337.733Z" fill="#212121"/>
<path d="M123.353 175.678C118.504 165.961 126.08 165.474 130.475 166.445C128.613 162.885 126.638 154.819 133.633 151.033C142.377 146.299 141.86 162.811 143.66 159.809C145.46 156.807 153.048 154.547 153.689 159.036C154.201 162.627 149.056 166.719 146.419 168.316C146.948 169.442 147.964 171.869 147.799 172.569C147.594 173.444 147.811 176.126 142.816 179.339C137.821 182.552 135.848 173.956 135.7 174.003C135.552 174.05 129.415 187.824 123.353 175.678Z" fill="#C6C6C6"/>
<path fill-rule="evenodd" clip-rule="evenodd" d="M143.526 158.079C143.468 157.879 143.408 157.664 143.343 157.432C143.285 157.227 143.224 157.009 143.158 156.778C142.944 156.031 142.69 155.191 142.376 154.355C141.767 152.736 140.851 150.908 139.322 149.851C138.527 149.302 137.581 148.973 136.49 148.982C135.415 148.992 134.273 149.329 133.058 149.987C129.124 152.116 127.697 155.499 127.532 158.764C127.42 160.993 127.889 163.182 128.522 164.952C127.945 164.907 127.354 164.893 126.767 164.921C125.403 164.988 123.951 165.288 122.781 166.062C121.553 166.874 120.726 168.151 120.603 169.917C120.486 171.613 121.019 173.687 122.276 176.206C123.839 179.338 125.56 181.132 127.481 181.69C129.47 182.269 131.224 181.406 132.518 180.324C133.765 179.283 134.781 177.887 135.492 176.764C135.745 177.324 136.056 177.93 136.432 178.505C137.055 179.461 137.944 180.473 139.171 180.96C140.486 181.482 141.955 181.313 143.47 180.339C146.104 178.644 147.466 177.022 148.178 175.61C148.752 174.472 148.895 173.388 148.947 172.987C148.957 172.914 148.964 172.864 148.969 172.84C149.033 172.57 149.023 172.308 149.005 172.118C148.985 171.913 148.945 171.701 148.898 171.498C148.803 171.092 148.658 170.641 148.501 170.203C148.326 169.715 148.125 169.214 147.933 168.764C149.221 167.895 150.797 166.654 152.119 165.231C153.7 163.527 155.217 161.242 154.878 158.869C154.661 157.346 153.808 156.297 152.6 155.755C151.469 155.247 150.135 155.227 148.904 155.439C147.653 155.654 146.381 156.13 145.291 156.761C144.652 157.131 144.041 157.574 143.526 158.079ZM142.588 159.258C142.588 159.258 142.592 159.252 142.6 159.242C142.592 159.254 142.588 159.259 142.588 159.258ZM136.511 151.365C135.934 151.371 135.179 151.553 134.209 152.079C131.146 153.736 130.063 156.279 129.932 158.883C129.798 161.554 130.68 164.25 131.541 165.896L132.727 168.164L130.213 167.608C129.197 167.384 128.009 167.247 126.885 167.302C125.744 167.357 124.781 167.604 124.114 168.045C123.505 168.448 123.072 169.053 123.001 170.081C122.924 171.179 123.262 172.81 124.43 175.149C125.898 178.091 127.217 179.13 128.157 179.404C129.028 179.657 129.954 179.351 130.97 178.502C131.98 177.657 132.872 176.437 133.539 175.366C133.867 174.84 134.13 174.368 134.318 174.022C134.365 173.936 134.407 173.857 134.445 173.786C134.482 173.717 134.517 173.652 134.546 173.598C134.573 173.548 134.605 173.49 134.635 173.44C134.648 173.418 134.675 173.374 134.709 173.326C134.725 173.304 134.761 173.254 134.813 173.199C134.839 173.171 134.885 173.123 134.949 173.072C135.003 173.03 135.135 172.932 135.332 172.869C135.708 172.749 136.037 172.837 136.237 172.935C136.419 173.025 136.534 173.138 136.586 173.194C136.693 173.306 136.753 173.415 136.771 173.448C136.819 173.533 136.852 173.614 136.867 173.652C136.902 173.741 136.943 173.856 136.979 173.962C136.99 173.992 137 174.023 137.011 174.055C137.086 174.271 137.179 174.54 137.297 174.849C137.568 175.566 137.949 176.444 138.449 177.211C138.962 177.997 139.512 178.528 140.064 178.748C140.528 178.932 141.179 178.971 142.162 178.339C144.523 176.821 145.55 175.495 146.029 174.544C146.39 173.828 146.457 173.363 146.523 172.901C146.548 172.726 146.573 172.551 146.615 172.363C146.614 172.358 146.614 172.352 146.613 172.345C146.607 172.279 146.59 172.178 146.557 172.037C146.491 171.755 146.38 171.399 146.237 171.001C145.954 170.211 145.583 169.358 145.33 168.818L144.877 167.853L145.793 167.299C147.042 166.542 148.893 165.187 150.351 163.616C151.873 161.977 152.673 160.421 152.499 159.203C152.396 158.481 152.061 158.129 151.609 157.926C151.081 157.689 150.285 157.62 149.315 157.787C148.363 157.951 147.36 158.323 146.502 158.82C145.628 159.325 145.001 159.903 144.692 160.418C144.554 160.649 144.296 161.028 143.856 161.233C143.599 161.352 143.289 161.406 142.964 161.34C142.655 161.277 142.425 161.125 142.271 160.989C141.992 160.742 141.824 160.422 141.724 160.207C141.611 159.963 141.511 159.684 141.42 159.404C141.291 159.007 141.155 158.524 141.014 158.021C140.959 157.826 140.903 157.627 140.846 157.429C140.638 156.701 140.405 155.933 140.125 155.188C139.545 153.646 138.839 152.422 137.949 151.807C137.535 151.521 137.072 151.36 136.511 151.365Z" fill="#212121"/>
</svg>
