<svg width="500" height="500" viewBox="0 0 500 500" fill="none" xmlns="http://www.w3.org/2000/svg">
<rect width="500" height="500" fill="#959595"/>
<path d="M248.207 292.506C248.207 296.341 244.769 299.449 240.528 299.449C236.288 299.449 232.85 296.341 232.85 292.506C232.85 288.672 236.288 285.564 240.528 285.564C244.769 285.564 248.207 288.672 248.207 292.506Z" fill="#848484"/>
<path d="M270.218 292.506C270.218 296.341 266.78 299.449 262.539 299.449C258.298 299.449 254.86 296.341 254.86 292.506C254.86 288.672 258.298 285.564 262.539 285.564C266.78 285.564 270.218 288.672 270.218 292.506Z" fill="#848484"/>
<path fill-rule="evenodd" clip-rule="evenodd" d="M292.228 330.285C292.598 331.626 291.752 332.999 290.338 333.35C275.534 337.029 264.44 338.916 252.97 338.916C241.513 338.916 229.83 337.033 213.851 333.362C212.43 333.035 211.557 331.678 211.902 330.33C212.246 328.982 213.677 328.154 215.098 328.481C230.94 332.121 242.142 333.894 252.97 333.894C263.784 333.894 274.377 332.125 288.996 328.492C290.41 328.14 291.857 328.943 292.228 330.285Z" fill="#2E2E2E"/>
<path fill-rule="evenodd" clip-rule="evenodd" d="M162.023 232.986C162.636 232.607 163.456 232.771 163.855 233.352C168.644 240.319 177.362 243.84 186.269 243.817C195.177 243.794 204.02 240.225 209.02 233.327C209.434 232.755 210.258 232.61 210.861 233.003C211.463 233.396 211.616 234.178 211.201 234.749C205.607 242.467 195.857 246.303 186.276 246.328C176.695 246.353 167.028 242.565 161.638 234.724C161.238 234.143 161.411 233.365 162.023 232.986Z" fill="#2E2E2E"/>
<path fill-rule="evenodd" clip-rule="evenodd" d="M341.297 232.986C340.684 232.607 339.864 232.771 339.465 233.352C334.676 240.319 325.959 243.84 317.051 243.817C308.143 243.794 299.301 240.225 294.3 233.327C293.886 232.755 293.062 232.61 292.46 233.003C291.857 233.396 291.705 234.178 292.119 234.749C297.713 242.467 307.463 246.303 317.044 246.328C326.625 246.353 336.293 242.565 341.683 234.724C342.082 234.143 341.909 233.365 341.297 232.986Z" fill="#2E2E2E"/>
<path d="M99.281 206.788C104.903 207.837 110.136 209.85 114.759 212.628C123.984 186.481 151.071 167.544 183.051 167.544C215.459 167.544 242.843 186.992 251.704 213.684C260.565 186.992 287.949 167.544 320.357 167.544C351.695 167.544 378.334 185.728 388.072 211.062C391.718 209.211 395.684 207.813 399.875 206.953C379.027 154.566 325.629 116.221 261.738 111.861C262.35 110.794 263.581 108.719 264.143 107.729C265.774 104.849 267.32 102.044 268.263 99.8553C268.697 98.8491 269.251 97.4276 269.421 95.9728C269.503 95.2702 269.587 93.8924 268.972 92.3761C268.212 90.5013 266.556 88.8902 264.225 88.2706C263.433 88.06 262.687 87.9984 262.028 88.0141L262.147 87.8072L262.15 87.8017C262.751 86.7506 263.339 85.7224 263.909 84.7168C265.541 81.8374 267.087 79.0325 268.03 76.8435C268.464 75.8374 269.017 74.4159 269.188 72.9611C269.27 72.2585 269.353 70.8807 268.738 69.3644C267.978 67.4895 266.323 65.8784 263.992 65.2588C262.111 64.759 260.49 65.0983 259.682 65.3193C258.767 65.5696 257.956 65.9358 257.316 66.2635C256.028 66.9235 254.612 67.8594 253.12 68.9446C242.731 76.5026 237.107 87.0851 234.212 96.8073C231.347 106.43 231.17 105.199 229.876 112.53C169.384 119.246 119.354 156.541 99.281 206.788Z" fill="#646464"/>
<path d="M125.209 270.605C117.685 279.321 106.256 285.148 93.2996 285.937C108.042 348.818 168.05 396.584 241.04 400.046C196.007 396.529 160.669 362.365 160.669 320.739C160.669 311.782 162.305 303.171 165.322 295.137C148.985 291.378 134.89 282.546 125.209 270.605Z" fill="#646464"/>
<path d="M405.805 285.874C394.196 284.955 383.871 279.985 376.57 272.538C365.829 284.798 350.285 293.462 332.508 296.207C335.274 303.934 336.768 312.179 336.768 320.739C336.768 362.982 300.375 397.539 254.389 400.182C329.051 398.171 390.843 349.835 405.805 285.874Z" fill="#646464"/>
<path fill-rule="evenodd" clip-rule="evenodd" d="M183.051 167.544C151.071 167.544 123.984 186.481 114.759 212.628C126.695 219.799 134.562 232.066 134.562 245.994C134.562 255.274 131.07 263.816 125.209 270.605C134.89 282.546 148.985 291.378 165.322 295.137C162.305 303.171 160.669 311.782 160.669 320.739C160.669 362.365 196.007 396.529 241.04 400.046C243.856 400.179 246.692 400.247 249.545 400.247C251.165 400.247 252.78 400.225 254.389 400.182C300.375 397.539 336.768 362.982 336.768 320.739C336.768 312.179 335.274 303.934 332.508 296.207C350.285 293.462 365.829 284.798 376.57 272.538C369.644 265.473 365.438 256.177 365.438 245.994C365.438 230.993 374.565 217.918 388.072 211.062C378.334 185.728 351.695 167.544 320.357 167.544C287.949 167.544 260.565 186.992 251.704 213.684C242.843 186.992 215.459 167.544 183.051 167.544ZM240.528 299.449C244.769 299.449 248.207 296.341 248.207 292.506C248.207 288.672 244.769 285.564 240.528 285.564C236.288 285.564 232.85 288.672 232.85 292.506C232.85 296.341 236.288 299.449 240.528 299.449ZM262.539 299.449C266.78 299.449 270.218 296.341 270.218 292.506C270.218 288.672 266.78 285.564 262.539 285.564C258.298 285.564 254.86 288.672 254.86 292.506C254.86 296.341 258.298 299.449 262.539 299.449ZM292.228 330.285C292.598 331.626 291.752 332.999 290.338 333.35C275.534 337.029 264.44 338.916 252.97 338.916C241.513 338.916 229.83 337.033 213.851 333.362C212.43 333.035 211.557 331.678 211.902 330.33C212.246 328.982 213.677 328.154 215.098 328.481C230.94 332.121 242.142 333.894 252.97 333.894C263.784 333.894 274.377 332.125 288.996 328.492C290.41 328.14 291.857 328.943 292.228 330.285ZM162.023 232.986C162.636 232.607 163.456 232.771 163.855 233.352C168.644 240.319 177.362 243.84 186.269 243.817C195.177 243.794 204.02 240.225 209.02 233.327C209.434 232.755 210.258 232.61 210.861 233.003C211.463 233.396 211.616 234.178 211.201 234.749C205.607 242.467 195.857 246.303 186.276 246.328C176.695 246.353 167.028 242.565 161.638 234.724C161.238 234.143 161.411 233.365 162.023 232.986ZM341.297 232.986C340.684 232.607 339.864 232.771 339.465 233.352C334.676 240.319 325.959 243.84 317.051 243.817C308.143 243.794 299.301 240.225 294.3 233.327C293.886 232.755 293.062 232.61 292.46 233.003C291.857 233.396 291.705 234.178 292.119 234.749C297.713 242.467 307.463 246.303 317.044 246.328C326.625 246.353 336.293 242.565 341.683 234.724C342.082 234.143 341.909 233.365 341.297 232.986Z" fill="#9A9A9A"/>
<path d="M134.562 245.994C134.562 232.066 126.695 219.799 114.759 212.628C113.073 217.407 111.983 222.427 111.57 227.617C116.616 232.394 119.715 238.867 119.715 245.994C119.715 250.053 118.71 253.9 116.913 257.342C119.104 262.074 121.898 266.521 125.209 270.605C131.07 263.816 134.562 255.274 134.562 245.994Z" fill="#9A9A9A"/>
<path d="M116.913 257.342C118.71 253.9 119.715 250.053 119.715 245.994C119.715 238.867 116.616 232.394 111.57 227.617C111.446 229.176 111.382 230.751 111.382 232.339C111.382 241.202 113.35 249.648 116.913 257.342Z" fill="#9A9A9A"/>
<path d="M46 245.994C46 268.104 65.8252 286.028 90.2808 286.028C91.2954 286.028 92.302 285.998 93.2996 285.937C92.2737 281.561 91.4671 277.113 90.8905 272.601C90.6874 272.605 90.4838 272.607 90.2798 272.607C74.0232 272.607 60.8446 260.692 60.8446 245.994C60.8446 231.297 74.0232 219.382 90.2798 219.382C91.8416 219.382 93.3749 219.492 94.8709 219.704C96.1222 215.314 97.596 211.005 99.281 206.788C96.3749 206.245 93.3647 205.96 90.2808 205.96C65.8252 205.96 46 223.884 46 245.994Z" fill="#646464"/>
<path fill-rule="evenodd" clip-rule="evenodd" d="M125.209 270.605C117.685 279.321 106.256 285.148 93.2996 285.937C92.2737 281.561 91.4671 277.113 90.8905 272.601C90.188 267.104 89.8269 261.514 89.8269 255.847C89.8269 243.366 91.5783 231.255 94.8709 219.704C96.1222 215.314 97.596 211.005 99.281 206.788C104.903 207.837 110.136 209.85 114.759 212.628C113.073 217.407 111.983 222.427 111.57 227.617C111.446 229.176 111.382 230.751 111.382 232.339C111.382 241.202 113.35 249.648 116.913 257.342C119.104 262.074 121.898 266.521 125.209 270.605Z" fill="#646464"/>
<path d="M60.8446 245.994C60.8446 260.692 74.0232 272.607 90.2798 272.607C90.4838 272.607 90.6874 272.605 90.8905 272.601C90.188 267.104 89.8269 261.514 89.8269 255.847C89.8269 243.366 91.5783 231.255 94.8709 219.704C93.3749 219.492 91.8416 219.382 90.2798 219.382C74.0232 219.382 60.8446 231.297 60.8446 245.994Z" fill="#9A9A9A"/>
<path d="M409.718 272.607C425.975 272.607 439.153 260.692 439.153 245.994C439.153 231.297 425.975 219.382 409.718 219.382C407.852 219.382 406.027 219.539 404.258 219.839C407.525 231.349 409.263 243.415 409.263 255.847C409.263 261.504 408.903 267.085 408.203 272.572C408.705 272.595 409.21 272.607 409.718 272.607Z" fill="#9A9A9A"/>
<path d="M409.719 286.028C434.175 286.028 454 268.104 454 245.994C454 223.884 434.175 205.96 409.719 205.96C406.336 205.96 403.041 206.303 399.875 206.953C401.55 211.161 403.014 215.46 404.258 219.839C406.027 219.539 407.852 219.382 409.718 219.382C425.975 219.382 439.153 231.297 439.153 245.994C439.153 260.692 425.975 272.607 409.718 272.607C409.21 272.607 408.705 272.595 408.203 272.572C407.629 277.072 406.826 281.51 405.805 285.874C407.095 285.976 408.4 286.028 409.719 286.028Z" fill="#646464"/>
<path fill-rule="evenodd" clip-rule="evenodd" d="M405.805 285.874C406.826 281.51 407.629 277.072 408.203 272.572C408.903 267.085 409.263 261.504 409.263 255.847C409.263 243.415 407.525 231.349 404.258 219.839C403.014 215.46 401.55 211.161 399.875 206.953C395.684 207.813 391.718 209.211 388.072 211.062C389.785 215.519 390.975 220.197 391.576 225.036C391.873 227.434 392.026 229.87 392.026 232.339C392.026 242.395 389.492 251.916 384.97 260.408C382.663 264.741 379.839 268.806 376.57 272.538C383.871 279.985 394.196 284.955 405.805 285.874Z" fill="#646464"/>
<path d="M388.072 211.062C374.565 217.918 365.438 230.993 365.438 245.994C365.438 256.177 369.644 265.473 376.57 272.538C379.839 268.806 382.663 264.741 384.97 260.408C382.004 256.255 380.283 251.306 380.283 245.994C380.283 237.485 384.701 229.908 391.576 225.036C390.975 220.197 389.785 215.519 388.072 211.062Z" fill="#9A9A9A"/>
<path d="M380.283 245.994C380.283 251.306 382.004 256.255 384.97 260.408C389.492 251.916 392.026 242.395 392.026 232.339C392.026 229.87 391.873 227.434 391.576 225.036C384.701 229.908 380.283 237.485 380.283 245.994Z" fill="#9A9A9A"/>
</svg>
