<svg width="500" height="500" viewBox="0 0 500 500" fill="none" xmlns="http://www.w3.org/2000/svg">
<rect width="500" height="500" fill="#959595"/>
<path d="M104.421 319.425C101.394 280.227 145.462 159.075 180.869 107.61C168.338 107.61 158.963 112.3 131.67 115.266C101.141 118.583 80.0896 179.944 51.1856 209.179C26.4597 234.189 11.0692 253.073 57.7453 302.072C95.0862 341.27 69.2672 314.917 71.622 312.535C78.8547 328.868 107.449 358.624 104.421 319.425Z" fill="#585858"/>
<path fill-rule="evenodd" clip-rule="evenodd" d="M162.129 111.899C154.791 113.445 145.564 115.372 131.84 116.863C124.716 117.638 117.993 121.816 111.393 128.374C104.799 134.926 98.4777 143.703 92.1436 153.39C89.0815 158.072 86.03 162.946 82.9495 167.866L82.6459 168.351C79.4655 173.431 76.2539 178.553 72.9852 183.527C66.4543 193.467 59.6492 202.891 52.309 210.315C39.8611 222.906 30.3229 233.472 29.2733 246.758C28.2279 259.99 35.6006 276.509 58.8893 300.957C63.4566 305.751 67.0745 309.56 69.9154 312.553C69.98 312.171 70.1432 311.758 70.4986 311.399L72.1292 309.749L73.0718 311.878C74.8073 315.797 77.8638 320.597 81.4492 324.991C85.0441 329.397 89.065 333.264 92.6768 335.42C94.4856 336.5 96.079 337.082 97.3915 337.174C98.6382 337.262 99.632 336.916 100.451 336.063C101.326 335.151 102.136 333.517 102.614 330.774C103.088 328.049 103.21 324.374 102.838 319.55C102.06 309.479 104.302 294.346 108.567 276.649C112.843 258.902 119.194 238.416 126.741 217.565C141.326 177.269 160.437 135.447 177.794 109.313C172.966 109.614 168.326 110.592 162.335 111.855L162.129 111.899ZM77.1442 324.671C77.0178 324.576 76.9078 324.473 76.8489 324.419C76.4541 324.051 75.6098 323.179 74.1926 321.694C73.0396 320.486 71.4743 318.837 69.4067 316.658C66.3406 313.427 62.1699 309.032 56.6013 303.187C33.2139 278.636 24.9438 261.213 26.1061 246.502C27.2642 231.843 37.7842 220.462 50.0623 208.043C57.174 200.849 63.8394 191.64 70.339 181.748C73.5855 176.808 76.7791 171.715 79.9616 166.632L80.2716 166.137C83.3469 161.225 86.4136 156.327 89.4935 151.617C95.8513 141.894 102.323 132.882 109.166 126.082C116.003 119.288 123.36 114.553 131.5 113.668C145.069 112.193 154.176 110.292 161.481 108.752L161.857 108.673C168.967 107.174 174.522 106.003 180.869 106.003H183.91L183.507 106.588L182.173 108.527C164.584 134.094 144.77 177.1 129.724 218.67C122.207 239.439 115.895 259.808 111.654 277.41C108.771 289.371 106.864 299.981 106.162 308.544C105.829 312.618 105.768 316.228 106.005 319.3C106.39 324.276 106.28 328.245 105.743 331.332C105.208 334.402 104.224 336.746 102.731 338.301C101.182 339.915 99.2335 340.526 97.1706 340.38C95.1736 340.24 93.0902 339.399 91.062 338.188C86.9995 335.763 82.7049 331.579 78.9987 327.037C78.365 326.26 77.7454 325.469 77.1442 324.671Z" fill="#585858"/>
<path d="M395.579 319.681C398.606 280.482 354.538 159.33 319.131 107.865C331.662 107.865 341.037 112.555 368.33 115.521C398.859 118.839 419.91 180.199 448.814 209.435C473.54 234.444 488.931 253.329 442.255 302.327C404.914 341.526 430.733 315.172 428.378 312.79C421.145 329.123 392.551 358.879 395.579 319.681Z" fill="#585858"/>
<path fill-rule="evenodd" clip-rule="evenodd" d="M337.871 112.154C345.209 113.701 354.436 115.628 368.16 117.119C375.284 117.893 382.007 122.072 388.607 128.63C395.201 135.182 401.522 143.959 407.856 153.645C410.919 158.328 413.97 163.202 417.051 168.122L417.354 168.607C420.534 173.686 423.746 178.808 427.015 183.783C433.546 193.722 440.351 203.146 447.691 210.571C460.139 223.161 469.677 233.727 470.727 247.013C471.772 260.245 464.399 276.765 441.111 301.212C436.543 306.007 432.926 309.816 430.085 312.809C430.02 312.427 429.857 312.014 429.501 311.654L427.871 310.005L426.928 312.133C425.193 316.052 422.136 320.853 418.551 325.247C414.956 329.653 410.935 333.52 407.323 335.676C405.514 336.756 403.921 337.337 402.609 337.43C401.362 337.518 400.368 337.172 399.549 336.319C398.674 335.406 397.864 333.772 397.387 331.03C396.912 328.305 396.79 324.629 397.162 319.806C397.94 309.735 395.698 294.601 391.433 276.904C387.157 259.158 380.807 238.672 373.259 217.82C358.674 177.524 339.563 135.703 322.206 109.569C327.034 109.87 331.674 110.848 337.665 112.111L337.871 112.154ZM422.856 324.926C422.982 324.832 423.092 324.729 423.151 324.674C423.546 324.306 424.39 323.435 425.807 321.95C426.96 320.742 428.526 319.092 430.593 316.914C433.659 313.683 437.83 309.288 443.399 303.442C466.786 278.891 475.056 261.469 473.894 246.757C472.736 232.099 462.216 220.717 449.938 208.298C442.826 201.105 436.161 191.896 429.661 182.004C426.415 177.063 423.221 171.97 420.038 166.887L419.728 166.392C416.653 161.48 413.586 156.582 410.507 151.872C404.149 142.15 397.677 133.137 390.834 126.337C383.997 119.544 376.64 114.808 368.5 113.924C354.931 112.449 345.824 110.548 338.519 109.008L338.143 108.929C331.714 107.573 326.555 106.485 320.933 106.29C320.338 106.269 319.738 106.258 319.131 106.258H316.09L317.827 108.783C335.416 134.35 355.23 177.355 370.276 218.925C377.793 239.695 384.105 260.063 388.346 277.665C392.6 295.318 394.731 310.028 393.995 319.556C393.99 319.618 393.985 319.681 393.98 319.743C393.613 324.632 393.726 328.54 394.257 331.588C394.792 334.657 395.777 337.002 397.269 338.557C398.818 340.171 400.767 340.781 402.829 340.636C404.826 340.495 406.91 339.654 408.938 338.444C413.001 336.019 417.295 331.835 421.001 327.292C421.635 326.516 422.255 325.725 422.856 324.926Z" fill="#585858"/>
<path d="M262.418 305.275C260.227 307.809 257.323 309.286 254.302 309.705C252.999 309.885 251.675 309.869 250.376 309.657C247.47 309.181 244.693 307.72 242.578 305.275L240.475 302.844C235.178 296.719 237.406 288.128 243.251 284.494C245.404 283.154 248.049 282.488 250.99 282.866C251.991 282.994 253.005 282.994 254.006 282.866C257.782 282.381 261.07 283.617 263.457 285.788C267.974 289.898 269.264 297.36 264.521 302.844L262.418 305.275Z" fill="#2E2E2E"/>
<path d="M260.889 341.672C269.792 348.083 284.401 348.015 305.733 338.093C306.53 337.723 306.879 336.768 306.513 335.962C306.146 335.156 305.203 334.803 304.405 335.174C283.334 344.974 270.178 344.416 262.732 339.054C255.284 333.689 252.772 322.95 254.379 310.446C254.412 310.187 254.383 309.935 254.302 309.705C252.999 309.885 251.675 309.869 250.376 309.657C250.282 309.9 250.246 310.169 250.282 310.446C251.888 322.95 249.377 333.689 241.928 339.054C234.483 344.416 221.326 344.974 200.255 335.174C199.458 334.803 198.515 335.156 198.148 335.962C197.781 336.768 198.131 337.723 198.928 338.093C220.259 348.015 234.868 348.083 243.771 341.672C248.003 338.623 250.77 334.239 252.33 329.09C253.89 334.239 256.657 338.623 260.889 341.672Z" fill="#2E2E2E"/>
<path d="M160.717 216.55C160.194 215.838 159.199 215.69 158.495 216.219C157.791 216.749 157.644 217.755 158.168 218.467C164.06 226.483 174.552 230.288 184.862 230.263C195.174 230.237 205.75 226.382 211.86 218.5C212.401 217.802 212.28 216.792 211.59 216.244C210.899 215.697 209.901 215.819 209.359 216.517C204.024 223.401 194.514 227.025 184.854 227.049C175.191 227.072 165.822 223.494 160.717 216.55Z" fill="#2E2E2E"/>
<path d="M339.22 216.55C339.744 215.838 340.739 215.69 341.443 216.219C342.147 216.749 342.293 217.755 341.77 218.467C335.878 226.483 325.386 230.288 315.076 230.263C304.763 230.237 294.187 226.382 288.078 218.5C287.536 217.802 287.657 216.792 288.348 216.244C289.038 215.697 290.037 215.819 290.578 216.517C295.914 223.401 305.423 227.025 315.084 227.049C324.747 227.072 334.116 223.494 339.22 216.55Z" fill="#2E2E2E"/>
<path fill-rule="evenodd" clip-rule="evenodd" d="M182.173 108.527C164.584 134.094 144.77 177.1 129.724 218.67C122.207 239.439 115.895 259.808 111.654 277.41C108.771 289.371 106.864 299.981 106.162 308.544C116.082 333.789 132.201 355.86 152.618 372.835C153.168 353.848 188.727 281.551 235.286 278.751L235.427 277.526C237.21 262.03 235.467 224.963 231.113 203.544C228.189 189.159 228.573 164.133 230.258 142.621C231.108 131.773 232.307 121.598 233.65 113.831C234.318 109.962 235.041 106.58 235.806 103.972C236.186 102.677 236.612 101.449 237.1 100.403C237.5 99.5451 238.267 98.0675 239.647 97.0624C242.818 94.7533 246.494 92.2941 250 90.9938C250.465 90.8213 250.963 90.6577 251.486 90.5149C227.114 90.6739 204.056 96.4347 183.507 106.588L182.173 108.527ZM158.495 216.219C159.199 215.69 160.194 215.838 160.717 216.55C165.822 223.494 175.191 227.072 184.854 227.049C194.514 227.025 204.024 223.401 209.359 216.517C209.901 215.819 210.899 215.697 211.59 216.244C212.28 216.792 212.401 217.802 211.86 218.5C205.75 226.382 195.174 230.237 184.862 230.263C174.552 230.288 164.06 226.483 158.168 218.467C157.644 217.755 157.791 216.749 158.495 216.219Z" fill="#747474"/>
<path fill-rule="evenodd" clip-rule="evenodd" d="M316.09 106.258H319.131C319.738 106.258 320.338 106.269 320.933 106.29C301.96 97.0169 280.868 91.4812 258.59 90.6275C259.862 91.1231 261.087 91.9478 262.18 93.2239C263.009 94.1907 263.431 95.2952 263.662 96.0229C263.923 96.8399 264.108 97.7268 264.248 98.6038C264.529 100.363 264.693 102.51 264.778 104.861C264.951 109.588 264.822 115.62 264.492 122.038C263.832 134.869 262.343 149.688 260.662 159.502C259.117 168.517 259.088 184.232 259.5 198.819C259.703 206.027 260.009 212.823 260.265 218.186C260.311 219.156 260.356 220.087 260.399 220.971C260.588 224.866 260.732 227.838 260.732 229.113C260.732 229.843 260.992 232.302 261.57 236.243C262.124 240.018 262.914 244.801 263.853 249.913C265.742 260.207 268.181 271.547 270.434 278.652L270.588 279.138C320.371 282.799 351.673 353.529 351.673 373.46C369.687 358.869 383.649 341.02 393.921 319.865L393.98 319.743L393.995 319.556C394.731 310.028 392.6 295.318 388.346 277.665C384.105 260.063 377.793 239.695 370.276 218.925C355.23 177.355 335.416 134.35 317.827 108.783L316.09 106.258ZM341.443 216.219C340.739 215.69 339.744 215.838 339.22 216.55C334.116 223.494 324.747 227.072 315.084 227.049C305.423 227.025 295.914 223.401 290.578 216.517C290.037 215.819 289.038 215.697 288.348 216.244C287.657 216.792 287.536 217.802 288.078 218.5C294.187 226.382 304.763 230.237 315.076 230.263C325.386 230.288 335.878 226.483 341.77 218.467C342.293 217.755 342.147 216.749 341.443 216.219Z" fill="#747474"/>
<path d="M263.662 96.0229C263.431 95.2952 263.009 94.1907 262.18 93.2239C261.087 91.9478 259.862 91.1231 258.59 90.6275C256.577 90.5504 254.555 90.5115 252.524 90.5115C252.178 90.5115 251.832 90.5126 251.486 90.5149C250.963 90.6577 250.465 90.8213 250 90.9938C246.494 92.2941 242.818 94.7533 239.647 97.0624C238.267 98.0675 237.5 99.5451 237.1 100.403C236.612 101.449 236.186 102.677 235.806 103.972C235.041 106.58 234.318 109.962 233.65 113.831C232.307 121.598 231.108 131.773 230.258 142.621C228.573 164.133 228.189 189.159 231.113 203.544C235.467 224.963 237.21 262.03 235.427 277.526L235.286 278.751C240.806 278.419 246.481 279.063 252.271 280.89C256.82 279.696 261.249 279.092 265.549 279.004C267.249 278.97 268.929 279.016 270.588 279.138L270.434 278.652C268.181 271.547 265.742 260.207 263.853 249.913C262.914 244.801 262.124 240.018 261.57 236.243C260.992 232.302 260.732 229.843 260.732 229.113C260.732 227.838 260.588 224.866 260.399 220.971C260.356 220.087 260.311 219.156 260.265 218.186C260.009 212.823 259.703 206.027 259.5 198.819C259.088 184.232 259.117 168.517 260.662 159.502C262.343 149.688 263.832 134.869 264.492 122.038C264.822 115.62 264.951 109.588 264.778 104.861C264.693 102.51 264.529 100.363 264.248 98.6038C264.108 97.7268 263.923 96.8399 263.662 96.0229Z" fill="#BCBCBC"/>
<path fill-rule="evenodd" clip-rule="evenodd" d="M252.259 409H252.271C271.252 409 289.702 405.602 306.553 399.375C306.553 399.375 340.553 385.667 351.673 373.46C351.673 353.529 320.371 282.799 270.588 279.138C268.929 279.016 267.249 278.97 265.549 279.004C261.249 279.092 256.82 279.696 252.271 280.89C246.481 279.063 240.806 278.419 235.286 278.751C188.727 281.551 153.168 353.848 152.618 372.835C179.734 395.38 214.432 408.937 252.259 409ZM242.578 305.275L240.475 302.844C235.178 296.719 237.406 288.128 243.251 284.494C245.404 283.154 248.049 282.488 250.99 282.866C251.991 282.994 253.005 282.994 254.006 282.866C257.782 282.381 261.07 283.617 263.457 285.788C267.974 289.898 269.264 297.36 264.521 302.844L262.418 305.275C260.227 307.809 257.323 309.286 254.302 309.705C254.383 309.935 254.412 310.187 254.379 310.446C252.772 322.95 255.284 333.689 262.732 339.054C270.178 344.416 283.334 344.974 304.405 335.174C305.203 334.803 306.146 335.156 306.513 335.962C306.879 336.768 306.53 337.723 305.733 338.093C284.401 348.015 269.792 348.083 260.889 341.672C256.657 338.623 253.89 334.239 252.33 329.09C250.77 334.239 248.003 338.623 243.771 341.672C234.868 348.083 220.259 348.015 198.928 338.093C198.131 337.723 197.781 336.768 198.148 335.962C198.515 335.156 199.458 334.803 200.255 335.174C221.326 344.974 234.483 344.416 241.928 339.054C249.377 333.689 251.888 322.95 250.282 310.446C250.246 310.169 250.282 309.9 250.376 309.657C247.47 309.181 244.693 307.72 242.578 305.275Z" fill="#BCBCBC"/>
</svg>
