<svg width="500" height="500" viewBox="0 0 500 500" fill="none" xmlns="http://www.w3.org/2000/svg">
<rect width="500" height="500" fill="#959595"/>
<path d="M251.385 342.809C251.58 344.159 251.84 345.5 252.173 346.817L253.433 336.604C253.476 333.35 253.221 330.139 252.768 327.171C252.37 327.199 251.971 327.209 251.573 327.201C250.993 331.02 250.738 335.238 251.028 339.432L251.385 342.809Z" fill="#2E2E2E"/>
<path d="M254.717 326.19C254.861 325.389 254.331 324.623 253.532 324.478C253.01 324.384 252.501 324.58 252.173 324.951C252.346 325.147 252.469 325.391 252.519 325.668C252.607 326.161 252.691 326.662 252.768 327.171C253.38 327.128 253.99 327.042 254.593 326.913C254.633 326.671 254.675 326.43 254.717 326.19Z" fill="#2E2E2E"/>
<path d="M250.813 324.478C250.015 324.623 249.484 325.389 249.628 326.19C249.678 326.471 249.727 326.755 249.774 327.041C250.37 327.135 250.971 327.189 251.573 327.201C251.652 326.682 251.736 326.171 251.827 325.668C251.876 325.391 252 325.147 252.173 324.951C251.844 324.58 251.336 324.384 250.813 324.478Z" fill="#2E2E2E"/>
<path d="M250.472 334.172L251.028 339.432C250.738 335.238 250.993 331.02 251.573 327.201C250.971 327.189 250.37 327.135 249.774 327.041C250.143 329.301 250.392 331.712 250.472 334.172Z" fill="#2E2E2E"/>
<path d="M196.981 355.373C222.836 368.571 237.999 367.039 246.104 358.492C249.154 355.276 251.068 351.182 252.173 346.817C251.84 345.5 251.58 344.159 251.385 342.809C251.224 341.691 251.106 340.562 251.028 339.432L250.472 334.172C250.561 336.897 250.444 339.682 250.053 342.387C249.264 347.852 247.382 352.869 243.976 356.46C237.33 363.468 223.956 365.836 198.313 352.745C197.59 352.376 196.706 352.665 196.338 353.391C195.97 354.117 196.258 355.004 196.981 355.373Z" fill="#2E2E2E"/>
<path d="M258.242 358.492C266.346 367.039 281.51 368.571 307.364 355.373C308.087 355.004 308.375 354.117 308.008 353.391C307.64 352.665 306.756 352.376 306.033 352.745C280.389 365.836 267.015 363.468 260.369 356.46C256.964 352.869 255.081 347.852 254.292 342.387C253.809 339.038 253.744 335.567 253.971 332.237L253.433 336.604C253.405 338.672 253.256 340.758 252.96 342.809C252.765 344.159 252.506 345.5 252.173 346.817C253.277 351.182 255.192 355.276 258.242 358.492Z" fill="#2E2E2E"/>
<path d="M252.768 327.171C253.221 330.139 253.476 333.35 253.433 336.604L253.971 332.237C254.097 330.405 254.311 328.616 254.593 326.913C253.99 327.042 253.38 327.128 252.768 327.171Z" fill="#2E2E2E"/>
<path d="M169.125 319.068C157.966 311.996 140.163 301.696 121.707 292.965C110.855 287.831 99.6962 283.198 89.4929 280.1C89.5555 281.154 89.629 282.204 89.7134 283.252C99.3725 286.268 109.979 290.676 120.455 295.632C138.651 304.24 156.223 314.392 167.312 321.406C167.881 320.622 168.486 319.842 169.125 319.068Z" fill="#2E2E2E"/>
<path d="M162.085 331.078C162.409 330.177 162.781 329.268 163.201 328.356C150.304 325.236 132.098 321.515 113.817 319.146C108.03 318.397 102.214 317.779 96.5415 317.36C96.8689 318.366 97.2066 319.367 97.5547 320.363C102.77 320.771 108.128 321.347 113.5 322.043C131.435 324.366 149.31 328.003 162.085 331.078Z" fill="#2E2E2E"/>
<path d="M160.803 342.662C160.618 341.715 160.514 340.759 160.497 339.795C147.433 341.013 129.928 343.254 112.785 346.665C111.864 346.848 110.944 347.035 110.026 347.225C110.544 348.106 111.072 348.981 111.608 349.851C112.214 349.727 112.82 349.605 113.428 349.484C130.445 346.098 147.834 343.872 160.803 342.662Z" fill="#2E2E2E"/>
<path d="M329.677 313.659C330.428 314.362 331.146 315.079 331.829 315.805C342.347 309.55 355.765 302.149 369.539 295.632C385.379 288.137 401.519 281.899 414.229 279.824C414.287 278.824 414.334 277.822 414.372 276.818C401.063 278.874 384.339 285.37 368.287 292.965C354.132 299.662 340.361 307.281 329.677 313.659Z" fill="#2E2E2E"/>
<path d="M376.183 319.146C363.044 320.849 349.945 323.249 338.827 325.624C339.29 326.526 339.708 327.43 340.081 328.33C350.976 326.02 363.723 323.698 376.5 322.043C386.816 320.706 397.083 319.814 406.382 319.696C406.717 318.724 407.042 317.747 407.357 316.766C397.587 316.834 386.836 317.766 376.183 319.146Z" fill="#2E2E2E"/>
<path d="M341.84 344.019C352.494 345.302 364.622 347.107 376.566 349.484C381.253 350.417 385.897 351.434 390.403 352.539C390.954 351.685 391.497 350.825 392.031 349.96C387.187 348.756 382.205 347.659 377.21 346.665C365.232 344.282 353.079 342.47 342.386 341.179C342.287 342.135 342.104 343.082 341.84 344.019Z" fill="#2E2E2E"/>
<path d="M427.943 366.987C428.608 367.455 429.549 367.314 430.045 366.671C430.542 366.029 430.405 365.129 429.74 364.661C421.113 358.59 407.255 353.743 392.031 349.96C391.497 350.825 390.954 351.685 390.403 352.539C405.806 356.316 419.59 361.109 427.943 366.987Z" fill="#2E2E2E"/>
<path d="M431.068 322.171C431.848 322.397 432.682 321.953 432.93 321.178C433.178 320.404 432.747 319.593 431.967 319.367C425.33 317.442 416.802 316.7 407.357 316.766C407.042 317.747 406.717 318.724 406.382 319.696C415.979 319.575 424.545 320.279 431.068 322.171Z" fill="#2E2E2E"/>
<path d="M421.3 279.105C422.111 279.082 422.749 278.403 422.726 277.589C422.702 276.775 422.026 276.135 421.215 276.158C419.061 276.221 416.772 276.447 414.372 276.818C414.334 277.822 414.287 278.824 414.229 279.824C416.728 279.416 419.095 279.169 421.3 279.105Z" fill="#2E2E2E"/>
<path d="M59.9487 366.671C60.445 367.314 61.3864 367.455 62.0515 366.987C72.5312 359.613 91.5596 353.945 111.608 349.851C111.072 348.981 110.544 348.106 110.026 347.225C90.2852 351.31 71.12 357.014 60.2544 364.661C59.5893 365.129 59.4525 366.029 59.9487 366.671Z" fill="#2E2E2E"/>
<path d="M57.0702 321.178C57.3183 321.953 58.1517 322.397 58.9316 322.171C68.4849 319.4 82.4177 319.178 97.5547 320.363C97.2066 319.367 96.8689 318.366 96.5415 317.36C81.6787 316.264 67.8052 316.533 58.033 319.367C57.2531 319.593 56.822 320.404 57.0702 321.178Z" fill="#2E2E2E"/>
<path d="M67.2684 277.589C67.245 278.403 67.8833 279.082 68.694 279.105C74.6983 279.279 81.8954 280.81 89.7134 283.252C89.629 282.204 89.5555 281.154 89.4929 280.1C81.8817 277.79 74.8023 276.333 68.7787 276.158C67.9679 276.135 67.2917 276.775 67.2684 277.589Z" fill="#2E2E2E"/>
<path d="M329.156 242.39C329.438 241.626 329.049 240.778 328.288 240.496C327.528 240.214 326.683 240.604 326.401 241.367C323.268 249.872 316.775 254.931 309.157 256.977C301.501 259.033 292.716 258.035 285.198 254.347C284.47 253.989 283.59 254.292 283.234 255.024C282.878 255.755 283.18 256.638 283.909 256.996C292.012 260.97 301.523 262.079 309.916 259.825C318.348 257.561 325.656 251.892 329.156 242.39Z" fill="#2E2E2E"/>
<path d="M252.173 324.951C252 325.147 251.876 325.391 251.827 325.668C251.736 326.171 251.652 326.682 251.573 327.201C251.971 327.209 252.37 327.199 252.768 327.171C252.691 326.662 252.607 326.161 252.519 325.668C252.469 325.391 252.346 325.147 252.173 324.951Z" fill="#2E2E2E"/>
<path d="M252.173 346.817C252.506 345.5 252.765 344.159 252.96 342.809C253.256 340.758 253.405 338.672 253.433 336.604L252.173 346.817Z" fill="#2E2E2E"/>
<path d="M240.077 320.676L242.14 322.929C244.227 325.208 246.912 326.575 249.717 327.032L249.628 326.19C249.484 325.389 250.015 324.623 250.813 324.478C251.336 324.384 251.844 324.58 252.173 324.951C252.501 324.58 253.01 324.384 253.532 324.478C254.331 324.623 254.861 325.389 254.717 326.19L254.629 326.906C257.191 326.352 259.618 325.026 261.539 322.929L263.603 320.676C270.28 313.384 265.806 302.212 257.04 300.589C255.861 300.37 254.604 300.325 253.286 300.484C252.325 300.601 251.354 300.601 250.394 300.484C249.133 300.331 247.928 300.367 246.793 300.561C237.926 302.082 233.36 313.341 240.077 320.676Z" fill="#2E2E2E"/>
<path fill-rule="evenodd" clip-rule="evenodd" d="M108.196 100.886C136.174 106.737 148.481 110.777 169.197 129.724C171.083 131.449 172.393 133.272 173.198 135.167C149.993 147.439 130.261 164.972 115.768 186.08C110.194 166.754 101.843 126.29 108.196 100.886Z" fill="#C6C6C6"/>
<path d="M108.196 100.886C136.174 106.737 148.481 110.777 169.197 129.724C171.083 131.449 172.393 133.272 173.198 135.167C181.872 130.58 191.032 126.727 200.586 123.699C164.68 91.4095 142.531 84.2642 93.3274 74C83.5433 113.023 93.226 171.934 102.48 209.641C106.208 201.393 110.663 193.515 115.768 186.08C110.194 166.754 101.843 126.29 108.196 100.886Z" fill="#595959"/>
<path d="M116.488 188.513C138.879 180.198 181.226 154.082 173.198 135.167C149.993 147.439 130.261 164.972 115.768 186.08C116.014 186.934 116.255 187.746 116.488 188.513Z" fill="#595959"/>
<path fill-rule="evenodd" clip-rule="evenodd" d="M395.36 100.886C367.383 106.737 355.075 110.777 334.36 129.724C332.495 131.43 331.193 133.231 330.386 135.103C353.588 147.347 373.323 164.849 387.833 185.927C393.406 166.54 401.696 126.223 395.36 100.886Z" fill="#C6C6C6"/>
<path d="M387.068 188.513C387.316 187.7 387.571 186.836 387.833 185.927C373.323 164.849 353.588 147.347 330.386 135.103C322.233 154.023 364.652 180.189 387.068 188.513Z" fill="#595959"/>
<path d="M334.36 129.724C355.075 110.777 367.383 106.737 395.36 100.886C401.696 126.223 393.406 166.54 387.833 185.927C392.937 193.342 397.395 201.2 401.129 209.427C410.367 171.712 419.995 112.949 410.229 74.0001C361.044 84.2605 338.893 91.4044 303.01 123.664C312.558 126.684 321.714 130.526 330.386 135.103C331.193 133.231 332.495 131.43 334.36 129.724Z" fill="#595959"/>
<path fill-rule="evenodd" clip-rule="evenodd" d="M154.386 245.518C154.386 263.254 154.386 277.631 188.005 277.631C221.625 277.631 221.625 263.254 221.625 245.518C221.625 227.782 206.573 213.405 188.005 213.405C169.438 213.405 154.386 227.782 154.386 245.518ZM166.04 240.496C165.279 240.778 164.891 241.626 165.172 242.39C168.673 251.892 175.981 257.561 184.412 259.825C192.806 262.079 202.317 260.97 210.42 256.996C211.149 256.638 211.451 255.755 211.094 255.024C210.738 254.292 209.859 253.989 209.13 254.347C201.612 258.035 192.827 259.033 185.172 256.977C177.554 254.931 171.06 249.872 167.927 241.367C167.646 240.604 166.801 240.214 166.04 240.496Z" fill="#BEBEBE"/>
<path fill-rule="evenodd" clip-rule="evenodd" d="M340.111 245.524C340.111 263.259 340.111 277.637 306.491 277.637C272.871 277.637 272.872 263.259 272.872 245.524C272.872 227.788 287.924 213.41 306.491 213.41C325.059 213.41 340.111 227.788 340.111 245.524ZM328.288 240.496C329.049 240.778 329.438 241.626 329.156 242.39C325.656 251.892 318.348 257.561 309.916 259.825C301.523 262.079 292.012 260.97 283.909 256.996C283.18 256.638 282.878 255.755 283.234 255.024C283.59 254.292 284.47 253.989 285.198 254.347C292.716 258.035 301.501 259.033 309.157 256.977C316.775 254.931 323.268 249.872 326.401 241.367C326.683 240.604 327.528 240.214 328.288 240.496Z" fill="#BEBEBE"/>
<path fill-rule="evenodd" clip-rule="evenodd" d="M369.539 295.632C385.379 288.137 401.519 281.899 414.229 279.824C413.493 292.611 411.138 304.987 407.357 316.766C397.587 316.834 386.836 317.766 376.183 319.146C363.044 320.849 349.945 323.249 338.827 325.624C337.112 322.277 334.784 318.944 331.829 315.805C342.347 309.55 355.765 302.149 369.539 295.632ZM376.5 322.043C386.816 320.706 397.083 319.814 406.382 319.696C402.721 330.338 397.889 340.472 392.031 349.96C387.187 348.756 382.205 347.659 377.21 346.665C365.232 344.282 353.079 342.47 342.386 341.179C342.444 340.622 342.473 340.062 342.473 339.499C342.473 336.008 341.684 332.192 340.081 328.33C350.976 326.02 363.723 323.698 376.5 322.043ZM390.403 352.539C385.897 351.434 381.253 350.417 376.566 349.484C364.622 347.107 352.494 345.302 341.84 344.019C336.501 362.926 298.083 377.591 251.484 377.591C203.776 377.591 164.643 362.22 160.803 342.662C147.834 343.872 130.445 346.098 113.428 349.484C112.82 349.605 112.214 349.727 111.608 349.851C139.875 395.719 192.101 426.5 251.853 426.5C310.43 426.5 361.774 396.917 390.403 352.539ZM112.785 346.665C111.864 346.848 110.944 347.035 110.026 347.225C105.023 338.734 100.833 329.748 97.5547 320.363C102.77 320.771 108.128 321.347 113.5 322.043C131.435 324.366 149.31 328.003 162.085 331.078C161.032 334.009 160.494 336.859 160.494 339.499C160.494 339.598 160.495 339.696 160.497 339.795C147.433 341.013 129.928 343.254 112.785 346.665ZM96.5415 317.36C102.214 317.779 108.03 318.397 113.817 319.146C132.098 321.515 150.304 325.236 163.201 328.356C164.267 326.044 165.64 323.707 167.312 321.406C156.223 314.392 138.651 304.24 120.455 295.632C109.979 290.676 99.3725 286.268 89.7134 283.252C90.6634 295.039 92.9906 306.457 96.5415 317.36ZM249.717 327.032L250.472 334.172C250.392 331.712 250.143 329.301 249.774 327.041C249.727 326.755 249.678 326.471 249.628 326.19L249.717 327.032ZM254.629 326.906L254.717 326.19C254.675 326.43 254.633 326.671 254.593 326.913C254.311 328.616 254.097 330.405 253.971 332.237L254.629 326.906ZM251.028 339.432C251.106 340.562 251.224 341.691 251.385 342.809L251.028 339.432ZM328.288 240.496C329.049 240.778 329.438 241.626 329.156 242.39C325.656 251.892 318.348 257.561 309.916 259.825C301.523 262.079 292.012 260.97 283.909 256.996C283.18 256.638 282.878 255.755 283.234 255.024C283.59 254.292 284.47 253.989 285.198 254.347C292.716 258.035 301.501 259.033 309.157 256.977C316.775 254.931 323.268 249.872 326.401 241.367C326.683 240.604 327.528 240.214 328.288 240.496Z" fill="#595959"/>
<path d="M165.172 242.39C164.891 241.626 165.279 240.778 166.04 240.496C166.801 240.214 167.646 240.604 167.927 241.367C171.06 249.872 177.554 254.931 185.172 256.977C192.827 259.033 201.612 258.035 209.13 254.347C209.859 253.989 210.738 254.292 211.094 255.024C211.451 255.755 211.149 256.638 210.42 256.996C202.317 260.97 192.806 262.079 184.412 259.825C175.981 257.561 168.673 251.892 165.172 242.39Z" fill="#2E2E2E"/>
<path fill-rule="evenodd" clip-rule="evenodd" d="M250.394 300.484C251.354 300.601 252.325 300.601 253.286 300.484C254.604 300.325 255.861 300.37 257.04 300.589C292.504 292.72 316.38 301.208 329.677 313.659C340.361 307.281 354.132 299.662 368.287 292.965C384.339 285.37 401.063 278.874 414.372 276.818C414.442 274.94 414.478 273.055 414.478 271.161C414.478 249.224 409.717 228.349 401.129 209.427C397.395 201.2 392.937 193.342 387.833 185.927C387.571 186.836 387.316 187.7 387.068 188.513C364.652 180.189 322.233 154.023 330.386 135.103C321.714 130.526 312.558 126.684 303.01 123.664C286.924 118.576 269.725 115.822 251.853 115.822C233.94 115.822 216.703 118.588 200.586 123.699C191.032 126.727 181.872 130.58 173.198 135.167C181.226 154.082 138.879 180.198 116.488 188.513C116.255 187.746 116.014 186.934 115.768 186.08C110.663 193.515 106.208 201.393 102.48 209.641C93.9529 228.506 89.2281 249.307 89.2281 271.161C89.2281 274.161 89.3172 277.142 89.4929 280.1C99.6962 283.198 110.855 287.831 121.707 292.965C140.163 301.696 157.966 311.996 169.125 319.068C182.097 303.357 209.173 290.401 246.793 300.561C247.928 300.367 249.133 300.331 250.394 300.484ZM188.005 277.631C154.386 277.631 154.386 263.254 154.386 245.518C154.386 227.782 169.438 213.405 188.005 213.405C206.573 213.405 221.625 227.782 221.625 245.518C221.625 263.254 221.625 277.631 188.005 277.631ZM306.491 277.637C340.111 277.637 340.111 263.259 340.111 245.524C340.111 227.788 325.059 213.41 306.491 213.41C287.924 213.41 272.872 227.788 272.872 245.524C272.872 263.259 272.871 277.637 306.491 277.637Z" fill="#595959"/>
<path d="M242.14 322.929L240.077 320.676C233.36 313.341 237.926 302.082 246.793 300.561C209.173 290.401 182.097 303.357 169.125 319.068C168.486 319.842 167.881 320.622 167.312 321.406C165.64 323.707 164.267 326.044 163.201 328.356C162.781 329.268 162.409 330.177 162.085 331.078C161.032 334.009 160.494 336.859 160.494 339.499C160.494 339.598 160.495 339.696 160.497 339.795C160.514 340.759 160.618 341.715 160.803 342.662C164.643 362.22 203.776 377.591 251.484 377.591C298.083 377.591 336.501 362.926 341.84 344.019C342.104 343.082 342.287 342.135 342.386 341.179C342.444 340.622 342.473 340.062 342.473 339.499C342.473 336.008 341.684 332.192 340.081 328.33C339.708 327.43 339.29 326.526 338.827 325.624C337.112 322.277 334.784 318.944 331.829 315.805C331.146 315.079 330.428 314.362 329.677 313.659C316.38 301.208 292.504 292.72 257.04 300.589C265.806 302.212 270.28 313.384 263.603 320.676L261.539 322.929C259.618 325.026 257.191 326.352 254.629 326.906L253.971 332.237C253.744 335.567 253.809 339.038 254.292 342.387C255.081 347.852 256.964 352.869 260.369 356.46C267.015 363.468 280.389 365.836 306.033 352.745C306.756 352.376 307.64 352.665 308.008 353.391C308.375 354.117 308.087 355.004 307.364 355.373C281.51 368.571 266.346 367.039 258.242 358.492C255.192 355.276 253.277 351.182 252.173 346.817C251.068 351.182 249.154 355.276 246.104 358.492C237.999 367.039 222.836 368.571 196.981 355.373C196.258 355.004 195.97 354.117 196.338 353.391C196.706 352.665 197.59 352.376 198.313 352.745C223.956 365.836 237.33 363.468 243.976 356.46C247.382 352.869 249.264 347.852 250.053 342.387C250.444 339.682 250.561 336.897 250.472 334.172L249.717 327.032C246.912 326.575 244.227 325.208 242.14 322.929Z" fill="#BEBEBE"/>
</svg>
