<svg width="500" height="500" viewBox="0 0 500 500" fill="none" xmlns="http://www.w3.org/2000/svg">
<rect width="500" height="500" fill="#959595"/>
<path d="M253.336 309.967C251.913 310.22 250.453 310.21 249.033 309.937C248.771 311.463 248.63 312.983 248.625 314.48L248.624 314.529C248.62 317.424 249.122 320.232 250.234 322.828C250.502 323.454 250.804 324.063 251.139 324.654C251.501 324.028 251.825 323.38 252.11 322.714C253.205 320.157 253.709 317.396 253.719 314.548L253.72 314.482C253.721 312.995 253.589 311.484 253.336 309.967Z" fill="#2E2E2E"/>
<path d="M193.612 330.234C216.612 337.114 232.34 337.173 242.022 332.69C246.172 330.767 249.203 328.009 251.139 324.654C250.804 324.063 250.502 323.454 250.234 322.828C249.122 320.232 248.62 317.424 248.624 314.529C248.616 316.781 248.217 318.855 247.428 320.697C246.152 323.676 243.769 326.252 239.885 328.05C231.95 331.725 217.759 332.124 195.068 325.337C193.72 324.934 192.301 325.703 191.899 327.056C191.497 328.408 192.264 329.831 193.612 330.234Z" fill="#2E2E2E"/>
<path d="M260.322 332.804C270.004 337.288 285.732 337.228 308.732 330.348C310.08 329.945 310.847 328.522 310.445 327.17C310.043 325.817 308.624 325.048 307.276 325.451C284.585 332.238 270.393 331.839 262.459 328.164C258.575 326.366 256.192 323.79 254.915 320.811C254.116 318.944 253.717 316.836 253.719 314.548C253.709 317.396 253.205 320.157 252.11 322.714C251.825 323.38 251.501 324.028 251.139 324.654C253.073 328.061 256.125 330.86 260.322 332.804Z" fill="#2E2E2E"/>
<path d="M241.223 305.014L242.994 306.758C244.477 308.218 246.248 309.207 248.122 309.724C248.005 308.441 248.871 307.249 250.159 306.991C250.603 306.901 251.044 306.934 251.447 307.065C251.687 307.043 251.936 307.055 252.185 307.105C253.452 307.359 254.309 308.515 254.227 309.773C256.169 309.271 258.008 308.266 259.539 306.758L261.31 305.014C268.725 297.715 262.782 285.133 252.454 286.263C251.665 286.349 250.869 286.349 250.079 286.263C239.751 285.133 233.808 297.715 241.223 305.014Z" fill="#2E2E2E"/>
<path fill-rule="evenodd" clip-rule="evenodd" d="M196.831 141.364C196.831 161.999 177.405 178.728 153.442 178.728C145.462 178.728 137.986 176.873 131.562 173.636C108.144 197.193 94 227.79 94 261.231C94 335.662 164.067 396 250.5 396C336.933 396 407 335.662 407 261.231C407 228.175 393.18 197.899 370.244 174.453C364.218 177.183 357.355 178.728 350.073 178.728C326.11 178.728 306.685 161.999 306.685 141.364C306.685 139.397 306.861 137.465 307.201 135.58C289.62 129.692 270.498 126.462 250.5 126.462C231.395 126.462 213.09 129.41 196.165 134.806C196.603 136.935 196.831 139.127 196.831 141.364ZM235.181 241.514C244.874 227.96 236.871 216.25 227.616 211.06C167.265 184.506 112.208 249.829 136.077 269.676C159.946 289.523 223.064 258.457 235.181 241.514ZM270.71 241.514C261.017 227.96 269.019 216.25 278.275 211.06C338.626 184.506 393.683 249.829 369.814 269.676C345.945 289.523 282.827 258.457 270.71 241.514ZM242.994 306.758L241.223 305.014C233.808 297.715 239.751 285.133 250.079 286.263C250.869 286.349 251.665 286.349 252.454 286.263C262.782 285.133 268.725 297.715 261.31 305.014L259.539 306.758C258.008 308.266 256.169 309.271 254.227 309.773C254.22 309.885 254.205 309.998 254.183 310.112C253.88 311.626 253.726 313.087 253.72 314.482L253.719 314.548C253.717 316.836 254.116 318.944 254.915 320.811C256.192 323.79 258.575 326.366 262.459 328.164C270.393 331.839 284.585 332.238 307.276 325.451C308.624 325.048 310.043 325.817 310.445 327.17C310.847 328.522 310.08 329.945 308.732 330.348C285.732 337.228 270.004 337.288 260.322 332.804C256.125 330.86 253.073 328.061 251.139 324.654C249.203 328.009 246.172 330.767 242.022 332.69C232.34 337.173 216.612 337.114 193.612 330.234C192.264 329.831 191.497 328.408 191.899 327.056C192.301 325.703 193.72 324.934 195.068 325.337C217.759 332.124 231.95 331.725 239.885 328.05C243.769 326.252 246.152 323.676 247.428 320.697C248.217 318.855 248.616 316.781 248.624 314.529L248.625 314.48C248.627 313.052 248.472 311.553 248.161 309.998C248.143 309.906 248.13 309.815 248.122 309.724C246.248 309.207 244.477 308.218 242.994 306.758Z" fill="#ACACAC"/>
<path fill-rule="evenodd" clip-rule="evenodd" d="M278.275 211.06C269.019 216.25 261.017 227.96 270.71 241.514C282.827 258.457 345.945 289.523 369.814 269.676C393.683 249.829 338.626 184.506 278.275 211.06ZM285.479 226.509C284.201 227.101 283.644 228.619 284.234 229.9C286.219 234.209 290.405 237.049 295.096 238.827C299.836 240.624 305.466 241.487 310.97 241.592C316.48 241.698 322.018 241.049 326.605 239.711C331.029 238.421 335.193 236.308 337.101 233.008C337.807 231.787 337.392 230.223 336.175 229.516C334.957 228.808 333.398 229.224 332.693 230.445C331.826 231.944 329.352 233.588 325.182 234.805C321.173 235.974 316.159 236.581 311.068 236.483C305.972 236.385 300.95 235.584 296.897 234.048C292.796 232.493 290.046 230.33 288.86 227.757C288.27 226.476 286.756 225.917 285.479 226.509Z" fill="#4F4F4F"/>
<path d="M225.246 229.9C225.836 228.619 225.279 227.101 224.002 226.509C222.725 225.917 221.211 226.476 220.621 227.757C219.435 230.33 216.685 232.493 212.583 234.048C208.53 235.584 203.509 236.385 198.412 236.483C193.321 236.581 188.307 235.974 184.299 234.805C180.128 233.588 177.654 231.944 176.788 230.445C176.082 229.224 174.523 228.808 173.306 229.516C172.089 230.223 171.674 231.787 172.38 233.008C174.287 236.308 178.451 238.421 182.876 239.711C187.462 241.049 193 241.698 198.51 241.592C204.015 241.487 209.645 240.624 214.385 238.827C219.076 237.049 223.261 234.209 225.246 229.9Z" fill="#2E2E2E"/>
<path d="M284.234 229.9C283.644 228.619 284.201 227.101 285.479 226.509C286.756 225.917 288.27 226.476 288.86 227.757C290.046 230.33 292.796 232.493 296.897 234.048C300.95 235.584 305.972 236.385 311.068 236.483C316.159 236.581 321.173 235.974 325.182 234.805C329.352 233.588 331.826 231.944 332.693 230.445C333.398 229.224 334.957 228.808 336.175 229.516C337.392 230.223 337.807 231.787 337.101 233.008C335.193 236.308 331.029 238.421 326.605 239.711C322.018 241.049 316.48 241.698 310.97 241.592C305.466 241.487 299.836 240.624 295.096 238.827C290.405 237.049 286.219 234.209 284.234 229.9Z" fill="#2E2E2E"/>
<path fill-rule="evenodd" clip-rule="evenodd" d="M227.616 211.06C236.871 216.25 244.874 227.96 235.181 241.514C223.064 258.457 159.946 289.523 136.077 269.676C112.208 249.829 167.265 184.506 227.616 211.06ZM224.002 226.509C225.279 227.101 225.836 228.619 225.246 229.9C223.261 234.209 219.076 237.049 214.385 238.827C209.645 240.624 204.015 241.487 198.51 241.592C193 241.698 187.462 241.049 182.876 239.711C178.451 238.421 174.287 236.308 172.38 233.008C171.674 231.787 172.089 230.223 173.306 229.516C174.523 228.808 176.082 229.224 176.788 230.445C177.654 231.944 180.128 233.588 184.299 234.805C188.307 235.974 193.321 236.581 198.412 236.483C203.509 236.385 208.53 235.584 212.583 234.048C216.685 232.493 219.435 230.33 220.621 227.757C221.211 226.476 222.725 225.917 224.002 226.509Z" fill="#4F4F4F"/>
<path d="M153.442 178.728C177.405 178.728 196.831 161.999 196.831 141.364C196.831 139.127 196.603 136.935 196.165 134.806C188.637 137.206 181.382 140.091 174.451 143.415C174.654 144.433 174.76 145.48 174.76 146.548C174.76 156.687 165.216 164.906 153.442 164.906C149.881 164.906 146.523 164.154 143.572 162.824C139.342 166.234 135.332 169.844 131.562 173.636C137.986 176.873 145.462 178.728 153.442 178.728Z" fill="#ACACAC"/>
<path d="M153.442 164.906C165.216 164.906 174.76 156.687 174.76 146.548C174.76 145.48 174.654 144.433 174.451 143.415C163.238 148.794 152.873 155.326 143.572 162.824C146.523 164.154 149.881 164.906 153.442 164.906Z" fill="#ACACAC"/>
<path d="M153.442 104C129.479 104 110.054 120.728 110.054 141.364C110.054 155.127 118.696 167.153 131.562 173.636C135.332 169.844 139.342 166.234 143.572 162.824C136.767 159.757 132.124 153.62 132.124 146.548C132.124 136.409 141.669 128.19 153.442 128.19C163.976 128.19 172.725 134.769 174.451 143.415C181.382 140.091 188.637 137.206 196.165 134.806C192.565 117.298 174.807 104 153.442 104Z" fill="#2E2E2E"/>
<path d="M393.462 141.364C393.462 120.728 374.036 104 350.073 104C328.395 104 310.43 117.691 307.201 135.58C314.727 138.1 321.97 141.107 328.879 144.556C330.032 135.354 339.081 128.19 350.073 128.19C361.847 128.19 371.391 136.409 371.391 146.548C371.391 154.188 365.972 160.737 358.264 163.502C362.488 166.957 366.488 170.614 370.244 174.453C384.049 168.2 393.462 155.729 393.462 141.364Z" fill="#2E2E2E"/>
<path fill-rule="evenodd" clip-rule="evenodd" d="M143.572 162.824C152.873 155.326 163.238 148.794 174.451 143.415C172.725 134.769 163.976 128.19 153.442 128.19C141.669 128.19 132.124 136.409 132.124 146.548C132.124 153.62 136.767 159.757 143.572 162.824ZM358.264 163.502C349.392 156.245 339.534 149.875 328.879 144.556C330.032 135.354 339.081 128.19 350.073 128.19C361.847 128.19 371.391 136.409 371.391 146.548C371.391 154.188 365.972 160.737 358.264 163.502Z" fill="#4F4F4F"/>
<path d="M249.033 309.937C250.453 310.21 251.913 310.22 253.336 309.967C253.282 309.643 253.222 309.318 253.157 308.994C252.97 308.056 252.293 307.342 251.447 307.065C250.355 307.168 249.413 307.974 249.187 309.108C249.131 309.384 249.08 309.661 249.033 309.937Z" fill="#2E2E2E"/>
<path d="M249.033 309.937C249.08 309.661 249.131 309.384 249.187 309.108C249.413 307.974 250.355 307.168 251.447 307.065C251.044 306.934 250.603 306.901 250.159 306.991C248.871 307.249 248.005 308.441 248.122 309.724C248.423 309.807 248.727 309.878 249.033 309.937Z" fill="#2E2E2E"/>
<path d="M253.157 308.994C253.222 309.318 253.282 309.643 253.336 309.967C253.635 309.914 253.932 309.849 254.227 309.773C254.309 308.515 253.452 307.359 252.185 307.105C251.936 307.055 251.687 307.043 251.447 307.065C252.293 307.342 252.97 308.056 253.157 308.994Z" fill="#2E2E2E"/>
<path d="M253.336 309.967C253.589 311.484 253.721 312.995 253.72 314.482C253.726 313.087 253.88 311.626 254.183 310.112C254.205 309.998 254.22 309.885 254.227 309.773C253.932 309.849 253.635 309.914 253.336 309.967Z" fill="#2E2E2E"/>
<path d="M248.625 314.48C248.63 312.983 248.771 311.463 249.033 309.937C248.727 309.878 248.423 309.807 248.122 309.724C248.13 309.815 248.143 309.906 248.161 309.998C248.472 311.553 248.627 313.052 248.625 314.48Z" fill="#2E2E2E"/>
<path d="M328.755 146.548C328.755 156.687 338.3 164.906 350.073 164.906C352.975 164.906 355.742 164.406 358.264 163.502C349.392 156.245 339.534 149.875 328.879 144.556C328.797 145.21 328.755 145.875 328.755 146.548Z" fill="#ACACAC"/>
<path d="M306.685 141.364C306.685 161.999 326.11 178.728 350.073 178.728C357.355 178.728 364.218 177.183 370.244 174.453C366.488 170.614 362.488 166.957 358.264 163.502C355.742 164.406 352.975 164.906 350.073 164.906C338.3 164.906 328.755 156.687 328.755 146.548C328.755 145.875 328.797 145.21 328.879 144.556C321.97 141.107 314.727 138.1 307.201 135.58C306.861 137.465 306.685 139.397 306.685 141.364Z" fill="#ACACAC"/>
</svg>
