<svg width="500" height="500" viewBox="0 0 500 500" fill="none" xmlns="http://www.w3.org/2000/svg">
<rect width="500" height="500" fill="#F2B5B5"/>
<path d="M427.999 216.315C427.999 251.514 348.298 280.048 249.981 280.048C151.664 280.048 71.9629 251.514 71.9629 216.315C71.9629 129.506 151.664 152.582 249.981 152.582C348.298 152.582 427.999 132.583 427.999 216.315Z" fill="#212121"/>
<path d="M168.684 227.962C163.916 276.189 152.822 371.911 90.6914 356.967C56.7622 343.561 63.0098 295.309 67.7781 247.082C72.5464 198.856 71.0829 151.482 127.375 176.059C158.011 179.073 173.453 179.736 168.684 227.962Z" fill="#212121"/>
<path d="M330.878 227.967C335.646 276.193 346.741 371.916 408.871 356.972C442.8 343.566 436.553 295.313 431.784 247.087C427.016 198.861 428.479 151.487 372.187 176.064C341.551 179.078 326.109 179.741 330.878 227.967Z" fill="#212121"/>
<path d="M186.749 313.892C209.99 313.892 228.83 297.264 228.83 276.751C228.83 256.239 209.99 239.61 186.749 239.61C163.508 239.61 144.668 256.239 144.668 276.751C144.668 297.264 163.508 313.892 186.749 313.892Z" fill="#212121"/>
<path d="M310.128 313.892C333.369 313.892 352.209 297.264 352.209 276.751C352.209 256.239 333.369 239.61 310.128 239.61C286.887 239.61 268.047 256.239 268.047 276.751C268.047 297.264 286.887 313.892 310.128 313.892Z" fill="#212121"/>
<path d="M188.072 164.669C188.072 181.054 169.232 194.338 145.991 194.338C122.751 194.338 103.91 181.054 103.91 164.669C103.911 135 122.751 135 145.991 135C169.232 135 188.072 135 188.072 164.669Z" fill="#212121"/>
<path d="M395.613 164.889C395.613 181.274 376.773 194.558 353.532 194.558C330.292 194.558 311.451 181.274 311.451 164.889C311.452 135.22 330.292 135.22 353.532 135.22C376.773 135.22 395.613 135.22 395.613 164.889Z" fill="#212121"/>
<path fill-rule="evenodd" clip-rule="evenodd" d="M152.601 159.345C128.598 159.345 109.145 178.754 109.145 202.689C109.145 226.624 128.598 246.033 152.601 246.033C176.604 246.033 196.057 226.624 196.057 202.689C196.057 178.754 176.604 159.345 152.601 159.345ZM105.285 202.689C105.285 176.618 126.472 155.488 152.601 155.488C178.73 155.488 199.917 176.618 199.917 202.689C199.917 228.761 178.73 249.891 152.601 249.891C126.472 249.891 105.285 228.761 105.285 202.689Z" fill="#DADADA"/>
<path fill-rule="evenodd" clip-rule="evenodd" d="M348.244 159.345C324.24 159.345 304.788 178.754 304.788 202.689C304.788 226.624 324.24 246.033 348.244 246.033C372.247 246.033 391.699 226.624 391.699 202.689C391.699 178.754 372.247 159.345 348.244 159.345ZM300.928 202.689C300.928 176.618 322.115 155.488 348.244 155.488C374.372 155.488 395.559 176.618 395.559 202.689C395.559 228.761 374.372 249.891 348.244 249.891C322.115 249.891 300.928 228.761 300.928 202.689Z" fill="#DADADA"/>
<path d="M163.635 184.229C163.635 178.16 158.703 173.24 152.619 173.24C146.536 173.24 141.604 178.16 141.604 184.229V220.71C141.604 226.779 146.536 231.699 152.619 231.699C158.703 231.699 163.635 226.779 163.635 220.71V184.229Z" fill="#DADADA"/>
<path d="M134.112 191.701C128.028 191.701 123.096 196.62 123.096 202.689C123.096 208.758 128.028 213.678 134.112 213.678H170.685C176.769 213.678 181.701 208.758 181.701 202.689C181.701 196.62 176.769 191.701 170.685 191.701H134.112Z" fill="#DADADA"/>
<path d="M223.121 226.424C219.471 226.424 216.512 229.376 216.512 233.017C216.512 236.659 219.471 239.61 223.121 239.61H237.222C240.872 239.61 243.831 236.659 243.831 233.017C243.831 229.376 240.872 226.424 237.222 226.424H223.121Z" fill="#DADADA"/>
<path d="M261.457 226.424C257.807 226.424 254.848 229.376 254.848 233.017C254.848 236.659 257.807 239.61 261.457 239.61H275.558C279.208 239.61 282.167 236.659 282.167 233.017C282.167 229.376 279.208 226.424 275.558 226.424H261.457Z" fill="#DADADA"/>
<path d="M348.243 190.382C354.084 190.382 358.819 185.659 358.819 179.833C358.819 174.007 354.084 169.284 348.243 169.284C342.403 169.284 337.668 174.007 337.668 179.833C337.668 185.659 342.403 190.382 348.243 190.382Z" fill="#DADADA"/>
<path d="M373.802 213.238C379.643 213.238 384.377 208.515 384.377 202.689C384.377 196.863 379.643 192.14 373.802 192.14C367.961 192.14 363.227 196.863 363.227 202.689C363.227 208.515 367.961 213.238 373.802 213.238Z" fill="#DADADA"/>
<path d="M348.243 236.094C354.084 236.094 358.819 231.371 358.819 225.545C358.819 219.719 354.084 214.996 348.243 214.996C342.403 214.996 337.668 219.719 337.668 225.545C337.668 231.371 342.403 236.094 348.243 236.094Z" fill="#DADADA"/>
<path d="M190.496 302.025C204.854 302.025 216.493 290.414 216.493 276.092C216.493 261.77 204.854 250.159 190.496 250.159C176.138 250.159 164.498 261.77 164.498 276.092C164.498 290.414 176.138 302.025 190.496 302.025Z" fill="#DADADA"/>
<path d="M307.705 302.025C322.063 302.025 333.702 290.414 333.702 276.092C333.702 261.77 322.063 250.159 307.705 250.159C293.347 250.159 281.707 261.77 281.707 276.092C281.707 290.414 293.347 302.025 307.705 302.025Z" fill="#DADADA"/>
<path d="M323.128 213.238C328.969 213.238 333.703 208.515 333.703 202.689C333.703 196.863 328.969 192.14 323.128 192.14C317.287 192.14 312.553 196.863 312.553 202.689C312.553 208.515 317.287 213.238 323.128 213.238Z" fill="#DADADA"/>
</svg>
