<svg width="500" height="500" viewBox="0 0 500 500" fill="none" xmlns="http://www.w3.org/2000/svg">
<rect width="500" height="500" fill="#DFB8F1"/>
<path fill-rule="evenodd" clip-rule="evenodd" d="M149.626 117C129.888 142.66 122.794 172.355 122.937 188.084C122.97 191.738 120.023 194.726 116.355 194.759C112.687 194.792 109.686 191.858 109.653 188.204C109.483 169.527 117.54 136.957 139.081 108.954C160.873 80.6248 196.464 57.0003 250.797 57C303.669 56.9997 337.948 78.8334 359.181 106.393C380.186 133.657 388.163 166.142 389.605 187.705C389.849 191.35 387.079 194.502 383.419 194.745C379.759 194.988 376.594 192.229 376.35 188.584C375.035 168.921 367.666 139.141 348.641 114.447C329.844 90.0482 299.411 70.23 250.797 70.2302C200.93 70.2304 169.113 91.667 149.626 117Z" fill="#87A7E1"/>
<path d="M140.868 180.041C140.868 202.053 140.868 180.041 140.868 219.897C127.295 219.897 116.292 202.053 116.292 180.041C116.292 158.029 127.295 140.185 140.868 140.185C140.868 186.672 140.868 158.029 140.868 180.041Z" fill="#6D6D6D"/>
<path d="M115.229 180.052C115.229 187.822 115.229 180.052 115.229 194.12C109.58 194.12 105 187.822 105 180.052C105 172.282 109.58 165.984 115.229 165.984C115.229 182.393 115.229 172.282 115.229 180.052Z" fill="#6D6D6D"/>
<path d="M141.931 140.185H152.891V219.743H141.931L141.931 140.185Z" fill="#68AAF7"/>
<path d="M359.132 180.041C359.132 202.053 359.132 180.041 359.132 219.897C372.705 219.897 383.708 202.053 383.708 180.041C383.708 158.029 372.705 140.185 359.132 140.185C359.132 186.672 359.132 158.029 359.132 180.041Z" fill="#6D6D6D"/>
<path d="M384.771 180.052C384.771 187.822 384.771 180.052 384.771 194.12C390.42 194.12 395 187.822 395 180.052C395 172.282 390.42 165.984 384.771 165.984C384.771 182.393 384.771 172.282 384.771 180.052Z" fill="#6D6D6D"/>
<path d="M358.069 140.185H347.109V219.743H358.069V140.185Z" fill="#68AAF7"/>
<path fill-rule="evenodd" clip-rule="evenodd" d="M359.132 219.897L359.788 219.883C356.5 223.5 344.613 234.7 343.954 259.105C343.783 265.441 340.187 271.399 334.567 276.847C328.941 282.299 321.235 287.293 312.717 291.706C295.678 300.533 275.295 307.086 261.54 310.345L261.309 309.38C275.008 306.134 295.309 299.605 312.257 290.826C320.732 286.435 328.344 281.494 333.872 276.136C339.405 270.773 342.797 265.046 342.958 259.078C343.623 234.444 356.109 221.919 359.132 219.124V219.897Z" fill="#212121"/>
<path fill-rule="evenodd" clip-rule="evenodd" d="M138.523 218.267C140.663 225.429 149.172 245.71 166.016 269.222C171.25 276.528 176.706 281.208 182.321 284.285C187.939 287.363 193.74 288.849 199.684 289.733C203.33 290.275 206.995 290.588 210.706 290.904C213.076 291.106 215.465 291.31 217.879 291.576C224.043 292.255 230.29 293.336 236.536 295.841C251.746 301.941 260.848 308.638 265.845 312.315C267.357 313.428 268.493 314.263 269.308 314.723C284.459 323.251 298.156 323.25 308.86 321.118C314.218 320.05 318.828 318.449 322.507 317.107C322.915 316.959 323.311 316.813 323.697 316.671C325.046 316.176 326.258 315.731 327.309 315.388C328.648 314.952 329.793 314.658 330.67 314.658C344.938 314.658 356.589 325.669 360.898 341.236C365.213 356.823 362.206 377.038 347.166 395.673C329.414 417.669 314.434 424.537 298.247 425.852C290.183 426.508 281.838 425.784 272.751 424.903C272.13 424.843 271.506 424.782 270.878 424.721C262.303 423.884 253.039 422.98 242.66 422.98V421.988C253.089 421.988 262.398 422.897 270.968 423.733C271.599 423.794 272.225 423.855 272.848 423.916C281.944 424.797 290.204 425.51 298.165 424.863C314.026 423.574 328.771 416.881 346.389 395.052C361.243 376.646 364.161 356.757 359.938 341.5C355.709 326.224 344.359 315.65 330.67 315.65C329.969 315.65 328.961 315.894 327.619 316.331C326.588 316.667 325.399 317.104 324.054 317.598C323.666 317.74 323.264 317.888 322.85 318.039C319.16 319.385 314.491 321.008 309.056 322.091C298.173 324.258 284.222 324.257 268.818 315.586C267.91 315.075 266.699 314.185 265.111 313.017C260.064 309.306 251.208 302.795 236.164 296.762C230.039 294.305 223.894 293.237 217.77 292.562C215.411 292.302 213.042 292.1 210.678 291.898C206.935 291.578 203.203 291.26 199.537 290.714C193.525 289.821 187.598 288.309 181.841 285.154C176.081 281.999 170.516 277.212 165.205 269.798C148.306 246.211 139.744 225.831 137.568 218.55L138.523 218.267Z" fill="#212121"/>
<path d="M157.487 347.669C154.545 343.038 155.929 336.909 160.58 333.979L204.344 306.403C208.994 303.473 215.149 304.852 218.091 309.483L275.083 399.195C278.025 403.826 276.64 409.955 271.99 412.885L228.226 440.461C223.576 443.391 217.421 442.012 214.479 437.381L157.487 347.669Z" fill="#B9B9B9"/>
<path fill-rule="evenodd" clip-rule="evenodd" d="M205.054 307.521L161.29 335.097C157.26 337.636 156.06 342.948 158.61 346.962L215.602 436.674C218.151 440.688 223.485 441.883 227.515 439.343L271.28 411.767C275.31 409.228 276.51 403.916 273.96 399.902L216.968 310.19C214.419 306.177 209.085 304.981 205.054 307.521ZM160.58 333.979C155.929 336.909 154.545 343.038 157.487 347.669L214.479 437.381C217.421 442.012 223.576 443.391 228.226 440.461L271.99 412.885C276.64 409.955 278.025 403.826 275.083 399.195L218.091 309.483C215.149 304.852 208.994 303.473 204.344 306.403L160.58 333.979Z" fill="#212121"/>
<path d="M169.872 349.246C167.421 345.387 168.575 340.279 172.45 337.837L202.515 318.893C206.39 316.451 211.519 317.6 213.97 321.46L229.096 345.268C231.547 349.127 230.393 354.235 226.518 356.677L196.453 375.621C192.578 378.063 187.449 376.914 184.998 373.054L169.872 349.246Z" fill="#DADADA"/>
<path fill-rule="evenodd" clip-rule="evenodd" d="M203.225 320.011L173.16 338.955C169.905 341.006 168.936 345.297 170.995 348.538L186.12 372.347C188.18 375.589 192.488 376.554 195.743 374.503L225.808 355.559C229.063 353.508 230.032 349.217 227.973 345.976L212.848 322.167C210.788 318.925 206.48 317.96 203.225 320.011ZM172.45 337.837C168.575 340.279 167.421 345.387 169.872 349.246L184.998 373.054C187.449 376.914 192.578 378.063 196.453 375.621L226.518 356.677C230.393 354.235 231.547 349.127 229.096 345.268L213.97 321.46C211.519 317.6 206.39 316.451 202.515 318.893L172.45 337.837Z" fill="#212121"/>
<path d="M207.166 342.244C209.878 346.513 208.602 352.162 204.316 354.863C200.03 357.563 194.357 356.292 191.646 352.024C188.934 347.756 190.21 342.106 194.496 339.406C198.782 336.705 204.455 337.976 207.166 342.244Z" fill="#68AAF7"/>
<path fill-rule="evenodd" clip-rule="evenodd" d="M209.006 341.257C208.761 340.871 208.876 340.36 209.264 340.116L215.897 335.937C216.285 335.692 216.798 335.807 217.043 336.193C217.288 336.579 217.173 337.09 216.785 337.334L210.152 341.514C209.764 341.758 209.251 341.643 209.006 341.257Z" fill="#68AAF7"/>
<path fill-rule="evenodd" clip-rule="evenodd" d="M182.153 358.177C181.908 357.791 182.024 357.28 182.411 357.036L189.045 352.857C189.432 352.612 189.945 352.727 190.19 353.113C190.435 353.499 190.32 354.01 189.932 354.254L183.299 358.434C182.911 358.678 182.399 358.563 182.153 358.177Z" fill="#68AAF7"/>
<path fill-rule="evenodd" clip-rule="evenodd" d="M188.341 345.707C188.241 346.153 187.796 346.433 187.349 346.332L179.691 344.616C179.243 344.516 178.962 344.074 179.063 343.628C179.164 343.183 179.608 342.903 180.055 343.003L187.713 344.719C188.161 344.819 188.442 345.262 188.341 345.707Z" fill="#68AAF7"/>
<path fill-rule="evenodd" clip-rule="evenodd" d="M202.86 336.559C203.307 336.659 203.751 336.379 203.852 335.934L205.575 328.307C205.676 327.862 205.395 327.419 204.947 327.319C204.5 327.219 204.056 327.499 203.955 327.944L202.232 335.571C202.131 336.017 202.412 336.459 202.86 336.559Z" fill="#68AAF7"/>
<path fill-rule="evenodd" clip-rule="evenodd" d="M210.643 348.81C210.743 348.365 211.188 348.085 211.635 348.185L219.293 349.901C219.741 350.001 220.022 350.443 219.921 350.889C219.82 351.335 219.376 351.614 218.929 351.514L211.271 349.798C210.823 349.698 210.542 349.256 210.643 348.81Z" fill="#68AAF7"/>
<path fill-rule="evenodd" clip-rule="evenodd" d="M196.124 357.958C196.572 358.059 196.853 358.501 196.752 358.947L195.029 366.573C194.928 367.019 194.484 367.299 194.037 367.199C193.589 367.098 193.308 366.656 193.409 366.21L195.132 358.584C195.233 358.138 195.677 357.858 196.124 357.958Z" fill="#68AAF7"/>
<path fill-rule="evenodd" clip-rule="evenodd" d="M205.554 356.54C205.941 356.296 206.454 356.411 206.699 356.797L210.896 363.403C211.141 363.789 211.026 364.3 210.639 364.544C210.251 364.788 209.738 364.673 209.493 364.287L205.296 357.681C205.051 357.295 205.166 356.784 205.554 356.54Z" fill="#68AAF7"/>
<path fill-rule="evenodd" clip-rule="evenodd" d="M188.564 329.797C188.952 329.552 189.465 329.667 189.71 330.053L193.907 336.66C194.152 337.045 194.037 337.556 193.649 337.8C193.262 338.045 192.749 337.93 192.504 337.544L188.307 330.938C188.062 330.552 188.177 330.041 188.564 329.797Z" fill="#68AAF7"/>
<path d="M250.228 381.248C257.459 392.63 254.056 407.695 242.626 414.897C231.197 422.098 216.071 418.709 208.84 407.326C201.609 395.944 205.012 380.879 216.441 373.678C227.87 366.476 242.997 369.865 250.228 381.248Z" fill="#DADADA"/>
<path fill-rule="evenodd" clip-rule="evenodd" d="M241.916 413.779C252.725 406.968 255.944 392.72 249.105 381.955C242.266 371.19 227.96 367.985 217.151 374.796C206.342 381.606 203.124 395.854 209.962 406.619C216.801 417.384 231.107 420.589 241.916 413.779ZM242.626 414.897C254.056 407.695 257.459 392.63 250.228 381.248C242.997 369.865 227.87 366.476 216.441 373.678C205.012 380.879 201.609 395.944 208.84 407.326C216.071 418.709 231.197 422.098 242.626 414.897Z" fill="#212121"/>
<path d="M233.89 391.37C235.483 393.877 234.733 397.195 232.216 398.781C229.699 400.367 226.367 399.621 224.775 397.114C223.182 394.607 223.932 391.289 226.449 389.703C228.966 388.117 232.298 388.863 233.89 391.37Z" fill="#EA4D67"/>
<path fill-rule="evenodd" clip-rule="evenodd" d="M231.861 398.222C234.068 396.831 234.725 393.922 233.329 391.724C231.932 389.526 229.011 388.871 226.804 390.262C224.597 391.653 223.94 394.562 225.336 396.76C226.733 398.958 229.654 399.613 231.861 398.222ZM232.216 398.781C234.733 397.195 235.483 393.877 233.89 391.37C232.298 388.863 228.966 388.117 226.449 389.703C223.932 391.289 223.182 394.607 224.775 397.114C226.367 399.621 229.699 400.367 232.216 398.781Z" fill="#212121"/>
</svg>
